<mxfile host="app.diagrams.net" modified="2023-12-18T15:21:50.465Z" agent="Mozilla/5.0 (Windows NT 10.0; Win64; x64; rv:109.0) Gecko/20100101 Firefox/115.0" etag="qDCq9nFUZaM_mum_iBT7" version="22.1.11" type="device">
  <diagram name="Page-1" id="4UURUv6fNhPE5xnEzwsr">
    <mxGraphModel dx="4041" dy="1714" grid="1" gridSize="10" guides="1" tooltips="1" connect="1" arrows="1" fold="1" page="1" pageScale="1" pageWidth="850" pageHeight="1100" math="0" shadow="0">
      <root>
        <mxCell id="0" />
        <mxCell id="1" parent="0" />
        <mxCell id="ZFCfkoxtxYTRv5SqpdLA-1" value="" style="shape=image;verticalLabelPosition=bottom;labelBackgroundColor=default;verticalAlign=top;aspect=fixed;imageAspect=0;image=data:image/jpeg,/9j/4AAQSkZJRgABAQAAAAAAAAD/4gIoSUNDX1BST0ZJTEUAAQEAAAIYAAAAAAIQAABtbnRyUkdCIFhZWiAAAAAAAAAAAAAAAABhY3NwAAAAAAAAAAAAAAAAAAAAAAAAAAAAAAAAAAAAAQAA9tYAAQAAAADTLQAAAAAAAAAAAAAAAAAAAAAAAAAAAAAAAAAAAAAAAAAAAAAAAAAAAAAAAAAAAAAAAAAAAAlkZXNjAAAA8AAAAHRyWFlaAAABZAAAABRnWFlaAAABeAAAABRiWFlaAAABjAAAABRyVFJDAAABoAAAAChnVFJDAAABoAAAAChiVFJDAAABoAAAACh3dHB0AAAByAAAABRjcHJ0AAAB3AAAADxtbHVjAAAAAAAAAAEAAAAMZW5VUwAAAFgAAAAcAHMAUgBHAEIAAAAAAAAAAAAAAAAAAAAAAAAAAAAAAAAAAAAAAAAAAAAAAAAAAAAAAAAAAAAAAAAAAAAAAAAAAAAAAAAAAAAAAAAAAAAAAAAAAAAAAAAAAFhZWiAAAAAAAABvogAAOPUAAAOQWFlaIAAAAAAAAGKZAAC3hQAAGNpYWVogAAAAAAAAJKAAAA+EAAC2z3BhcmEAAAAAAAQAAAACZmYAAPKnAAANWQAAE9AAAApbAAAAAAAAAABYWVogAAAAAAAA9tYAAQAAAADTLW1sdWMAAAAAAAAAAQAAAAxlblVTAAAAIAAAABwARwBvAG8AZwBsAGUAIABJAG4AYwAuACAAMgAwADEANv/bAEMAEAsMDgwKEA4NDhIREBMYKBoYFhYYMSMlHSg6Mz08OTM4N0BIXE5ARFdFNzhQbVFXX2JnaGc+TXF5cGR4XGVnY//bAEMBERISGBUYLxoaL2NCOEJjY2NjY2NjY2NjY2NjY2NjY2NjY2NjY2NjY2NjY2NjY2NjY2NjY2NjY2NjY2NjY2NjY//AABEIBDgGNQMBIgACEQEDEQH/xAAbAAACAwEBAQAAAAAAAAAAAAAAAQIDBAUGB//EAFMQAAEDAgQDBQQGBggEBQMBCQEAAgMEEQUSITETQVEGIjJhcRRCgZEjM1JiobEVQ3KCksEWJDQ1U1TR4SVEY5Nzg6Lw8QdFVSZksjZlwtKElKP/xAAaAQEBAQEBAQEAAAAAAAAAAAAAAQIDBAUG/8QAJREBAQACAgIDAQADAQEBAAAAAAECEQMSITEEE1FBFCIyQmEj/9oADAMBAAIRAxEAPwDo7qD22UWShpyuV1rhc3RSBrus9fh7K2G2jZG+ErQRZyk19kHBoKOakqc8hGXbRd5gDmZgqquEOAewHzVNNMWOyHZGm3KkpByCVWUbounoUZboBARkKViDqCgkE1EFSQCaSEDCfKySaATCSaBoQhBIJqKaIakFFMIJhSCgCpAoqQ3TUQpBA01FMIiSaQTCBp5QeSQUggbC5vhcR6FXNqZW7gO9VSmg1NrGnxNLfRXMmjds8LAlYHf8FqI6qFyg+RkzGse4CxJC0tqpBo5od6Ko2IVLalh3u0+ata9rvC4FENCEIBCaSAQhCAQhCAVU57gA3JsFaq5Rdnx0PRBnYSJWNdoTyWkqmODhyMsS6wOrloIuioIUsoSylRdkkg3HJJQBSTSRSQhCIRUVJRRQkmkiEVFSUUUkrJpIEhCSAUSmkoIpFSSKCKRTSKCJSUlFAkimhFRUVIqJRCOiMxGzkckkEhKeYBT4gKrSQXXBTWe6kHoLCkVW2YOLh9k2TLrqiE0Ucli9gcR1UXvUiVS/i8ZuVo4dtSghJUStkDWxEjrdcvGa3MBA12g1dY7+S6NbM2mgc9x1OwXlZi+pnEbLl7zyViNOF0ft1aHvF4Yzc+ZXqDbQW0tosDI3YbRxxQMDjcZh1WsPzNFxY8wgZUBmkkDGgm6Uj8q34bTiNhnk25XUReclDS2afpHBcmR273FaKufjSk30C588hc7IFQoy+eTK3Qcz0Csle0vETfAN/NSsKeIMb9Y7fyVfdjALtSlGylylplOjW7BYa2o4zySbNaomZ5zNb3WuOgC5OIVWY8CPf3iosEk4ml37jT81U93EfYbKjNazWrZRw3dc8lFXU8Qjbc7q5xsLlJxsoWMjg0KK6OFw5o+M8X10C11Ewi7rfGd/JKjbwKDzaCVjBLnXO53VZqMPBjrzJVOAhaM1j7x6LLiNWaiX6Hu5zaKPopVQ4s72HYJ0FM39IMc7UgG1+S1EXmjFPDGx2ryLuKr4bVurvrWj7qz2CKoMMZ8TbqBpIj9WS0+a02CWVBQyORgto74rOalpcRwzpubaLfZVvgY5paBlJ10QV0sXEPEdtyC6DdvIKiNuVoA5K1psoNDGlxAC1tiawAga8ys9AS9zyRoAtiURsiyklZQRIB3F1TJSxyGwGUq92iUerkGN+Hyg6FrmphnCFrbLfsVPIHjVoKDnjVQqauOjhL3kack8QqoaO7WkGS2uujV5OaSpxmr4FMHFl9SrBlrZ6nGK6+riTZrRsB6L0+C4JHQsEkozTEc+S1YThEWHRC7Q6U7usulbXzVEQCrWt6pZUvpGcswUFoHJZqmsjp7i4LlTXYi2njtbK62pK87NJUVc4jju4P5hBqrMSfK4sY67vJFFhNRVuzSEsB5nmunhmDRU7Q+YBz9/RdUC2gFh0CDDDhEEA7jQ53VymYpItMth5DRbQCpAlBzHajU3XHxQAPlFuQXqXxsfu0X6rzGODJUzgbA2Wa3i2YJWVdPh0IiDXR20Dm3XRkldM3O5rWE+60WCy4RE4YTTENOrOi0v8K1izVSLJoWmAhCAgaE7JINFAWsrWOcQAGk3KnVVhcXNi2+0sqSCJve5NyeqE7IsgiUlIhKyoSEIQU1WsUfnI1WndVVP6kdZQrjuVBFCaSoCs4/vZx6QD81oWdv96VHlEwfmgtm+pkP3Vg90LdObU8nosWgaFBEqJ0Uiq3EhwQNJPkkUDCyD60nldab6rLH9YfVQdCm2W5gWKmGy2s2QWtVjVBqm1UTCkFEBSCgkEwkpBAxumlzUlVCaSaIaEBNFJNCEAhCEAhCEAhCEQIQhB5ISyEC7zfzWiLEJYwA9geOt1iDrFTvdc3R0P0jA7RzXMPzUhUQu8Mg+Oi5hCjYdFR243gjQgrHUs4T7g2B2KwBz2+FxHxRNNLLEYpHZm+fJDboUeIRSyGAvaXgbBbb6rxDxLSVPEjJaWm4K9PRYpDVQte5+V9rOv1VNuggO1UWSNeO64O9Cggg7KItDk73VQJUw5FS06JFoTuhBG3QpEkJlJAB/UWTzhK10ZQgeZMOURH0KMpHmgnmTzKA9CpXQPMVLMoKQCBhykCopgaoJpjdRTQWAqQUAdFJqCQTCEwEAmiylZEATQE0AE0BCCQRZA2TRCH9pt0YrAq261DyOTQFYFQJgDkhMIJNe9uz7+RVjZ3DxNHwVSapppbK087KYN9llAHRSboVU00IUGFTRAhCEAovHcKkk7wn0QIAXupJDQC+6aAQhCAUS0HkpIQVmPoVDhvGqvQobZjpui60FoO4UHRNPKyLtVyUVYYXDYhVuaW7gqKSRRmS3VAkU0lAkkyooBJNJAkk0kCSTUVFIpJpIEkmhBFIplJFRKiVMqKCJSUiEkEUiFJJBFIalSslsHHoERTDqxzuryp3UYNIG+eqlZAXQTzJ0RZc/GKsU8PBae+4a25IOTi9YJZzY9xugWzAaExxmqlb336NB5Bc3D6U4hWAG/Dabu8162JgFmgWAGgVRlnF54m+pTctDoBJiLBewbEVGrpXRRBzXggnbmqKaWE1NQL+EHVbq2drAIYzoN7KmN7aenyt8RG6wSS2O+6hRI+xNkRNay8r9hss7GPkqS5z+7zAWn6x19o2IgAJJkduVRI7M7yV7WzVRy00L5AOYGnzVv6LrbawOHwVVxMSq/Z2cOM3lePkFyg1wG9ydyu3iWBVb5uM0agWsQuc2gqo5LStyhBKgpszszhey6AAadGgeiI4xGywKi93JTSoSG5sFvoaQBvEf8FRS0+d3e2XUaQwanTkFBOYhtI8czoudHuFtqHZYSDq5wHwCxxRSTOEcQu7zKqMrrGZ56uWugbetH7JXNeZIZX52jR1tCu1hUBbHxXeJwt8FUKv/ALQP2VmWmu1qnDoAs9tECRZOyaikAiyaYCAbsmEkxuFRtw0d162BqzYb9U8+a2WUFdk7aKdlF72xNLpCAAL6lQZql4jFyVOlBc0O6rg4jiPGkJZ4Wq+l7T0cbmsnZw2gWzN1QegbGHOAINl5zF+0TKCOSlo3cSpc53fJ0jF/zWfHe1bHRmmwtxs4d6a2o8gubgOAzYpNxZLtgBu5x94qwVYbh1djFQRncWON5HnmveYZhdNhlOI4mDNbvOO5WilpYaOBsMDA1o59VdZUQawOdYgKiGIyRl4PvEfitjW9/wCCoov7KzzJP4oIOjc0armYhXiFha246ldx72RRuklcGsbqXO2C4MzpO0M4hpogyjjN3TEauPkoOLHFUYtUBjAQ2+56L0lFh0FCwNYM0n2it1PQR0sLYoGgW3PVRjBe0uaNA4tv6IAAJgJgJgKACYQAnZADcLyXaA/TVZ5hxXrmjvBeTxFomrKvNsHOUbxekwdoGE0Y/wCmFTONTba614cA2gpgBYCNqyTHU+pWoxfalCELTNCYSTCoaEIUAhCECRzTSQCipJIIlCaCgon1lph1eT+Ct5lVy/2mmHm4/grVREpKSSBc1ni1xKsPQMH4LUBqs0GtZXn77R/6UEqj+zyfBYmnv2cNLaFbar+zO9QsiCJCg8DQqZ3UXHRQR5JIRqgV/wAFli8RPmtDja58lnpxqg6NPyW5myx040W1igtaphQarGoJBSCiFIIGFIJBSCoaaQTRTCdkk0AmhCAQhCATQhAuSEJoEhNCBITQiPIVMXDdmb4SoNct5aHtLTsVzZGOhlynY7FYbW7qJQ0qVkELKDgrSFB4QZamISR25rDDJwJMrh3Sum4XWOqp7szDdVGpl2gOYSL9Cr2VNUzwzH4rm0NR3uE/4LeitbMRmA77GuWqDEoHjv5mHzXKsnZvMKD0DJo5Bdj2n0KstovOZQPCLHyNlfFU1EfhlJHR2qK7RKS5zMTlb9ZG1/por24hA4atew9CERqumCqWTRv8MjT8VZqirApKoHRSjkDhaxBCCxKwRdCAy+aACOd00ID1QDqgXHNNBK6YKhYFMCyCYKkCoJ3QWtKmCqWlWNKCakFAKYRDTCSAgkmohSQMJpBSbuFURi+tmPmArFVBrxj1erUDCaQTVEgmkE0DbfqpKIUwgsYpqDFNIlCEIVQJOdZNQegC4WBPJSBB2KrdsoadEXTQhUZnDnopcUjcX9ERahViVp3uPVTDmnYhA0IQgEIQgEEIQgrexp3aFU6FvulabJFoKLtjMTx0KgSW7hbHM6FVuY7nqou2XMCldXuY3mLFVmMDYoIJJlrgolQBKV0HZRugkkVHNYHMmb6IEkmkopJJpIEUimkUCKRTSQJIppFFRSUlEoEoyG0Mh6BTVVRpTuHUgICNtoWDyTUiLABKyIhLI2GN0jyAGheUrpn1VQbauebALo43WZ3cFps1m/mVHAKIySGrlHdGjAVYOnhtE2io2s986uK1tIYHPcbNaLkpu1WDF3OFIxjHFuZ+tuiqNlLUwTVjpGTNI4YGpslVyksdO76tug6LgtY0AAt16qUhe+LhGZ5j+zfRBpfWNbGXErZRQRw0zquv3kH0cZOtlxIY2RVMckwdJE03LAd1qxTEhWVTHshcyKJtmZt1EaYwH3ZG3KXG+vIJSSMc/htuY2bn7RWSesENHEI3gSzauHMKyhBkjzjw3/FBsdUVEjQwSGOMbMZoLfBUvkkije9ssgygm5eVYdAsNbMBG9gO4VFUfaqtpgMzs7eh/wB12KTHY62mbJPRMLDzGhXiZ/Cu9hreHh0LfK6iuy4YRUA/WQO6HZVuwgGzqaqZJ5E6rHHFxJLWutrKZjBa34oqTKCuboGRNHUlWBghP1glm6DZqrbACfE+37SlIREzLH4uZUFLKeWqqHG9mt681Y+Iwd6SMOGwIOieFShzp2bltldiRtTtHmqjjspmyEHJoHa22Xep2hrGjkAudTt/qwd9p66cOzVRz6v+1vVKsqf7Q8+aggSLIsjkFAJhIJqgQhCg6WGt+gd5lbAFRh7bUbT1KtmlZBGZHkAAIFNK2CMvkOg5LzNZVz4jUGGEEi+gHROpq58TnLIgXDoFhpMcnoOIyOlhLtg5+4+CiyO7JhUNFgk2eMzSvFrjkV4qogMeZmWzgdR0XcmxyurBHncxoab2aNCVjnhLCZ5HBxcdet0amLHh9IJJ28Ruh3HRfS6JjGUMLYmhrco0C8JQRe1QzOYSXWytaNyV7LC8SoJ6WGBlVHxY2hro3GxuPVVK6ABRYhTDS3f5otoqyTd3eiwtrKagw2B9VIG3bcDmfRXYjWwYdSOlnfYkd1vMriYXhUuJmOqrb8Fo7jXILY4artHNxKkGDD2nuRA2L/MrvwwxwxtiiaGMZoAFJoDGBrRYAaAKY2QJn1gWXC+9h7HHd7nO/FankRxyP+ywn8FThzMmG0w/6YUFpia7cKJp+hVuVSyoMjo3tOoSA11W0JOjY7kgzNHeb6ryFQOJUVnO5evbCns64K8JWSOjmcW7mQj8VK3i9hSty0sLTyiH5LnynZdUNywjyZ/JcmXZq1GKghCFWQgIQgaEkIJIUbpoGhJCASUkkCSOyaEFL9auAdGuKsVbv7dH5RH81YqBJNIoBviCy0ustcf+vb8AtY8Q9Vkotqp3WocglV/2b1cFlJstVbpA3zcsgOtlBEqDzorHblQeLhBAa7Ji4SGiM1igjJYsd6Kin5K99ix3oqacaIOlT7LYxZINlrjUFrVMKDVYFRIbqSiFMIGFIKIUggkmEgmEU00k0AmkE0AhCEAhCEAhCEAhCEBZCaEHnToF1/0TSVFLHxo7uLb3C5QbctHUr0wFmNFtgFhpxndmqU+CaVn4qp3Z2YfV1LXftBd5F1UealwSvZs2N/oVifQVrSc1LJ8BdeyulmI1vp0QeEkiewgPY5pPIiyjkX0Gqw+DEaMRTtBNrtdzaV47EcMnw6QslF4792QbFB5utpzBJnbsdb9FtoqgTxAXGcclokiEsZa4aFcbJJRVVxsD80HasUWUYJRPGHt+IVllFATTDSmGnogjZMAKYYmIyghYeim18jfC9wUgxMNCgsZWTt8VneqvbXt99hHoFmsEWCo6LKqFw0fb10VrXNds4H0K5VggabEj0KDr7JgrmNqZWaB1x5qRxJ0ZGeMOvpog6SFnZVxuHeJaeitbIx3heCirE1EBMaKCQRqgJhUMKTTqkFMAdEEhcqY0UWaKwIhJhSDQeSeQIIphPhnkjKRyKABUhuo2Kd7NJ8lQqf6onq4lWquHSBvmpoiSYUQne3JUTCaiCmEEwmEgpBRU2KxVs3VirNCEIVQJEJpFSiBCiVMpKNIJKZCjZBE2SICkkgM7xs75qQmcNxf0UEkF7Zmny9VIOa7YgrKolo5XCqabkLEHvbs8+hUm1Eg8QBVNNaFQ2pjO9x6hWCRjtnA/FEPM29ri55XQVF8Mcjmuc25bsmSopHVVuY3pZWFQKKqMfQqDmHmFekisrmj0UDGtTrHkoFoKDK5hNw5uhVR4kef3m6ZR0WwxkbFRcwqDOCctygOB2KmYwFAttsgEKJNlHOFBNBSvoi90CSTUUAkU0igRSTSQJV1HhYOrwrFXLrJAPMlFTdqVlxCpFLTFxIzkWatJIAJOw3Xl8WrDUTOt4QbNCIzwwPxCtETTubuPQL1scbYYmxsFmtFgsGB0PslLnePpZNSei6SBKL+GcrHxh+Y6AqTjlBJ2CIY87RVOIEbTl1VRlNHTtjlkzObKH5WgbALLDQTOmvxOIDs21itTn55Hu5EnRbaN7IaQVR1zaMVHBqKeSKqMZgkaPtHZUTRiNwa57deV12nF1TMcxu293KNVFT5O/C1zzo241CDhPZfdmnUpw1ElK3JHYtvexXRmpXSsa1kpYB0ConphHFrEJHD3gbXUFZxO7SHQ2PUFZHu4lyeav9la6Ivz5SNweSzyxlsJe2xA5hVHOqWAaLvUjCaeFtvdC87M4l1yvaUFOGwxucPdBUqpwwiJo+0VZl1spkaoNmDM5RUXERt81inm4bS46kq17y51+XRZZu84X2vZB0sNpvZ6bMfHIcxUcT+qW3TugcgAsOKH6E+tlYiEXdpIB1N1vj5LGW2ZA3oFsZoD6K1HMnIMz7dVBMi+vmUlFJtyTpZOyEIBCEIBBQhCOpDOymw9r3226rz9RU1OLVYgp82Un4AKdW2ora/2OIHK3c8gu1FHS4FR2FnTEfElAoaOnwjD3AkcZ4tm53XiarI6qe2I5hfddHE6mtxOqbHFd75Ng3kF6LCezNJR0zfamCaU6ku2Hoo1Lp5SkjPEhjJIa5wBIFzZdntLh2WSkp6SI5MvedyJXpW4fRiRj2QMYWbABGIgOoZ5HDWJhLVV7PHYThuIP4r6WMBjGkFztLnyXJq8IrIbSTU8jSdcwB/Ne7wN/wD+nnPGmjyV1YtaaJj25m5BoRfkkZt2+aUWOYrh1mw1L3MGmSXUfiu9SduiI7VdD3+Tozp8l1cfw3DW0mY0+WeQ2YGcyuS/sVKYGPilaXkXLHclUXUUlFjRlrKqtY+cAlkJNsvTTmvVxMyxMAAADR6L5pXdn6yjJfJARl95vL4p0WN4thtmxVLiwbRy94Ij6ZZStdeToe3LHANxGkLLbvi1HyXoKHF8Nr7Glq2OcfcJsfkUVbiJLMNqnc+E4fgrYW5YYm2sGsAXP7RVBhoBCzV0pFyel11Kd4lponuHiaCgALp2U9LbIsoI5U8oUgEIEBqvnVUc1TG085v/AOpfRXd1rj0C+ekB2J0jes7fzUreL3c7Q2meejFw5NwPJd6sNqOW/wBlcGTxD0Wo5oIQhVAhCSBpIQgaEkKh3RdJCBpqN00DSSTOyCr/AJ+/SL+asVbda2XyjaFYgSEIQNgu9vqslDrTyu+1O8/itkf1jfVY8O1oger3n/1Ih1p+hZ+0sdiDfktdd4Y2+ayvvlRUSUbhRBuVIDkoIWS0VmxSLQQgqkFonHyVUA2V0rfo3HyVcHJB0IBotTFng2WlgUFrVMKAUwqJtUhsohTCBhSCipBFNSCSEEkIQgE0IQCEIQCEIsgEICEQIQhAIQhByKaPNURNP2gu846lc2kiHtbT01XR53WGwhCFUCSaBq5o80HQYMrGjyUainjqonRzMDmFWIVR4rFcGlw+QvZd1OToebVx62hM8RLPGNl9MexkjC2Roc07grzOK4M6lcZ6YF0PNvNqDwFHVmkqMr9G3s4FekY1j2B7dQdiuVjNA2Qe0QjXmFHBq/KfZ5TYe6Sorthg6IISzDqkXooLUwFEuSzKCZSuAo3JRrdQSDk7+ahYosSgndK6jkTDVVO6qk70sY+Kuyqtrb1FugRFqjKRlHLXkrLKEjb5B5oLmPe22R5CvZVSjxAO9VnCmEGptWD4oyPRXMmY4aG3qsIUwg6DTfYgqwFc0EjY2VzJ5G87oN7SrGlYG1Rvq3TyWhlTEdzl9UGpjwTZWBUNc06tc0+hVgJCsFoT30UAVIKola+hUZGARPPRpUgUqg2ppPMWQKOE8BltO6jgyDofRXNFmNHRoUg3zUVn1G4I+CARdag1w6FMsa7dg+SIzKQVvAby0RwHcnX9UEQmEZHDl8kwCNwUEm7q0Ktu6sVShCEKoEimkVBEqKkUlGiS1TSQIpJlJAkkykqEkpKJUCSKZRZBAhRI/wDYUykqEHvbs8qYqpB4g1wVZSQaBVMPiBapB7HbOCyFLRBsSKx53t2cQh1S9gBc0OubKDUVEqttXG9xaQ5pbvcaKeZp2cPmgEknPa17WFwzO1AQUCIvuoOYCpqJQV5LbKLmA7gXViSKoLQ081EgjXzWggHkolg5IKLFF1YWKDmXPogiSgoLSo2IOqgaSDe6RQCqcf6w0dGkqxUTTNhfLI7ZrbC6QYsbreDFwWGzneJc3BKI1dT7RLfhRnTzKyVDpa6s4bSTJI75L1dJTtpaZkDBbKNfMqi1CaTiGtLiiUuCal5p2va1zmnxKvEKiNxFLTubw4Rlfl2LlJzvZaYzOH0svh8gsdPG6eS3vE7qxF9JRiRwEjnZXAlwvawSqpeI5sUAyxs7sbR06rRUOZSxuja67nDvuvr6KimisDI7nt6IJsDYIi53LfzWUEveZH6k7eQVkr+K+3uN/FQtZRTJAFzyXOqJnTSZGbK2ql9xu56Ip4gwZiNU2JRRCNuoDr73WXES1lHIGtAvYWC1udcrPWwOko3mxNiCg83No74r38LfoYrfYH5LwVQ36T4r6HBkkp4nRva4Bg2N0qoZcoLnbLJNJxTYaNH4q+qdn7gNmrFK7KwgaWWVVTP7wAVDpPpYm9XtH4o4gJvdKNofVwf+ICiPSe8QudiZBbGOr7rbVTR0rHTSGwBtbqubXytjqacvNmZc9+gW4jU8WkaOi0t2P7JXlpMYqJ8Uj9kBbT5w1xLdHC/Veq2Y4/cKVHJGyEwO6EWUCskpIsqqKE7J8lBFMbhCbPG31QKeeOlqLGpZDK/WxO6yVENRUEyMkEpPO9wucMJqcZxyoaA4Rtf3nkaAeS91h9FT4bTCngYMtu8SL3KquTgYoqCO8txUP8T3Bd2KSOXWKRrvQqqSjo5vHCWnq1ZJcEAOakqC09DoVEdTKRuFnxMEYVWf+EVzHVGIYfpMDJGDbMdR81bU4nHU4XUtAIcYiLIIYKbdk833HldyOwijvtkF/kuFhL2s7KCIkZ8jhb1W/G6n2XBpXtNnuaGN9TogxURdi+PS1R/s1N3IhyJ6rvjqsOB0go8LhjtqRmPmVvsqM+IvAoXZhcFzRt1ICrqcHoKsWkp2tdbdosp4iP6tGDzmj/8A3gttlUeSrexTCS+lmsejl5+t7NVlI7MYX6e8z/VfTVIi4sQCOhQfMsK/ScmIR0wkkkbs4Sm4Dfiu9B2ygpJXUlZSvEcRyCWPUG3kvUOoqdxcRE1r3Cxc0WK87Wdjo3uL4JTcm9naqDs0OMYdXgGmqo3E+6TY/JdCy+cVfZuqpCXcJ2nvMRS4pjOH92Kd0jB7kmv5or6PZFl5Kj7ahpDMQo3xH7bNR8l6Cjxahrmg01RG4n3SbH5KI01BtTynow/kvAwDPjFCP+qCveVhtRTnpG78l4fDxfH6Bvnf8CpXTD1XtcRNqKTzt+a4cmrz5LtYmbUlurgFxX+MrUc0Uk0KoSSaSAQhCoSaEkQ0JIRTRdJCBpqKaCpn9rqD0DR+CtVUWs9SfvAfgrFECEIVU4zZ91lw0Ww6HzufxK0jTMegKooRbDqcfdQQrfFF8VRur6zSSP8AZWcnogWQEqLgWkFWKJ1UCuDukQpABIt80GeovkKjBv8ABTqfqyowqDoQbLUxZoPCtLEFrVNqg1TComFIKIUwimFIJJhAwmkFJAIQhA0IQgEk0IAIQhECE7c0IpJosmgSEIQYcIL3yyFzibDmumsOFMyxyu6my3LDVCEIVQKUTbzsHmoq2lF5/QINvNCfNCqEnoRY6hCEHncYwEPzT0bdT4o+R9F8/wAToX0sxka0tbfbmCvsK8x2lpYJqjh5Bd7Lu80V5fDKoVcVifpGbhbQyy87KybCsRsL6ag/aC9JTTMq4GzM2O46FShZQmAFMtUbKKYATUbFPVA/ghK6aB2SsmChAWVUOsr3dNFY42BPRV0pvGT9ooLlB3jHkrFWNZUE2uuVYFEWCkEDG6mFAJ3QWCykFAFSBQTCdlEFSQOwG1wfJXMnmZ4ZD8dVSCmCg1tr5B442u8wr46+I+LM34LnEhR4jVR3GyxPHdkaUT6wW6kBcMOB5a+qk2aVpAu6wN7E6Ko9CXAOt0Cdza4XKZiU2xa1wWhmJx+/G9vmNUHQjkLtC0gqwLJHWU8lsso9DotLXAi4II8kE7JgACwSTRkIScbDQXSa7MNiPVUPKE0IQCEIQCChCCBCSmQokFRUCLapEghNxsoqKLhCFHYqiSSRKEUFJNJRCSTSKCKRTSKBKKkpRZAXvkcAxo1JOioqUStLfZqgZoHRvHVjgVS9uV4YOZ0ugrKrk1yDq5XzR8KTKXX0uqXNPEiNjlNzdQVs8Up6uspWSi1jLurimVFMPezUH5qXtD+Yuq0ILRUMPiBBUg5rtisxAUSANtEGtJZc727OUhO4btQXIJVYnYeoKkXstfMEDukUg4ObcbFK6oRsolvRSukVBWQQoqwqJQQJsvN4tXvc50brd0+7su5Wy5YnRxuAlLSWi683h1G+vrbPByMN3k/kg6WA0RiYaqUd9/hvyC7CWXIAG6ACwUb2VFgISYBJIXvP0UepVeZz3BjNyq62TIwU8Z094jmiKZ5X1dQXE6ch0C2U+WnjzC2ciwWOEBo21Vjy53dB1KqAHivL3HuN38yrZ5O6GN5j5BSZw6doe7Ut2b1KytadXvN3nUlAwMuipqZhE3zOyse8MaXHksUbXVMpe7wja6zVFPESTI/UlaHO0sm6wAA0UAC51gLqNJRRmR2gXSFKHQOi+0LEp0lOI2XPiK1BqI+f4lTyUtU+ORuoOh6hZopJIjeKV8Z8nL3eKw01UzgzNDn8iBq1ebqsC4ZvFM0+RC0KKfGq1jcsjhIOpGq0OxEzNGZtisElDOzS23RDWuaO80/JRXQYRJqHAfFa6Buath52K4Ztfu7rdgkkv6Yp2ZrtNy4H0SD0mLQmpoi1rg0tdfXmuPizjFLAwsz2YGkXV9a6urMUpozHwaUPDt9XWKdbT+14nIwXyt/BaZYaGlNTWNMQyRRuDnW2JXp5DaCX9myy0cLIGBjBYBaJ9KV6VHOHhCRR0TUCQhHNFCE0kAAmBeRo6kI5KUf10Y+8FR3qaGOmiyRtDc2rj1KsCR3HomEEgEwEBTAsgiY2vjMbxdh0LeS81iuHuw97nNB9mk062XqOSy4s0HCarMLhrLhB5fLUy0bRC0xxMcAJMuhK24lDVMbR0tRLxnyvzABLD65tPhk0U9yzM17bC+lxdLEK84hjFNJQhxewZWZm8+qg9A2pfTtaySKwAtdXsqoZLWdYlWwiQ08fHDTJbvW2UH0cLzfJlPkqKcQIIpW33nb+AP8Aot265tXSOa+lETwbS3s4290q7i1MR7zLtVRtshZo6xjvECCr2yMf4XAqCaSaECIuNVlqMNpKj6yFt+tlrQg87V9mInXMDv3XbLh1fZiSMl7Y3NI96Mr3yRA6IPAU8uLUYMLqt74HAtLX62HxUqF8VLibK2Y2ZADe3ovV4zTxfo+aQNaHBuhsvJ4dGanF/ZdC2RpJHos10x9V6Z+KUWJUl6SobKQQSBuPVYH+MpUuEDDKiZzW5Wy7W52Td4itRzJCELSEkpKKAQhCBITSRAhCEUIQhECYSUhuEVTAe/Uf+KfyViqptpj1lKtQCEIQJ2kUh6MP5KukFqKAfcCnNpTTn/pu/JEItTQjowIM1cPpo/2VnJstNd/aWjoxZb5igRd0UuXmllu7ZWbqCNtEjspFIoM1YfoB6hRg3anWD6Jo+8E4RqFB0INlpYs8Oy0sCCbVYFBqmFRIKYUAphFSCYSTCBhSSCaATSTQCaAhAIRohAk+aEIBNJCBpJpIGhCEEo4hGzKxtgp5CBmsvltLi+I0zhwayUeRdde0wbtFLUFtPW2cTs9o/NZV3UKHEadiEw8HmgktFGLyPPQLMCtVGO649Sg1IQhVAhCEAvH4/VAYtI37DQF7BeDxT6XFap3Iv0QZK+GPEabKbNkb4XLm4Yysw6pyviL4neLKbj1XYbEbaJFjworUADqNQVF0dlRmc3qExM7bN81BblRkURPl3U2VETuRuggWJEWWgFh94ILAdrFFZrpFyufEFU6IIKnvu0ogfkiDVGdpYz1KmGWAvvZBPi3SY/vEpBmm4TY3dBYHKQJKiAmAgkCVIHRRCkCEDF1MbqIKkLIJhSCgCrAgaZ0CAqKmfJZjdXFUTcb+ij8Vls5xu5xVrWN6n5oNDWq5oPqqI472yuIVwEkep7wVRaGc7KWVNjw7ZW28kRQWtI1CImloux7mm/IqcjCG5x4UmeEIL2VVSw/W5h0ctDMSkb9ZECOoKxBSRXTjxGB1rkt9QtLZY5PA9rvQrhgDmEwxvIWPkqmneQuOySVvgkcPU3WqKqk2eA7zQbkJMcHNBCaIEIQgEIQgRAO4CgYxy0ViEFPCPI39VAhw91aUKLtlv10QtJaDuFAxMPUeiLtSVFWmB3J2nmqyx43bf0QK6RSzW309UKBFIplIoEs1cbYbVeTCStBWPFnZcGrT1jsrB4OGSSMB0Uj2E/ZdZey7N1Ez8KZUVMjpSHHvPK8U02aPRexwXudmIvO5/FbrLoYRVOxJ1SZy27JC1gHRWVNXD7V7AzNxIWZzpyXhBXT01dJLBO+PvnYrrYdihfUVFZVyZnyMDA6yxpXoIiBAwJvexnje1o6uNk8PfFV5OC8PaNyFirqWmqamUSxBwaSFmtRdFU080pjhnjkeNw117K5jc8jQNfRYqClpqeOdlO0Q52Elw1IWPD6erwxwdTVPGbfvNk5qNOsHD2KSX3mm34qgSknUJukbLC5pbkJeCRvZRu0A2CLEuIOieZp5qgm6juoNCRss9yNinnKbNLzI4aAo4x5qkSDmpAh2xV2mlzZWnc2KnmB2Kz5fJAFk2ml+ZJ7gxhe7wgaqrM6+65eNVhZFwGmxO6qacrEKmSsq/o7hxNmAL0dBTeyUjWOOaQi7ndSuTgNEHk1cguBowfzXbc5AOKolktoNypvdZpKhAzO8yyeEaqolf2WAuOsr9vJZGtLnFx1JUp5DNLmO3IKbBogbbMbnI2U4wQ4vduotGc5vcGw6pyO1sFRF7s7vIJEgC6fJY6qUl3DZz3UFUz3VEuRuwWlrRGwNCjDGImX5puJOyzWkdXOXRoqe3fcNVTR0+Y5nbLqMb02UANEqiUQM08Z2Ccj2wsL3EeQXNL3SPMjz6KiJJZd8huT1WCebiPJadlKsqOK6zToFniab3OyqJwtJa4uOvJAbnfw7XJ8kyL6cytlLCI26auO5QZzhdM8EOYQ7mQrcPwltLXtmY8us02BW5rbA9Sr4G/SfBBgjpqyWvZLUWDWuuACp0vexCsd0C6dtR1XMw8XlrHdXW/NaRoh5qVX/AGN3qEodilWH6DL5pUYeaaSaiwkJpKgTSTUArKbvVcQ6OVato/7bH5FB3uaYUfeKkEEwphQCsaqJALLi39z1f/hlawFlxb+6Kv8A8MoPLYc1ss9JG/VrnC/ouu2Jg7YBjGBrWRX005LiULwypp3kEtYM1mmxXYwmc1vaSapyOaDGAA7cclEr0yaaFRiqdcQox+2fw/3WxY5e9idMOkbz/wDuraqKnwxv3YLqp1GN2Ot6rUhEZAJ49Nx5aqTanWzhqtCTo2u8QBUUhK081LdUmnG7HEKGSRh0F/Q2QaklnE5b4tP2gpe1Rgd4hBhxuoj9jkpmva6eSway+p1XmaV0mEY42aqhc4cMghhva/8A8KhlTLVT5KZjXSCXM5x8RPqru0shirAPC8xjRRZ6ba7tXQVDW5HOOtgLWN1oPLkvDQ075Z4Q1txxG3PxXunEZlpEUJpEIhFRUklQkIQgEk0IEhNCBITQgSk3xD1STb4ggopfqHHrI781cqaP+ysPUk/iVfZAkWUrIsgqqdKSo8oypsH0bf2QoV2mHVJ+6B+KuA0Hogw1n9s/cCoy2JPVXVutW4dGgLPzQSCfNFkuqgaSTdRomgy1g7rPVSgGoulVahnqpQ7hBvi2WhqzxbLQxBY3ZWBQaphBIKQSCYQSCaQUgimE0k0AE0IQNCEIDkhCEQJpJooQhCAQhCIEIQivksQvKB5r1WANb+kGlw7rRqvM0rc1TGOpXtey8bG1VQXgEBoFilV3eHG4XA+IKXBsdHXHQqBBjmLY9R0VrZA4kbO5hYFFTP7KBmuCduiuw/Fovqp+7fZ3JUVpDjqAbNWJwY+Oyo9a12gN7g7EKV153C6iakPDLjJCdgd2rvRyslbmYbqosTSTVEXGzSegXin07pKiQ8y4lewqnZKWVw0IaV5innc19yA4nfMoMZhkjOyjd7fECuqJWnxxAebSk4Qu5keoUVzA5p3ClljdyC2upIn+Fzfmq3ULhtdFY5YYwy4CrbSkDMDqr54nNLWplrm6WUGZ0crdgCo8WRu7D8FsBPMINjyQZm1J2OnqpGUu2srjEwnUBRdAwNuNEGSZ2fKCBoVa8te3u72QIC4EptblFigznO1p56LNR1j21gilfdrtPQrbJoFU2CF72vLAHDW6DeWdEshQJFYHAoK8pRYq6wRlQVC6kFPKjKgiCptcll8k8qCeYAErE45pC7mVom7sJPVZGqotbspDVwUWEdVcxtyqjRG3RXsJbodQqYm2V45KifCDtRoU439/I7QhTae6oSNvqPEOag0Bt7sds4LKQWHL00WkPzRg8xuqJXAyuQIKQKimFFTUgoBSCKsCuYqGlXMRHQg8AVipp/ArlUCpmldHsAfVXLPU7KpFXtrm+KO/oVYythcNXFv7QWRyrdY8lFdVsrHbPafQqa4jmtPL5JtfIz6uRw8iUNO0hcptbUN3DXK5uJNH1kTh5jVBvQs7KyneBaQDyOiua5rvC4H0KIkhCEES0O3AVZhZ0srlFyKzOi6H5qsscOS1FQKKyG430XP7QOy4DUnrYLskZiAdVyat8M8s8MhY9gdYtJSDwdu7pyC9jR/R9mKc/cCz1GB0MzTlY6IkbsK1SxH9Eso4jqwBoJWqy8RI65kd1cV3sCY11FUOcAdANVzKrCa+Bp/q5e2+7NV2cEic2hdG5pa57wLEWVHo+zdLwaFz8ts7iR6LFM76aQ9SvQxRthgaxuga2y81O7xu6Ernk3ilGcjX+bSqY3JyHK9rb7xglRasOkSv9DM4nVrhZWC2UHqubV1GSZsJ8L9SVvabtFiCLclFPmVHknzSRCSTSQJRI1UikgQc9uziEe0P52d6oUSLoLPahltlsVw5cOqaqrvI9mRx1dfW3ous4WUCkqabomNjiayMANaLABWMaDuFzWue3wuIV8VdLG7UNcPNa2mmusiiEbWBpEjtQAdlkqpQ0CFmw3smasPc9zh3zoOgVVNBxp2tc9rQdyStSs2G2F/DD8hydVI7iNu/vFbKuUNaI47ZG90W5qtsQiiu7xnUqppU45QANhsqwNbqRJJvyVckgjaXFQQqJhEzTxHYKiniP1j9yoxtM787tr6LQ82Fgs1YT3KylhMrgeShFGZHjRdWCIRtsAirGMDW2A0Uy9sTC5yZIa252XPlldK830aNgoIzPM78ztANgsNXUaZGFTrJ3xssG2adLrB4lQgCVpDBGwEm91To0XKvp43TP01P5IiyCK7s3Nb2MsEo4xG23PqrGjkN1Qh4g0bnktcUeRtzuURQNYc5HfIU3II31PkCuZh31E7ur10To15+6fyXOw8Wonnq9VGmHZQnF8thfVTjHdRHZ4cfslUYbITtqUrE7bKAQix6JXCBpIQgFJkpphJO0ZjG24HVRU8jpqeeNgu4t0RU6btNC+3tNPJF5jULr02I0VSAYqlhPQmxXkn0k0Qs+Jwt5Kl0bT0B8jqs7bmO3vm66jVWtXgoKutpiDT1L2+RNwurTdpq2OwqII5R1BsU2lxr1YCy4uP+EVX7Cx03aXD5TaXPA7740+avxOrpp8IqODPG/MzSzt1pl57s9GJMRga/UZSV1cGH/wCo8Rto1hsAuTg9VDSYjAZDlZlILiur2bk42IV0+lpXZt9tUZr0iEIKqMZ1xdg+zCT8z/sti50dTA7GpIhI0yCFot8SV0UAhNCBIQhUCFXNNHAwukcAAuNW4s+S7Kbuj7RRXQra6Gmac1nO6Bcp+JMmBD6Wx5FpWBxuc8ji53MlTgp5atwbTsNubzsFKsciroHx14qaWV8DXAl2U63Xn8QjlNS/NPJI4HUudcle8xalgoqNgz5py8X15ei8/hWENxivq+LMYmQgG487/wCijUjFhMTjPA0u0DxovYHxFcqLCfZq5gjmEkTDcG25XWO6rOUKySkkqyiUlIjRRQJCaSqBJNCKSE0WQJOydkIFZMafBFkO0Y89GlBVRi1FF6K6yhTaUkP7AVtkEbJ2Ug1OyDNiAth8vmWD/wBQWkN0A6LNiQtRAfamjH/qC3Bn0iDi1gvXy/D8lSQbq+o1rZj95Vv0CAzBB1Ci3VGrb6qCDLh1lMqLdSpoM1T4ox6qcI1ChUaTN8grIdwg3RbLQ1Z4tloagsaphRCkEEwpBRCkEEkwkFJFCYSTCBppJoBCEIGhCEAhNCBITSRAhNCBIQhFfL8LZnr4/JepwwUzXzOqeILnQs5LzmCt/rhd9lq9PQEexF5bclxSkdJppWgOp6px12ctzo45IxJxBe24XnpHMzjSwKmzuC8cjxflfRZ006UjjfXUdbKruuNsoKoZI4mz3/NaIWh0sYad3C6IvpvrrdBstjXOY4SRkgjlyKjJNS1FTUCncWz02krbbhY4sUpJCPpsvk4WQd2nqmygB3df0K0LiCWF4u2VpPIgrZS1uzJCPJypo8Zz/oyYR+IiwsvKh0sTgLd4bgr1eIyAQN72hPJcd8jRUB12m/VS1ZHP9pf70fyKmKsc9PVdORkUmr4W/uql1JSHfO1Z2umITsJ3ufJT4oGveCsfhsR1ZM30Oiqdhk41b3h91yuzSMrwZGd7ZXmQO3a34LFLBLG4ZgfioF8jfc+IKI6BEZ3uFEwsOxBWEVBbuXN9QrBUm2jmlBeYm9fkq5I7M0KqbWFrz3Rqrmztm02KIjG1wYNFQ894rdFkdeztANQue7W6oIgHvAcNFsMMR2bZZqYsbKc3PZbO5yJCCk0oOxUfZ3jwlaQ3o5SyuCDJaRu4UHSSZrDRb9BuFVG1rpXE6BBU2Qc1PO1XOgY7kFW6kB2ugYcFIEKr2WRuxSDZAbEKKpxN31cbfUrMIhzJKtnOao724FkBVEBC09fmrWQkeF7ggK1iqJxmpZqCHt6LXHO12jgWnzVcWyss1ws4XVGhh0TuszWvi1aczOnMK1j8wugvg1Jaq6iwmAAtor6Nl2Pf0KpcOOS8G1kFd0wUcI8nBBY8Da/oVKqQKkCqwSORTDllVzSroys7TormFVHRpvCr1lpXLUqlCoqPCr1RU+FKRheqyrHqsrLSJKV0JIC6ROiEIEADuEAZT3S5vmDZCaCxtVUM8MpI6O1VrMSlHjjDh1aVlSVTTpsxGBw7xLT5hXtlY8Xa9p+K4h13CiQOnyVNO6bqBXHbLMzwykDorfb52t7wa4Dmg3yScGKWZ20bSV49pJbnJOd5Lj8V28Xqi7CYmEWfUPtbyC4rtBbokQ21E0e0rvQ6qxuIyt8cbXjy0KyuUCVtHUjxSI7tew/NaWTxOIcyRpIN91wb2BXO/SLA85mEAHdQe8bX1AjcDlkvz6LmyxOdoCPMLhUmIvd9XKfQ8lvZiM4HeDXjzUsWXTYWOBuRc2tok3QqtmJRO+sY5h6jULQJoJQMsrT5FY03txMTcTWtYb2DVdTlhYA52UjmF0aigp6h/Ee05rWzNKo/RjW/VSH0cppdq+I9vhlcfVTFU8eNjXemiTqWVvLN6KsgjdpHqFNLtoFVGd2uarQ9pGjgfisKPRRW5RKyB7m81YJz7wuguSKiJWnfRPMDsUEZNlWrJNQFWoqTdUFqbNkFNiBbqkWqaSbRFpewgtcQrHVEjh3nXUSo2V2aWcUWWeZjpXC7xlHJWW0SsmzSYAYwAKIBe4Ac1BxIK1YaA+V2b3RdGdNlLTiJoNtStQAtc7BAGmiy1Exf3W6Dr1VQppi8290bLJJKwE3cPmq6qXhxgDcrnm7jclUOpmdUyaXDG7Dqm1oa1LQK2CN0rxpccgqU46TitLiTnJAYB/NdSCFsDAxu/vHqiKLhNGveO6tDem6qEGm9ua0xRBov7ycUQaLncqwKBqD9wrAoP8SCmU5YJj0YViotMMb5uJWuqOWkqD9xZ6VlsNh87qotYDlAG6pa5tPHJqbvddaImPlIZA3O7meTV0KXDoqd2d/0sx947D0WkcyiwaWpc2WsJjh3EQOrvUrl49QESvFFJJCG6CzivaNuXarzlYM08p++VGo8SajFKN9+I99uuq6sGJVQhbJUU4LTzburJnAvcLDRxVkU7GtyuFgstLIqyCRoObITydorwQdlmdDHUhueQuANw3oubWiroPpaaQkE+E7BE07d1poTYvPovP4fi1RUPySQBzurV3qV1oXOLS0k81UdBpB3F/VD6KmnH0kQ9RoqY5AVsgJdZZXtWJ3Z+GT6mVzPI6rHUdnq2PVgbJ6FergisFpa0BWQ7182qaGpiJE0D2+oWTh5L5SQegX1JzGvFntDh5hcLF8MgfK0iANbbUt01V0TJ43iFoHMrp4RiYw2r4743PY9tnBqtdgkb3nhON+hKJMCrGMu2LOPIqVrUr09Jj2HVVg2cMd0fotc1VHFSSztc14jYX6G97C68DJSPbpJE5hHUWUQXsaWse6xFiM2hCbY6uxBEIaLDKkuLqqsqWyPffkbmy9gvnQxOqY+ljc5r2UrszGkL0lP2qpnNBqInxHy7wV7Jca9ChYqfE6KpAMVQwk8i6xVlRVxQMu5wJtoAd02ml7nBou4gDzXNqsXZGSyHvO6rnVldNUmxOVnQLIXNaOqq6WTyy1Di6V5PkqmZnuyxML3dAFspMMln+knPCh331K0sq42E0+EwCV40L7d0fHmoKYsMbCzj4lIGsGuTkrva56tvCw9gp4B+tcLfIIkp4YS2fE5jPMdQzl8ApPqDK3WPhDKbRne3VTLKT2sm3OxWCngiZHG/izE995NyuJhFRHTyVj5A5xcQA0HT4rXJUNlc0NZka2/Pdcqk1E55XWZd+nbHF6emPEpY5S0NLxyVqrpRbD6cdGBTuukcM/ZpISWmSKSZSQKyE7IsgSLJ2RZAkwE7IsgVkWUrJgIIgJTaU0x6MP5KwBV1ItRVJ/6ZQOFloIx0YPyVgapMb9G3yaB+CkGoIZU8qsyphqDBiukNM37VQxdIN7652K/W4c37VR/IrrtZ3tkHmJX3qZfN5SdqoyEcd5++VNpDtkEQy2oScDZW7JFQVMbYapqTtlVch1kFNT9e39lWQbquo+uHorYNwg3RbK9qpi2V7UFgUwoNUwgkFIKIUggkFJRCkEAmEJooTSTQNCE0CTQkgaEIRAhCECQmkihCEIPnGD6CZ/QL0lFdlDEeuq83hndhf5r1EF/Yomm2yUi0FrgMzR8VdUMg4ceRmUkbhZGwh0oD3lrCdSN1fPTPpJGtc4yRnVjvJRpAwRn3zdacNhf7dGM4LQcxUGRtdrZaLihpJaj3nDK0eZRKuoI2OxCrnaBeQOzHqk2hgewZowqMCkLpZmk7RrohpAHopSOZUYTAGl8RLSOirZhtXkzRVLiDyK6rgcjgWbhVUz8sZaSQQst+GHiYrTNDCGSsHKyrmr3uAE1AW25jVdjMeTgk5xPia0j0SkcpmI4e6wfnjd6ELQyWnk+qq7+TitDoaZ/jhHyWeTDKCTZuQ+SipmKR23CeOoUCHMFzFI3zYbqv9DtGsFU5vTVRNNicP1dRnHmqgkmu4d93o9qt4ge2zmRO9FkmqMQYLVEDHNHNVsxOmPdmpXt8wESNjo4D44Xt8xqqnUtK/wyBp89EmVNC89yofGehV7Qx4+jnjk8iqMTqBpcbPHwVYo3wuzAkrZJA8HwAebSq3B7PecPVEZImywyOcRcFQcVsdK/hkEg3WaRhAvyG6qM2dzJQW2utLKsHxgqDYmPcC4K/wBihcO6+x9UDbUxdfmrmPa8Xa4fNZXUL2+FwKBBM33L+hQbS5w2KhG6xJIBushc9n22+Skyd45g+qDdnb0IUmkHZ4+Kxiovuz4tKlxozuSPUIrcM3kUcxcLIHj3Xj5qfFkaL30HVQYZ7PqpSOqjayyOne+Vzmm1yVAy1H2229FqI6APRTjJB1F1zWVM7N2tctUNe06PiLfxVR0mPHorm67LNDNFIO65voVoaw8tEFrSWqD+67O3bmFIOcNCLqMgzAgKjoUccs8XDIyQXuXc3Kc8Qilyt2cRp0CspnCOli4z7Bo581CbNIRK7TNo1vOyCx0TXe5cKPs0fIFvoVkbK9jiGyOb5K5lXOPsPHmFkWimPKx9VB1KebAfRWNrmjxwkeiubV07j9ZlPnogxezgfaapNhPuuB9V0Wljxo5rk+Ew+6EVnpWua7ULYotY1uwUkQKmp+rVyrmYHssTZVHNeqiVplgf7pDlmfHI095hWG0bpXUS74Iugd0XUbougkldK6EAi6SECundI2six6FAFIguswbuNkbFWUljV53eGJpe5WIxYvI1+JNibq2mjDPiufIVMSGQyTv3leXKmUrcZVk3UCU1BxsqhOd3bLluaFulfZjnLACgTMzJLs3WyKsmBY2SG4cbXuqYB9IT0C2Bw0uLlBqug2Kozp51NLtobJIzwPLfirmYhUR+Kzx5rHn0US9NLt1G4rGfrI3N8wr21VNKNJW36O0XCzouCppZXeMUb9rfBVvpBfR1lxmySMN2SOb6FaI8Rq2e8Hjo5S4r2a3UzweoVFSXxRF2W2ttlazFGu+thLT1aVobW0sw1kAvyeFnS7cz2gsLmvANgNVYyVrgMp1XQkpaedp7jSDuWlUfo6MAhr3W6FTS7U5z1UTLZQnoagOJFni9wAbWCrjjmawmRri4cipprbZHK22qszA7Fc9tQL2LfxVrJWvGZpt6rOl21pKkPI2KfEciLFEqPEUgQdigNrJpJjVFKy2YU36Sb0CyDfVasPkyumA3I0VjNa5ZNMjTrzIWSeVsTCeiVZVRUVPxJHZbm1+q4762Oqf9cLdCbLUZOWR0r8xKR7ovyTdYNu0g+icMBmcMwOXkFdInDGXm7h3fzXUpIsjc1tTt6Igga1uo1V50CB2ufNaIY8oud0Qx2aCdXH8FaqGmAkE0Dsq3+MqcsrIY3SPOgVFNJx4GSnd2qgqxA5aKa3MWU8No/aKOEyEtjA1tuVVi3dw6TzIXSwsWw2EeSqNbGRxtDI2hjR0TSTC0hs8S87UkcST9sr0TfEvLVdTGHTsJIcL2RrGbcQ94ud1cShDdGhNcq6aLbUaJlxcLO1Hmkki6JscbZRI0ZXDouxTSCSEWOoOq5K24aLCX1AVjFb4z9IB1XeoaZxAe8W6BcnC2CXEYxa7QC7Ven0Gi0xSa0AaKSEKxkKLmNd4gCpIQVCmhBuI2g+isAA2CaEFb4mSCz2Nd6hYanBKKcH6IMPVui6SRNhcmyLLY8zJ2VDSXQzXPRwXNrMJqqY9+O46jVenq8VjhJZH33+Wy5E1TNO67nG3RZsbmV/rhFjW7ggjysqzNLHd0cjieQJXcFpHiMM4jjyAutLsDpRBxatwh5jKVnTW44EOJTDSVgd6Lr0GMYXGCZmvEo5OFwPRUf0emlLn0zhw+WcWusDsPmY9wdHma3ct1AVNS+npeK3FG55qpsdN/hsfqfVXCoDYuHQMbDC0ayuFgPTqvHCNod3bgK6SaZ8IidM8xjZt9FNtThtdSpxSCncRSXqJz4pn7D0VlHI99M2aZ2Z5icST6rhg5WnZdyJoZgIeDZ3BIXDmtdukxecqHP4YDDy1WeEyOge2KwvuStDSWQ986m6qoxaNw5ly7YTUR61jclLCN7MaErqyUZY2DyH5Kpdo8mXs7oukmqyEICaBWRZSRZArIspWTsgjZOydlKyCNkwFIBSDUEQFVWttQVHm0D5lag1U4g3+oOH2nsH/qCC4MtomGKzL3lINQVhqC1WBuqlw1Ry8SF8TwlnWRx+TT/qu1ls4nyK5Na2/aLCY+jJH/AIBdiQZWPPRpUHiCMxJ+8UMJa5SitwvUkoLeYQWh4IRuVnDrFWtcSoJnayhl1uVPdBQZJ/rvgrYFTKbzu+CvgQbo9lcxUx7K5qCxqm1QCm1BIKYUQpBAwpBRClZA0wkmEU00k0AmkmiBCEIEhNJFNCEIgSTSRQhCEHzehsIdea9VCWOpo8r2+Ec15SOIvDGtvc2Gi9BQ0JpoDHLcuOtuiUjbcDcgrTTTRzR+yzO0PgceSzwT+yNcPZmTtJ1B0I9CoSYnhrtZcPljcObXqKsL5IJxBIDmJsCOalik3FnbAPDGNfVXUWIUOJPDIiQ+PUB+6xya1MhfuXFVGjCQeNUNabF0JsVTBV18cbcszXi2zgtOF2biEbeUgLSua0PbmAeRZ7hp6qUb24xVM+tpsw6sKGY1TtmzSNdGDvmC5cz6ttyyTQdVyq2qmfCRI4O+Cmh7eOvoZxZszPmrBFE8Xikt5gr59h07uMGloc09V2A6LlxI/Nrk0u3qeFM3wyB37SieOPHAx3m06rz8c87Pqq13o8XVsON1rXFpEchvbopYu3XM0fvRyMPkEuNDezanKfvBYhjkg1mpHjzbqrG4xh0+kgyH77VNG2ufiPgdleyQW6rnx2PijC0N9glB4UjQfuuWfhFkhyPQ2T4IXbtAWWqgZTwulj0I6LbaUdHLPWMfLDw8tr7qwc6HE6ge8VqbjEl8rmgnzCyOp+C85gqGSN4pvyKo6rqvj2ZwcridHKM0M8ZLZCRdSid3QWgaLVJMZ2d4agIjI2ncQ0h1gtbaSTICGtd5tOqzukvE6JvP8FTGapkjYWkhxGiDaY5GG2V4/FSbK5ume3qFWw4gzcOd6p+2zsFpaUO+CKtzucPC1yoDYy48SM28k/0hRu0mgfGeoCIpKZ8h4VRZv3ihAYKZx7riwo9jdb6OZp9Vq4TnDuujkCgKcl1nRZfMFFZXU043Y1w6hQu5oLXNe24suk2BrPfcfIlSL4m+It+KI8xk4RLTffQqbITJ4nZV3ZZaJ2kvC+KrZ+i72DoSemZWI47qUt1El1ANl6XXo20tE/wxt/dKP0XTl2aORzCeRVg8+0C/eaQeq3U880Y7rszehXTOGSN91sjfJZn4aSTwDlf9kqouhrIpe68cN3nzV2U6kclyQTmMcjbPbutlLK4Z2l2ltAiN9G1gcJJCZJD4W8gtrmvd3jq/8ljoxlAK2mZoeGs7zzpboim10TmWe0etkez0z9hY+RVQkkY9zLNcGlS4g9+O3ooJ+wAjuTH4qh9LI14bla9XtfHykLT5pxF/Eu1+ZBnMMjDrE5v7JU2SSM8Mjh5OW0SSDxNv6J8SN2jm/MIK4ah5NnWPmFrVTY4jq0D4K1AIQovvlNt/JEJzGncKHAbbQkLO6SVh0k+BQKuUbsa70KipvpSfsu9Qs76Mc4iPNpWgV7B9Y1zPhdWMqoHjuyt+JsoOY6kbyc5vqoGmeB3CHLt2a8ciFW6njPuj4Iu3Ds9viYQol4XadSj3SVQ+lJGrWlRXMuCndaX0YHulvoVU6nI2d81RUe85rB7xsnU1tMyukhJI4dmk20vZWUrC2p4j/DE0vK4TC6QPlee9I4uKI7YdA8d2Rhv5qFQ2RtLOIG5nStDd+XNcjKPj5KTZpY/BI4eV1qBujfGwNdG4W8llldyWw4pMxuWRrX36rg1tTIaoFhygi9lqMtl1XK6wWaGrkdI1rg035qdQ+1yqjNVTahnVQ2BKz34k9z1WiTVlhuUFLZntJIOitbWkeJt1QWOA2UCDfVBvZWxnckK1s7D74+a5eVGyDrh/3kzIBzXMp2yyztjiNyd/JW1eannyg5h181KrZxApCQLmtqOqtbO0+8g3Zk8yzNk00N0+IVBozJ6FZxIpZ0FwcW6scW+hWiOvqY9M+YfeWHOnnU0bdVmK2+th+LSr219NL75aehC4edLOpprb0BhpphfuO8wVW7D4shEd2nzXDDyNWm3oVfHXVEerZSR0KnVezpeyvY0C+ayrLXDdqqjxd9vpIw4+Wi0R4lTSbks/aU6r2VJa8ltBglHdex1+hUHUw8ws9WuzMHEblMSkG1lY6mePCQVUIntvmCml3DM4ba7TbqFfSTtEUsw8LTqsEzsqrln4eG8FumY3JCsiVlxKsdVHiSfVtPdauW8hzy7KBfkFonNoNeRVc0D4mRF8T2ZxcF3NdJHKoNe5vgc5voVspsXraY92Rrh0c1YULWk270XaeRv11Mx3m02XUpe0mGusZOJEfNt141F1NLt9GhxKgn+qrIzfqbLUMp8Lmu9DdfMAA4iwXpux4vWzDM/KItQTcA3UsNvVgJSvbAwvkIA6KueoZTMu/UnZvVcd76jFarI24a3c8mhTSlXTz4jUiCm1b5bBdmnhEFPHFe+RoAI5rxoxapgjqKWnDbyPLM7dyPJe1ibaKJp3DAPwRWLGP7CR1cuxQNtQRei42M/2aNvV67lGLUjB5KxFiE0loMbn0XiMQ1q5v2l7cbH0XhqzWqn/AGlG8GZI390F1uSdldTyiMuzN0K5V0Z2SxOBBaWlPQ7bIqIW3zx7FRjFmm/VA10MOH9XcftOKwWXToW2oIj1ufxVjFb8MqIaOczTkgZbC2q6rceoTu9w9Wrhil9rYIw/IRt5lc2I6EO3BIWnOvZtxihdtUD5Fa45Y5W5o3hw6grxTLEbK+nfUUz88LiD0voUR7JCyYfWtrIA62V40c3oVrVQIUXvaxpc4gAbkrk1mL3uym/iVHRqKuKnbd7hfouJWYjNUXazuM/NZnF8pzvdm9U4opKg5KdnEd9rkFmrGeV5ha0lpNzutdHQz1feN4ovtEalaPZqWhcx9XJxqgaiNutz6K2Zs9TGZK6UUlIP1YNiR5lFRZUQ05NNhUPHm2c87D1KhM2ClcJ8TmdU1BPdibqAfIKUc0k8YgwmHgwjQzOFvkOahG2loZSIQ6srnbuOtvjyRFjjVVURlqj7JSN2YD3iPMrj1mKOljMNI3gwDS/Ny144KhtIySql7z3fVjYLgueOZtbks16eHHfk7Kt0gbpuUiXPG9mlNrA3bfqub16Qcx0o75s37IW1tTPLCykhjc8NGWzVnG620k3s2F1U8YAlDx3r2ISyX2xyelrKSO7Q4AObo4HkVymsLZ9t5Bt6r0GEsE1A2aobn4ri4k7nVYsTooKWop3QE/SSC7Ty1UnJLdPLt1ZzsOiqVk3jKrXojhfYQhFlpDbupJM1KmAgQCdlIBMBBGyYCmGqQaghlUg1TyqQagiGqTWqxrVINQVhioxFtqSJv2p4/wA1uDFRiLbtox1qW/gCUFwbqVIM1VuXUpFveCCpos+ytyJObZ4KndByag//AKuo2/YpJHfiF0ah/wDV5j9wrmSG/bK/2KE/i5a6qT+qT/sFB5SM/RNHkpt31UWCzQFY0IIuit8U2tsFZu1R2CgAg7IuEHYoMR1lefNaYAsrfG71WuBBsj2VzFVHsrmoLGqbVAKYQSCkEgpIGEwkFLkgFJRUkUJpJoBNCEAhCEQIQhAJJoQCSEIBCEIr55SOLZ4rHUOC9O2tLhaVjZF4kuc12ZjiLLZS4nO3umTXkSqj1hlpntsY3sP3So8Gmd+tI/aC4sWISDxhrvRa461h8TSors0OGwslE8T4zbe2hXQkooJzmmblI2cF55lTHcFry0rt4NMahkrXS5g0XF0EqfC42VsMsVRmyOvlIXCbvJ/4jvzXedKYmSTnuhoNguDsGj4oIzaQvJ6LztUbRkFd+sdameV5+vOjQgMLbeX0XXIGT4rl4SO889F1T4R6qA3S5JoQDZJWeGRwHS6hJeRwc83KkkmlVujaTcCx8tFJk08R7rnfNSUSmkXsxOpZvY+q0CslqW30AG9lziFooqv2Sa72h0btHabIqUjXyO7x0SdQkgOA+K6L2QSASR2IPMJmVrWlqCmnp4zH3ZDm5hXNbJGbixC4rm1EUjnNks0m9la2sqGamS7UHQkMYfmLrE7hVx1TJa1tzZsbSLgLMa5hF3wh/obFW0eJUdPIXcF7b73F1B0mzH3Kpp8iVYZJ+bWuHks4rcJqR3sjT5iysFNRyawTOb6PRYb3scDxIfwWZlNSTtOduUrS6lnAJjqg4dHaqkMqGnWnbJ6FRVZw1g1gmcz0crqRlTBIRLKZGcrpOexv1kEkfwTbJE7wTkHo5BbK5zueioMIk0Og6q4NJ98O9EiC0oih2H0pb387visUuH4UHWfE8eYK6w72ig6liIu5uZaiOJ+jsNbJeCqqIT6lamMrox/VMSjlA92TdbH0kB/Ufisr6OmLtWSxHyQXw4vXUx/rVK79qM3BXRpMapKqQagSDk4WIXLihqobGKXiR9CnLBT1RyzR5HjZzdCrBtxehkqJ21NFlcLd5t7Fc+n4rJcrwWv6FThFXh5vHI6WLodwugyppq+PJUs1PvDQj4qocDHuHelyhamVMFOLRd9/VcqXDZqM54ZHT05582+q109FO9jXAWa42uUGuIl13E3J3WhpA52WSePgVTo2uOgGqQlt4nFQb+6RrlPqmyNpvuPRY2uB1Dh81cHvFiCg1Nif7kxHkVMNnbuGvCoZO4HULVFM06HRARk5tYi09VegbIRAhCEFb8h0cAfUKp1NA/YAHyK0EXVTmjnGfgoql1EfdlPxVD6OYDVrXei1WYNnub6pgyDwPa5Qc4xvYdWyMPUFDZ549W1GYdHBdLiPA78fxCoj4DwRKwXJ5hFVsr5R4o2uHVpUxiMRPfY9vwUjSUzvC7L6FVOw8+5KfiiLvaaZ2nGZ6HRDmNIuMp9Fz56OZpGZrX9LKmRjom6skYfIqwW4s4QYZKWaOmIjC4dsrQOmi34w+8tJTOdmMbM7r9SsLlVRUXKfJVvNgVYjNO8ZgOi5lV/aD6Ba5XZpLDmsNQ+87j8FqIg0EvGU2N91ZWSBsIaDck7rOXEPaRzKVRJeUtPJVlCDWVoHVdyIw8FscsTXWG64kD2ska+2y3tqmOGj7eSitvsVFLq0ujPkVU/Cs31crX/tKtsvmD6FS47gdCQgzvwyoYdYrj7puqHUkheGta7MTYNIXTbWyM95dMTGmpGvlYOO8XY223mpa3hjuufDTNwumy6OqX7noudJHncc+p5ro5JKiS51cdyrX0rG7fFTbplhJHnpojFry6qm3Nd6ambax1aVyqikfC4lrHOZyI5KuNUB5GxKk2oe3ndVFwBsdPVNVGhtV9oK0VLDz+aw2SIF9VB0hIHbEJ5iuXtsSFNsz27Ov6oOjnKOIsIqXcwpce/JBr4iOKsnFB5oz+aK2CVPOFizpiSyg3tcBqND5K9lZMzwyuHquYJVY2VTQ67MVlHja1/mr24nA8d9jm/iuGJFIPCaXb0IlpZ22DmOvyOiqqMOinjs0lnm1cUOHJTZUSsN45HD4qaNrpcGlaBw3tlH2XrHV02IlrGzxPfHH4Q03st7MSqB4sr/AFWhmKM99jm+hVHmnd02c0tPmLJb7L1XGpKkd8sPk4KiXCKCbVrcp6sKqPNlJdmXs+8awVFx0eFilwyuh8UAeOrCgzxtLvCL2Xo+ysraSetdLo5rALFebEklOSHRuj/aau/g0YxCaqqpZBFTttxXk/kiui3j4pUOdfhxt1dIdmhYcTxYGMYdhDXZCbPkHikP+ihX4pLisow/Coy2lGlhu/zPkuthmG0+EMD3WkqjueTfRZEMIwePDYxUVgD6hwu1vJq9HI1kVNxpntYSNMxsuMZHSTNLze7guP2qqJJHzZ3uLWODWi+yDv1EYqmM7wOU30N7rt0w/q7F8vwSSUYrSNEr8rn94ZtF9ShtwWWVgmkmkqoPhd6Lw1QLzzH7xXtpnhsUnUNOy8ZOx7HSOc02cbqVvBlTY7K4G17bhJC5VtZUPiky8MEdQVTYWTKSlUneErs0rLUFOPuLjEaLfLiHs9OyKJl3hgFzsFYxk6PGiobSyEF41a0blcPMWA31c43sqnlznCWRxc87q2NltXakrbnpNjnk72C2wMJ3cVnY1a4tkGylmko5myMOZp8QPMLrzYtCyNpj7zjy6LjtcDGqnEcMuNtN1UaKmqnqnWe7Tk0Kjux2a7Vx2aBclW00E1WAIGmOPnK4fktMckFM8w4dCaqpPikOwPmUVCKhL2caveIIBqGXsT6q9k01S3g4bH7PTDQzOFr+irmEcL2vxCQ1VUdWQs2HwTlbPNDnxGZtJT8oozY/FERZLFTymHD4jV1Z8UrzcA+ZUJ2QwETYvOame92wM2B9FOmNVKwx4extNSD9c9tnH0RE+npXllFE6tqye9Idh6lBImrqWcSpc2gpBrlB7xCjSVLnRmLC6WzcxvM8WFuvmiWBnEEmKyGeY+GCPYfBWPEj2A1MgpKYbQs0J9VKRx+0wEbILVBllc45jfQaLgtPz6rs9pZYpH0zYY8jGh1iea4q55Po8E/1WcQqYeCPNUptNisu2mgHRSY8BrmkXa4at6qprgSALk9ApHQ2OhHVSuPJZI7NFV0bIWls3CdzjkOl1zn1ZrMeDQQ6FkgDCNlzq0N9nLiNQdFowRl56dx9511MOOS7ebW3ppDdxUFJw75RZep56SE7IsqiUTdCrQ1EDbxk+atDEEA1SDVYGqQagrDVPKrAxTDEFTWqYYrGxqYYgrDFMNUsqlZBENWWuH9Zw9g5zF3ya5bQsVXrieHjoJHfgP8AVBsO6FF7tVEuQSedlEnRQc64UQ+yDmF2btXVn7NGwfNxV9WbUM/7BWSAh3aXE3fZhib+ZWitNqGo/YKDhQ6xg+Sm3UXWeB73WAccltW+a0bDRAE6WSuouJUMzrC4UE7ouo366J3HVBlFuI71WunCyt1e71WyBBrZsrmqlmyuagsaphQapAIJXTDvJIAKQCAzdAjOfslTCaCHE8ipCRvNSRlB3CADgdipaKsxN924KVns8wgtQoNkHPQqY12QNCEIBCEIEhNCASQhAIQhB8tOqg4WXqe0vZ1lJXA0RsyUFxj+z6LzMjTHIWPFnDqqJwVBZYP25FdGKXbXRckturIZjGbHZB3GuBCvpqiSmlbLC4tcOXIrn08mYeS0g9FND2tDV0+L0zhYNlA77Oi41fQS0jyRd0fXouTBUSQStmhcWSN6L1dBiMOLQcN9mzgd5vVFeWxJ39Wt1IXArzd7V6btDSmkkDHNOQm7Xcl5atP0wQbcIZ9E53Urp2vlWPC2WpW+ZW63eHogiRZRVuW6RYoK0lPJZLKioWQR3CpZUOByj1RFeqRF9CpkKNkHQwmpibHJSSaOebtcdlolpyx/kuMW635rVHVyNZldISfPVUXTNZwnk6aLmu+rCvkkLjcuLvJVSDuhQVBSSTQFgRqAlw2jw5mnyKaaCcc9TGO5O/46rRFilZF9l/rosgT5Irpsx4j66ncPTVXNxTD5tHtaD95tlxUFoduAVnS7egY2ik1jeB+y5T9n+xMfivNcJvu3HobKxr6hn1VQ8eRN0HoRDIN7HzCO+w23XFjxCuj95r/UWVgxaQd6SA/A3ViOwJBz0QHB+xB9VgjxileA1xy/tCysdVQvI4OV197FUbMp5BRdGHeIarIyra4kWc0hWe0MG8jh8EGhrcnO4UDEwOuNFX7RGd5fwRx4PtuJ6AINdNO6F2mrTuOq6oLRACza4PouJHPH7rSulBOHU5bzVghXu/4i7zYCszy0brTXFjamHMdXxqHCicNwQiKQ+PkrWHbK4qt1DE43YXNPlsomkqG+CQHyQbGPk5kELQyS+4sVzGMrWbsv6K6OpcNJGOb52QdqGUOAHNXLBTTs0sRqt41CIEIQgEIQgRAO4uoOhjd7tvTRTJsFTJMRsgRgcB3JHDyOqjw5G8mv9VDjvzBQmms8gXFlFWODffhLT5KvujwyFp6FVe0OGzz8UjUn3g1ygtc5/EbZwdZTdI4jvsusbpRmvly+ikKho8Mp9CFRgrMNqZq2Wpa9js9rNdpYdFjlpaqPxwE/s6ruic/dcnxm82kKq80TbQgtPQhVTGzCV6h7YZQc2U+TgsOI0lFFQTzvjb3W92x5qxHlBrJdc1zu84nqu1hNKKuokjva0Lnrh2J9blaiJRN4l3AaNKomN5XHzXTw6InDaubL3c1vRcx3jPqqzomg2Qt+GUwqDJfZoC1PwsnwhpUXTjtLh4SVYyWTOGglzibAdVpkw97Do0hd3s5hsdEyTEq1ocR9W0/mpa1MajQ4Y6jiFVXNvMdY4t7eZUAH1M5JJNzqei2Or56ipJbq55sBbUBaHU3Che1ls1jr5rD0ydMXMqqplJlihDXv9652RT17JnBkrQxx2I2XIDHtc4TfWg6k809Qtacrdu3LFY2tdZiwxuzN1HMK7DqgVNOWu8bNPgpSNRhimkp9poAQedlR7Fh04OQ8M+RstUsTX6O1BXLqYzTyZX89j1CqJyYKf1NSD6rLJhtZEdYhIOrSptlLSC1xHxV7K+dp0fmHmjLmuje09+N7PUKBHRd1uIh+krAUObQT+KNt/LRFcKxW+ipH1NN3Gi9yNVqOFU8htBM4HputeHUjqWn4bn5i6XQgKW6WTbly4LVhhdwbno0rA+KoiNnwyNt91e520UTc76rn3dJxvCcYA2OnqpCS+xXs5aSmmH0lPG4eixyYJh79eEWfsmyTkiXjrzYepiTzW/EsEipKOSoine7K4DKR1XHBNluXbFx02CRSEixZiOakJCqjcJCmJFiEqsbKOaJptEiM6yCTzTzlFbA4HcKbXkeFxHoVjbIpiVB0o66dumbMPNXsxE377PkVyWyKbZEHZFXTS6Ot+81J1PTyU7oWgCNxuQw2uVycybXW5kehQd6gZFhsZZTxd928hOqtModqTquGyqlbs+481czEHDR7AfMKDsQkPniH3guN2mIdxejpd1c3EIQQSXNKczKWujLJCH313RXHwQXxekA5OK+pQ/VM9F4Kiw2npK2OoiL+4b2JuF66HF6VzWsLjG4C2o0QdImyjYu30HkoQzQvF2TMdf72qvsQLqqoqBalm5d0rz0kjHxvDhoDYr0NWf6nN1svOvaRHqdCdrKVrGudLEGusAqjGtszczrneyzkEHVc7G9qC0hRV5SygrOjalVOJke7yWnhg7JQRZJzfUFWJVQbdrr8grmuFgSQFZiEXswY5u0rTZZI2gtBeRtzW3NoFTG083eQCviq7+GF6zCSJm72hXRVMP8AihUbI6puzmPb6haKfgNl4lQx0kbRcMaL3KojlY9oAeHfFaoC5k8ToQDKTYA7INM3Hniz18ooqQbRNNnO9UoZpX07/YoPZKRn6x2jnKMjIYpg6pc7EK3lG3VrT6clKdjz9Ni0+VnuU0f/AL1RFWGVb5A8QUZ4puOM43urHCnpps1XK6trTtENQ34KTvaqiIZf+H0Y5nRxClTRNhY4YfCGA+Opl3PmLqgmbLKA/EpRBCfDTxnU+qtBk4J4YbRUoFsx8TlS2SFkpNO01dQN5X+ELNJE6qn+nc6olB0a090ILWV8DJTDQR5pAO9K/dQAM02maomO55BaYsPDn5pdSR9XHoB6lb4YBGA1oFhsxmgHqeamh5HtM18dZTiRzSTGfDsFyAu52tdfFYm6d2Ll6rhrnk+nwf8AJsGd4YNybLXT4VUzPPE+jYDudytOCRQcGSpmDGlr7BzjsEsQ7TU9O4spBxX7ZjsEkY5eSy6jp09FS0Eee7W21zvXExOvpKmvbHSd4kd93I+i4FdidXWvPGkLm8mqzConCrD3DTKUscJ2yvlvxAAUpNiOV1vwRv09KPuk/gqMYDW4NEfec9bcDZ/W4m/ZjKRfTsu8RSTd4imAuryFZOyYCdlRopW/Q/vK8NRRs/qjT1JVwYgrDFMMVjWKYaAgrDFMNUk7oIhqdkrqJegndRzKsuUS9BYXLJK7Ni9IPswSu/FqsL1lzXxuM/ZpT+Lv9kG4uUHOUHPsqnPQWF+ihmVZclmuUGGg72NYu770Tf8A0q+vd/U5x9234rPQH+v4q/rUBvyaFZXEexSnrl/NByo4srQVZZNvgCaCNlF2XoplRIUFZaFEtHLRTcFW7QXugpZufVbIFjj1IAFzfYLr08ApYxJPYvOzeiCyOMgXcrNNgqw8v12Cm1BMKYUGqQCCYUgohSCCQTSCaBhNIJooCaSaAcwO3CrLXx6g3CtRdBFkgcPNSVb4x4m7oZJfQ7oixCEIBCEIEhNJAIQhBgx2dhxcMcR3I/zXCxLDIqxhfHYSDYhQ7TVEox2WaNrjEQAHAXCy02INfo51ig48sUtNJllbqD816LBcOwnGYzE97qer6X0PoozxR1kVnW15rmx05pakCRxYQe5KFVdevwN2DSsa6YSNkHd0sQqmU8kn1YzHpdaKypqaxkPtDw90QsHDn5rIyUxuGpDhzRFhhmYe/E4K7Dqg0tdFKARZ1itMWINeLSmx6jZWRSwTTBrSHO3tZQehqJKHEi+gqACS0EA/yXzrHcOdhmKPpXPzgNDmu52K9VjNMX0QrqVxbUU2rrc2ryeI10uJVvtE4BeWhmiK6NE3LTxeYutVu8VGOPLGwW2aFYLi6gVkrKQB5p+SCFlEhWEJEIK8qTm+FWIe3VvogpLVEtV+VRLUFBao2VxallQV21Sl5KwDXZKQd4BBnTVmRRLLIIoTsgjRAk+SQbqp8rKiKYRshQPZNLX4JhUMJu2Sshx0UGGsAMzB91SonviqCY9couR5KNWf6x6BSwt4GIAO8JFrKjtQOiqBnYdeY6KEjSDuqXwugkMtPprq1Vur3B1pIvkitAurGOPQLM2rgO7iD0Voqqf7f4IjWwu5Fdag0Gu5XCZVw+6SfgtcFc/aNupQdWuySSQAkZmssVQYW20KiILHO8kvO6sbEx4IzuDhsEEYg4EgOsrmvmGxDljcZIcz9CL2shlYOehQdFlQ4eJh+C0Mnadx8wubHWMI3WiOdjkHSiEDrXa260gWGmy58JBIIW9hu0IJIQhECi45QSpIQYpKxhNlQ6ZrjoVtmpYJR32D1WCXC4TrHM9vldBISC4UZO883WcYfUxvu2YOHQqiV1XFITkNvJFayG9FBzGnyWP297fHGfiFNuIRu3FlBaWa2DlW6J48021DHS3vpZW52nYoMjmvbyd8FAySN2c4eq38lEgHcAoMQqpG72KmyRlbIymkjDhI7ZXPgiduwK7C6aNk8lW7RsTdEgpFFSUlbN7PHluwxmx6rhTdlo7kw1ZaeQcNFu48j5HzBxBkcXKXtsrd7O9VraMlNhNTSYBU0mkskkuYZTyXm5qCqgP0lLKB1y3XsW4k0fWMI9FazEad+gkt5OCbWRwuzFKyanqS8lrs4Av6LpvoJASGvBHmtzeC4HhlmvRBivcAkXG4S1qacWxdOKdnedzstOISgBkN/o2DULTSULKR0jmvL5X7F3JYpKCqkqAXtBaTqQVK9OPWNuHNYyNs3CHEO2qVa8vNonCw1eFpyjRrRYAWXGmp6nD5nzQEyxk3ex3RJHLLLtVdbRtmYHN0fycuSLtcWOFnDddxlTFK27Rvy6Ll17Q2oDwNHbrTCNDN7PVtf7rjZwXYnGumxXn5AQbtXap5/aqKN3vt7rlEJ7NFgxKEy0b3e9F3h6Lok2GqqLA4OB1DgQUR5dshAvdSExVz8OlY4ttoCqnUszf1ZI8lWdAThWMl6FZXAt8TS31CQd5oOth0r34jEGagAk+i7rhlkpmfaeSfkuP2ZjLpamQ8gGheooKZtTV2c0HI02usZN4xQd7pIfVUQkex2Zga4i/JTa2mmH0VUPQ6LlY6xAjRQKv9jm3ZIHhQMcjdHRn1CzprbnYobURbwy/iEjL8N15l9LIwase34L0+LvMMcDre8VjZWscLOC64enLNwDEVEseF6I+yzeNjVU7D6Zxux5b5LpHJ5+xCF2n4U+3cLXX6rJLhszTrEfgqMOYjmpCVym+mc08x5EKBicOSgkJlNswKoLSNxZKyDY2UHmrBIufqExI9vNB0RKpiWy5wqDzVjZwd0HQbKpcS6wtlFtCrGvKDUXXUSR0VHEKYeUGllRKzwSOHldaGYlM0jMA9YQ64RcIOrHijL6tcw+RXQpsZkb9VVn0cV5u4QC2+yg9kMdqJInRyNjeHC1wqm1cZFntLV5Zsjm6tcQrW18reYd6osejc+J+zgqntHJcZuJtHjjP7q0R18DtpC09Cou20sHRQLAhk4I0cHKfFB3ao1tOGk4zmhshaXeS7NDhIpWuM2WbNqbi1lzqCaITsu8Nsea7ElSGloJE0zj3Y4zcfEppLXC7UMjhkpmRNyuIJt0XEbTSyakaeZXcx2OQ4kwzlucxA2Hu67LJo0akIyyNodNSLqyPDHvPdkZ8lYZmD3gr6aoAPjCqkzDpYrG7T5hbqcB0rWzP4cYOrhuAhry6xDgVpprOkb9DxHcm9UF0ErngswyEQw+/Uyc/MJ07IhKTStNXUe9PJ4WqyYBxDax+c8qaLb4pva7K1lQ4QRe7BFufVERcYzNaQuragHwDwMVBmlqXObVMdmabNgZsVtax2UMa32aM+63V7v9FbHA2IlrGiO/Jurj6lVGaOncQGyfRg7Qxb/ErUyNrAGNaGj7DP5lWtbbM02At4W/zK5tfj1DQDh5+LIP1cf8yg6YbcWNrD3W7D1K52JY9RULSxz+LIP1cf815ysxjEcSuxn0MJ9yP+ZUaTCgSC+5JPqqrNiNa/Eas1L2BhLQA0dFlV1W0MqpGN2abKlcMvb6nF/wAxnr3ObSZA4hpdsuZFEXPXUqY3TNY0bA3KshgjiGgueqSmXHLdqqajB1cNV0IYgzkhmys215K7S4yRjxiXNRRR/Zcu3gbf68fKJcDEnxuiY1rdc2pXocC/tEjv+mAkea/10neMpgJe8rGhdo8tACkAmApWRG6jb/Uo1cAq6P8AsMd+iQraYzinbMx0pF8oKC5F1AuUC9BbmUS8KkvUC9BaXqJcqS9RLygsL1AuUC5RLkFmdZ2O/wCLzH7NM0fNxU3PHJZ43f8AEas9I42/mg1PfcKovUXFQzIJ5k2m7gPNVXUotZWftBBkw897EHfarH/gArKw/wBTf+20KnDDemnd9qpkP4qysP8AVbdXhBl8kwkmgiUuSkVEqCDhdVvblZ8VbzWmjgHeqJvqma680EKWnZQU/tVRYyu8DVESPmkMkhu4/gs09S6sqDI7Rg0a3yWiFBqZsrQq2bKwIJhSCiFMBBIKQSATCCQTQEIGFJRCaBoQhA0IQgAoSR5tW7qaEFbJPddurFCRl+8N0RuzCyCaSEIBCEIBCEIOPScQU7MzWvBHPVJ0VPK60tEw+eWy4MDa5jWcCoc2wFwdivTU07XRtzuGa2t0dZGc4fQnaJ0foUfoeCoHDEpIOmq6HdcNwrKWIcZltiVSyPJVVLU4NUcKdpdCT3XIc1kzczLEeS9s9tPifFpZGh7G6ZuhXlMR7PVuGyPlpWGWAakDojm54cYzZythPAnjnbyUWPjqo+7o4bg7hahG0wMaRsFEdGXE6b2WUcQXewjLzXjHN4brldSWFpd0IWd8d+64fFFW01a540kOmlitbKqTqCuJJE6KQPbstVPVB3ddoUR1fajzjv6IFQzctcFkbIp3RW1s8RGrreqeaN2z2/NYtCNlGzeiDcdCm4jN8FguRsT81ISPHvINqiQs3tDxuAj2kc2lBoIUSFUKhp5lMStPvIJgaqL2/SD0QHeaC68igMqRb5KV0iVRWWJZfJWqJQQyocFMbpOtdBXZACkhAggJ6JoEEOTUTyQYJzeoceijQ610Z805DeWQ+aVF3akHpqqO2XmNxDtr6FQlayUai6m8CWMPGxVBBb4SgXscZ94hTZRREgcRxSZK8aEBWMf91QXMoYm21JW+mDIrEDVY48x8lvpoxccyVYja05iA7c7JltnA7EKMjDcNvZw2Us+dl/eG6oy1LbVB+8LqIiaeSsrHZZY/MJsAUVWadtibbLPTScRzmjlzW2Q2Y8+RXOwrWOR3mg61NmIBDtAutSOJBB9QuTS6QH1K61PoW+ig0oQhECRIG6CQ0XKollY8ZQ4tPogJJL6A6Khzlnmincfontd8bFY5JKiE9+N4+F0V0czlBzyVigrS9jybi3UJ+1s6oL3WduAfUKh9NC7dg+Ck2piPNT4jCLghFZH0EZ1YSPK6qdSyM8LiuhcFK6iOc10zTYPvbkVLjzN3bceS0RNDi91rgu6JvhaRfZBmdXZW95jmn0W6td7LgjIm6ST7/mVIYfC50DS15c43JB0CyYzPxsQyN8EIy/FUYSbAAbBVPKm4qtyqKZCqrjmFKVUSOsLBBmdiTWSluV4tpcFaafFn3syZw8iuXIwZz1UMjtmeLkg9LHi048TGPHyK1MxaE/WxOafI3XmI3VbGguLTqBl8luDuqLt6FlZTP1ZMAehVoyvFwWuv0K81cdE2uLT3XOb6FF27M+GwyOzguY7yUa6gjqMOFPFG0TNIOcndc9ldUs8MpPrqtDMVmH1kbXeY3RduXPh1dE2zqcvA5s1VWHzuglfHI17AeTmkL0DMWhv32PZ+KvbVUsw+sjPk4IOOZGv2IRH9YG8iuu+hppBfhNN+bCs78Lj9x7meuqIyOY1w2B6qPBafdWttDKwWD2uCOC8eJqIycBrtHNaR5hZ5sLpZd4Wg9RouiYzfZPhFKKsJoI6OmkbGSc77kldnCmlssxH2Vjp25YSPvLbRP4UUrxobgLNdJXErcJn4zzG5rgSTYrF7DVQi7onOH3dV6WU3lJG1krLOm5lp5kSyQbOljPxCtZilW3wz5vIhd9zA/wAQBHmFmloaZ570LfgpprtK4mOVj6jB45HgA8fLp6Lgic312XoO0NERRU8NMwuAe55AK82+GWM2kjcy/ULeM8OGd8r2TdHK5tQ4agqqBjWRZjuTqSjODtt1WmGhlbUNPjBHSy0x4nYd9i5osTa6dgqOw2rp5R3wD6hHs1FNyDfQ2XFLSPCpske3dQdJ+Esd9XL89Vnfg03uhj/RVtqpG+FxWiLEpWbm6Dny0EkZOaN4+F1nMDuX4r0ceLMIs9l1ZxaGoFntbfzCDypicNwoEFq9S7DaST6t2X0KzS4I6/0cjXeoQefBJTD3N2cV0JsKqI3axE/srJJTuYe8HD9oIItqH+RVjam3iCpLLKKDe2dhG9lYHg7ELMGeLONLd1Qyjdp1QbbozWWLM9vvI47m+JBsMqzyzSNFwR6Ko1I6Kp8heVBZ7TL5JioeNSLqDGlwU+GSctt9EHZiN2tI0uFpZNI3TNdURsyho6BWsBccrASegU0u2hsxt3rLVhvElqGGnLo2g3dJfRoU6DCXT5nzDMG2tHfc+ZXZbDHE0CRoe4bRMGgRWOqoPba2SaCRzmNaG5nbuPMriVNLUSVD2RizWaE3Xr4xJFUcWeQQks0ZbSwWE1sZe72fDZpyTqQLAqo8saSRhsXZvQK+mh172nqF6iCStcSTgzI2gaFzxcp+0VoH02BNc3qx4RXGoopZKhsUepI0XeioDSgSTVGS+lm7opKuibO3NRy0sp5uZp81ulppXtMkMjXPt3C8XDUFLIy1o4LOADu92r3K1lMGasBa86lx1ef9FUZJ4HASsyj35L3J/wBFz6jtPBCHiOIudsLH8ykR2g0Nbc93rY6n4rm12NUtIHRxniPto1v8yvPz4niGImziWRk+FugV1PhzpANMx8lUU1WIV2IuLS8xsPuR6D5pU+FNbq7vcyAu5T4a2O3ENvIK+oa1kbWsAF2u5eSgz0uHMZG1xAAdyC6VNSsB0YAFCIgywxkjXl8F0wABoEHzjFWtZilU1vKQhZFqxI58Rqn9ZXLNZccvb63F/wAwrKQSUwFl0WxhKaYQtBcC4XtYblANgmHMYWveLta4FVyz9IV+IRtpg00ZjLwQCQul2azGOd7uQAC5GNOzywDKRcEi67eBjLBUW2u0fgtR476rqBWNVLSrGldo8y9oumRooNKm42jcegQUvp5aySNrqh7II2gGNmmY+ZXMpWMh7avijFmxRO0+S7lIbxE9XW/BcGjObtpXv+ywj8kHoy/dRLlUXqJcgtLlAvVeZRc5BMuSLlWXJEoJ5lEuUbqN0E76qiN39drT0LB+CnfUKmHWorD1kH4NCC4uJUboSQO6sh+uZ6qlWRm0gPQIMeE/3fm+1NIf/UVOsP0LPOT+SrwrTCYT1zH8Sp1f1cI+8T+CClJSUXIBIouhQIRmSRsbd3FX4pJw6f2WM6DeysoRw4pKp3Id1c6R5lLnu3JuUFUIsAOi2wbLHHutsOyDS3ZWBVs2VrUEwphRCkEEwmEgmEDCkohSQNCEAIGjmoue2MXke1o8ysU+N0MGmcyu6MCDemvPTdpJj/Z6YNHV6xTdocSAzNfG391B65C8pSdqKpp/rMbJB93Qrs0uP0FVpn4T+jwg6Spd3H3GxVrC2RocxwcDzBScAdCgBrspKqM2JaVYgEISQCEkIPNU8dhqVZNIIYy/xAC65DaqphuQ4OYPJdqgjOI0OaQBodos13V0c/tNspsegK9Bh17tc73RquZSYZ7LcN5rqRng0ziN9AtRm+hgzmZnuaLZ3uJ9V0eM7XmFycILo5p2PZYElzShorYriOoY8XNgVquTHjXZ4VJNXh5EVRu5o2cuBBUPbIYJgY5m6Frua9Z7XXs1dDG70XNximZigDpY+DUAaPG6yrk1NnRXaO+N1l0kb0KlxpKWUU9eLE6Nl5OVj6fUFhQY5GltwRosksNjnYV6KBz6TUsZI0+Jrhe62Cjw2uZmbAGO55T/ACRHlqeqv3XmxW1rlPFMBkp7zU/fj59QsFNI5xEe7joBzQbrlF1AiRm8Tx10S4jeZt6oLEvJJpB2UreSBFK6dilzCAuloU1E6IM0gmZUl+Y5LcirTLLG8WNwVNwD2lp2OizsJB4EviHgPVBsZUPO4BUuP1CysJboVYCg0CZp3upZgdis107orQDqg7rOCRzUs7uqC1CqD3eqOIeiItsjyUGvF9VO4tuEBZRcpKt57rvRFc+93PPmrKJt5HHoFVFqxy1UDdHOVRqp5DESx2sbtvJWusqyAlct9EVJSYdVWHgqTXC6I3wi+66FO4Nc1cuF/RbIZwwgkXdsAg6U2ZtUzybcqp0gZUvB5i9lfwy2nbK85pXnX0WQPa6scSL5dFRGuJzMLtDa/onSBojLgD3jueaWJyBsQcfGToroS9lCyM663BtqEEKh+Smld91Y8L7tCXfacrsSdloJT6KFG3LhsY66qK6UGlNddaLxj0C5bRlp2DyH5rqt0kCg0IQhEVyrK5q1yC4WdwQZ2DQnzQXO6qTW9weqRFkFReQDo0g76LFJTQP1ILT5FbXt1VDhYoMbqEe5M4eqqNPUMuWvDlvG4VN9/MorMJKlm7SpOqJGtcSDoFddDI+PUxQgeJwJ9EF80jKTD6Rkmj5DmKrNTEQcrx8Vmxab2jFXgfVwDI0eawTW4bj1Qemnqn0kMcnCL28M3cDseS8+HixJeC9xu71XpGmUOhj4bTDwrl19j0soSMpZKhsElMHOcwuzBug8rqjzjlAruSYbh7pRGHuZK5uYNa7ks8uCOJtDUi/R4QcGc2KzF1g6R3haLrdWYfUx1nspa2STLm7vRcbFHuitSkWcPFqrErE6d1y625VkM4Lxn7vms/kiyqOqyRhtZ4VoK4nzTbLI3wvI+KK7WayeZcllZON7OVzcQt4o/koOjmTzrE2uhduS31CubKxwu17fmg0Zk7t6KgElPMUNr2vLPA9zfQq9ldUs2lv+0FhzJ50NumzFZB9ZE0+YV7cUp3eMPZ8FxcyMymjb0LZ4JALStKsDGkaC/ovN91TbK9h7kj2+hU0Su+WW5WWqjkhZDIyXc7LzrMRqWaZw/wDaCubirv1kXxaU01K7EYBGp1snoPeC5bcUpneIuZ6haWzQyDuyMPxU0ba1ByqAtrr8FMyX5KaXbHWEB13bNaSV5nE3SPhbVvJ4ch7renSy9c6NkuZr/CWkFcCji9qxFsVYyRlPTNIgYW6O9VqJXCjic9kgkuCLWCWjG5b6groVzx7bVDQG4WB8WdxPVaY0QPQoDiORQGZAB0VrbZRdRUC5wF7WCXEC0VULgRwyJIjqCNx6rPwxzCCQde/ko5tLqJAaDZJrhpqgnxLBNs46qMd2NleYy+NwLdORWUXA1QdFs5GzirmV87Do75rkZnDYp8V45oO83FZPfaCpfpalf3Zm29RdcETnmoveHIOviDqKSAuhy5j9lcyogZDFTPaSTK0uI+JCiAGsceoVlVrDSDpH/NA6WCWYOMfLkSnLHURD6WIhvVaMM7sDndXLRXzkUlvNByOKPNI95dXEJYH01PEWNDmxgkgc7BYWxsyXagy5STZXMhA8S2UdJPVyZKePMObjsF124DLG0OLmPd0QciGnLgNLBbI4WRWIFytrMNqnuDeGGN+1ddSmw+GnFyM7/tFRY59Nh01RZzzw2LqQ08VO20bdeZ6q7kkg0U7WmnkD5OGHPa3N/JdmipeDG52W0uwJXGia84e97GsJ4u79m6brXRYlKBkfmqGg96TYBQdFrX1QLamJoDTt1V4YGNyxsb6Dkq4amKdhcx3dG5OinmynY/BVHMlw60he6eTU7N2CYhDbBs72PO2bmt73MkZlJcB6LNLFC7I175XtZsAFVWU8ji/gVQGfkbbqdZWNpA0ZblwNh6Kp8zy/NFTnNsHPNlQ6kL5eNXTj9luyC/EWtqsHlzjLmjJFuRsvM0eCOcxj3g/vL0U9XxAGtZ3G8lQ+Yu1uojK+hZBCS113AGwA3XHjkrqa7mGRhebkWXalma2VgzbX0VlPDU1VrNyMHMoOfTV9fKQ0d71aupFR1NRIHzEMsCBZdKmo4qdujQXHcrRayDlwYUYayOoM7nlt9D6LqHQFNQlOWNx6C6K+azOzSyu6yOP4qtSJvmPVxUVxy9vrcfjGAKQKVgBckKt0zW6NFyklTPkxi8XVb54uMKdzvpDbSylTF752h22qwu17QNH/AFR+S3108uXPvxGnEYXuxGLQ2DNV3sFN6Sc9ZP5LBUtDpJ3c2saPxK2YMbUjx1eSkc8r/q6TdlIOVQNk7ro869r9U3yHhu9CqA5D3dwoN1Cf6szzefzXBwo5+02Kv6G34rt0IcYoCH2GZ2Ztt9VwcGP/ABXEn9X2v8Sg7xco5lXmSugmSldRuldBK6RKjdF0DuldJJBIbhUU+pqPOYq5viHqqKbWOQ9ZX/mguSQgoBF7Bx6NJ/BCrmdlp5z0id+SCvDu7hVMPuX/ABRVbwj1KlRDLh9MOkYUar6yL9koK72VbnX2CsQQggkQTYDd2gUirqJnEqmE7M1UFlcRFTx07Omq5kps1aqqTi1T3choFjnOqAj3W2EaLFHuFuh2QaWbKwKtuysCCbVMKDVPRouSGjzQSTGqyTYlR09w+UOPRuqwy48Xf2any/eeUHbF1XLVQU4+lma3yuvMzV9ZUO+knc0dGaKjhNJubuPUm6Qd6fHoWginjMh6nQLDLjNdNo1zYW/dCwEgac+gV0dFVyDNHRzOHW2ioplzSuzSSPefMqIAGwsrJY5InZZY3Ru6EKBSJUHrLUfVLU9ZKk9xUVQ+FWWDtwqodlZtsojRTVdTSG9PM9nle4XXpe087LCrha8faZuuCCVK5UXb2NPi1DVEGOUNcfddot7dRcajqF8/s0jULRTV1XSEcCoeLe643CK90kvPU/ahws2sp7/eYutTYnRVg+inAP2XaFBrQlkJ1bqEIPLyYC4xOZDWsN9NV2cNpjRUbIXPa5wGpBXnYWAvkJccodYara5nCnZwJi9jm3N+RV09v1eHoFXXOdHQNy7vkCjQ8T2f6XfldRxV1oaVnVxK1j7ebkmo00Mwlf6DVbn01K4axa9QVx6AllLVTAatGiqpa98re7IQ4btdyVz9uU9OpU0kjKZ7aOTv7gP1XLfJLMRxWFsrRYtWkVk494H4JTVhe3NIxuYDRw3XNWCopo6uIxTx3byvyXCmZU4RJllvLSE91/Nq9D+lHNIFRABEdM45KjFZmthZBAWyvqDlYDqB5orHDK2RgcwhzTsUSvdTWljdYnl1VFXg9ThbPaKR/Ej3kjvsedlTHUMqQHDUt9w8kR1MOxsPqPZq5oic/Rj/AHXeRXRZhlJBUGdsI4m915uspTLRvfI4EgZhbkrsKxt9LCyKrc6SGRt4382nog9NTC8TSWg3J3CtdSUsg+kp4z8EqJjn00T295hbcEK/QciPUIME+C4eWFwgyW6Fc79EwvH0Mjm+uq9PFGyY5S7koyYd9gN+GiDyb8JmY7K2Vrr7XVL8PqY/FGD6L1pwx5fmtytupOw5xbrqEHinU07dTC+3kFSd7EEeq9gaaSGR7dS0DfosNZRR1LCctn9QEHmiFXNCJW22cNWnotM8L4HlrxsqM2qCmOTiXa4WkZuOqsa7lzUZWZ3CRmkjefVDTxG5m6OG4QXBNQaeqkgeqEbIv0QF0XSsgIHfZO4UUkErpOuWkX3QhBlbGWtcOa10dmxOHO6hbVQjJjeRyVG8FBCqadLqeZBWQASAbFDQ7k5TcA7ko5SDoorRC2T7S2wDIepXPje5p1K0sqA3/VVHZmxBrILvNiBZoXMjqmRd9xu46rO+CKd+Z8jj8Vso6WCJ5OXN3DbNrqqHEySskE89wweFq6T3AlltgFmj8ICsCDHjDrUBHVwCub9HSQN+6Fkxx1qNg6vWp7w4QAfZAUV1Ld2IebQumPrCfNc8ayxD7wW6M3d8VBqQgbIRARcKqVoyOPQK1Qm0if6IMzG3hYfJQcOS1Bv0TfRUyNQZnhUSBanhZ5AgpaO8PiVQPCFpYPrD0YT+CztH0bfRFQWnDiImVNY61omkD1WYqqeY/ow0sYOZ8t3nyQY2Elud2rnkuPxSeLtaOrh+anY7W0QwZp4G9ZGj8UHp/pBMWlreFkGU87rPxyJ3RZXCzb5uS0/SCokLsvC0yW3v5rFUuc2qe0xEMsCH30Kos9ohNSWAt4zWX21A9VXNJFFUNmd3p8uRrc249FS2djpXsAGdoFzbceqg5sD6rjZW+0NAaTzARHLraw0mK1dTI672RAfErx8kjppXSvN3ON10+0FQ5+JVDb6EgFclouQqNtFh01aCWOawD7XNEuH1MMjmSReH3hsVfhs7oJQCdCuwZhURvaA67eZ5+iqPMmI3tZR4ZXRJbncOhUQ1pJNlFc7KQl8F0OAwqPs4OxHxQYEWWs0p8iqnU7gNQQgpEj27PcPirW1czffB9QocIpFjhyQaW1595l/QqwV0VtQQsFikUHVZPG4XEgUhIOq46M7mnRxQdniDqjiea5IqJB7ykKt4OoCDq8RHF81zRWD3kGrN9ALIOgXgqJcOSyNmDhcFGfzUG1lVLEe5M4epV7MZqWEZrPXMzXao3Qd9mOxn62Bw82laI8WpJCPpS3ycF5jMUF10Hq3wUNW3vNhkvzB1KzOwGjJuwPj9DdedDwNrj0V8VdUReCd4HmboNk3ZyTOXQ1LXeTxZYJMJxGI6wF46xm63R43VN8RZJ6iy0x46zaSAjzaUHnniSJ1pY3sI+0ENkB2c1eqbitFMAHut5Pah9HhtUM3ChcTzabIPKOsVER31C9FL2doybxukjJ6G4WZ+Azxg8KdrxyzaIDC4h+jgXe84q2ShikGrWn4Ls4JAynwuKnqA3OCS75rg1VbLFX1DWttGJCGgt0sgolwqE3sHNPksj8LB+qqWHyK7EFVx+6WgG3Jct2D1DZC6Z7WNuTcHWyDC+inafBmHUJNgLe9JdoHJdWKNrO6HOd6lN9I2U3cTbog5LwSxxA0HNSqDdsDb7RhdSppy6jIZGcgIFwNAuTILSegsg6WFxOkpQGtLiXHZdPGqEUXZtrpGgzSTgX5gWXV7K0zG9nIpi0Znudr8VR210wqiZ9qYn8EHjap95/RoC7OBYM2qg9pqb8C/db9pcKo+tcvb4K3LgtG3qy/4oNcbI42BkTAxg5BTSTUqwXTSQooQhJBtp4BNhjWZHPBlJtmsPitkFK0NtIWutsBowf6rPTSNgwuB0hABc46lYKvtFHD9HStMsnXkFpHellhgizSvaxo5u/kFyZK2qqJXy4a1zhIAzM8bW5hQwylFfG6qxKW2vhJ5LptrIIW8KijaOhOgURkhw7EHRF1ViUkN9SQdVRT0tbJmc+vm4INg9ztx6Le8uks+Vxe78Aq3ZnG3LogieHC36Mvkf9t5ulxHOdd5voq5HtYDmI0WGWse/uQt+KlVumqGxC7nW0UKaCqrnB0QyRHZx5rHHSullj4ztC4AjyuvYxsaxga0AADSyL6YqTCYaeznd9/MuW8AAWGiawe0SvrqinBAEbWkH1/+FUX1VZBSMzzytYPM7rj1HaHPHK6lZZrCAHu5rDidEJaxpia6Z5vck3AKqxGkFHQNY9xBkPeIOyI6GEYxV1eIsglcwtLSdAu5Wuy0c7ukbj+C8JhWMRYZE08DiTtJu++45LPiXaSsxC7JH8OP7DOfqgzl7WxgEXO6pfU2Nm2CyPnIHQKsGSUgRtLj1WZHe8uVml8lQTsVVBMX1IBN9dVspsFmnAMmguujV4ayjoHPFswIG3mtac7apong1Fvu3WCLvdogf+qfyWqg/tX7qzUAz43m+88pWZ7dSd1p6kdWMW/Cv7I0jm4rlVclqqoH3WfkuphH93RHrqsz275f8t6EkLbzmhx0Qonl6oOe/FMVle6loaYRtYS0yOFr6q/CaKSiZKah4fLK65tyW26EE7ouo3RdA7oSRdA0roSQO6SEkEmeMKik/s1+r3H8Ve3xhZ6T+xRHrc/iguQhJAKqs0oqg/8ATKtCoxH+7Kk/csgtiGSmhb0jb+SqqPrWeTFf+rjH3B+Sz1H148mhAgom4Kk1BQQIWmh7kU0o5aBZc2pC1j6PDj94qDAb2JO5Kom5dVqI08ljmcA/dBZFuFvhBtsuWJ8g7ouUjVTuFs+UHkFR2eLGz6yRrfUqqTFqaPSNrpD5Cy4pFzd1yfNMBBukxiocLRsbGPxWOSSWbWWZ7vK6ikrEINA5JhCOSB2TF7hrRdx2HVR3XX7O0Yqp6id4+oADP2ipSNmG4fTUETZpmcepOpJ2b6Luxyl8Ub9s3LosjKPMTxHkFVRRyzVPCJcIo294jmegRvSzEKRmJwSMAHcFxJbUnovF+4Cetl72SdkFFNLo1rGGw6aLwQHcF/VWM1W/ZZKrRi1yLHV+AeqMq4fCp7KuLwBTugldO6iCEdVBO6V0hshFSugBt72seoUbouiNUWIVsLcsdW/L0OtkLKhFd+jw0gZJ5GgEakdU4aeoppLd2RrTo4ncLrOjjvqwFVVDxG0ZI73Oy0932NjX5mB2xsp1UWcMkADjCPCfNUs1DQNCbaKTnv8Ab6oZxww3Y+QUcM/Ie1kOFSuZoJHDRcyWnbL3mOyPGzgunWU0s2G08cNr3zEE2XPkp62BlzELDpqpfLnpXFUua7h1AyvGzr6FOR+eRrAfMqLZWTstJTskHrZQ4tJTvL3U87dLXY69lEa9C3K5oLfRcaAPbjM80TM8dMMrW3672XYgmopwCype3ykZZZcKizTVz2yRk8Y7utdQcvH8SfUvho6Zzm5z3xsfRX1uC/Rsmo3ZahjRcE6PUcQoXDtDE5xa0uAc0g31XS472uyTxuY77VtCg4IrM0E0MzeHKGkOaUmRtcMPiZqQ0lynihEkxc/LnB7pH81OgjMbhLJ4rWHkFR1aDEZsHqG5bupZDZzT7p6hejGMsA78Jc063C8vLGJ4XNtuFHCqiVlMI5iXBpy67oPWfpOhlFjeJx55bW+KzGocyQmOYkfave65+YEaatVfEF8o0CI6NPilU2Z2d7XsBAsRYroDFox4o3t/FeYke5kzspU21Uw966D0xxKncD3HEAa3CrNbQHfu/uriMqXeyVEhHhsFCOqDh3mFBpxaLDqyO8TyJRsbaFeXqIHRPIIXoc8bvdVFTTRzsIGh5FB57UbIaLOzN3O6ungdE8tcFSdEDO90XS5IVGimnYx44rA9h015LVV0bTCZaS1wL5eq5gW6gqjG7huPdP4IKaHLWNIacsg3aVqOFznVrmqutw6SCobXURsb99vULqU9THMBY2fbVvRRY5TqCpbvHm9Cs7gWOyvBaehXoQSCVkxGlbUQ3bpINig5KV1CGc08zXubmDTZ7XdF2iykkYJY4hZw0sqjkEXUJW3aCN11TRxP2zN9FS/DXgF0by7yRWSB9xY8lbdUxU80kjhEwm246LUKedvihf8ABEIJ2CViN2keoQNUDQnZFkAN1MSOB0cUg1MBBcyaRpuHLSzEJR4o2uWIJ8kDxGp9pbG0ty2ddWmfhyR+VllmF235hKp0a13VFejpsShfNGCHCxvddeB7XAPadHC4Xkqd7WxGQjZp/Jeop8op6Yt5xhQdJvhCaTPAE0QKuYXjI9FYqKiURtJc0kDogutpZUSqr9Iw7G49VE1UT/C8IISuWd7rqyRwOxWc3JQTtlpqh/Rlvms9rNA8le539Qn8y0fiqHIql26rcrHKtyCBPVSpWA1lPp+tCgVfh+uI0w+8534IO2OIHSZ3Nyl3dtuAs1RxJGSB0RYGO7rr+ILQwSAkSPBu4kWGwUAZJA9sjQ0ZiG2N7jqqOUyVsj3tbe7DY3CrY6H2mR7MpfcB5H81IvPFlbkc3I4t7w381TG+J/FfEWkgkPsOfmiPMYmxj5ZZCLlztFga0NAPRdCt+r9SsQaUEuOI3DmLXuFpbi7422ZEHepWSZlnj0UA0LQ1mtbK674cpO9kMkidez7eqriiDxsrPY2u5EIJtFhYG6YBA1VXsEgN43pOjrouRcPmoLQ4huu46Iz92/LzVHtb26Sw/grG1ULuo9UEzlcNQ23oouiYW7WU7xvAs5pBTLL2GqDOaZp8Jt6qt1ITsQtZaQR05qitkfDGwxkAuO6DM6keOSrMLhuFYKqf7f4KQq5ueQ/BBlLCOSiQVt45d4omoJa4eABBgKLrYYWnkmKIP8Lmj1KDGL8lLM5vNavYJ2+ExkftLRHh8jaOaV5ZcdXbFBmhdmhBKkk0FkbWuAuhAJISRCCEJIC6LlCSinc9U2vc3wm3oopKjVFX1MXgmf6XutceOVDPHlf6iy5SFB3o8eicQJISPQrUzE6KbTO0eTwvLpaIPXBlNJrHw79WlVy4fHJqXvufO68sHOb4XOB8ir4q+sj8EzreaDsvwlv6uZzT5hUS4bVMBySByzx45VNtnYyRaWY7C4/TQOZ6aoPUVMDGdmaSFrWgnKX262XzmqGWrnB5OIXqY8XopBYTlvk64SfQYfVguyRuLt3NdqUHb7PMydl6EdWk/iud2wGeKhZ0LnLbR1YpKOGlEd44xYa8lmxVwrnRua0jhsI16qDwlRq9y97RM4dDSs6RNXj6nDawPd9A7KSNQLr3DrAtaNmsA/BFhIQhSqLoCE0Ai9teiSUmkbr9EG2fCDidBRZp+DBGCX253Wc4dR0ruHQfTO5np8VuNOJaaja9zsghBLQbAq9gbELRtDQqjLFQWaHTuufshRqMMpZ9XNcCNi11rLTLUxwi73D0CwSVsszi2nbYHmpSKJqJ9ILwV8jPuv1WV9ZijdGMZMOo0K3x0eY5pnZj0V9mMHcFrIrjwTuL3Grgljtck2uFqhrqE6RytaejtCtMktncM3JIvYBc6thie0kUrJH/ACRWmSqiHhkBPkVZTdpZoWBj2CUDQG9iuJRsc1kjZaPhDNo6/JUTCKMAMkJN9uQCsK9zh+Niuvlp3tA3JOiKuuoqaollnqGMD4wC0HU2/wDleI/S1TBTcCJ4jYeY3K5skpc7O4lxPNyMPUV/awAGPD4GsHKR2687VVs9U/PPM57uhOgWQvLzZoLj0C00+F1NSLm7R5IMzprGwJUoqeoqHDhsIB5ld+jwWKKxcwvd6XXWNKKSPMWMZYBwBO90WPO0uAbOmJPqV14KWmpx3W3I6BMzF5tYuOcRlrNgTruoOcYhnmcIuC4lzW6kt2CNRfxbFsbXCPP4Od7brk4pM6XDo5WMe1sr+8XHa2y3hkjGPjpYw18Dhkkk5h2rlz8WkYWDJPxW1Dw9gGzWgW/NCs+Hf2gnyWfCBfFnO+68q2iOV7vRQwT+3uPRhSs4+zxN+Srmd6D8F3sH/uim82ArzWLO+knP37fgvT4WLYXRj/pN/JZjpn6a+SEIW3E0ncvVNRO49UVZfVCindA7oukhA7oukhA7oQhAIQhAwbXPQFU0otRwjowKbzaKU9GH8koRamiH3AgkmkmgFlxLTDZfMtH4rUsuIi9Fb7UjR+KDW4WyjyCyzj6d3oFomlhYbvlaBbqubPWsdK50YLgeZQaACgkDxGywOq5j4SGqkvc43e4uKDdLUQN8Lsx6BQmxKSWNsbGNa0c1j05JFwG5AUEy5ztXOJUDYbBAcX6MY5/oFa2jqX7hkY8zdUVJWVs9P7O8M4mckXOirVQkwkUAoGkhJVDQkEDdQSG/mvQ9kZG3q6cmznuDx56WXnVOGV8UjZInFr2G7XBFe+cxpka17iCApBmU5gQAdyV5WPtNXNbZ8cUhA0JWOuxatrgGSTZGfYZoou2zH8VbUv8AYqU/QMN5Hj3j0XFJTaA0ZRoElYVXIVkq/AFqkWSrJyBGVcfgUlBnhUkU+afxS9EKCW4RvaySAUQxshK6AeqKkNQhRshB6o4lOQQaZpPkVwpoa90rpC+XMTpY6BQhxmY6EMK2sxMnxR/Io6bdDAq19mxVjrOB0J5hdOtgPDncT33uBaeoXDZVxScirxO2zRxTYHYnZDb0Mr7VDWcmMAU396J43GUqlpbJaUODrgaq6NrpGPy/ZsiPHUU54d793MQtbnB9uixtbwzJGwG4cQQOt1Nr3jdp+IWQ23a7INi7RKjs2qrYXfbDggyEuabC4VM7zBWRVJBDXd19k2i9kTZsVqA6+WNjQPJbGUBkaW+1z5fs5rrDTOLa6rdc2dlsuvhkjZBMAbkWXPkysm43jNs7KCGJj4xGHFwFnu1KlFhcr3BuUEeS2TNtH53V1JUcMg22XHj5bfbWWMRjwOeMe7boueaF8T5BbndewglbNGHNSnpmTDUAHqvVHJ45uZpynZRayQytIcMtxcLt1uGEXcPwXLcx0T9RslFLwTI83G/NRIfyF/RTIv8AEpP7r0Q3PyYM93+JOG/JUsqIj3Q6zui0Tx3wumj6yueVnjpxHLn30RVnFb1RnF90yAd2hVOp4XnUOH7JQTmibOyzt+RXJqYDE6xXVbGIz3XOI6FKaNszbOCDiIV09OYna7KkixVQig3tonulZUdClq+JTmnmPo5c+pY6mrGyPect9HD8kxo4KyUcSPhu1CiurSTienztde5V9156lkqKWURxnMwnW/ILrtqD0QZ8TpNOMz4hV4VUNjl4Eh7rvAeh6Ldxg4FrhoVyKqAxSXae7e4PRB6QADki4Gy52HVvtEeWQ2kZv5raCDzCCQLQSQAHHc9UcQ8ilcJ9wqBZydwD6hQdFG7eNvyVmiVwgoNLEdgW+hUfZB7rz8Vouo3KozmmeNiCo8N491akKbGSxG7SldbLIyt5tCbGJ4uCPJUyOvRgn3TZdPhRndtvRZKqkyxERXcHHboqJUrs9I8eVl6mjfmw6jd9yy8xBSuhgdc8tl2MLnvhFMObXuBQekhdeMKazUcoc0DyWlECx1x+ik9B+a2Ln1h7sg6hIObO4XKxSW3GnxV8zlke5ULiSN8MhCPbKhvv3VbiqyUGj2+XLlcAWk3UxXg7hYkIN3tUTuaOIx2zlhQoNriOq04UP+KReUbj+S5QJ6roYAS/E5ST4IfzKLHdia5otI/MSb3tbRKIyuF5Wta650ab6ck4muYxrXvLyN3EbqMPFMTeNl4nPLsqOfVEysEvCdGblpDt/Vc5s0clNLJFawBB03K7bs89HmkiMb7E5SbkLicRstE58YOU9Rbmqjz1ZBM/K1rCdVkFoaiMVLXCMPGe3MX1W/EHH2uIBxFguXLI8zAZiWk7INFY6nkq5X0mYQX7gdvZVAXVnCjd4btHqpezn3HX9VUqMbnMOi0R1BHibdU8ORo1bdIPA3BCDosniO+iva5p8LwuW17XaBSUV1eGHDvNDvgqJcOpZd48p6jRZ45ZG7OdbzK0Mq3Ws4AoM7sFjP1UxB6FZ5cNq2WLTmsb90rqNqWehVglaRo4IOQ0vcRxQ5rm76WCqraeScxhgBa3qV2p+9C+5Hh0U5BFO1pMLGgNAsBv5qjztVRSRU8bxGc2W5IN7rEzic4n29F08dkMdSRGS3JG0ADYLRRNe6iic7dzQbqDlE2cC0Ei2xFrJhzvsrsuiPMBwVRpYnCxjsfJQc3iHm1SbKwDVrlrfQR5TlLw62mvNYRS1bnZMuQc3EqjTHLG+MuabgbonnZ+i6qMO7z3NsPJJuGxtGW7783A8/RVnDXXc1kz9BoHNQVtFmN8gkVNzbG3TRKyIghSISIQRKE7JWQJLkmkUCRunySUUISshAFJNJECSaFQgjVBQoo0O4QBlN2EtPkUJc0G2lq6lh7s77dCbrYzFqpviDHjzFlzYDYKzMg68WMt9+FzfQrSzEqeQ6Slp81wA5Sa4IR6dtRcCz2u+KsExG4XlTI1nOx9U218rPBMfibqK9Xx2c9FMOadnLy7MYlaO9kf+C1Q4oyXxROb6FB37qMwvC4dQVzWVsWlpC31WhtQXC2drvior0FXN7PJEw7NhC58te+Q5GCw6qM2JCpkD5oABly6HkrKWFlWwyRNcADbVKFHAxxzySXK0AtaLNFvRVPpJGf7hYKwYjG0iliBPUuQb5p2QNLpJAwW3K4lX2jZcx0MTqiTkQNFjdhdRUyZ8RmcfuNK6EcTKSC0EbIWW8R3VRGjdiRjnnrZm0+doDQNxqouxItFmM4p+07RYautgDtHmZ/rosL6iWY2vp0aqNk9VI8kyyfut2WOSo5DRWU+GVVS7ugtB5rsUvZ+KGzpjmd5oOJDBLU+AEDqV0afAy/WS/qV242QxDLEy5A5Bao6OeS3EtEzMGkuNjqiOdBQU1KNmk+i1xsllaRTx91oB+C301DGHAthdNZzxmdoBrZvqtLY2GzZ5NxwzHGO6cp/1QZqSkFNLIZJi5wIjc1gvoRfVGLwk0IiMIDeJffW2uULcAWMa2zIjIOGSfFmsefNc3G3B9LFJeQZX53OtbMG8kHKILu5JK2Js7cmVu4k/wDhKBweGSMhyMkBa90u4LdAllfaZtNEGOJE0ckn2nb/ACCUnCne5ge6cTN4sYGwy8vmo2gbARule+omhPAkDdru5/JYcUa+KOOB0TY2RSFsQG+S25XT+kc1rnvjpmVEeVzRvxT/ALLlYk5rm02UvcWZoi525tzQrNTGz3eieAtzVUzvuD80odA8/dKt7Pi0lQ70CX0zj7YcV1M3m9y9dSsyUkDfsxtH4Lx2Juu2Q9XH817VoyxsH3R+SkbyO6aSFpzNRPiapKPvBETQkhFNCEIBNJNECaSEDSOoTUXvZGPpHtb6lFRn0pZv2D+Sk0WjYB9kBZKqvg4L2R5nlwtpssrsTndYMaIwBbqg6+W2riB6qmWtpofFJmPRq4z3ySG8kjneRKiAOgVHQlxYnSGK3m5ZJqmacASvuByAVSEQEDfdCSaFChI/hxuefdBKmqarWllH3SiN8OHPexr5prBwBytWhlHSxa8MOPVxupAiSJgzgd0c1nAiDTmkJN9kVpMjBoz5AKp82XUqh0ttGiwUDICNTdTQhIS9+dxuSoFMm5UfikD/APdlH1RdBWkL0QmgIAIR5ckIoCd0uduSEQ0BLzT3CASR8QgoqqRY6s6NC2SLFVclERb4QmoN8KlzSh+iAlsi6ipISukglfkjZLUJA3KB3QhCDJY30OquiqHMNn6hb5KanqBmjeA4rDNSvid3hp1Uaa4pwT3SujG4OYD1XAa0tN2mxXXpqyIRta8EOCLHRpqualdeMkt5tOxXdoMUilcMpySc2Feba5st8hvZAaSbi9xzHJFdGqw+WCplmjGdkrsxt7qbXd2yVJiskFmT3ez7XMLfJHBPFxonAc9ERzS1rphdo2SmpoZO45oyuHyVjbXzboHed8Fkcmle+gr5aepmIbIO47e66kfGhJdHI0Zt9N1lxSmEzGShge6LUt6hVwREx8Shq7NP6uTXKlx37N6drveytkke0lxNwOSoFZE3fMPguK99bLU5QY7s0zA6LWIJ5ABPMCOjAuX1T+NdtuzQ4k7MBG67WnVeipqhs7Lg6ryUAbG0BgsF0KWqdG4ELrPDNejIvuFz62ga8FzRutFPVNlYLnVaB+C0jyNTTvgfqNFQQCdV6qtomzgm2q83XUroXEW0UDq2mIwRPbYtZf5qi4VE8ss7w5ziXBoaPRVF8rN83xCDZolosntL+bQfwR7V1YfgVFaiENGuqze1x/eBU21UfNyIvfEyVpYQD0XImhLHEWXUZM1zgGEE9FRIM0haTld0Ko5JNikX6LZPTuGpa0+YWUstyCqIgHRx35LofRu71hfQrCdBcrXE0WafJFSYyJ8hzGyt4cY2f+KoMZcTYgeqiIZ2G4yOHmoNGT7wVUtnMLHEKpwkv3ogPQpgtG7SgxOzQTXBsfzC2xy5mAgOA6hKqbHM0Fgs4BU0EzGSGKUd12x6FUa2TO5SO+KsbUSjmCFZwIHe9ZRNEz3ZFBIVjveZ8lJtW07tIVJpJB4X3S9nnbyBQahUxfbt6q1sjHC7XtPoVznseRlkiBCy08boJXXYQzl5IO5cdUly+KBs9wVrJ38n3Qb01jFTINwCptqvtN+SDShUtqmHqFNszD7wRVm4t1VlH9DFw/dzEhVhwPvBWxlUdqgdaWLz0XXXn6Oazm3OxC74IOoRKoq5Hxx3YRdcOetlJIdY3XarzaFedlGvxQjO+qvpZVGQOSmhu64flHRRazzugTndFG5upZXZ3NDTpz5JOBbuCgjdO6iSlcoJoSbqpBhOgQAK6fZ1l6itcCQcgbcclzcjhu0rqdn4+JFXtLnNu4NuN9kHaY1zIg3MXODbBzhz6lRBe2Lv2fKG8tASpOa/gFjHHOG2a52uvmkA5rNbOeG+lyqqDC80wkkYWODbloN7eS5FczPBnb3Q/Wx0IWDFKqtlqXCamqWNvplHdsvO1s0mfTiN/aJCMtdeCa1psbBp1XKZ3qlnPVSjlqpGkMmOU7glVxOMct3AZmlUdAtBkvt5K9jbHQaLLHWXdeaLu9WrpxMZI0Pjddh2KUVNBClYO0c0H4K3hpFtigzvpYXbNLT5Ko0bh4JfmtpCjzUGIsqI92Zh5IE4b42FpW2yCL+KxHmFRlbLG46PCuYOmqHU0D92W8woGhI+pmLfVBa8nJlF9SBZam+EDY9Fz2sroC17SHOYQ4EeSH4rVPlMkkbS5xJJLbJRzcbdeqnPnb8F2KaPJSxN6MC4layWd7nEC73XIC9C0Wa0dAAoI5UrW15qw90bXSc5rS3N72gRVWX010UcosRbVXPazM0HfkoPbr5oiotGXne6GtGZpvqdx0UkEWEjuQY78lRxydSfNR9UN8IHUI9EQKKaWiIEimkgLKOilqolFI2STSRRySO/mhCASQUlAfBA3TSRAjdHJCKXNCEc0A55YAQUhUkbhEhDmAW22Kot5oNQqW8wVLjg7FYrIsg1PkadTqVRu64UbE7K2OFx30RA1t/VbKG+ZwJ0UGQaWsfVa6WndfLEwvcd7KKtFuasjaXOa2NrnucbAN5lbKfCHu1qH2H2Wrr4fT09LUwZWhgD9SUVzosNrWOLZi6C24JuV36GaKjgbG3NlF8zjzKoxLFaf2qUtcHC9s3LRcSbE2TySM4mawvYbIPRzY7RxA6GRw5BcOsx5857xbBGPdbuV5+oqZmsOQ5QdFTTQTVNt3Ijpy42WX9niBJ95/8AosD5aqvf33PkPQaALqUmCR3BmNz0Xbp4oKVoyRj5KjhUPZ6pmAc9uVq7tNg1FRAF9nO5q51Q9w7ndChubnUqC4ytADI2tYL2GmqjRxuqqpnEjkMRbmd1Hkoh1juAVow2qEM72EuDJRmLhqQqNraZsYbHlZA12aN3N2uuhVhYHWEcRe54yl8nW3T0Cmxkj28QRtZmYCXS7356eig6op2uzF7533DgG7A//CBvkMl8rnS52F7Ws2BGg1U5I+47jPZAzuu037publZpK2YsPCa2JguWj8lxnZpeGyqndI97TG5rdg7dDTqzYrRUufhNMz7g662c4rnVtfU1L3SStbHDFKQQ86ZLamyoBkytdkZTiVhac2rg4aNUAyORzQ9r6jiN4Uhdo3u8/mi6QbZjhfiVM9NJrbaz/wDQKcjXwsLXSMp44XZ2hmpMY5fNIzGMNNRO2MvPBcyMa53bfgoQ93I6KmAbG8wPklPuDn81loZC4Ttp4HPk/tET5Tpnd/ssOLuD6iJzZGPaW+5sDz/FaZZHQhslRO+eejcXuii2cH6NHwWDEI209UKeOMxxxt7oPO+qpVA0ikP3SrsB0hqHfet+CocbQSeivwbu4dMesh/JL6Zx9uZXDMxo6u/mvb8gPILxchzT0zesjfzXtT4ipGsiCaELTAS94Jpc0RJCSaKSaE0AhCaBITSQSYLvF9l5zMZHSSPJcS86npdejYbOJ6AleZh+oHmSUFiSEKpTQErouiGhR5XQgd0roKEBdV1JtTS+YA/FWKupF6dw6kfmlVe1vcG50CHHLcDdMuygAKq2pKCQdfcrTTTwZRG+ME/asshGiAgsnDWzvDPDoq00rhAc9UXTAJ2SNm+IgfFEJF1S+rp495L+Q1Wd+KRj6uJzvVBu32RY8yB6rlPrqmT6tuX0CrMVVN9Y8keZQdZ9RBH45WhZZMUgaPo2Of8ABZG0WozPHwWhtNE3ZpPmUFTsTndfhsDb/FUkVs5u5z9fgt4Ab4WgfBMkncqKyUkE8M7TxdDuCbrrFYmPZxGi4uTotttVYKpFjqtwtkixVPiCIgCA26rFQ29rEDqmRdqryKKubI06ghaKaATuDRI1t+p3WDgl3haU/Z54xmyuARWp4yPcw7tNrqKoErh4r3UxI089UFl0XUcyLohkjzQkTZCCLcwN2kgq72uYNyus4eaquguUU8wOuyWfXRRJCig7GCnM6Y8gF1aTwPPUrl4ELUcz+rl1qXSnB6lRRK1r3ta4ctVhq6KriY51DUvyuHejPP0W8DNMT0CtOgRXlYMTq6B+R4cQPdcF6GnrW1MYNjG9w2PNWCKORn0jGu9Qufic0VFJFmb9G/puEHUJAtm3WWWjppCXOjIcebXWusdBXGqDgHEtBs0ldJrTZIKgxkTGsjbZt1expKgW/TMatSaCa1XM0VQUgVBsimLCNV0aauJIadQuJmU2ylpBBsQqPSCoid74HkVxsce0ZXRjM23esszp3k5idVB0hdug5Jka4XaVZFPk0f4eqhWULw8zUmjubORWeGpZM0sd3Xjdp3CI6Lg1wzWDgfJVmCF28Y+CzRTmF1jqzotrXNkZmYdEVQ6jh5B49ComhDtpD8QtKfJBjgpXwTteHNcR0Csqcr3l0jSCeavc9rLOcco6quappC3WW580GCSNpPdmPpdUmHq9ObhOfdtvgoBnQn5qoUsVm6FaYbGzeYbdZnA3AzbnmtzImMdK4DXJZBnEzA4jMFbxLt7pHzWc0DZdTIW3HILM7CZGOvHPf8FB0Lu5oCwUjqiGYwTm9/DddBotugMrei51ZCQ7M3QLp6dFXJEJGkEIjlx1cjCGHUdVqbNIdiQsE0ZZKW8+S1wXAsdVRqbUyt2df1Vja5+xsfis+Rp5ELDNQyulLo32v1QdltePebZWe1wu3AXnTBWx7HN8UhPVReKNx+CD0eeB3IJcGF21vgvPDECPGwhXR4k3zCK7Xsrfdc4fFR9nk5P+a57MQbylK0R155SNd6oL+FI3oUXc3xR3+KPanBoc5o16KQq4z4mkFQIP08LgrI5rHxobNC7mpgRO2IRWiKpI95dmgxtojEcgzW5hef4TDzssTpjHiIia7Qmyo9bXYmJQA1pAXMkqWnU3CyES28SrPF9VBpMocdHD4oBvzCyF595ijxG/ZIQbrX5FHkdB5rEJhyeQoR1sxmdGS0huxIQbHRAm4IVBogZM2Z4PQHRSFUebGn0UhUs5sI9FUHAPIm6cV2vIcUxPGfeI9VJpYXE5gbqCbpAwsvc5jYWG3qurg8Iko6lpJaHybt0K5YsOi6+ERslw3v3s6UuFjbUKwdCRrnROYx5a61g61yFCYyiJ/CDTKB3c+xKnK1z47MeWHMNbKMwlLHcAtElxq/pzVClnljgLgwyOAHcavK9vJL+wtsASC49V6SqkfC28UfENxcA2sOq8l20fxcRp2fZiVR5yWCWKOOZ8dopPC660YXRCtEhMhZY2FhdZ++WNYZHGNpNmk6BdTBGllM5zebyiRL9BVbdYqmNzfvCy6tPRinp2RAXtufNXU7xYZlqLczRZFYnRHoqzGei3uYTa1rKt7HAizbg7nogxFtiARuoujAOu62ObZ4BG6g5jS8A2zbgIMhYoFhWsxjNfn0UDFYk35bIM4aQfJNubMRbRXcMgm+3JIMdciwA5WUCjfe4sRbTVDrOFxYjZJtze7S2xtrzTY5pbmGg53FkFLY22NgPXoplj+HZru9bQlSZEMha02aRoRyVnDJjyhxBtoUFBL2tvudLqRkAy3BNzyUpI3WGUi99b9FB4e17A1hc0+I38KKZcwvAPi1I0UXsaX5ge8BZPNaQMyu1F720TBaXnKO8N0RSQoTOy0056M/2VxY27i3cnXVZawcPD5je9yBf4/wCyDljYeiRQhEJHJCFQfFJH5pIAqJUlFAJaXQUvigEJI1UUXRuhLkgEeaEkD0SO6eiWwQCR2TRug6tPMwUkbHsaS0bEbrjGznONgO8dByXTAsPQLlcifNAwBdWZWkWDfko0zONM2Nu5XcpoI4AMrQXDmQgyUWFT1BBDBGw+87/RdH9BysFxLG71FlrpZi+doJ5FdGOGSU3a3u9TshHMp8KjbZ07s56DQLqRMa1uWGMNHQBU1FZQUN+NLxnj3WbBcWt7RTSgtp2iJnluiu/LJFBrUTsYOnNcbEMYp9WU95PvFcNzp6l/eLnnzWymwp8msrreQUGWWpkmdqfgFZHHJC0SuFgdAu5T0MMAHDiDncyRdZsfa9tLT3IF5NG+Vv8AdVHOeTJATyLl2sNAjw+nIGpH43XGA/qsY6uK7eFa0MGbbUKDqcPISCbuGndUg3qUoy+Vwjja5xPusHRb2Ye8MzVMjKdnMbuKDCbBWw0lRUWEcZy/aOgW6P2SC3s8Bld9uRMy1FQQ1znW+zGLBBAYdTwOzVM+dwJsxiubMWNDaSnZE0e87dWRULzqWBg6k6rZHRxt3BcepQcwwy1BHEe+QnWw2WmOgeGgXbGPu73XRDQBYABJz2sF3OAVGV2GwOYWvzOub7rz9X3ZHsa9kebVpGpvz/BdisxNjIncMm41J8vJcGQuDiY4w3IQQ+TofF+CjUUulMhc6mp3PfJHxg9+2bYBUzHi8Rk1V3JmgsZANizV+qdQ9jCXullmdA4TNjjGhadAEBjqdrmQtjp44HBzXO3LDq8/NFDA+TM6ClZE2oZxmvlNyJdh+CHNhqX5ZZZJ/aWCPK3QAt3/ABSLmEyOZxKuSNwqGW2s7QD5K+Rr4g+PiRwM0fHbe27kFbHyh0Uz2RUrZm5Zb6uzbMC49abVYiMjpHRNyOc7mV1iI5HycGF85kaKprnnQO2AXJxF2fEpXOADrNzZdr21ViVRL9QfMrr4NFAOztTK9t3jMWnouPUf2ZvmV1qfNF2UGniGvzUvox9uJGzNX0Q/6rfzXtD4ivI0fexaij/6l/kF67mpDIIQhaZNLmhA3QNCE0AgIQgaSaEAhCERF5yxSu6McfwXnINIGDyXoao5aGqPSJ35Lz8YtGweSqpI5ICCjJaIQhUCEW5qN0EuSSR2TA1QATIuEWKg6aKPxyNHxQS9U1kkxOmabNDnHyWaTFn2OSJrPMlQdS3koucxurnhvquRLJiBpmVUhc2B+jSNAqYG8eUgk6a6oOtJiFNHs4uPkFmfih/Vwj1K5uzrdDZWS917QOiK0Gtq5dM4bfkBZV+zyyG8jz8Smxw0Oys4rRqXD5oItpI27n5K5scbdmj4qh1bC3mXHyVTsQ+zH80G+45WSzAbkBct9XK7bu+ipcXHVzifiosdZ9TCzd9yqjiTWjuNv6rnNsdG3J8lrgw2tqQBBRzSHrlQBxGZ3haAqXTzPOrzr0XZi7JYlkz1JhpWDcyvGiuZgWFw61OL8Vw92nbf8URxKIE18BJv3l6DmVFseEwkCkppXS20kkft8FLkrBS9Y6n6wLZJusNT9YPRQKHJnAkvl8lqD4GeCK/qs9NCZnixyt+0RothpoGeKbN6Iqo1Lx4GtA9FW50kniuVeXwRjQX81D2oDYBBQKVzzsh9DlFyWqbqhx5ql0hO5KChzHsOhUeK8GxF1cTdVubdA+OzmbIVeRCDRmaoOOi9LWYTRyzOLWmM32aVjfgcXuTOHqFBwrlTauo7ApdcszT6hVnB6po8LT6FBtwoZMKcepJXVh0p2DyWCGIw4e2MixG4XQAsxo6BSqjH9a4qx57pVcXvHzTlNoyipM+rHovP9o3XrIGDZrSSvQ+6B5LzGPPviZ6NYAgvwNv0V+pXfB0XHwVtoWfNddERGtUPILRdZotah56Cy0XQNNJJFTuldJCB3RdRQiHdYq3D21R4kbuHUDZ3X1WtCDiCVzJODUtySjrs70VgldT99jreS3V0EVRA4TN8IuHDcLjvEtOxgnGaF+rJB+RQdSkrm1WaNzckrdbHmFsYxxGjSV59zjHVQPYbOuQuzT1uduXNkd06oL5YJHtI4Tj8EQYaBDeWJtz13TbM7nI75oEs1+5Lm8iUGCqwsOd3CGjosUlBJCC5kl7DZdt01QPHA1/oq3Pjfo+CSM87IOFAZZZG3boDuuqzVsvop+yc4X78nBVDiRgtkjtc8lRBmgspWWf2ke0PaWkWK0sIkALDoUGWZl8Sh8mErUGhUO1xI/djWgclBLKFEtU0IVxMTblqc3koxiR8Nr2J2K1YhHnqGg7WQxoA20CqMrafEW6tOYeamJ61n1lNf0XXimZwwLi4VrXB3vAoOIMQDfrKZ4+CsbXUrtCSz1C7GRp8TWn4Kt9HTSDvRAoOeG0kv6yN3qg4dSS7Bp/ZKvfhFK69gWqr9CxjwSkfGyCl+DQEd3OPQqr9CgeGV3xC1HDKqP6qpd6XSy4nF72b1CDEcLq2m4mBbyF1H2evj2GYeRW8VVa3x0zXfGyf6QLfrKaRvmEHOdLVx+OB3yQ3EXM8URXVZiEDt3Pb+0FZxad/6yM+oCDlNxRvMOB9VMztl797Ea3O66fs8Eg+qhPnZZn4a10vdGVltQ1FENdoGl7XHzK0Mq/IfArK7Bqd3ORp9bqh+DSD6mp25OFkR1RUxnfT4KQkidzC4fsmIxeHv+huo+0V0X1lOfi1B6AMidzCZpWEaG3mvPtxQjxR2PkrmYqPtkIrrGj+y9VmmlHhN1jZil/1gWhmIE82n4oplkrd23RoPEwqwVzOYKl7VE/n80FQkboBcFepwOJkuC0rpDrnLxrbVeb4kBB2uvUYXTw/oyhzgF7G5ma7INsrDI1oa9zLOzEt5+SjK2R1uE8McHC9xe45hSkh4j43Z3t4bs1mnR3kVGUSF7CyQMAd3hlvmHRVFFVxWsYYmB93gOubWHVeK7WP/wCLu+7GAvcVHGzRCJjXNJPEJNiB5LxvbENFTCcve1v5qo4lbRT0ErWzZSHtDmlpuCF1MHytw+EucAZHGwPNcQP47y3KRlsBrewXqqWGGKGCJwaCAcgcOfkiRa2IEt68td1sgbfu6iyodBHJJE9w77LlmtleIvpo5C9wyA2AOhv1SqsLHHLZwA1uOqgQ/O0BoLTe5vsriyQzMcH2jAOZtt/O6HNeZBlDeHbU87qCh1w8Nykgi9+QVbshfksc4F9uS1d7iZcpy2vm5KBdeRzMrrtF720VGXhNMhGme3xsomENe5wvroQtTWsMj8ts7bB1t1ERMDnOb4nHva80GXhEOcSSQdh0UWseL5iDrpbotTYchcS5zg517Hkqo4ZGNIkeJHXJBtbRQUNDi2722Oug1UNHR53Atba5Dle0SCDNIxpkAvladCUnG0AkcwtNrlu5CopytMVjYMI9FY6IOblBIsR4SiTI1g41shIADgrXxseWh9tHXbra5QQkjccpa8NAOoI3UHsfxW5Q3JY36rSYc7mOzOblJNhsfVJ8Ts4LXjh21aW639VBksXSlhbZtr5r81Ad572gHuGxuN1qDXZ3XDcgAym+pVbMznOuwtANgTzHVBmaGODiy1rm5HVYcSHDw9rRqHyDW66Qex8JksWt1vcWXLxnKIqNrLZSXOA+SDnJc0IPVWIV90ISKAQhCBJFNI6bKKQSG+6d7paogJS5oKCqoSQjdRAkmkgEAIQfRFCcYvI0dSEtlbSjNVQj7yDfLHlafRcW3dPkvRSBwzPYO8Lkeq8+65BLvETqUF2FNvWg9GkrusYSxzhazddVyMGZmqZD0YuzkOYWGnNQSgrI6CQzvYJMoIDT1Kw1uNVtYSC8sj+y1dCKgbXPMb5WxNAzElahQUdH9TTmZ/J0mg+SK85FRS1Ju1rvMlb4sJjYLvOY9F1WwyyG73hoHutFgmYSBoLeaoyxwMjFmtDQtFKPpwY2F5aC51jbQb6qPDvvc+ZV9LTyTz8OJpcSNr2BHmoVQ2aXKbuyXOoZv8/iuZjJzezDLlyZvMn1Xq24RBT2NZUtH/TiFz81w+0wpzPTiliMbWsINzqTdVHIy2pofiV6TARTthgFRGXgtOVvUrgubeKIdGr12BUHtELM2jWMCUavbZr5IGMgb9lguVKCjmmcXFp/afqutDRwQAZGC/Uq8kN30UGKHD2NH0pzFbGRsYLNaAFVJVwx6ZgT0CxzYg83DAG3GnMoOkSALkgLPJWws0BzEcguVLUvkcTq4HXvaBUukAsAdjy0QdCauftmawX33PmsUkvEIJu7qSVlcBfug9LkqF3mzXP0BIIHmipVMpaxr3PaxgPfv9lYwGF4a5slQ5ruC6+gs7UlXuLnhjeA0scSHl56bfis7rysDJ6ixezhvZENn80VF8kkRjMksUDI3FkjWjvFp0YFTCyPMwCJ87mO9lkkk0BbuStEUTX5pGwBvFALjJvduym8sebPkc8yDLZvUboqlhmvE6eZsfDc5r44huDo0KcUIjazhwl3BPD4kh93clAc46tiZGJGeJ59/kFW+WGR7WSzulMo9nc2Pk4blBOR4jF5ptYHZ8jB7p0AXArGtbiFSGA2D/5LtxPkL4JxTshjeXMmMu4a3Ri8+8PE83FdmkznMRz1VSnP9QwLs+2Nf2WjhDLOtYn4rjVOkbB5XWxmmAxHqf5rORizYaL9oKXyzH/0r1vNeWwVubH2fdY4r1ISGQQhC0yaQ3TSCBqSQTQCEIQATSTQCSaEGbEnZcMqz/0yFxG+BvouxjBthNSeuUfiFx+QHkqhoUXOa3xOA9VS+tp473lBPQIL09eSwOxJv6uO/mVnkxGY6BwaPJEdU6bkBUyVMMfiePguJJUFx1c4/FV8XyQdd+IxN8LXO/BUPxSU6MDWea53EuoOJKVY1zTTuaHSSuIPQqljTK6zLZt7kqlT0J0FlFS2Nnb+SsgMJkjbUtcYs3ey72VN7aJt3VTToe2NfTmkykU4LjHm38lnpzwSHnZwIVN7HdN7+JGxjb2bfZAo+/JptdSqnWlbborqbC62otwKd1j7ztAujD2WqZCDPPHEOeXUqDisimmbdv5p+xVH2R8162nwWgoqcsmmL9bkk5UxW4NR+ERkj94qDy0WF1sxtFTvefILoQ9ksXlGZ0DYR1kdZdaXtdlblp2PDfIBi5tR2mrJT3Qxv7RLiitdP2PY23tmIsb1bE3MVsGD9nqQDiiWcjnI/KF5ifFquXxVD/3dFjMzibnvftFB7J2O0FC+1FhtO1jffAzEfNUTdtJHjLHE8+V8oXlTK23QKtzte6qOtiOLVGItayUMbGDcgblYC7Lo02Hks9z1Rc9UHRw55dWsF9mldgriYPrXD9grtnZIiqTdYKk/SfBbpN1gqPrFRN1fUGmbA4jK3w2FlnLiTqUn+EKIcoqYfqjMkLI0QGZMJFRvZBYbBJQzIzIJaIUboQdCpxStjne5uYMLza40UG4/VM+sia5dSpDhh0xe2wbKGtHRKlgifLFFIxrjIwvJI5BQZGdoh78FvRaosbp5CAWvF/JYYoqSQPkLAGtOui0OwynZUiNuhNja/VKOnJZwYBs4grQ42CjwBaJw0aDZXy07zGcgzaclFUxfVg9Up/APUK1kL2xt05bKEkbnOZ3TYHVBMlePxV+bEpz0Nl7BzfwXiqp4dWTlwOryiu/hP1TP2V1Fgw1lo2eQW7kiIU+rnnzV6pph3CepV6AuhJCCSEkkDQkhAISQgpqzaklP3StlLSCbDohkBBYN1lnZxIXs5uFl2qNop6aOM+6ACqjxmIsFPiQjjbfJrYKYdnaCN1fIOJ2jnvs0lW1dFm+kgOV3Mciiqo6tzRllFx1WSnLnVrSHHvP5FSkbIdxsnQNzV8flcoOyZHtGjrLI+vqGv0LXDzC0SeErnSeNQbGV0zvcZ8kceSVhu0BZmK1rrNJQRija57iWg6q8AN0aLBUwbE+asJNlRmjObEKg+QC0hYaSTPPOerltBUE0XslfRRJ0QZKnWUO6BWUzQ6Bt+ZVFW+zGkczZa4BZkY6AXVRdwIzoQl7Iz3XEK07oQUezyN8MhS+nb5rShBm4srd2IFT9phC03KMrTuAgo9oZ1IUxMw7PCZhjduPkommjOxsglnB5gpFjHeJgPwUDSfZco+zyt978UEnU1O79WPgqX4dTP5KZEzfNLNIPdQUHC4m6xyOafIrPlfHU8KOocH26rcZDzFiue6JxxRs58PNBq/4i3aQO9Wpe0VzPrIY3egstYlF+6VMSed0GJteBpJA5vpqp+3U/N7m+oWz6Nw7zAfgoGCF3uAeiCjiUsumeF1+oCg/DqV+vCjN/slWuw+mk3bqqzhUY8Epb6GyKzPwanINs7fRUnBSB9HUEeoW72Cpb9XUut6pOixBnheHerUHO/RdZH4JGP+Kjw8QhBHDzA/Fb+NWs8ULHegsj2548VM791BznT1DY3cSMtP7K+k0EcZo6LMG8VkIIvuNF4N1ZFI3KY5Gkm2oX0KJkQdGBk4rIgPMBBJ8QfLFIXPuy9gDob9QlIxxljcJCGt8TbeJDoWGpbMb8Rrco72lvRBY72hkokcGhpaWcj5qoThOaiLhmPg68TNv5WXh+2Ds2LNZ0aV7hrZ/a2PEjBBks5hGpd1uvn/aaTiY1J90WVHMomXqHeb2D8V7NgjEjInD6QglptyXkcJbnqmj/AKw/Je2Y9vFEVjmDb3y6fNVFb4Y3zRNL42zDYncN5roTYVCZm1LJ8mVuXU90rMY4TUXytMzG/GyoraKWsMcUFTksbua43AHoorS+kqeO2WGpYWhmUxm2UnrdRdxInNklkhazJ3mB17O9VGHA300rJBiNw3dhj0P4rJXYRUunL4ZKdwOuXUIVrgmdUEvja11OQCyQO3PMWU2PL5pYzG5oYQA52zvRcrBvaKTEn0U7MgkYXgXuAR0XXhfI98ofGWBrrNJPiHVVFcU0c0krIrl0bsrri2v81GNsJc8w5Sc5zZeqthlExeQx7cji3vC10oHwSRGWny5S43IFrnmoqqKFsQdkLiHOJ1N9VU2J8cHDMhfIAbPcOfJXwwQsp8kPdjNzdrr776pCBzKYwxyOBDcoe7U+qDMWStp9mvnDOWjSVGQuiiDuE5ztLtZqtEsczae0RYZQAMzhoSoTl7GgxxcRxcAQDaw5lBVI9rC0PBs42AtfVD+HxIxIW5r3YDvdWSO4ZjAje7ObXaNG+qi8xieON3jNy3RBIxsdMx5JzNBsAdPkpcM8UvznLltk5X6qIZF7QHd0zNbprrb0VrYwJnSXJJABbfQfBBVw38R5c5pYT3QBsFU1slncRoBBNgDuFpjY5sj3OeXBzrgEeEdFW1swiIkLHyC9sugPRBjJvTcWRjm2bdzSLlcbGxmqqYDYRXt6legkc9lNndGS8AXY3VcnGMOkqKllRHKGEgMykIOKWnooHRa5aKvgeGGMPJ2ylUPM7DaSFwI6tQVIT4zDuz8EZ4zsiFdJTs07FLL5hBApFSLSkWkclFRQixSJvsgEk0kAg6IRuEBokhHkgEIQgRWvC25q9g6NJWRdDBG3qpXfZZb8UG6rJZTSFt7kEX6Lg2uAF3sSuKN3TmuJZBvwJv0056NC7AC5WBN/tB6WC7OttlBdhzbVErrHwACwutUgGYd23xuVTRaGW4OttlaSeXyCKYaLbAX5kp5bi9vmk02TJB15+aCJiB/96K6mgc9/0YLnDk3RVgkrt4GGNjkJsHX/AARKohwWR9zM4Nv81ye1GEMpo4p2vuT3SF6yasgh8TxfoNV4/tTiJqKpsLQWsYL681YOBKcpaPur2uD4hDSUYjeCX2BAA3C8LVuJfYcgAvSxkBzRza1Wo7kuMSO0YwMHnqVkkqZJdZHuPqdFkzedkF2trE3CirTMT71h5KIle3w6eZVQ08k787E36qKs9oIOZxzkDQBN0zjq4NjaANfRUkhp8QbbkOiQaCbZc3K7igt4jCbNJJ0CbgdRmaCVQbkWc8NzC3dHNQsbl8UJc4jOC8212QTqA1zxG5sjy9vEAG3d5KDuIL5BHDmAeCdTf3vwTmeQXGSos1pEjWx75Ry+aiG5S7hxFxjeDeTo7dFVvqmuLuE2Wdxj9oZpp0ARN7Q0zMD4qZpa18Z3PV6T3OhzOmqWsZBJmyRjeM6NCiyMRi0NO6Uwv4ZdKfddq4qKg7hTGR7RNUuJFXGDoNNAFc+KfLLFG6GkEjQ+I7uzbvKbpTC2887Y2wPuWR82HRoSawQ/UUzpX0z8odIeTtyFRC1PUTSWdJM2paJR0GTl8SuC9xe97zoXPJIXopTKM7ONHC2KQSsay1zEOXxK82TmGf7TiQqlSrtCwdGLdJ3cFp29bLBiP1v7i31Xdw2ib1CzkuCrs8L47KekTvzXqF5rs1ri1S7pH/NelSJn7CEIWmTQEkxsgYTSQgaEJ2QJNFlIBBGyYUgEwNUHOxzTCX/ekaPxXCrJvZ6eSUbt0C7mP6UETftTgfzXDqaV9cxtMxwbmILndAFRwHVDpSTI4uv1SuxdiXszK12WGpa89CLLDPg2IQXJhLm9W6ojIcx2OiViBqm9r2DvNc31CgJPNCApKefqFZBA+plEcDczyoqhC7UfZyptmmnijHzshuH4VA7+s1b3Zd7CwKDi3U2sklNmRvd6BdsVuCU5+gpXTOHMhD+0crBlpqWKIdSgwU+DYhUEWpnNB5uXQh7Mzt1qKqKMLHLjlfLe9TlHRgssMk75NZXvf+0boR3nYbgtLrU13GI1yt/2W2lbSsYH0VCS0i7XO0Xkm5czb6NuL+i9M/H6CKMMia+SwsLaKVXQz1LyAXMZfk3VcbHquemlZCyoeHFuZ1jZVy9opyfoKeNnm43XHq6iSpmM07s0jlIB0peSXPc4/eN1DOR5eirTsVpEib7pZkkIC6EkwgEI0SuoBNJCo6GDf2w+UZ/Ndo7Lj4IP61KfuLsOVRU/dYJ/rCtz91gm+sKCiTayqDiFOU2CrBUVLMnmUUIJZj1QXaKKRQTuErqKaCQKEN0HVCDtHH6y1pIYpRzDgrW9ou80voG3aC0FvRccqLri2uiDtx4nhToXRmkkjDiCQOq2QVeGVGItmu7iEANB2C8wFswpnExKEdNVKPXF1O4Njv4SXLQ1lOC9zcwJjsAHc1zY25p3nopytBDepIUV0Y6Z7WstI+99bhRfFK6WQgtIaOYsszQY/C5w9Cotmn4rgJXWtsSg0TRvaxncaSRrZcQOjdFUPmoe9G8NBvv5rpVNdNTU0k1w7KL2IXIh7SyzOayShis7W4O6Dq07GFzW5S0EX2U3iPK7W3JShruI0OMNja1wdlJ1RCICyRrhre9kCEDYmhmbUC6ZiOUO5FWiSnkzF27huQj6GzBmGVqoo4Z6JZD0V4YwNeGOuXHTVMQlrwS/SyDMQUWVpjkAaTY3KJWWe/TQbIKkKZBGUZDqL3SAHDLjteyggkptAcTY7C6WXUDqgoqL+zyWNiGkg9FbT13/AA2Mumd7QQC240KT23a4dQQslPTtqMPhzEiwsSFRXSxzyVL6txaTI7Xloull7hVbGBoDGizQEpGSkfRylvlyRGWsGWGQ+SyYQP6049GLTVQVToi0ua652G6jhtPJA6UyNykgWvzRWqTYrA/xFbpj3CsB3UFrPDdSv9HeyTR3U3aR3QOHRuymVGPwhOQ2Y49AUGWiaOG5/VxWoKijFqVvncq4BBJRebBSOyqk2QYazxxtB53XSi0e0dAudUC9REPJdCH64+QVRpRdRRdRUrouooQSundRQqJXQooQSQkhBK9kvgCkmgRjY4Hui6wwAyVAaXaXK3ONmk+Sw0QvUE+SDU6mZyKXs3RyuTugzGCRuzilaYf/AAtV0IMvFkbu1HtH2mrUllaRq0IKBUM8wptnafeUuDH9lRdSxnmUExJfmEiAdwD8FV7IPdeUeyyDwyfigHQxOyjIPGPzXsWuh47w3JxWNAdbcBeOjim9qp2k3Blb+a9iySGSeYRFpex2V9hrdAuDGKh04txS0NPe2HonwrT8YPk1blLL931SZFCJ5ZmNbxX2bIQddE2xBs75czyXgAtJ0FugVQMZJx3P4o4OSwZl1B63XzXGX58XqD52X0cMkZLUyunc6NzO7Fl0Z53XzGtOetnd1eVYNOANzVcR6vc5e1jcDK6PI7utGttCvIdm2ZqmPyaT+K9lE5z3OaWOaG21OzlSAGMyOaLcQAA6ahZ6uoNKRLTMjdUPcGHN0WsPEj3Bt8zTY3C52MAOoZpYXZZISC8t9Uk3Wc8us2y1GOV9PUcOZkRBcBcMsoSY7K18wfAwiNwbo7UrA+OR7GSylxznu5jqfNVPjDnuvrfdeicUrwf5VdrCKuLEa10sYIMTbG+4uurDxSHcVjW945bG9xyXD7LRZZKt46Nau7FxeETJkL9bZdvJcc8dV7eLPtjtGGQvizvjdGRe4cFXDNHNTcZlhEQSczbetwronyGAPmiLJALlgN1B07fZuPI0sZlu4ObqB5hc3VBrIHUZYzKIC33TYWKT4Gml4DHvjblDQ5p1A9VKX2d9JaXJ7O8AEEWFiiWFj4OE4lrNLZXWtbzVQpY3mLLE/K4Ed4i9wq5mygM4Qae937m2itmic9jAyV0Za4G45joiVkpdGY3tawO+kBFyRbkgpkMjZY2tiLmOvmcD4VAu+nEWV9y3Nmy90eV1e4S8ZgDW8Ig5nE6g8tEszjMY+GcoaCH30J6IKWuiNQ9oy8VrRm01t6qcTYxLI9li9xGexQ2QOlewBwc2wJLdPmiF0JzmHKbOIdbqgGRtYHZXuOZxNyb2UWslZTloeHyhps5wtr5qUbIWwkRWDDc3B6+aRjcIDHHI5rw2zXkXKCEvEEN2Ma+XQEA2HnZVTEse0ZXEONiRy9VfLxOGBFlzgi5cNxzUJOIJGZWgsJOYk2soM8jmiRrCDnIJBt/NUkRmRxAHEsA70Wl+YyZQx1st83JVAtL3tAOdpAdp/NBjfTwuJJjYcx3tss78NpXNIMQBPMaLc0RljnR2ykm9uqgWXYQCRpoQg5xwil5Z79Q5VuwdmYCOd4v11XULTlGtrb+ai0OE7NBk5m6DhU+HT1EIkZI21yLHyUfYqvvZWB4abGxXTwq/s8kZFgyVwv8AFaQ4uadC2xINxZUcB8VS0G8D/WytNRhzoA19FNHMBYuB0v6LrkMdDZxsw2trZUVVI2ZzXxkNnbqCdneqDhh8Z8lLuHmuiSAf61hpLuZY24KhHh/tMucwGmhGwJ7xUGHKOqjlK6j8Iit3J5G+uqh+hZzG97JmkM3vog5pBRZajQVrN4rjqCq3w1ERyyQSN9WoKElK9922R3Sgj0XUwJtmVLr6kgBczRNrnRnNG4tPkg7WL3FHcusMwFuq4ytnrZKmEMmF3DZwP8lRdB2MA+pmPV67PeygG9lxMKqoaShcZQcxdewVrsTqZtKWHKOpFyg7cFmhxdb4myrlr6WG+edoPQG64clPO/v1U+Ufed/JUn2GL9a55+41Qdl2OUbduJJ+y1Uux8n6mjNurnLlmrgaPo6dx83Ks1jz4Y2tQdYY5Vf5WP8AiV0eO1IGsDB6OK4JqJOoHwUDO/7SD0oxyYDSnjaTzDtVzq2plqpzM9hBIAte65XFf9oo40g98qjXNJeZpc0tF23+C9DBXUUrvo6huY6WJsV5T2iT7V0+M0jvxtKD2ouBmBFuqRdc6k/BeQhq3x6wzvj8ibj8V06XHHts2rjDh9qP/RQdy/nb1TGuty5VU9RFUs4lO5rgdddx8FZcHQuJ15BFO9j7reSR7w3Lj0RYm1mgX0uSjN96/MBqAJIF9G8/9UEC9+84g3A9UZTfw7dTySzAWD5NT3bAfJAXMWT6tjGnK4u+zy/FVjK4tZJI+U3MLsugudbqx0Re8AQ5w9ha5zjoMuo/FVvc+QBktRHE6VhFo9843/AIpMEhLXmGKFrrxvc83OmjFW3LIWNqKh8zntNM8M2zjUlRzRTl0kVPNLxmCcZtszdAPipvbUFskYkipTK0OZaxIfu/8EE4MxDHClbE17Sx7pDqLaNUOI12QVFYXOcDTPbGPfKgXU9S5xY6apMrRUMAFgMmlviVZkqHh3Bgip+NHxGuf4hMd/wRVQH0TXw0hswOp3vedQxt9fmuFF4Y2+YXcqZYXRyudVulFVEWxhg0DmC7j8SuNTi74h5hVKqxA/TyeQsuliH9nom9GArmV2s8v7Vl1MWblfSt/wCkFnNeNHssL1da7o1v816Nef7KDWsd1LQvQJDL2E0k1pgJhJSCATsiydkCAUrJ2TAQIBSDUwFIBBHKiynZFkHH7RG1PRjrNf8AArDQD+ujyaStnaTx0DfN5/BZcO/tb/KP+aDadJfgmCRzSd9YmqIPa2QWkYx48xdYpsHoJ75oMpPNhst6SEcGbs1FrwKhzfJwWNuFYpQyF9KQbi12kbL1DlAoryE9RWtk4dWHA+eiok73PReqr6KCta0zNN27EHVc1+Bxfqqh7fJ2qiRwrO5J621XY/QfWp+QVEuDVLfA5sg9dUVzUcldJTTxaPge23O11SdOqiBJCEFkLc7reSvdAz2UOzfSl9reVlCmbZ11oc1UYuCSVZwcrST0WiwSk0icgwlJSRZBFCdk7II2RZSsiyCNkAKVkwEHQwT6yc9AF1eS5mCtt7QfRdM7KpVMm6wTHvlb3rny+MoM03JVBWy7qlRTzJ5lFPkimCpbqCdioJCykFBAKosBshQuhEdU0jnRZ2NWE3GhXbkwjEomEMh/heufJh1czx0cvqNVBlBsur2fbxMQLvsMK5bo3sNnwyNPm0rt9mGES1EhBALQBdB2qaO73u81KSO8kY87rRSx2a5PLeqYOjSiqy0qqMXfIfOy3OYLXVULPoybbkoOTjZ4eFzdTYLzlEy9YwdBdei7T93D2D7UgXEwuPNWOPQWRHpadtoWqNT4LdStscIDG+ioqIfpI2/acipNYLD0RlCv4JCRjKCnKErW6q0sPRRLfJBXr1PzTzyAEBxspZUsqBcWXqD6oE77WcxpCeVKyA4zRm+i8QtokHxBwdkIARlUSEEi6N2xNyVkw5t6Jzc1i2RwHzWnLqstI20tUzpJcfFEbDHdrbSC9tUmtJZqQddFHIEFo6n5oIOa7OARsonNm1uh2bjBody5qRD+oKgomIsBmtcqgwgO8S0SyZPEwFJk1G6wfFr8UETE5jBm6JSMyxNBB1Oi2NNNLdzGt7vV1lXVvY6NgFr25IrPGO6o1JtTyHyVrR3QqK3Slf56ICnblp4x91WtCTRZjR5KwDRBEhVSbK4hVvCDm1LS6sY1h1yiy208dQ2TvuBFtbLNb/iR+61bWcexI1VRfqhVZ5W7t/BHtNvE1BbdO4VQqWfZUhNF/wDKCy4Qoh0TtnBSsOR/FFOyLJZTyKLO6oHZFku8Oidz0KAQnmHQouEEJtInHyWaibZ7z5K+oe0RkXGqhRkd5BoQmiyBJosiyAQnZFkAkpWSsgSaLIsiLaVuavpW8zIvRxSxyueYiDZxa7TmvP4c3Ni1L5En8F6GCaOpZxIiS25GotqgjE2APlfE1mdzvpC3ckdU2QsjlkkaXEyOBcC6+qIeA4F9OI7OcS4s2JRFDHEXujHjdmd3r6qiqVj4KaskdM54eMzWkCzBbYL5fK65kPVxX0nE2ey4TWkyvfnu4Zj4fIeS+ZSaMv1uqO92WZec+UYXroHOcHBzC0NNgeo6rzHZdush6ZR+C9TTmQsPEYGEEgAG9wlQ45BJms1wsbd4WXOr5I5GmFtss7mxvNvO66cby8Eljm2NrFcnE5mCCKYt3qAW8jZu61h7c+b/AJrDWu42OCL3Y3BjR5ALn8z6lb6uzcce/rd4+LVgHhuvZjPD499ux2YH9TqT1k3+C6sXEEID3NfIBuBYXXM7NtJwuaxyl0hsei6gbKynLA9r5cuj3CwJ815eT2+vw+MICZW05e6MOkAuWMO5SllbHTmZ7HiwF2gXIum50rYHOjjbJMB4QbAlKeV0UfEET3m4BazU6rk77RnfC2IOmLeG8hoBGhvtoiZkT2tZNly5gW3NtRspTSMhDOIHEPeGju3sVGYQudG2bJmLrsDhzHRVBLE2R0ZLntLHZhlda/keqTmPMrHtlLWtvdttHKUscb5Y3u8bLltnWUTEXTiTiOADbZAdD5oBwkEubM3hZbZba36qAL+K4Fo4dhlcDv1upujfxiTJ9GWgBltj1ukxsjZJOIWZLjIBva3NBGNznvkDo3MDXWBPvDqFXHNHLEXtBa0E3zNtt5K2J0rs3FjDCHENsb3HVQZKX0xmfFJHYEljhr8kEGNgko9Mgp3tO2gsUSwMdAIg5zGjLlLXa6ealLJA6lzSgCEgaPFhrysiaGN8TGSABmYFljbUbIIzMe4sLHloDrkWvcdFW4ScZhBZw7HMCNSeVlbJFxJYncRzchJyg6O9VW9rzMJBIeGG24eXc9boKyX8RzcoEYaCHX3PSyqa4vfICxzAx1rkb+YWgB/FeXFnDNsltx1uqmmUteZYw0gnKAb3CgyB8UkBePq7G9xbRQc1nDAsBHpaxV7pbU3Gkjc0ZblhFyPgq5+HlZxQMrnDKHdeSCDm3tqRY7JWPEHeGXopPYDI0uNiPCLoygS5yToNRfRBiw8WdWt5CoNla1zyy7mFp17u6rw27qeeYD66ZzgPJXWkEXes6ToNAgi4tyjONDyISNri9s3JTLiMt2k3NjbkkcufLztcaII633PzSNzuSVLQuIG43StobII+SLI2G+qkSzhWAPEvvysoI620VzpqmOpEkp+lYd3aqstFmZXhxcNb6BpupCmkNS+CMtkLSbuB0PxQZJqWKouSMj77hc+egmj8IDx1C70NHPNTyTsZ9HH4nE7FZyXC2hAOyo865uU2IsVFduamjmjLXAZ+TlyzTSEva1t3s3H80FAaSbDdbKSidK7Rtz57BKkpy9wLhbqtNZU8JvBhOUnxEckDlkpKJ2VrRUzDe/has0ldVS6cURt+zGLLKAApIE4Am7rk9TqkmkgLovyQUBAroQd0ckAkiy6uD4R7cTPOSylabHLu4+SDlIXrZ+zFFNTOdQuljlAu3O64d5Lyb2lriHDvA2I6FAkw4jYpIUF8NQ+J4fG4scOYXosPxhlTaKd3DeRYPHMry6ASDcGyD3DmkEuyF53F0ZwCLvYwDWw6FcnB8dljPAqRxGOGXNa5AXQmxGWeUmnghjaTo4t1RWnQkNAL92kk203UWyRZLyVMERO4vcgqJwerqWGoqXEstmuTYKuCjo+DU8QxcLJZgI71xuUFM9VRiSQ+0TTAua4Bo7oLVEV9KA7gOhiIcHsdJvcnvLhVFXLK4iI8KMaZWaXUoo45BaS3xKLt3XVMLc73YgHtil4zGRfZ2DfmmwMY4spqbiup5QWvkd/iau+S43sERJsAm7DzYlhPXxHVC13Humha8yVMUEcEvEyxj9SOXxKpfwoHSmOOaqqKR3Fbc+LicvgCuUyjMkZLXOsRlNytAZXi/DqpBm3sURvrYpoqGsjjhigZGBwepadX2XGpP7TA3zV3s1Y7WR7nlrcjS47C+qGU9RE9rhF4VYjBVG8r/OT+a6+N92shb0hCoZhjqmN9RGwyGM5nta4XHnZTxaojq6kTwEmPhAAn0WMm8Pa7soP6rVO6ygfgu6uL2VFsNmd9qY/kF21qJl7CEICrJqQ2UVMICykEWQgYTCSYQSCaQTQO6EkIOH2iN66iHRjz+Kqwz6+c9GAfipY9rilOPswX+ZSwzeoPoFRqP1hTKXvFPkgSSaRQRKgVMqBUFT1W63RWPVRQRSTSKKLnrp0UH08EoPEhafgphNEcLFqCOmayWEENcbELmt1Nl3cfOWjiHV/8lw4h9IEGllmb6KRnjG7wstQ/M6w2CpsEGw1UY2BKrlquI3K1pAWdJBPMjMoJoJZkZlFCgnmRmUE0Es6Myigbqo7GCj6Gc/fAXRPhXPwX+yzftroHwqimQ7rnS+IroP5rnS+IqDPJ4lX6Kx+6hzRSsE7JoRRojW6EfFAKI0UuSjZAxcDZCYQiPdfpaI+Mub6tKmzFIOVQ0fGy6b6KUDWAkeizPoYj9ZTj4tWWlQq4pP1rT+KtjMbgcmU+gVL8No3fqGj00UqSjhpc5jaRfzRGyBvcJSjF6mQ9GgK6Ftor9VGnH0kzvvWVA8WYfRRhbanaPK6sqO7C8+SGi0TR5IPPdqfq4G9SSuZgTc9Q49XWW7tU69bBEN8miuw+CCgpWPeO97x80R3ctgLLO8Zq6EdASqm4tTHd7fmm2qh9obLmFrWsqrc5qiWqHtkJ94qQqIXbSBQGVItUs7DtI1O1+Y+aCoxjoo8MK7KUsp6IigxqJYtBCVh0RWUZH3yPa629jsjJ5ry7S+gxirZD3SHXA6hegoMRirRlcOHMN2nY+iDRkPRZC0w4oL+GdlviF0SLLPXQPmp80YvJGc7ERLhHogxFWQStqYGSsNw7cdD0VlkHPyXqXeQVmQqcLc08p81Y5uqDl1gsszG6rVXaOt5qiMaoJhvUKLzd0bbWsr2tVeX+t26BFi22izV2sTB1eAt2TRZqtnfgb1eglbVTGyYZdPhlBAqsi7gOquLCoBv0jfUIOe1t8Sm+6bLpQ+ArnQd6tqXffK6kLfogiGi3UBSsnZBWY2HdjfkougiPu29FdZFkGb2WPqUjRjk8rVZFkGT2aVvhf+KMtQ3nda7JIMpfM33CfggVDh4mLVYosfIoM7akc2p8dnPRXFjT7rUjDG7dnyRWScQyAHTMp0sbWsLs2pO10TQtjtlvZNlPnaHZrX8kF9vNFj1VXs7hs78UcOZvMlBbr0Rc/ZVWaZu4PyS47+bfwQXZvJPMFSKgc2lTE8fQoLMwRe6gJIncwn3eR/FBKyEsvQlGU9URrwogYrG43sxjibLu09RHPTtnjJDCLguFj8iuHgxy18slieHCTYC5Pou42drqUVDszGZc5D22LR5hIFTPhkiElOWGNxJBYNCinjhhiDYAAwuLrA3uTuiGSF9MySIs4Dm3BAsLLNxYKOER0kbcgFxlOmqoydoGCi7Ozsa+R13E3ebnVfPJAQxudrm5hoS0i4X0KujjxCh9nqHS5S/MTe9/JXvmY+NsbhE6NoADJIrgKjgdlg3gPcNy9ejpDM6AceNrJLnutNxZVRClbYRQQN11yHKtLZIhoWvB8jdBFkhfDndG+M63a7defx2USSUoFw0xF9jyuV6Jz4yDlcQfvCy42L4ZV1NYJqdsckfDDdXarfHdXy4fIluGo50rgZIHDcU4BWQbLXJRVkAcX0kh7tu6Lj8FklEjW6wyN05sK9kymnyumW/Tvdn4i/BHNa4sL3us5u4XScyTgFsclpAAA9wv81z8GiEnZ+KN7nszXN2mx3W+ZhfGGRTOjcCDmGpsvHnd19jin+sEvGEV4Sx0lxfNoPNE7pI2MMcXFJcA4A2sOqJhIWgQOY1wcC7MNxzsiXih0fCY1zS6zyXWyjqOqw6CSTI+NuR7s5tdouG+qjJLG2aOFx+kfcsu2+2+vJSc94nYxsRc1wOZ4OjfVBlbxxDlfctzZrd35oIng8dtyzjtbdt97JcJnH4oJzhuUjNpb0Ui6N8pYMvFY0E6a2Pmk1kPHkka1vGIDXkbjpdAmxkTSPzvIfbuk6D0SjZI18nElDwXXaMtso6eacUTGPkewuPEdcguvY/yTijdGHXlc+7iQXcvJQVxcYRHitYZBewZsem6jxJW0vEdTnihtzG0gn0UmiYU5zPbJMAbG2UE8kPdM2nDmxtfNYXaHWHnqqFLKxkIfK0gEgWy3sSozcEGJk2Ulzvow7qOitmlMTWERveXODSGi+XzPkoyysbJFG6+Z98py9PPkgqkijdOx5uZGA5QHW/BR4Q4rn5ibtALb6BWHgmoGjDUBmhO+VREcYnkkb9YQA6x+WiCoMcJZHPkL2uddrbeEdFU3jCI8TI+S5sG6A9Lq9kWQvIe52ZxPeN7eQVWSVsGXiZ5QPEW21QUuc8RB5jJksLsBvb4quRwblDmnvOsO7exV54gYMoDn3Fxew80n5g9rWsJa46uHuoMrxFx2NdYygEt62WSucA4wwn+sVNmnXwtG5XRLgZeHY6Nve2lvVc7DwypqaqsAFy/hs/ZCg0RQthhbHETlA0KgWSCIND80oAu5w3U2MidC4REcN17lp+eqZhLo2sZI5tra7kgIKzmGXKAR72uyjZ2fLlNreJWuY8vaQ4BovmBG6iA/ObhvDsLG+t0EAQc2hFjrcbqv6MwXBHDI9Fa0vIeXstYm1je4UXubwg+RpDTbRzdvggiW3sL2SDSTe9xbaym8R52h1g7dqTWDOTcnQCwUG3CqeCesZHUuysK68eH4ZJW1IMgyRAaB23VecDSGkB5JJJDiNlF2YAAEE+9yugvklljpp4IZyKZ79Wjc/8AuyyzcYMiEodkyl0YJ2F1N1y4NA7lr3uoa985Xd3TXmPJUZzrHoTbqCs9YA1jZRdsgOXTmFscIzC06BhsGgiywYldhiZyJugtzNp6e48ZF7LmuJc4km5KvnkzW8lRzQFkbaJpEIElsnZJAb3STSOyAUUIQA3Xt+zDmS4DHG0gyQvcHjnrzXiFdS1c9JJxKaV0b+ZHP1QfQYohTufPM60TCXG+gaAvn1VKJ6qaUCzZJHOHxKvrMWrq+MMqqlz2D3ALD8Fj33QCaFJreqiyEG3VscJeTya0XJXUwns/WYpZ7G8KC+sjxv6L19B2YoKNoL2vmfzLjp8lwz5scWpi8fTwGOIZRa+pK0tuBpuvZT4TQzxFhhDNLBzdwvJYjRyYbUcKQ3adWO5OCmHPMvS3F1cTlmfh9G2EvfeE3Y3mfReVklMRtc3LCD5K5+KVNJUtlhktZhZlO1lyHyF7nOJ1vey7sNlDHHUV0EEhIje7vZTrZem9nwmGpDGQMMT4yLPPev5LyEM3CmZKN2m67D6qBzYpmuYT57tVGWrLqSqfCHEgatPkoNrHg+JZq6p9oqzINgMoVGcoN4rHsebHQ7q5tfJyJXKD9QVofI0kEaFEdNmJSNGuq0xYwALOaFweIUCQoO2K0Q1Ynhdb7QGxCyVAYx0vDPdfq0dLrEJDZWB9wEqy6eg7MNthBPWVy665PZmRrsKMQ8bHuzfE3XWSJbsJpJqgUwq0wUFl07qu6LoLQUwqrqQcgtTVYcpg3QOyE7J2Qedxv++rfZgb/NPC/qZz1eq8YN8dqPJjW/grsMFqNx6yFUX+8mi2qEAolNIoqJUCVMqDlEVPVLt1c5Uu3QRR8Ekc0DT2STQcrtC76GAdXErjMNiSu1jkxifTWa11muHeF91xYrlwPUoKze6S6LWNI1aCoOp4ne7b0QYELW6jHuu+apkidHuEFSaEIBCEKIEIQipDVCSYVR2sGFqInq8rcfCsWE/3e39orYfCqKJNiudIe8uhKdCue/e6Ch+6jZSfukFGoLIsptahzbKCFkW01TsjmgiQLJKVkWVCbshTA0QiO62rrofq62qaP2yVeztBi8X/ADbnt++wH+SriJtspulI7pLR6oNDO0tefrIqeT1bb8lc3tG/9ZQR/uSWXLc4H7PwCzOlbdB6RvaWnsGupJWehBV0OPUDWnNxW3Nzdq8qH87qcEwMvf1ag9YcXoJmZW1LW3+0tcdZSvAyzRm/QrxzhTmcMeSGk7+S3/oSd/eoouNFycLAqNTG2bRxqGafGo5WRudC0AZgLhaZQTFE0g2c/XRc2USUc5im4kL2jYmymyslv3ZyfU3Woy1VXsZ7ro+991c57Ge4HW9V0GVrj9Y1jvVoUzLC9tzTx/DREcxhlbs429Vayoezcu+aslqKZht7M7916qNTQ+82dn7oKC72ph8Tz8UhOy/dkt+8qeJQO2q8v7bCECGB/wBXVwO/fQbWV0jdn3/eVzcRnHvH53XP9hl93K/9kqLqWdm8T/gg6gxWT3rn4KxuKA7i3wXEtIzxZgjikHV5U0bRxJzHY+2Ru0rPxUzFY6XDhzCqxJmRtFUcy+xK1uHev1SRXRw7Ei4cGpI08L/9V0g4HVj2keRXm3AsBcFnFbK06kfJND0kkMlLMamkbna7WWEc/Mea0RSxzxtfEbjmDuPJeYZiM41a/wDFWNxGVsheB3juWndLFd6lH1jurla4LgMxeWIWAdbfbmrDjLpInsJsXc7ahZ1UW13jHmqYhYqnjNfYumvbrurop4mnVwPoqLDUiNwGXN+yVGGTi4i5rWkuNtAFa2phvc/ksrZYWTukMb3Em9wNUHUaWvaSORsR5qiobeohHS5SgraYubGGSRuedARuVJ5viOX7LEWLWtF1PIm0KVkFLmKDWfTt9VeQojSQno0/kg4+Hszcd33yupE36Jq5uF0s8lO57JGtu46HmulC2ZrbSAIiWVOydikSeiAsiyL9QUZm+iAsiydxyKECsiydkwgjZFlKwTsghZFlOyLIM8oubafFWNb3Aoytu4K0Cwt5IqOVFlOyVkEbWT1UrIsiKywHdo+SiYYz7gV1kWQZzSxHkR6FQNG3lI4LXZKyDJ7LIPDKPilwqgbOB+K2WRZBlpqrEKCZ0sLGuLhYgi62s7S1l7S0Mbjz1so2VD4nzyCJhtfxHoEHTocbfXwPHsQjbq3V1wVGWaCBoY5zIwdhsFXI6HDqMBoDWN2tzK81UTyVc7pHnXp0QenbPG/wzMPxUiD5H0Xzsg5yczhryKm2oqI/BUyt/eVH0DKeiLWXhmYviMZ7tU8/tarSztHiTDrw3/tBQevzEcz81LiP+0fkvLs7VTj62kY79k2V7O1dP+spZGfsm6ux6Ns8jfeUvapOrvgVw2dpMMd4nyMPm1aY8Xw2Tw1bB66Js06gqSTZ+Y87FoKsFUD+sYPWL/dYGzwSC8dREfRymQTtYqbVuE+baWl/eLmp55z4WUrv2ZVgydQkWDoiN9TxoqdsgZG03s4B2ZVtleZeHwngFgdn930WVpy+FxHomJpQdJHfFUamzNdUSQgOD4wMxLdNeh5qMT6d0kxhLC8OAlIGtx1VQqZuoPqpNqTbWNmu9tLoLIWQxvkELQCXkvAPvc0oYWw05ijfIRrZznZiL+aqikgia5rYCwON3WO6GCmZS+zxmSOPKWjLe49CgsyTNpSxkt5Q2wkeOfUhTabNGfUgWJaOapeGGk4MNU5jgABI7V2im9sjsghmYLOGcnXMEEyLXzOseQtulbu5ri97W5qMvHMsfDDDGL582/lZRLpfaQzhfRZbmTNselkEnMIIfYd4WB5qPCbG5zuGGufYlw5pNkLppI+G9oZaz3Duuv0RHMyUPLcwDHFpzC2oVEBAyNjmMu0OJJ11uVUYXNpeEyV2YCwkdqVcJ2PjFQ2QOYRmzk6JO9Rqd0GeRr7NyltwRmJG4ScH525WtyWN7nVWyxvcYy2QsDXXIt4tNlW5rzMDnbwsti0jUnrdBgxKV0VNOGsNy0MY6/iJ0U6VojpxCGOaIe6btte3MKFS2SoxiClc1vAiHHJ3vyAPxWoPl4b3yRFrgTZoNyRyUGe0DqUkgCBzdiLaJviY9rW3LWggjK62ysdMBAJZWPY0gXaRci/UIlazO0SEZie7fmUFbmEyNcHkAA93kVHh94nkeSs4bDUZ7/SBtrX5eiQiLXvcHOdmN7E3sgpDXhpvlJ1tZDswaDlN+YGtlZkc2PKX5ndSEZXC1rb6oKHFolawglxBIIGg+KDFkOYMsXDe26u1va3d63SczS26gzCEMjdGMzQSdb6hGXRoDyLHW43CufGH5myC/VIjlbRBUGuDybjJbQW1un9JkcSwXF8oDt1O1kZX5CMwc7WxIsFRU+4YzMwlxOoGtvVczGGWdAfVdZxkGWzWm57xv+S5mN/VxHo5Bz/E2/NRsmzZBQR80+SEHyQLW2yiVJKyCKR2UkjqgihOySAQhCgEwEDVWMZ5X8kt0sDW2FyvVdm+zRqMtZXtLYr3jiO7vM+Sv7NdmrZK3EG67xQn8yvYW67rw83P/I3Ii1oY0Na0NaBoBsEHZMlQc5eLbpIRK5mO0YrsNkAb9LEM7Ct7nLnYliRoHQjhGQyutbyVwt7eHTr4eAmPEZfmFhd3XeS6GJM9mxCpiGzZCB6LEW5hsvsY+nlynlAHVBsUCNxeGht7oc0NNidVpkvRF0NbmNgVPgOA3BQQUmnRIxvG4UQgsumCoBSbugsaVYNlUFIHRB08Dq/Y8RGY2im7rvI8l606FfP3HMLA2PIr2uG1BqsNhmOrrWd6hBpumopqgQhCBoSTQNNRTQSBUmuVd0wUGlrrqbdwszXK+J13AeaDzOIm+OVp6PA/ALXh393t83uP4rnVTs2KVzusx/BdKgFsNhPW5/FUWpJoKBKBUiolFIqDlMqt6IqcqnbqxyqKgiUIKSBppI5IONj+tRCOjSufTtGbVbsc/tzPJix0/jQaw3TRK2qmNkiCgjsk5ge3K7YqeUp5SgyPpBfuFVGneHgW3Nl1I4gRcqAbaphHWVo/FBzJ4jFJlKrsupjUYZi8rOQcudIO+QOSCICMq6UELeG0lo1Ct4TWtIDRcoOTkKdrELZJGWjUBVGO+qDp4X/d8fqfzWo+FUYe3LQxhXlVGeXYrnybrfN4SsD91CKT4kAKRCANUaWRhDgr4WfRuPRVEKCkpKxwUQ1BFACnlKYaghZCmWoQbYqqSP0W1jjM3M4A+oXPAPRddjQ2Fo8grUZ3My5ja2my5AkvouzUG0Uh+6VxadlxmdsFBa5xayw3VLZXtcCdAr3hVua3LqEGynqGzvJLe8NBqvadnpHwsEc77X1Xg8OH07R5r2pnDAHMGpYAuPLn1evhw7TTn9t2WxaCTL3HxWDupXn6T+0H0XW7SVb5XQQE9xozALk0n1xXTjy7Tbz8mHTLTdmUvaA0WKpecptcFUucujnUpJMxVJOqCVElAEqLmsdu0JEqN0Bw2Dwgj0NlNsk8f1dTMz0eVC6EGpuIYg3atef2wHfmt2HV01VO+Grjp5WCNzriIAjTTULkBbsL0FdJ9iG3zKC7Fm/8Bgdza4OCvjOeBj+rQqMTf/w6OHqApYa7NQRnpcKK0MF7Bdao7OTSQNdDFG+4Bu06rkbFd3C8YkggbGXXDdLFBzDgI8MlO5snPvWWeowcwi/DnHpqF7eOppq5lpAASs9RhTmi8LiW9FR4cYeHfrns8nBJ+HuH65p+C9NPSzNJBJHqubPTvvq0XVRxXQPvluHKLqWQeKO4W6SMtN8uvqqZJDtqFBlyubtG4eiupXPdUMac9iU+K8cyrIp2se17iCL6gbhBKul9nkYRf4HZOOqY4tfHG0yNFtXG5WetlFRJdt8o2us+QjVTSvQ0NcZ3lr4shHK97reCCNF5/BnOMzi92gHPdd1hBCmlSKpmOWOZ3SN35K5Z6s2o6k/9MhIRVh8M78IgNO6zvEfNTElY0d6InzstVCzg4fCNu4FaRoqjB7VK3xQn5Je3M5sIW9RIB3aPkoMgq4j1UhUQn3reoVphjdvG35KLqWE+5b0KADonbOamGNPvD4FVmih5Fw+Kj7E33ZHfJBfw+hSyFU+yPHhlRwqpvheD8UF2VwR3uiqBqm7i6ONM3eP8EF3e6IzAbqoVVvExSFWy/hIQSZNTFji+QAjkUw9rhdpuCraaqozA9r3gOIO45qlnBsALD4IJXCE8sZ2P4p8IcnIpWRZPhO5FGR45oiNk7IyvHIIu77KAsiyM33Si4QNkZkeGAgE9VY6jmHh4bvR4TzMp4i+Rwa07kqj26id/zUPxdZBYaacbx/EG6m3h0sLnvNuZPVTYWtZnvdlr3vovO4tiBqpeFHcMG3mgrr619XOQPD7oVYi4UEj3eINKupaXhjNJq87eSVc61HOfKyDz52HmlyT5BJUCEaefwSL2DcoH8UJB7eR/FF0D05qORp3amUIFkbyuPQqxj5WfVzys9HKCaDTHiOIxeCtkt97VaGY/irCPpGSftNXOui6DtM7T1g+spY3+hsr2dqmD6yieP2TdeeuhB6hnajD3eNssfq1aY8dwyTaqaPUWXjksreiD3bK2lk+rqYj+8rQQ7ZzT8V894bOhUhmGrJZG+jkH0EMd0HzTynovBMrq2L6urm+d1oZjmKMP9oD/ANoIPaXLdiR8UxLIP1nzXkmdpcQHiihePSy0M7UyD62hB/Zcg9Px39WlHHefdC89H2oo/wBbTzM/FaWdosLdvM5n7TUHXdJG9hjfFdhFi3cJTMpp2NZI3utIc0bWI22WFmK4fJ4KuP52WlskTwMksbgejkFsjWzGMmWxY7NYc/VLhnjZzIS2wGQWt6qOXpY/FFj0QZaCKV756yeNzHzvs1rhYtaNArG8dtO4yMY6YAkNadD01V1yOZRnd1UFL5HRxNdwnOcSAWt5KMjgHsYWkl1yDluB8VfnPMA/BGZp3Z8iqMwMXtLg3Lxg0XPMBRiZCOIYsvecS/Kea1ER3vlIHPmoOjhyuaLBrr5hltdBRwrRBjHuAAsHE3KHNeXNIOg303UjTROgbC05WNtYNNrWTdA90jHNeRlv3WkWd6oK8rrnUZfxuiysMUgeSfDba3NVNEzYn5sr5LnLyHldQIjmkm4yBrLRhziQHAO0HnqmT9Nw8jyLXz27vogrFnOsCC4aEdFDhnhkNe4X2dvZWtdGXSWblymziW2v/qqyKZ9IAC1sJtlINuf+qoWRwcLO0G9+a52MMJpHG3hc0rqFl5mOLnNLQbAHQ+oWWvhzUtSL7tvb0QeeYmd1FuwU+SBWRZSCERCxSIViRCKrSIU7JEIK7Isp5VIRk8kFVkAK7heSk2Ilwa1pc5xsAOaluhWxhuAAS46ADmvcdm+zIpwysr2AzbsiOzfM+at7Odm20QbVVjQ+pI7rDsz/AHXpQ22p3Xh5ub+R0kINsboJsm51lU568TpIHOVTnJOeqnOJ2WLXWYhz9dFwsextlI3gQBslRzcdQw/6qvHcebSh1PSuvMdHP+z6Lx8szpHXcefzXr+PwW3tWc85IjNK6WVz5HFznG5J5rdRxYe/CqgTPc2uzfRhpPe6Bc8Nc5zWtaS4nQDmvZUGERwtdUyxBkzm3a1u0Y/1X0pNPNfLjM7P10kEZaY43PBvnNreSznszXMIBmpjmJt397brvGWCVzpf6zMXNFS0Dbu6ZVblkjLuBQj6N7XNdI69w7xH4XVNPJihmhDHvaHBzM4ym+nVRzDkvXB81O48SSlhhjk1aLfU7AfErzOIUjKOvkhbKJAO8bCwbfWyGmJ5uq9FN5AKrCIkFLmohS3CIldK6jeyLoGXL1fZd5dg7x9iZwXkl6jskR7BVDnxv5IO2hCFQJpFNAJpJoBCEIBMJIQSCuiPfb6hUhWRmxv0QeWc7NUVTusrz+K61Hph1MPuAriMd9G9/Vzj+K7kItSQDpGFRNIoCECStomkdlFRKrepkqt2yIpcq3KxyqcgiShJF0Egmogoug4eNG+In9gLPTDUq3FzfEnno0BV0yDWNk1DMgOQSLrJZggPsdQCpcVv+G1EJrnctk6cZq2mHWUJOkLuQaPJWUIvilGP+oEIjj7cuOTX6rmnxnQLqdonZseqLdVyvfRW2OQ5A3opZndUmtFhbopCxIBRBlc5tyNFU4d1bnAZbBZJW2Yg6FOLU8Y8lJyUWkLPRN+yozTbFYXrbLsVhdqVFiT2aN9FWN1N+tvRQbuiujSC9PMTyWNy20o/qMx6lYn7qCCkBokgbXVEkHkldK6AJQok6oRHrT2TmYe7UscPPQq1+DVjW91jXADk5bPb64f8xGfWJaqWvke7LKGEnm0WUV5OrH0L2nQ2IPquaxoZGG9F6mr7P1FTNlpXx5HG5Lzay4eI4dU4bMYqqMDS+ZmoKDA8qom/+yb3Bx0KQbfkqLsN1qm+q9jRZjmcOltV5HC2/wBaHqva4ZHeB5814vkzb3/GsmNrz3aTLxKct3IN1y6fZxXS7RgitjuO7l0XNiBylduD/h5/kec1pKgSSjVKy77ebREqBKko2VESolScooBMLVhzWOjrXPa05IdCeSxsN2NugkN1vo+7hdY77b2MWAbroN7mCxj/ABan8kEa12aRjOjU8HfeCSM+664WeolJnIFjpzTwvM2pe2/iF0V2O6oOlMbgWlLhOcdCfgrThVZK0GNpb5u0QXU9e9pHJduixpzAA43HQrl0eAl1uPWWd0YF0m9nGZPo6yUH7zQUHUGI0tS20jbXVb8PgqG/QyBct2DYhD9W+KZvrlKrDq2m+tglZbna4/BEX1OCytv3LjqFyp8Oe24LV26XGXNAa85h0K6LKikrG95oBUHhJaRzDqFXwPJe5qMIbIM0diuTUYXkJu2xVg81wOgUvZHnkunNRuYbgaKoSyRmzeSDkmN8U8d7tOZdxsxaVRUVAndDG6MB2a91JyitTZri6z1sv9TnHUAKsPLearqZP6sT1e0fiiu4wltPEDyYFIFp5qMhNmgdFC6IuslZQDimH9UDslZSBBQoIkBKynZFkELIspIsgjZOxTshAeqi5jS03aFJD/A70Qa/ZacYQXmFlwze2t1zW07SBckacl2qs5cFA65QuaOQQU+ys5OKRpjyetNkIrLwJh4Xn+JK1U3YE/EFa0IMZlqR4oz8kva3t8UZ+VltR3kGL2+L3mW+K0xuYWcUjKzzVtr+IN+IXDxaudNJ7LT6jnZBViNaayp4TNI2mwC4Na1vFlaANCvRU1GIg2+rzuvO1Dv6xKfvFB3K3FWvo4aamk7jY2hxHoo0VLkHEk3Ow6LiQC57vMhdmsqWUEYMjrvt3WDmgsrq1lHEXvPe91vVcmKpfPhtZK86ukaFzp531MpllcSSdB0WyHuYKej5kRTySTOwUVRtopDFGcuhJ6LWKlzvEI3erQuLxHNOjrBTbUvHvD5KEdRzoH+Kkhd8LKiWmjcRwWNj8rlZRVHqPmpCqKKt9jbzzD0N0vYh/ikerUhV+RT9qH/sIImhk92Rh9dFB1NMwXc0fBXipb1UxOD0RGDUHVF1vL2HxMafgongH3AqMSFsMUThzCrNK3lL8wgzpXV5pJPdlYfVQNLUD3WO9HIK0XTMMzd4HfDVRIcPFG8erUAi4Ucw62UgLjTVA7phyjYjcFLM0HU29UFl0rDmEgR1TQRMcZ9wJcNo2zD0Klqg3QSbLNH9XUzN9HK5mKYjH4KuT97VZkiUHRZj+KM3eyT1C0s7UVegkpIn+hsuLdK6D0LO1Mf62jc39k3WhnabD3eMSx+rbry10aIPYMxzDZPDVtb+0LK5lZSyfV1UR/eXiCGnkoOY3og+gA32LT5gp5XFfPmlzNWyPb6OVza+sj+rq5R+8g913m+9ZLMR7xXjWY5iTP8AmM37TQtMfaWtHiiif8LKD1PEP3T6hGYfYHwXnWdpj+to/wCFyvZ2loneOGZn4oO3dh6hQcyEtsSLXvq1c5uO4c/9cW/tNVra+jk8NVH87INDoo3SCTMwvbcAnko+zC8ltTJe/evrZRzsOz2m/Qo2IVHlGtLe67driFNuynWMyV07Pv3UW+u6AshNMBArJWUkWQRsjKrA1WMjuUFccV1cIgAtEUIVrYHPlbHGwvkdo1o5qW6WRhZE6SRscbS57jYNG5Xtuz/Z9uHgVFQGvqiNBuGD/VXYHgceGtE0lpKpw1dyYOgXaAsvBzc1viNyAC2p3Sc6yHOsqXOXkrcgc5VOchzlS5xJsFzt36d8YCS42C83j+PtgD6WjcC86PkHLyCh2gx8MzUtG63J8g5+QXknvLnL18HBvzkxnno3vLnEkm6iNUt1tpWQwObJUML23uWA6lfRk089u3Z7MYWWN9vnaL+GNruXmvQyPBieXSFpaCbi1h/svPntOA0CLD2sa0WAe+6twrGZMTllppqZjczdMm2XmqRrbKY3AyVsTWMfnyxj9WRZo+apeKchsUk1RM4F1MT1Ltb/AAV0UUuRtqOFjSHRnMdsp7ijK6d7OH7XDFJLHlBH+IPF+CoriYwiNrcPc5kjTE4vNrBh7vzVdZST18DGSR08JfHmcQe8ZRsPkFOSWCV0jzWyyiRjZ2sa3QNZv8yEs0DeJLDRzSuBbVtB5udpZB5SRmhFu83QqhuhsV3sboXxVT6htOYoHWvrzIXDe20oCIYT2QRZMBGSd6qN1MhV80DXpuyWlFU+cv8AJeZavT9lB/UKn/xf5LnyXWO2sZuu6mkE1ePLc2mU0XMKSXvIXRk0IQihCEIBCEIGFIHK156NJUQoVDstNOekTvyQeXj1owfIrvbMYOjQuExtqVg6iy7rzr8AqGNkJBCAUSVJRKCJKrepuVbtkFTiqnHVWPKpcoESi6iUXQSundRCaDz+Ka4lKo06MQOavmP3rIgQXp+hSCEDQhA6oGteEjNjdEPvk/gsa6GAi+PUnlcoMmO/35UepXO99dDGu9jFQfvFc8eJBrY7RSuq2qSC9s3dsRsqpXZreqQSdu31RHUZ9Uz0CTtk2+EeiTlRmn2WI7rZPss8VNPUZjDE5waLkjkgpJSB1Unty6OFj0VY3UV1aYWwx56uWB266UIthPq5c56CCJSMwt0QEpfGio3SuQpBul0jZERzFCRCEHpmdoaN27JW+rbrfS4zh+YF8uT9oWXiWHvC3VdZo1Hoht7OOspJ/qamN3o5aMzi22jm+diF4V0UR3YPgotlnhN4aiaPyDrhFeynw6hqfrqOInq0ZT+CwS9mKB/1Uk0B9cwXGjxzE4v17ZLfbYtkXamcW49G13mwoLoOzctNLmjqo5W+YylemoaQMo7NeM9tRdcCLtLRP+tjmiPm24WuLFMNmIy1UWbo51iueWEy811nJZNRTjmHsqp6Zrw4WcWusbaLFJ2fpW/VTTN9SCvQMeJNWua/43SdEx3iZr5aKYTrNGd7XbzQ7P5vDWkerP8AdRf2fnjYXCqjeAL6ghejdCwatJHkqJ2l0T2x+ItIC6bc9PGjVt0itkmFV9LDnlpnlg5t1WPQi6u2dKnFQ3XTwt9IyrArYg6Ene17Lu4r2ahmh9pwix0uYr6OHl5oaebpO7hWJP6ta1ZGaNHouiY8uC1DbFpfM0EEbWTwzBarEBmp42yMabOHEAP4oOdyW+p7mHYe3zc8rvN7KQsblqG1cZPvMs8Ba/6O02eDNM6dkTcobly3RXkqWgqMQntTxk9XHYL0mHdmaalPGqKgyTfZbsu9DSNiaGsYI2j3Qr2xsGmUXQcyaSKgazh0rAXDQ2WV9e/R73C3QLq4nTmopHAeNmrV5bIJG2AbxB1RZHo8NENQQXXZIdR5rrRjQjYjkvI0c1RFI2xLR03Xa/SUwbcgE8younTJIN/wSOrczXH0WCPEA94cTZp0K3sdGdQ5NppU6OGX66GN3m5tioDD6N4zNa9n7L9FOciU2zA+ioxKojoaFwe8B5bZrRvdVNKYMSMcjmtcXMB5ldKOpgqm2da/VeOhnsAL6rdT1RbsbIjtVWGNcC5moXFqcPIO1l1KfEnNFiVrbU09Q20rBfyVHjJYTFWMvyBKmXLp44ynjqo+DqcupXMNlBW46LJO5/BblOrpRZaJNBcLPJ9VCBzeSoOxC+udI0Suiezq0arUuRTVFU1p4bS8Bam187frKV/wag23smD5LGMRZfvRPb6tKsGIQZS47DyQac3kjOFy4cdidmdJHkjLrAjW3mukyWJzQQ8WOqCxsjeqeZp5qN43e81HDjPMH0QT9EWUeEOX5oyOHMoJWRZRyu6p2ePNA7JO8BSzPG7Qk97w0ZY87ibBreaDpVzs2FQhvN4WEKEs8wLIpqeWMXuLjRSEjfMfBBNKyXEZ9pMOaeYRTsiyNOoTt0RCsiyaEEXMEjSx17EcjZcmKligc90d/MuN12Bv8F47GsUMzjS05LWbPI95FWS4rx8WgpqY/Rtd3nfaNlxpXXkeerirMJsMRaeTI3OHyWe5OvUoNNE4R00szxfLJYLPUSyTy8WV2Zx+QVm2GW+1JdZUQ10njJgVG37b3OXMd4SurW93DsNZ/wBLMqMSRTSQVOOqitAkorWkp5g7q16j/Uj787P2gCgoTV3Cpvdqz6FhCjw2nwytKgrTzHqVPgu5ZT8UjC8bt/FBHMepT4hHNLI4bgqNvVBYJXDmn7Q4c1ShBoFS4dVIVRWdJBrFV6KXtQ/+CsSEG/2of+yptqh9pc26d0HS44d9k+oReN27W/Bc2/mjMQg6Qa0G7dD6rczE5WxhskVLOB/iQi/zC4Akd1UxM4Ea3Qeg9swt/wBfgcV+Ziky/gjL2dk3pK6D9l4IH4rlNrYeE3+rgyHkHWWb2t1zoW9ANUHc/R+ASeHEqmE/fiv+Sf6Bo5PqMfpj5SNylcL2px5D5IMznb2+SDtnsvVu/s9ZRTj7souslVgOJ0gBmpu71a4ELm2a7km17meGSQejlRb7HVcqWY+jbqEkE0QvLTysH3mEKTK6qj+rq5WfvLQztBise2IPI6OsUHPzD09U8wXT/T9dKLSRUs4554QoOmNS4XwuFvXhgtug5uZBXWipKNzTxqSVp5Fkirnw6AuZHSip4zzoJALW5m6DlpLdWYeKWbIyYTaa2GxWV0Thyt6oK0LeMFxEsEjIM7SLgtcCqJMOro/HSTj9woM6RTLHN0e1w8iErt6oFYIsOiLjki6AGmxIPkVayoqGeCeQfvKpNBsjldMC+Rxc47kqxqopfqyPNXN0KCwBSAQNkwgQCmGoAUwEA1ivijvuosbcrfRU8tTOIYGlz3b6aNHVZysiyJU0MkkrYYY88rtAF6zCcIjw+PMbOqH+OTp5BWYbhkVBFZmsjvG87ldACy8HLy7uo3IGtsEONghzrBUPfdef03JsPcqXPQ91tVQ997m9gNyVyyy34jtMUnPv5DqvKdoMf8VNRu7uz5Bu7yHkoY/j+cOpqNxDNnvHvf7Ly735juvXwfH/ALkxnnrwHvLnKKALla4IQ3KX+IkWavoSSPPbtFjOFHxZB+yDzXYouzpr6GKrnxHgPlu4M4V7N+a5VY7j1PCadG91e4oKp08ZhAjjZHEBc9BqqjjN7HxE2OIzOdfLYQ8+m62U2BU2H0suR0z3ziwlOha3yAXUMrvE6qGc2cMg2c7xfILPWkClPAnLXB4c179mxg//ACqrnZ4ZGOkbTVEnEYKgB2mrNAPwVhZI1znw0LQWOa+Nz9fF4/wS9oaM0rq8ljXiYBjf1bu6B81U8UrMrHyVMxY80xPXPrdStLxx2Occ1LCyN/dsBpD/APKWcxvYZsQuYXkSBg3D/Cqoo4pA1jaGVwc0wHMdAGbXV0bahwDvY4YzLHd+Y++PCgzWo28KKZ9ROGP9kdcaEu1za9FwZ4hTVT43NJMTyDcbhenf7Y9pHGp4nSRWaRb63n+C4+PhkvCrG1jJc7RGGjckbn5qlcaUAyOc0WaTcDoqxurDsofBGDVThqrVEt1REWhdvs/iUVA6SOoJEcmua2xXHAQVnLHtNVqXT0X9IBNi0LYwW0ty0k+8eq9CRY+R2Xzs3G269pg1b7bhzHk/SR9xwUxx6+IW7b+aaQ3QujBoQhFCEIQCEIQCqr9MPqnf9Mq0brPijrYVVHq0D8UHBaLxxDqWrtP3K48WstO3q9q67zqVQDZNIbJIJFQe4MYXOIaALknkpLj9pZS3D42NPjksT8EG9tXSy6MqonHoHJu20II8l5Cno5qqbhQR3PM8h8VudgeIQMzRytuOTXEFQdp6pcdVwPba+BxY+V12+68LdQV76pxZM0BwFwQEG4lK6LpIJXUmnUKtNp1Hqg8/U61U37ZUoFVNrNIerz+ath2QXoCSdkALWTHmkLIPyVQ+q6nZpubH4fuxuK5enxXW7La42T9mFyiuTihvik/qsq04ib4hOfvLM1Be3dS5FJqkgOSR8TfVNH6xnqiOmP5JO2T5qL9lRln2WZs8sLiYZC2+4C0TbLIRcoK3SOkcS7UqUbdVNrB0UgAFFdLwYSw9SuW8rqTaYRB5i65J80AN9k36yW80mpv+sRaUoscqrVrT3yXaqq+pPVECEyNkIIwC8zB5rqSvjh1e6wXNoxepb5LdUMY9zeIzOByvZBNtRA/9c1DxzDg4eSxS0jHOLo2ZB0LtlCGCMG8rpGs6s1PyQbUjooZKH3cRnZ+1Df8AmqZX8N/0NTx29cpH5orWwlXsa13iDT6pUlDWVEAkDWWdt3rFU1ZkoZAyojc2+oI5rO41Ma1iGMax5mHqx1lvoRikjZHU1VKWRi9nm64TK6Me+R6r1PZ3EqUYdUQvkHFee63qorF+m57Fk7g1x94MsV0aWthfG3PLmeRvb+S2cBthmia7Tm0FZ54Y2Nu2CJp6hgBWezWmh9cI4zxGSiO2ri3Sy5dLRYBK98/tgl71+G5psPkpObHL3JGB46HZWQUVNC7NHSRsPUXTsnVCSjonZn0LGB1jaN3hKx4HXV1FXsoJbBr32s4+H0XVfT0zzd0ADurXELJV0FLV24jpLjQEHUK906ulieH/AKTldSTZaaVveZILfSKGBdnpKKudLJU00zg3LljOoK5kGHNgJDKhxB/xAT/NUx4FNT1HtNLiIife5IaQT+Kszh1r2ssD3EtbdoTZE2Ntm6u6rHT4jGxreNN7oDrg6lRmxmMuLadhP3jsr2ida6FgBdxssdRiEMdxE4Of0uudNLLMLyHMOgWCer4F8tM5x/ZTtDrW99TWz+OVrWdAFUJIqc5cpe46GwXGixOaoqQyXMxt7ZQ2y6OQMdZ2doOxKza1MWyJrQDuGHc2UppowWMMb2jmeTh5FDR9HlG1vmkWRWy3OXo7kptrSiYmJ12m8buZ5LbhtUZXcMG9gsM9XSVLzE4DujKcul1upTS0UJlaQ2Nou4nmrKzY21dRFh1GaiodkaNhbVxXh5qp9RUOmcSS83FzsEYxij8UrjI4lsLNI2Hl5rHmXSVzrcyYjdXxz25rmtkIVrX3VR2Iqq3NbYawAXuvPNlIVgqC0IOlXT8aRmuw1XOc2uqJ8lDwtBch7gCVbxM9ndWrn1uH+1TCTiZLeSQXtdOGvbUgNkY4tIGyTjZlP5AlQjZwIRGXZiOak4d6MHkxSjo4eLUxPUrdG9211kpBlpWjqtDVBoBPquF2lqw0MpIvG7vPPQdF1p6ltJTvmefCNB1K8fI99RO6Z+sjzsgnTTyRXvE1zHH3hcFekwz2Wsp2mOKzWix1tqubiFOKMYVTbuLjI9dzDowyBxGznE2QS9hhPhLx+8qpII4pMntLw7puto3XCxHATJWSVUeabiOuW5hceiDoWy7Tv+SgKsh2Rs+Zw5c1xXYaxgdeGqjeBoHxm3zAsuTJMY3ZXRajzQexjxFhlyPmjjd1kdYLSapjf+bo3ekrSvAmYP8AEwfO6GyRXta3wQfQ4pHyfV8F9+jx/qrhFVBzXClc6xvoQV86+gPvH4XU2SmM/Q1E7D915CD6RPxpch9kqGkDW7bhUd5vihePVpC8RHi2IxeHFKwEfakJ/NaG9pcbGjcVefWNv+iD1+jvdPyRkZzA+K81B2wxeOF0cssMxOz3ixHyVTe1OL3787JR9ktCo9Tkj8vgjIPdc4fFeb/pVUe/SxOPyUmdqHe/Sj4FB6IMd9soLZPtfguI3tPFzicFaztHTO3JHqg6wzta4u5NJXzmoOaZ7urivZnG4JYZWtfqWEBeOlieAe6Tz0CC3Cxaaod9mByyC+QLZQXbDWGxH0QGvqsZ2UF7/wCxxN9Ssx3WmX6uIdGqgjVUQf4D6Lr4r3ZKWP7EDVyHC4t1Nl1MYP8AxHL9mNo/BBjRq6zW6ucQAldX0bM1ZSjrM380Gl/ZnFgb+yZvR4WN2F1rXuYaV5c3do1IX0h5+mPqvNwzF1fWPudC8jvX5fgg8o+nmj+sglZ6hQsByK9ri8jxVUsTTJ3IhfLty3Xdw2KOajk4kUbxf3mA8kHyzR21k7W5r2WJUlK50bBTRtdLKGXjjGa3lZZKvDcLcaeKKGcSPLnOLR3rchba/mg8yHOHvFPjyjmPiFZJGxsrmtuA06Zt1HKFBJsj3DvNhy9S3VQfKw6CJvqEi1VkWKCWZv2bfFF2nqoIVEu71Rp1UUIGnZRQCglYpJhzhsVY2d42aw/tNQVIWqKoc17XOgglsb5S3Q/it36Rw5313Z6Eu6xzvZ+GqDj+imQHtH2gusJuz8n1uG4hB/4Mwd+YSMXZ531dXiVP5SQtf+RQciyYBXfbh/Z57Yy3Gy6QG7mzQuY0+W2i6cMGDBo4Jp83IxVbf/6rIPKQ0tTPYQwSO9GraOzuI5Q+WMRNPNzl6EHGQ4toqWKojt3c1RGT+BXKxKXtHctmpZIR/wBNl/xQZ24CGi8spd5NVToaGB1szAR9rVYJ/a3H+sCoPk4FZzlHI/JB05K6JmkTy/0bYKr9KScowf2lhuOSaDU7E6knuv4f7Isq3VMkjs0ksjztdxuqEBBe2ct2P4KftTudisqSDY2py6gub+y4hXxYnUx/V1Mzf3yVzLp3KDtNxuvH/M5x0e0FDsVdJ9dR0cvmY7FcbOUcQ9UHQcaSSZz30oa0t0ZG6wB6rK+nYT9GbDoVVxT1U2zX0NigXAeNspS4TxyU3MIYDrZR1HNBZTNLS4G6vCrbUyFrWuayx521ViC5uwUrIjF2AqwNQRAVjWkoDfJbsMw6fEZ+FALNHjkto0LOWUk8rIWH0U1fUthp2kn3ncmhe6w7DocPhEcTbn33ndxUsOw6HD4BDTtsN3OO7itll4eTluV8NyC1tknOsEOdYKh71574axmw96pc9J7lRLIGtc9xDWtFy47Bccst+HfHHXs3vsCS4BoFyTsF5HHsf4xdT0xyxDdw3f8A7KGPY8akmCnJbAD8X+ZXmnvLjqbr1/H+P/cmM+TXo3vLnKIBJAGpQ1pc4AblbWtbSAbOlP4L6Unh5rdk2NtOzM7vSHYdFKF15uK/XKMypJLnXcbk7pl1mFvVBqwainxHEBHC1ufxEnQL2FBSTUtO/ixxyEkS76WafTquR2PjAgrJwZBIXBkeQak8/wAF3PohLm4VTLG12cb2MewGvVyC8tmbZjhCwh2Q211fqT8AsteZvZog0RTl78jm7BsY0upcFzxwhRu4jgYS5zh49yd+nNU4sGPiZFJTljazbIdWtAt/JBlY2ZjWjh0rGDMw3A0aD3AqnuqZO6a+GNz4zGMu5lG58tFCNsbwZG0MrjIwSanm3QBTLJIy50WHsDmFsjC437zvF8rqNoyTRyiQnEZXMka2RoYDoGeL5pOdS96T+sybVY8+QCuaJ4yMsVJHGyQZdtIran5qQMrMvFqoWhkhzgcmnwhQUuEcAc+Kie98LhKwHmXbokp5AyeCDD4w1hDYi430d4j+KsDxFw+NXkmMmJ+Vu7nbKkOpWviDqqolMd6MkDdx5qjzU8XBmkiBB4bi245qpboaE1LpooXAvjJygm2eyw6bcwbEdEZpXsg6oQqyd+miFFAKBldXs5Wey1wjefo5tD5Fcm6WcsIc06tNwg+iWs4prPQVIrKKOce8Bf1V6oaEIRAhCEUIQhAwsONm2Eyjq5o/Fblz8edbDQPtStCDl0+tXTD766rzqfVcukF62HyJP4LpSbfFUSCaQ2Qga4Xal30dI3kS4/ku4VwO1B79I3oHFBzaTEKmkilhg04hzXG7VW2vrA/P7TIT0LtCtuAtaHVkxGYxxaD1/wDhcyPKZIy7wueLjyug6dSWYlR+0NbaeId8BZsJ1rHHlkK2xxNhxieCMWjfHeyy4OLVUw+y3+aDqJoQoBCSCbNcfIoPOv8AG49XFXw+FZ9yT5laYdkFiaLJIGQhAuhAc12eyumJVDukBXGXZ7LaVNaekP8Aqg4lac1ZOfvlUM8SsqdaiY/fP5qtlroNDU0mkWT0QO6G/Xw+qLdAT8FbBTvMrXv0a3qg3KD1NQeqMsyyHdaplmO6gkEHwlRCbj3HeiDqVxy4RSjq0LjnfXZdbFe7h9G0fZH5LkHdBJu4Q/xlDN0pNHn1QLqlZMoBQOQtaGjewQoEFxJQgsof7RfoFqkeQ/U2Cz4eLyOPQKU8hE1tEFpcHDVu3VQc67bXFlVNITZreYUqTWoa10fEAFy08/kqIHLrskwZlbVxwiNz2w8Mk2ABUIB9HdQbqHEpqQ5HXkj9dQqMbxBldJEWMc3ILd5ZL3JKql8YWev9b73WkFup3ERDvEO5ELEN1rp9wrpmVqNbXRNzMq5f4lU7F8Q51LneqlK3NEQ1YjGeanWNdq2MxmtB+s/BbGY9iIbcFjm+bVxctguhG20DPMJ1h2rZ/SWubo+nhd8LJjtLJ79G34OXMlZYOJuR16Kq1uanWHau8ztND71JKPQ3WhvaahPiinb+6vNfFPvJ0i969N+n8Pd+se31YpR4thzn/wBqY31Fl5bKUixvRPrWZvbMrqR3gqonejk3ztAu2Zp9HLw3DZ9lLhs5D8VLgv2Pd0k8sj/GHBappJQ3YfJfPG8Rvhlkb6OIVzKqrb/zc38d1Oh3e0M0o/8AhIZXC7ma9bleRZX1zdqyT4gFWtxnEYtpmv8A2mBTrV7x6+F0UDbNiZrzsieNlcwMkJDPsgCy8qztDX+9HA74WWhnaedviooz6Psp1sO0rpy4FSO8Lsv7n+6yyYAwfVVYB6OCi3tOw+Ogf8H3SHaSkLu9BKz8Vr/Y1ij+g6v3Kinf6uI/kl+icSafqoX/ALEov+K0Mx2hf70g9Wq5uIUr7ZZPndO2UTri50sFTTf2illYOoFx8wqOK2RjjGb2Xr6KspzEGieO/m5WTw09SzvxQS+rQfxVmVZuDzbBaJnQNCa6r8LpD7j4z9x2nyWd+ESH6mcEdHha2z1rlzbFQf8AXHyaAtlRhVewaUxkH2mOC57jK2aRskT43X95tlZUsduHSnjHkrWrPScT2SISDUBV4jUGCLIzSSQWHoiOfi9V7TPw2n6GP8Sq8CpfacQ4jh9HDr8VmqTwow0akrudns0NMYXQOa++Zzut0GXGHcbtFCz/AA2AfFeghbkiY0cgvNUv9c7STSHYP/JemztvZBNMKvOz7QUg4HY3QRq5309HJI0tBaNMwuF8+qZHTTve43JPIL1XaWoayBsd9SCbFeSVFlDAKirbEdiCSukMLgHesfjqq+zob+kc0lrCM7rvTQw5DkewHpmVHnjSjiZRoPIKf6PHKUj4LoQU44xzZStvsY+yoOF+jXcpx8Wpfo6T/Eid5ELtupnNPhTbTn7CDhPw/u6QNzdQ+yrbRuae9C74PXozS/dVUlM0X0QedlaWbZ7DkVXlL23uQupVRaSG3JZoY7Opz9ooMLZOV9uu6sEnVdqaJrnEFoPqFFtJTZNYWh3kLIOOJu93Sptnd9uy11dMDlYL2cQBqsUhNLUSQjKcjrai6C72pzNC/R24PNBfTuHehb6hZJJXSuu4D4CyTCQ9pbvdQXzkZhkBDbaAqlXVLnGY5vTRUqgjbmmhb9qRo/Fa8R1xKb7pyqrD258TpW/9QFTrDxK+d3V5QUrdgzc+MUTOst/kFhXV7NNz4/S/dzO/BB7Z5+lcehXmKV7YmzyygnO6wbax3/2Xppjlimf0YT+C8yKCaooIpY62OBshADYobA3O973RYK3E+PMJhSN4jRYEkm3wVI7SYvA1zY54mNPu8EKmpw+qpqp1L7bnAAObLZY6mgmp2NfKHFrybOvoUF78exHjxSudG8xkkAMte6xw1V5s0kUlhckxuOnxVWVz3hkYzvOwCsZTzQyvZPEWmPQglFOqY1xY6AZ2uF75SNfjus1nDxCy0l8z42tmlc5rDdgzaAeiqllbzQVFVuU84d4Wud6BItfzjcPVEQSUi1w3GiiiBCEIBCaEDaLkL2PZLs9h+J4VLUVsEj3cQhjmOI0Xj72bfmvrmDYfJQYNTU8b2hzYwTcbuOpQcd3YfB3axyV0d+jr/wAlnf2BpibR4pMw8s7Af5r1oZVNB+kY4l19W7DopFtjmdBdx5tKDxL+wNWPqsTif+0y35XWWbsLjDfDNRyejiD+IX0LvEA5SFXM0tikcSdAg+bO7HY6wf2KOT9mZqyS9nMWi+swmf8AcGb8l9VAc0A87BSdKWg5txug+NzYdUw/WUFTHb7UZCoEj2aNklZbzIX21spc0Fp0K42NFslU1jmRuAbc5mApsfLhW1TTZtXN/GSpDEKvZ0jXj7zAf5L1GM0tKaiJopoWnJc5WAX1XO/R9Kd4G/A2XScdym2blpx3VT3eKKA+jLKImiH1lKx3o4hdeXCqV8ZEQMbuRzXWVmHUpcI5pZYZehsWn0Kv1ZRO8ZM9G7emlafuyXH5JxsonE8WWoj6dzN/Nb3YEPcqv4mrPT4TLVU4kbMwakWN+Slwq9pWOVkDX2ilL29S2yiGBxsHN16lTqKWSnkLJHMJBt3TdVsY572saLucbBY0q84dUZczQx4+7I0qPsFV/lpD6C61HAqiNhfO+GJo3JK24F2elxKqDI6p0DLXD7G5HkFetNuG6KVtw+J7bb3aoaea9fPhRoqqSA4lVvyG1w6w+SorYwygmtI+Uhu77H+Sswt8p2jy2iPRfQ6Ds/hNTg1PLNSjiOiuXB1l4OpYyOeRrPC15AusXw0i6olewNc7ujkBokHqDdkkF7n53XNh0WpveYD1XOWyn4jIc7geG7Z3JBvpBnjP3StTYljo35JC33XLuYbQvrqlsEd+rnfZCluiRHDcKmxGcRx92MfWScmr3FDRRUdO2GBuVrfmT1KnR0sVHA2GJoDB+JV+YDZeHkz7Vv0drKLnWSdIqHv1XC2RrGbD3qhz0Pes00rIo3ySvDYxubrz5ZW3w9GM0lLK1rHSPeGxt1c4rxmPY66qcYYSWwjYcz5lQxzG3VTzEzuxDZv8z5rgOdc+Je34/wAf/wBZOfJn/IHPLihrS42GpUWjM+wFyei1tDYBYav5novfI4WpNApm6ayn8FXub8yg6m5SA1WmQEr95SHP0VIfcKD1vZOtqIMKkETmNaJja7b6kLpuqXEAPqDlyhpDABo3Vv4rB2UaZMDaBDC4umdGHP3uefwstbhFw3Sf1eIcIyWB2DDYfMoq4zUrrF5qeIQ3Vrz4j43fLRU4jLSmNjKZ8kT3ElpkOzR0/FSLKdsro/bogRIxh1HMXJWascxohfBLHM4l3i91t/5hFjPxo7uea6QhrhPZrT4CLAfNQJpWODXS1Ly1/BNhzerWSTgNGWlYLlhNh4fdUQ6skOX2yna7hlmlvrf/AIUrRRtpH5YxTTPDw6mJJ2DeatYwSta79HOBmZd+bqzwhVvkEhkcMTAZI0OZlHhyeJN7qdzXSGunIJFYLA/V7ZVBflqXXLaONpfHxLuP60bBDvbLvAFOzNFdu31vOyzvdRQF8pkqJDTvFSfPNoAoSex0rZSyCoe+iJkaSdCX/wCl1SuJSSup5o6gG7muubc+qnjlO2CtbURD6KoGYeqqhF2t105roRM/SOGzUZ+ui78SlYjikKKmAQLP0cNCOigdCqUFRLrJqDlULPfZBKrOjlIG6Du9m8TFG90Moc+N+rQ3qu+zFoHzsi4UrHPdYZhZeHgldBK2Rps5huCvUmqGI4xQzbkNF7cjYoO7fWyaVu8ShUNCSaARyQhALnY9/ZKcdZv5Lorl4+7uUber3H8EGKj0r4/Q/kt8mjfiuWxxD2vbo4FXurpnbsj08kHRGyFzfbqjkI/kl7bUn9YB6NQdI7Lz3ah1qun8o1tNXUn9c75Kl7WyvD5QHuHN2qo5mD1UcVXJG/SOduRx6La3AxHUiR87DAw5m23KuyM5Mb8lIacyoMdPIZ8VmqW34YaWtNlVhMb2yzvc1wDtiRZdG6EDS5oRzRCScC5jgNyLC6kkiuX+ipx+sj+auiw6Ro1kZ8FuQgyewu5yj5J+wtvrMfktSFYjN7DH/iPT9igG5efir0Iin2ODo/5rRTE0nEEOnEblN1FJFV+zQFxc6FhcdyQpcGFu0EfyUkKKQY0bMYPQJ6Dk35IulfVESvboi/VRQgfNRepC5UHhUZZlmI1WqZZjuio3QTcWRr0QN1Btllnr2RQxUznGNvLW6wua9rixzS1w3BWimbVuefZIZ5C3cxtLrfJWPw/EpHlz6CrJP/RP+iDKzSxKi/V7jyWo4dXD/kKz/tFL2Cs//H1n/aKDInotXsFX/wDj6z/slZnt4bi2Rkkbhyc0goESEKBcz73yQgvoPA8+ahObznT4q6iH9XcepWeTWR3mUE8ri5o0sdFpomyNrbMYHODToTZZ2SWA+0NlYyQOlBc7vX181YI4i+Qtia8MbfWwN0Qj6P4KmrIM5aNgtLRljHolFEEec5RuTYKeMUgosQdAPdaL+tlVTyujmzab3VdTK6apfJISXE6lBWN1tgWNu4W6IWCgvt3FlkuGuNlqOjFQdQbgqDGT3V0j3WMHRq57m98DqV0JdXAeQQT/AOTmJ+yqcOPde4jNlbbVXTdzDpPMWVFJ3KWR3VBnda+25TBLdj+KGtuAVIR2tz1VBxXj3teVxdSimdJKyN0cbsxto2xVb2kKVB3q6LyKosr4hFMRG3uhZwD0K31Yzzv9VnLbDZQZi481fJA+NrHXb3xcBZ3C7viujWmz428msCDHZ/2QfigtefcPzVmisy3YSCNPNBmsebH/ACS25P8AktQPcGqWZBmzDndWMbnJF+V1YbG5U4WC1wFBKGPa4VftNTxCyIM0NtQtkDC51uZWaKnY/F46eTvNcbGxsppVgZWOFyKe6gysmifaUOjtzY4ra/CqTOQ3jNseUirfhcPKWX4lTTW1sOMvb4amX0eLrfDjrh4nRvHpYrzdXRyUtn3zRn3hyWe56q6TtXvoO0FMR3hb0KpxmrjraSLg3eWuudNl4m7gPEpxyPb73yV0b29I2ukjAD4rgDosEs755nSvGp2HRUNrZHwticLNGp6lSdUNbGdO8VUQAE2IxNPhBuvRSVUVLRSSN5NN/VcXBWCTEGZ+hJWrtDkio442izpH626BER7MMa3jzSaPd1XoA6IjxBczCaGIYbGZB3n69Fr9gh6kINNo/ttTDI7+ILL7Cz3ZHKMlM6ONzxKe6LoPOdoZzLWvbe4BsFyFoq3mSZzidys4QWt0jf6WKpkDbCw5KzNZhHVVPI2VQmNGbn81c0vaW5JJRfo+yqbob+SudtFb7KsEjVVMZsKqcH/xCtEWI1zfDWS/MFYSb3J3VsXJEb4sXxIyWNVmA+1G1I9oKoggxxnzyrJCdXno0rITpZRY6DsWkmika6GMXG40KnFID7O6xAZqdVywuhE3LFGeouit5xijDjmjmbrqQAQptxPD37SvHqwrgnUW6lOJoL9RsoO3JJBNNHw5mOs4EAHXdceodmq5XdXlRaQyrDuQSduT1N0RN0eWmgk+2XfgVEaOHkbrVUi2H4e3q1zvmVmtzRTkOaQnqVFNCDThAzYvTn7N3fgqXHNI93VxK0YObYg532YnFZWm7UEl2uyLb46HfZhcVxV3eyLw3FJTmYCY7NDzvqg9RXuyYdUv6RnY2/FcuKIGjw1jsxJIuS6526hdLGIpjg9Q3I67gAMrc34KdNTvFJG0ANOQDM4aIscc0j6zHqpwB4bG75+dhyWPH4ZoKSImYGIE2ZlGh9Vso47V1eeJDnBIuxne35lcTHMQfUh0DT9HEbeZKCzB7w4XXVBAyvyjM1ouG32LuQ8hqq8cZVwyCR8QiiqBmiyaNLfJu4+KkySF9CxgDbOkYMxIbaw+1sPldW49h0lNGZC0yNLwGvY1zha22Y7/AAQcajpZaqXKwhrW+J5OgXZp8Np4rHJxD9pyxYTMYXFhaDqbtI5rqvlu3kPILcZqMga0WDWj0WCdov3mi3or3yanXRZHPL75RYfaO6VIyTQs9wEFZnRlq2yEW6lUA3csqzIV00WTvN2VKihSazMkArY7A6hAcKSMtc5tgDe41XYl7S4vMO7iL2N5NYALKujqo2jKbX810HNZNQVMNNBT8aUA58gLhbkCg5MmK4lJ48SrfhM6yvoZMSrZ2wUtdXvmPITuWCkp5aqqjpYr8aR+QeRX1fCcJpsKpGRQxM4jW2dLlGZ3W5QeTpcJ7V8VuWsrIxfeSfMB8CvZSh0dC2KSQyPADXPt4j8FcwnXMSbFU1LbQgHXNI0figvN8+Ucm3UHGwbe1z5KbzZ1judFBzbgHoglyC4mKuvib/JgC7ltl5/ENcSn8iB+CDhYx3q5h6RgLIF2InUT8clixFzRTNjFsxt3tOYXRGF9mpvq5ogfu1Jv+a74cnWOWWO3l9eST2CRuWWMOHQr1n9FcOkF4qqptyyyAj8lB3ZFv6uveP2mArp92P8AWOleSZSujdanqJIR9lwzN+Sz4d7Z7M5sRpy0PI+kDr3+C9c/spVtIMdZE8feYR/quTheB1sprWRGJ3BqXMcM5Go6aJeTGtSWPKVec1UpkaM2ck22uo0oL6uINJY4vFiOSsrGubVTMkAa9shB15qeFxPlxGnZHG57rk2aLk6Lh/XT+OuyliEmZ2eZ4O8hvqvQ9lruxQk7CI6fELjyMdCSZY5Y/JzCF2OyJD8Qmc07MXoz10cZvbFibv8AitYekpXOrNaGoHVi01UnErakhrjmlce60k7quamqH0U59mntwybmMgDRXHXVPPZ6Kjdk7OUz+lMD+C+Z1BzSvPV5K+iMmt2Rgdy9laF84eb/ADK8eXt6EUJ2SWVLZehw6NsmERwyC7XZl552i9Jh4th8A73hvog5j2SUcphlFy3wn7QXs8Brhh0DIY6YyVEgzSSSPDWt8uZXn5YTJXRSu1bEzZ2uq9Bg2GTVkgkeCIwb3PNZyx21K7stZXQQiZ9JTuYde5Ob/wD7iqix2lkdadktOerxdvzH81y8c7XQUMnsdHTsq3R6SPLrNB6A81jo+02GVRyVUbqR566sPxXG8GN9NTJ7Br2vjD2OD2HYtNwqnu1XnJ6v9Gnj0MjQx2pjvdj/APRUvxKKsro672+OGFg1iL7PHUW5ry58GXp1xyjuz1DIo3SSuysHPr5BeKx7HH1chjjOVjdmg6D/AHUMcxyWtmIYcrB4QNgP9VwnG5W+D4+vOSZ5/wAhucXG5TY1z3BrAST0TiidI6zRcrYGtp2ZY7Zz4ndF7pNOCIa2nblabyHc9FFRvqmFUNHNF0IiLtGu9Fnaral1gGjfmqQUV7DAIRPgkTWULpXPLo2vLwAX3vffSw5rW2MCQTswOENztqQ1zm+AjI0bHUnWyy4NwW4NB9LVtIF2CNpsCT3zoNbNUwKPPZzMRkYCQRd/1f6lvpfUeao1xU9aC2mbh9HG6zqQOLydSMxdbLtYfNY8XEj6mKeoYwCoisGR6hrdt/grGQQPOtFXOlLQ3M9x+sabynU720us+IxZa1zmtdTwysDoYzuG+nJGopzBzSRSucXNB8XNuyCZGF8kVBd7CJhc7vdofwTBY0l3tLgBaS1vd2UQII5Ax1RM4xvym3V+3yWWtLw2WIZYaOFrWSBrSde4fErGNqTlBjpmMDzG64GkXILNHFSHJEZJ3A3pb2tqNSU2No6loyxVFqlljY7CNQaY3VgdEZp6ZgF2zEEfuD8lXNLPHSF9RWxODI3xygW1fy5KIbTvjc80cpMsftGp2LdgoVkUclFU5qEx54xUlxJ0eeSpXGZoweitpag0tbHODoDZ3oq2+Aeii4ZgQdijm147TiKsbOwfRTi4PmuRKO5sc3Jd+nH6SwOSkJvPTas9FxCbt6EaFZjVUNBtqkVYVBwWmVbr2sNr3SabG6mW3Tay2+qoAOZXa7OPH6UiY7mDb5LjhX00zqeojmYbOY66D33VCcAFRBHUMkia2RtxmkAU+D1qKcf+aEFaanwm/wCbph++T/JBjjG9bT/M/wCiCCSnaDnXQ/J3+iWWn/z8Xwa7/RBFcnHfr6MfdefyXZtSjeuHwid/osVfQ0dbld+kJInx6AthJHyVNOHYhC6P6Gg54zMfSlt/NP8AQtLzxWrPpA0fzRdOahdQYLQe9iFefRjAn+hMMt3q3Ez6ZB/JDTkoXV/QeDneoxR377P9FL9C4P8A/wAxd6zAfyRNOQhdf9DYN/g1zvWoT/ROCg/2Kpd61JQ04929Us7eq7f6LwMb4XIfWqf/AKo/RuBf/h/nUv8A9UNOJnb9ofNRMrB7wXd/R+CDbBo/jK8/zU20WEjw4LTfEkoaef48X+IFH2mEbyBembTYZywei/hurxTYflH/AAjD/wDsAoaeQNbTD9Y35pe303+K1ezbFRt2wnD/AP8A12pPfTs8GHULf/ICGnjPb6f7YUTiNP8AaXtWVP2aSlb6QhaGVTh+rhHpGENPAfpKn6n5Je3w30a8+jF9C9umHhLG+jAmMQqf8UfwBDT58KwHQQSn0jKkJZneGiqHekRX0D9IVXKT/wBIUfbqo/rXfIIaeD/rx8OG1fl9Cf8ARPg4mdsJrj/5Dv8ARe6NZUHed6gaqc/r5Pmi6eKFJjB2wet+MTh/JT/R+Nu/+01PxavXvqajKfp5PmubLVTPeQZpLftFE04YwnH3eHC5h62H81IYH2iOgw13xkaP5rqOfIf1sn8RUe99t3zQ0539H+0n+SDfWZn+qP6O9o+ccTfWZi6GX1+am0CyLI5v9Gcbd9Z7L8Z2/wAk/wCi2J830I9Zx/oulYKOUKLpz/6KYid6vDm+s/8Aspf0SrPexLDR/wCYT/JbsoCbbIjXS4fPSYVS0lPidJG6OR75nNeRnvtyV7Yam1jjUI/eJXOyt6K6NwAtZB3MPrGUcJZNXRTEuvfXZav0xTf40f4rzot0UgR0Qd84vB/iM+RUf0nA7U5XfuFcME9AphxHJFaavtDFBMY20OcDnayFwMWP9fd+y1CGnnKfu0g81m8R1BB81rhaOFE0mwO6jNTGKXu3cw8zyVZZsqbYZJH2jFx16KxwtvooAnUF5DTpogrmGWoIzZtBqtsmlKT91YJYuC4BpuDzXSjHFoD+yqOYzvHzUHeIqURt6gKB3UDZ4guhFq1YGeILfBq0ILyLtCqLcwIG60MsXDNoFoAhyk2aPNQcUd6Zo81tk8ZWOLvVTbbZiVrJu9BKuOWga37Tgq4+7RPU8RLXRQtG4Kibeyho3J2CJWdp7gRcqQHes6ORturSpSMLHAW0Ot0VS91wbq7CR/W7/ZBKpkbYA23WjCxZ8rujSqLnHM5xPVBnLWFuW+ijezVXL4Dv8EGVgzStHVy69RIxs5Dm3sANlzKRuaqhb5rXUm9RIfNBZxIObAP3QsrqkMm4ZhjLSbX2WiOkqJWZ42Zm/tBZJGHii+jr6hBtMcBGh+RS4MR0ufmqCXDUpZzdQJ0jWuMbHOab+8NFoEZZu4HyCxOGabP5rW0ki5QaaY5X5llgP/HoT1f/ACWmNv0RN7LHTPY3E4JXGzGyd4oO0/NxHeqib81IuEz3uiIezNoQUskx/VOWWkHNDo3td4SCuCxgN/VegfDOY3BkTi4g2C4j6Wopy1tTA6PNqLgWK1EqPAdKDkbqBdQgYXkaaBaYnFjiRzFlLuxt6FVE4Y2PcQQbDmOSokuJQ2+l/RWmoJh4Q082lRmjdlEvRB0OzTc1XVOd4mgWVeOPNTi4ibqIwG/EpYJOyHEWnYTDKR5qER42OyuOxnQeribkjYzk1oCkkdygIJArJjE3Bwud4Ops0LVfRcftPJlooI/tvJUHlHm5ukEzuUgqUnFQf4lbl0uqnDvbKobOfopM1+Ci3wlTiBuUQtRurGm2X0UHBSy7eioth0jmd91ZCtzI8uHOkvq42ssTtAgQW8u+gjA5MWFoWt5s0W+yoMw5eSnELPuoKce6Kg898qJ2KHeIlD/q1B0cQGWOhZ9mAFZFtxc2r2M+xCwfgsRRSQmeSSDVhndlqnHlCfxWZgswLVSf2Kuk6Na1ZQbAeiCSreAdxdSS3UEW93wl49HEK1tVUMPcqKhvpKVXZFlRc2tqmXLaqYX3u691Q5xJFySb315p2RYIL2V1RHBFEwxhsTswtGA4nzcNStsuPyzU0MM1JDKI5DJd73OuT6lcuyVkVsqsUmq641ckMTHkAZYm5Qn+lXe9Afg5YkrFVmtoxCN3ijkHwUZKqGQDvPFvdyrIQVGxQaTKw89FXmaDe6q1Rqg0F4y2uCCFlOhsnqkUIYKk1ygi6ircy0U1TJTvEkZ1WO5TDiNkHuexzKauxyStsGysi8HUndy9uV8hwbF34TXsq44hJluCzNa49V6gf/ULMRnwggfdqQfwyoPaqip1bCOZlC81H2/w+30tBWN/ZDXfzCsHbjCJXRlzKyJrXXu6IH8iUHpWg5ru5KTr20XDHbDAZDpiBZ+1C/8A0V7Mfwib6vF6cersv5qwdNzrPaCvPVJz1tQf+outBXYe91xiNLI7ymb/AKrkkB9VJkkjcHPJNngpR5yscJMUq/KSyjZvNoSla72+rI1LpHHT1RldzBXp49acc97PLFuW/JbKd74mh0U00d/svKxeqtqG8SOBuawA1VzxiYWulHV1TCHe3VnxkuPkQqMIxWop63EgJTYzcQ3trceixN7gABOiMMrxSYniGaGOYPjB1AuNORIXG46dZXnah7pZHSPsS95cfPVb+zc8lNjMMkFg/K61xfkuY517a8yteEUdVW1LmUcRlkbGXEBwGnxKxVe2di+LHX2kN9Im/wA1VJieJO8dc5o8srfyC8xJh9S2pFPJRVPtF7BpaTf47LqQdli1odWN7x/Vt5epUJGp2I1B8WLPH/8AkAKmoqJJKWVr8Q4gLCAHT5r6eqVRhtPRRZixsQ6kWWGCKStqODQwcRxvdztGtHUnoqadX2iNvYuFvFZxOEG5C4X36LyEVDVTxl7IHZB77u635ldqqp2xjO17Cwd0zWsHnowbkeaytpnznNkc4D3pDf5BRWA0Ejd54Aeme/5JCikt/aKb0MlvzXWFC/8AxCPJrUGi+1KfiFByDh9S4d0RO/ZmYfyK71NBO2khYIHXa0DTVZH0LeTo3no6OyyyQCM9+nt5tUHtMFwCSa09YCyMa5SsnaXtM3K/DcHOWMd2Wobz8mn+a81FXyQtMcdZURMcLGPiEtI6EHRGWCfQgRffj2+Lf9EGUkNbkaqpOa0zU00DQ6VrcjvC8OFneiocEVGKpkjbkzHJ06KTnttfRUuFkDVNGzJurIYjKbBShp3y7CzeZKlPNZnBh0Z7zuZRDkqBC3hwAE+8/wDkqfaT7wVeWwQxrC7vvLR1tdFWe0Dojjp8KjH/ADMp9If91bGyguNKl3q0AfgUFQnubWvfkpvdJH4mFjiLgFdOJkMbbxtDb9AsOJHNVMO/cRGM3OrigbFNwsl7pVHuMJkLcHpGfpKGFgbw7WF25/Ebk8kzWtLM7scZctc+zWt1LDaMW897c1Ogp6qXC6aCOmpW5ojTBz33uXDMXaDorBLXH+sCnoQDkq8uc7AZA3byvdBXHPCZC39NukIcALBtiH6yHb/4WKtfLJWvyOEsbCGxOfoSza668MFdm4LvYgQXUuZt/fGYm34WXJrqj22vle+PUHg2Zta1rj5KVYTBILNIhtctde3h5JtFXltxKYOc0g7XMvu/gq8sThpTSHM06X3yHQJl0bGumjw2Vxs2py5jq46W+Cje12aqcx3CradrnMHDIt4h4yrHyTOzvZiEYaXNlZbX6MWzKpsTIHWZhpcIJMrNTs/xH4XUmR2e1n6OIa1xprkn6u17qCwSujcXuxQBrJeM4DlERssWJsf7DIz9IOe+B2aRuvea46ArY1peYg/DrNmzRPvya3ZYMTknGHNe6hbCaggSvG4ynuhVK5LdkFMaBIqsL6Cq9iropSe485XjyTxqlFLXEtH0c3eaViqG5m5V2xG7FOzcb3C8sJIaetlzvi7b/jzxCiQrSLhVlbjJWQhCqBA3QhB6Hs7WcSJ1JINW95t+i67hZeNpKh1LUxzsOo5dQu0e0tKCc0EgKK7Tcqldq4X9JqT/AAZUf0npP8CVFd27UwG3XB/pPS8oJfwQO1FNf+zy/MIrvlrVGzVwz2ogtpTy/MKP9KIf8tL8woO9ZqO6uD/SiD/KyfxBL+lEH+Vk+YQd/uo7q4H9KIf8rKf3gj+k8P8AlJf4gqbd/uo7q4H9J4f8pL/EEf0oh/ycv8SI792p3C89/SiH/Jy/xI/pTD/k5P4x/og9DcIu1ee/pTH/AJN/8Y/0S/pTH/k3/wAY/wBEHortRcLzv9KY/wDJv/7n+yP6Ux/5N/8A3EHpGEEq+/dXlP6VAeCjcPV6X9LJB/yv/rRHrwbNCzyuu8rzP9LZf8r/AOtRd2rk/wAo3+JB6mJW3Xj/AOlc/u0zR+8Uf0rqf8BnzQewTuvHf0qq/wDCYg9qqv7Dfmg9ldF14v8ApVV/YHzS/pPWfZ/FFezJUbrxp7TVh938VE9o6zof4kHsJ3WidY6lc6+VeePaGqcNWX/eUP07N/gj+JB6POgOXnP07MP1DfmUf0gn/wAGP5lEelBT0Xmf6Q1P+DH+Kf8ASGq/wY/xRXpbhF15n+kNT/gx/ij+kNX/AIMPyP8AqobelJSvZeb/AKQ1f+HCPh/uo/0grfsw/wAKqPT50w9eX/T9b0i/hR+n63pF/Cg9dHICQLq4Lxf6frv+n/Cj9P4h9pvyQe2BspZl4f8AT+Ifbb8k/wBO4if1o+Sg72LEPrCfugIXnjX1bzmcGuJ55UKNroxlDARsrSXZdWOy8j1SAbYF7mtB5nZWRQ960b2SsdyjksfktubNe5sdL8iqpYmkaaLoSQTRuDZo3sA8Di0HN5EhUOjBO1j02sg5cjyW5Du3b0XRwp+dronKqemzjofJUUshp6gZtOSAmAp5Zo8gIPXksq6eKxjSYcxYrloJx7roQeFqwxC5XQg0aAglK7K5VOlc5rm+StlsTqs78+UhrCR1CghRj6f0BWkeMKikvxHkgjTmtEeso9UEK5pE8YPS6kSYmxvG4N0VverWjo0JVvda0eSC1+M1j2uALBc7gaqh9dUSm0j819+6szDdWAhBXK9ziAdgtdB3YJXddFjltfRdCib/AFB56uVE6eZ8Mwe0NsdC12t1HEuE6MyRjhvJ8LdikFTVG7B6oIUH9sYfsi61P1cXdTdVYY29Q89GFXN8OuyCOltVSADIArTzVbdZT6ILmFjZGF2rQbn0WyarpnOFocw6Wyrnk6oOyCvSSYlrMoLict9loGyzs8a0W7qC2c5aP1XPBY0arfOPoWB2265T3XJCiuhHXBjQGSZQOhUxiDj+uXJRumjbstr5P8UKiqqnVD2hzrgbLnWUmHvBEawt9NLGxpdLG17SNQ4LCgSN8DngeRVHRdFQTi8cZY7yNlHI0NLLB3xWJgIOh+S0NktugnhcNMcS4dVDmkGsTsxACqoG5cWeHbiU3+aUhdxGSxkh7DcJR1BOLvl8Od1z5FB64u1KWcefyRE6OQA6XKsyt8kEBI3rZef7VSgy0rB7rSV6MMF/9143GuMcQk9o1eLAW5BQc07o5K6CiqqlzvZ6eWYN3yNvZXENjDYp2Oic3k7RUdKmwSklp45JJahrnC7srx/ooy9n6T9XVzt/aaD/AKK+DFaJsYa97gRpoLq32ynk8EnzCDA3s4DtiA/ei/3TPZypb9XV07vUELqRTwf4rPiVe17Hi4ew+hQcIdncQOz6V/8A5lv5J/0bxU7QwO/89o/NeiYrm7IPNTYDirKTJ7ED+xK135FcuXC8Sj+soaj+An8V7okhqzyyO6n5oPDcCZhHEglZ+00hTc4NuHaL0WNSl0ULHE8yufgJ/rsp6M/mg5ByiPPm52spMc0jQr2MhbI36SGJ/wC0wf6LM6jpH/8AJU/wZZB5M7qTW53Mb9pwC61ZS0gppnxwta5g0ssOHNY+vpWvLg0ytvbfdEaMaH/GZx0Ab8gsa2Yw5j8arDFcs4hsXbrEimlshdTs3EJMdpg9uYNzOII8kGeHTBapw9+UBY+S9X2wdeOFrQBc62Fl5RAIQrIwDu0H1QVJrfR01JUSllQeC37YJNvgnVUuGQvLYqmaVtvEBY/ig510XWiaGCOKN0ckjs3J1lGnhZOxzuM2Mg2AcCb/ACUFN0lodSvYLkadeSqLLIIIU2MdI7JHYu6bKZpKnYxD+IKii6FcaWoH6o/BwP8ANQdDK3eKT+FBWkpZXfZcPUJWRCStqnZCBWCLJ2QilZPKOqEIHlPIo7w5o+CevRAszuqed3mjXoi6B8Q+aMwO7Qfgo3SQSOT7A+SiQz7KLpIiTXlvge5voVa2qqW+GplH75VCLqy2GmoYhWt2qXfEAqwYvXD32P8AVgWG6Lq9qajoDGKn3ooT8CFV+kX8aWXhi8jMlgdvNZLpXTtSQXuteHySx1DHU0kkc7u6zhmxN1kC6uCRZTJUvGo0aounvMCqX0cDYp6mSqlOr3yPuG+Q8llx3tHwWh+HyRNexxzB4uJG9QvO1Vc6KPJ4Wnex3XDfKZ5s7jc7DoAg6kArMexNjHkyvedAT3WjqutiVXT0cRw2hN4mm08g0Mzvs+iy4eRhmDS1gGWaY8OI+XNYaUB0gHT8UHYwvC5KyU1E4zEDujkwdAuyaEtZbJt5LLQ4h7NCGt25razHD934hQYX0mps25WKqp+C3M5uUea6cvaKR8uWEMYG7uA3Xn8UrpauUmR2nIIMktV3zlsk2tlbtl+SzO8RS5oNft7t5YWOHmNEjUUr/FRsaftM3UWVDvYX0hjhcx7g7M5l3tPkVVax0QbqSSn4DqSqGalkP70TvtBcqspn0lU6Fz2yAate3Zw6rSFY5sFXHwZPopB4Hja/QoOSW5tOaupo2RN4k3ePut6puiMbyyRtnN/FQO+qglNUyyixOVnJoVCmdlFAkuaaNyEAFJrsrg7pqopZkHew7FKEN4eIwSyHiAgtdYAcx8Vn7QNgZiDGQxujLIgHguzXcdd79Fyg5PMCgHqPulN/JLlpzQe6pm0fsMDW0bieC1l+IG94auO+mnNNrcOEgecMbww8vy52+AizRa/XW3LdUmkw9sDR7TOO6wXDL/t8uQVPs2Gj/maq15D9Vqf8MeHmFRujZRCPIaBokyCO5kbq8G7jf05rn1k8VRXSvp38BkhyRsDbWI8vgtEVNhpOWOrqXE5ALstc37/LkPks0zclVKKPhyRMf9G51rnWxKVYfGjLi8Vrsuk2n2RoUNmZHKHOxB9o5CXix2f4VONkpIHBpuGHlh20jt/qhjax7W8SmpeI5jsw08QPcCy0g1zO6x2IymwdTE2PjOxUhw5GiIYhNmmj4LHWPiZuVPLWmMuFNT8QxCTUDWXn+Cm41jeLw6anOQtfDYDc+NRVLnQVDXZcQmb7U0FndPdyb/ksmLTwmm+iqJJTVvbK1rh4QBZdINq483BpafLHI0RWA8BtmsudjYlbA1ksMUYZMWw5LeCysZrm8lFS5KK0yhLv8F6zAGAdmISeb3H8V5GXdeywpmTs1St6i/43WLNtx5jFqX2Ssc0eB/eaue7Repx2l9oo+IB9JHqPTmvMOAspEqtCaS2gQhCIFGRtxmUkDXQoKgEWTsRvuhFGVGUJjZNAsqWUKSaKhlSy2U0WQRsllU7IKCGVBGikkiIp7IIR5IEiyafwQDWXNgMxPIJvjLNHMLfUWXo8HhyYBJU0oZ7W5xFydd9ArsdEU9ADUM/rLGg5m/kUHlMo6osmhAsqLBNK6ILIsi6LoHZFr6Dc9BdaKCkfXVTaeN4aSL3K6DPZ6EkU+H1MkwBAlOYXPoEVTPhjG4RHUsbLHUMF5GO2I6+S5oc0i69BDWiqvBLEY5HjKQ4b/NRq2UMrHNlpmxvY3SSEZb+o5qLHJioqmSPix00rozch2XT/AN6KMNLU1TSaenkla02Ja3YruQXGF0cYJAcDrzsSrYKWOhpXwRveWyG+YixU2unAjw+skDhHSTOynK7Kwmx6KqOlmmLmxwTPc02Ia29vVekwIf1aY5jrKea49Jb2wyEnWbWx802aYXQyiURcCUSfZLTf5IfSVI3ppG+rSupVzE1tS5hs5zgCRvaypa2V5Fn3PRx3VRzuFIf1bzb7qQY4kgMfccrLp0+ZrXAjXMbgFPjOY18cJycQ5nPtqbImnM4b+cb/AOFR3NrE+QXYoXGpEzBI9szBduu60UPEoop6qQd+U7oacDL5OHqErea1VtbNWyfSSuLG+EclmtZUKySaCiEkndJAwrG+agPJb8LoX11RYD6NpBeeXopVkVNY54swE5d0L1dMaahYY20cTtdSCULDennppBFDHm19FD2mkd4o33SqRnaxvRU8F1l1c2gV7I/qpJR5XTOMy7FnE/aAVLKJ5FyCptpGB2pQWNxSJ31lMQfulEgpqht28RjuRIsqZGmIHKALc7rK9znHVyDVVz8SnEdxpzWDmrXNtBm6lVtFyg00bMzneS2xtsQjBYKeVkpqKv2cja7bgpxn6RwvmaCQDa1wgrmfK3SMMI8wilkLXHi930UnjXY+tlEho9VBYSzvFnNFOLzBROjbKyk+tQUzd6vd5EBFda4B2ARH36uQ/eU57Gax1QYBJE3YlPitds1x+C2iw2AHwUg4oOc5dKAlmGNIaSS7Yc1zqg3lf6rrNGWhgHUKjA6pDMxLDe2gPVSqBZkeli4XWrI0kFw1WauP0jB5ILsLHdqHdG2UwO4FHDjko53dSAmNkEX+ElVM+sd5BWSGw3VbNiepQSskdimonZAmeM+i08gs8OrnLQOSgdWbRgfdXLIu5dOu0aD1Cz0dO2aQmS5aOmiDGWpZdV18QwmnpQ0xzyOflu5p91ZI6MSg/wBZYwgaBzd0GW2iBor5KZ8W5Dh1A0UXwSMi4pAyXtcdUFzbEBZ6tnfaeRCsjaC0b3Ui4MIa8XYVRnifJHbKSB0XQhlppbNdI6J/Vw0WbhtOsbhbzK0xYRVTMD2iMNdsS5Be91NC4B9TGfMG6pmijcc8EsbnjXQ6/JaIuzhdYzzgD7LAutSYXRUescAc77TtSgjhrPaKRr3Ag+YIWr2Nv23D0Kva4nfQdApKDFUxTU9NJLDUFrmNuC4XC8vI6eaR88zo5HvNzcL12JMmlw6eKAXle2wF7XXmpsPraeHPUU5jY3d1xZBRTYjPRNc2CGNubfU6qpzZK6UyzSMYeeY7qDyCd0muCo6DqSjkYLiJrurH6rO7DRf6OU29VR3U7hEamYRKfDVgeqZw+vj8MsbvisgI6n5ph7vtv+aDU1+LQnuMBHk5WjFcVj8dO8+hWPjTDwyv+akKuqH65yDZ+n6tvjpZPkujh1V+kInvkcYS02tlvdcQ1k9tXg+oWd15Dckj9k2QdDFZnPmDQ15jYLZsllDACHVj4w5reIPE69hb0Cw5Or5C3pmTY0xuvHLJH+yUV6OWphifwnyx5vJ2n4ptlZa7XNdfoQVwW+yFxdVMlnJ+9qpcPCXbRVUfob/zQaKylnfBLwo3OLuSzYZA6HEqaScBjGSBzr7pxw4Tm1q61v7qrlpY+ITT4gxzOXFuHfkgjUxSy1crmRufneSMovzSlpKmnjD6ikniYdnuYQCrYI6oWayvpW+ZkI/ktRfWwt79RS1DejZ7oOSSNwV2+yTc2N3+zC4/kqI6eixImJtqWrPhN+68rodlKeWHFKtkzC2SOIAg+qA7XPvNAF5sr0nbCanfVQRRQZJGgl7sxN15soBWxA8hdUroU7A1gJHJBBhibI19RAZox4ow/IT8U5augJlFPQvhaW2a17+JY+q6PZ+SCPFm1NTpFGCG924uqsaqBV1MsobZoAa0kWug50zmy0cAa3LITY9FlvJCSwi1jy1AW1keeZrW7RxF6hhvFr6+OF5zAgki3JBS2d5HdfdGd/NqvqqANrZIWAtLXBtxsLpVFFV0RtI5pYeYKCLn5YBIPE11iFETcXW+vRQc1zGua8aE7KsRi+4afN1kGgTNZuTddGGRz6ONwOrrrk8GR2zg70N11KRhbQRtdu1xViVXLe+u6yTLXN4iscyqKCoqR3QxuZ1lBJrNAnkHRTtYIVEMg3UmRRu3L/3SkVohYOCXuNgSAT0UV6Sk7De1UMNQzFTGJWB4a6G9v/Uk7sBWgHh4jTv/AGmEL2dM2B1FBwyHRiNoa4cwtADYzbYkaDqivnp7B4xbSehd6Pd//as0nY7HGucwU8UmX7Eo/mvpo1sqIj/XKt3TKPwUHzM9k8eb/wDbHfCVh/ms8uAYvH9ZhVV+4zN+S+sau95Fj9pyD49Jh1bE28lBVxtG5fC4ALI42NrEeoX2TEZHMwyZ2Y7c15mvmd+jKkuDTaI2uEHz+46p3C2tkdlF+i6uF01HU0U4qJKRk5eMhncG2FtbXQed1QvUSYFTtc0g0M7Tuaee9vVUjBqWWTJFTvLzo1rXnUoPOosvQQdmqmSd8LqGsjswuHK/lfZUYtgYw2iimfx2SPkLeHIOVt7oOKvTUTIoqKOP3suvqvOwsz1DI+pXQFRlHogrxObiTloOgVFMzPMxn2iAqpHFzy47lXUOtZAOsgH4oO52ikArIKJn1dLGAB946lZqRuhcq8VkzYvWu5iUt+SjTzOjjIB0KDotdZ2riiZ7hC9wvl6rEKk33sq6isfJFw82l0FsU4bqoTyhziQsofokXoJkpZlWXpZ0FwfZPOqMwRnQaM6iXXVWZBcgm52e19xsVS9SDrOCT9yFKIHZRUkiEEUJ2RZBFxsoqZAJ1QGhBXryup2tYlTsoSOBdboqIk3U4zYtI3Dgq1JhIII3Cg9l+mqvhBn0Xgey5b9rdBxuqa/P9Dq5jiMv2RYLzYrJQB3WH1TNZKfcaqPSjGqpwa0mIWEmw1ObUrLT08XduCbA/iuMysk+yFezEZWbMv8AFB2DQ0z4i0l1jE2M2PIG6m6ip3OJcXXMjZNDzC5QxaYfqR81L9NSjeAfNRrbrR0UDJIngyXbI5+rut0Q4fTxNiAdIRE17Rc75uq5gx1w3p//AFKxmO//ALM75obdCLDYGhlnvBbAYbl19DzXLxykZTCiyuLiGGO55gc1eMeb/lnLn4hXOxCZjywMZGLAIWs/JJMeFLkqyqmOh9F7ek7mCUTfuN/JeHm2d6L3jW5cPpW8gwfkpWkbBwsdivG4jSmkrJIfdvdvovZLk9oaTi0zZ2jvxb+YWb7V5cqKscFAhVgghCFQJhJCAeL6qIC0QwPnysjc3O54Y1p5krpu7IY+1xtSh3mHtQcWydl1ndlsfadcPcfRzVWezuOt/wDts3wAKK5tk7La7BMYbvhlT8GFQdhmKNHew2q/7LkGWyLK40dc3xUNSP8Ayiq3RVLfFSTD1YU0bRSsgue0d6Jw9WlQ4w6FBJCjxmdEcZnRA7IslxWf+yjiM/8AZQOyOaXEZ1QJGX3QbcPxCbD3HJ32O3YSitxCSrBYGGNhNzd17rJnajO1EK2iLJ5mpXHUIpJW5KV29UC3VERsmjnohBKN7opWyRuLXtNwRyW79OYlmaXTmQDkVz0XRXXgrY66uifIOHIwFxJOjvJZa+tEs2SHYHU9ViuhFdl2J0n6MhjBfxo48pBbzUaPEqYYbwqmRwmD7+EnRclBAWdG3ZwjFKWCCSOdzo3F5LTluLeajPNhzJRJHM0tFzkY03J+K4xUdE0OlFW00jXGeBuYuve5BspPqaVrbxgN/eJXMsllQdSmnhfqZGx3JuHGyrEsb5H5XtuHczuuflTDQER0qdrY8Up3BzAHmxOby5ro10JqHRU3HjibI6znk3AHwXnMrUw1vK6KsqIRBUSQtlbKGEjOzQGyqIU/n80lRAhKykUEKohZFlKxSsiALr9np3w4g2IO7koOYei5K6OCG2MU48z+SlWPYaXOg+SE28/VC4vQ8vNUQzxwtbA2BzAQXN97zKi1kXvT2/dWZsjA3K7N6hHEZ7pJHmF3rzNoDAMrap1j1aEClD/+bb/AFi4gupZwg2fooyaCsh16tt/NMdn5z4Z6V3qsYcxS+jH/AMoKsUoaigdGyV8RDhcZFgV9Y4OkaAToFnt5pB0aJv8AVXHzV7NLlUUulOGq5ps0koOjTQvdTtcHgX11CZDxuWn1CwtqJWtDWvIaNgn7VN9soFVePUAHyUaXulzuihK8uN3G5TBtTuKCqn0c53VxVsT6NtQ91Y94Fu7l2v5qqEdxbaOGF8TnSRh93HfVAs2GO2qAPUp5KIju1TD+8ufJTUDpCBU8I32LFMYSxrS8zdy1w4DQoMcoBeba6rvMpnSU0QbybouHGMzgGtJsVpnhq5HNfkfkAsMjrIOn7BNbUBcyvY5lWWO5BVcSZvd4szT0zlRcS5xc9xLupN0HRoYnOw4hovdymYZmj6h6yCqqKeBjae9udggYnWt3ObyIQWTMc095pb6qqIEsvkda+9lCSqqJ33lcbdANFohqJY2WZYjoVRARudzYPVRcCHWNh6LT7bJzjjKz1FQ5zgS1thyCCMRGvmVpbuAqoJ2kcPI3XmRqFewd8KCFebRD1CQbw8IllHiLrKrEXm5HIFXR/TYRKwakWcAorW9uaOMu72ZovdUtY0HY2HJXsOamhP3Qqn6IM9U7O9reTQo1Ivh8TPtSJSO75Weacuc1g8LCqjWQJHRgCwjbbRW09NFUS5HtuwauUI5mNp3Ny2cea20DA2AOIu5xudUGkUFGWBppoiB1br81piYyJjWMAaxugA5KtqsCC1pUwVSCrGlBaCptKqDgpAoLbrldqHf8JY2/ilC6QN1wu0lWyZ0VNGfqzd3qg8+5psqw1XybFVsagVj1RY9SrQ0W1Uo4XyeBpt1VFTbqRuArpoo4Wj6S7+YCvo8LrK/6mLKz/ElNggwB0n/sJ5nr0cPZRxH02INB5hkd1d/RWDnXz/wBB5bO9PiEciupVYLVwSvEcRljB0fexI9FzpIXRutJE9p80EOL5IEo6Is3o75JBrRvceoQS4gTzgpZA4d03TDLDUIDiNOlwi7eoUMl3Ekc02sAOyCVm8wCizN7AJZAr6KMGupg4XbxGlwPS4QZRJGHNcH+Er2uFTtllinvrPGGOPmF6dnsEgDfZI7ecYXCr2RUmPxsjiYIhIx2W3d10OiDy/aItdir+8NB1XKIHr6L63PguDzkmaipXO6lguqI+z2DwycempY2SN2LCfyug+Un9krpwwPqpIaaI2dK8MuOQXWqKCnrKmYTR3kaTsSNPgqjhMbWhrIi2xuCJHXug2UVBBJ7VCYjkilyMLZCbLzWJufHPPTZi5rHkDNuV0zg8QLiDK0ne0h1UDgkB8Rn/jQcWQteGubmDiLO13UGF8Tw6F7o3jmx1iF2HYFFfuNqLfthSbgMJ3NQP2nC35IOM1tVPPZsr3SSH3nb/FWzU9ZEclSTbl3rrs0+FQ09Q2XO7u7DP/stVXhUNVAyf2lzWkltmWJB80Hn6N75KlkcgaWjUXC9V2bpKeemqZJ6WGY8Wzc7AbaLjjBcjs0VYTb7Uf8Auu9gUsNFSGCocGSF5cXHw/NStRvfhWHyeKjjYP8Ap938ly8awylo6CnqKZrxxHWcHOzWXfY+KVpMUsb9PdcqsYpxLgUjHDWNoePJSXS14WYLBKujILsv5LnSLq5KDurIxl16ohYZJgBsN1Y+xcQOSgDskdkApFAAXIG69L2ZwumxOsmgq4RLDBEHFhcW94+Y9FxMMpTV4lTwA2zvFzbYL6Jg2BU+Fe0cKofLJORncbCwHRStRop6WCCmipoaWSFjDlaA69gPPdTFTF9JnllZkaM3EaRZWtppGTPlbO4l40a8CzSEo2VJc4VIGhBDgbg/BRUqWpp5mNZFMxxHRFOM0tWf+rb8ENcHytDom7gg5dkUzu5K77UzkRY1m6UYNjmVluihI5kMZfK9rGDcuNggxY1/dco6uA/FeWxdxbgtVYd5zQ0D4rp472mwxlOYY5OK4Ov3dl5atxmqkgzx0ZbBmFnyDS/KyDmtgmc7I2GTM3Q6Kx1BLvI9kX7blqbDX1gz1NS6JpNw1o3WqHCKJtIZZg+WR7rMzOO3M6IOZSmCkqWSSVUb8h8LefxW04jTvDw12rgbapikpW4tGxtOwMEBcWkXBN1KSmpnU87xTxgtjJFm2Qc3PVj6uodboJCskxlLvpi6++q3UVIyphh1eJZJC3MDs0Doo11LLRSNjfIJmPF23GqDnxOy1UbxycFrkjyF3kVjmjyEObt06LpRyXbHO0C+jrHYkIOY7xFXUZtWU55CRp/FX4vVe2VjpuBFDcWysFgVijcWyNcORBQdPFrsxmtB5yl3zVLHXbpsVrx8A1kNUDdtRC038xoVigNxZQTN1U/daCFS9tjcoK8yRckd1ElUBclmUSUtUE7qWZVoBQXByLqAKLqBk30UnG7lAbp5kDQVG/NMOB2N0BZB0TJstOFxMqsRihlbmYbkhEZBYkDXVbKXDamqYXsic2IGxkI0C9fh9NDA8ez0mTQ3kzgD8dVmmcXUVSLZgydwtuTbn/K6lrpjjtiosIggDczG1Eh5PNh8ivNVmU1kxjjEbC85WDXKOi9lTPd3XB2ttXZtl4qbWZ5ve7jqkqZTSC2YVAyqxSkp5BdksrWuF+V9VjXV7MNzdosPH/Vv+CrL3D+x+BFxbwJhbpKVx8f7P4Zhr6dlM2UmQOJDn3sBb/deze1wkJy7leZ7Uxzy14kjizRUsDeI647pcfVUecZhlK4k8SVvobqf6Nh92eX42U2O59VY17RYuFwNwix0KPskyooYql1fLGXgnKWA21XPxvAJcJpW1bak1EOfIe7bKV7aBgjw6mjAtaIXC5vaKphi7PPhnALqh9mj05oPAmUWuFHj+SpleGvytHdULoPQYTg1ZjEL5KN1OQw2Ie+x+VlXiWHVWF1DYK1rQ9zcwLTcELi09TUUk7ZaaV0b2m4LTZdvFcWdjE0E74zHJHCGPF7hx6hEY+SXJA2QdkRbFhWIVkXFpqYvjvvnA/BezlaRHC3bK21vgqsFAj7PwP5lhcfmVbMdY/NpuixWEOY2RrmO1DhYoG6azYu3i66nNNUviPI6eiyEWK9P2hpA+FtSwd5mjvReaeFIVApKbI3yuDI25nnYKvvB5Y5pa5uhBC0hhATsrGRX1KAhY57gW3BBuCOq99QdomPo4xLUuZI0WddwXimNDRZqk+IOb3gg983HIjtWH5tKubjTTtUX+AK+a8GP7P4oETOQPzQfTRi9/wBc3+BMYt/1WfwL5nw+jnj0KYzN/XS/xFB9QGKi3jiKP0o084fmvmHEmG1RMP31IVNU3aql+aD6d7cx27IT8UGpid/y8TviF8zFdWt/5p/yTGI1w1E/zaEV9KJpXeKghPwaoOhw1/iwyE/+W0r523GMQafrWH91WDHa8c2fI/6oPeew4O7xYTB/2mqt2FYC7xYVF/2QvFN7QV491h/eIVg7TVzR9UP4yg9a7Auzjt8OaPRpCgezXZp3/J2/ecP5rzDe1NV70J+D/wDZTHaycfqZfmCiPQHsp2bd+pc399yg7sd2dPvSD/zCuM3ta73oZfkFYO1sd+8yT/t3QdL+g+Av8M0zPST/AFCj/QHCCO7WVA/fb/osI7XQHdvzjVre1dIRrlH7hQXO/wDp/hvLEZ/iWqt3/wBO6R3gxKT5ApDtRQ8nRfigdp6O+8XwcQgif/pwLd3Enf8Ab/3VZ/8ApxMPDiLfjH/utTO0tGTa4/jV7McpXe+fhJ/uiuS//wCnVZ7tfGf3CP5qs/8A07xD3ayD5Fd4Y1T8nyfCRWNxiL/FlHxQeZd/9P8AFW7T05+JUHdg8a918B/fP+i9YMZj/wA1IPUKbcZj/wA2/wDhQeMd2Gxwe7CfSRVu7E46P1DHekgXuRi7b92qPxapjFj/AJmL4hB8+d2Rxxv/ACRPo8KDuy+Nt/8At8nzC+jDFXn/AJiFTGJyD9ZEfig+Yu7P4y3egm+CrdguLN/5Go/hK+p/pOTpGfij9Iyn9VEfig+UnDMSaO9R1P8AAVA0Va3xUtR/2yvrP6Rk/wAGP5oGIuvrTN+BQfIzBUtGsEw/cKgWygaxSfwr7D+kAf8AlD8Cg1cR8VH+SD45dw3Dh+6jP5H5L7EaikPipB/Co58Od4qQf9u6D49n8ijiL686PCHb0rf+0FE0uCnejZ8Ywg+R8QJZwvrZw/AXeKlh/gC8/wBr48Jw+kgFFSwcWVx1DNhZB4ZpBW/Bz/xelPUn8lUH0vsobwXce5u8HQ/BW4RYYvSW6n8lKsex5lCOZQvO9DxqYAVgjCMg816XliNmjoUw1v2Qgxi6RaL7lFBa3fKEZW20UTpzUM6Iz1VhN8FUpTnNKSogaoOjB4G+isf4PUqMI7o9FY5hIFkFevVPvf8AsKeU9B6phjidXAIKnDRScwmmtspuhJ1B2U48kkds7f2Sgxi7QBmB9FdT1bomZMl9bq4xAAgNbtyVQg6t/wBEFokD+86Nlz1CCXHa1uisjLmxuZwoDm0zvZct9ComnaR3pHH00QK7rLTDDh4ZmrqtznHZjSe78lU2CFuwJPmVMNA5BApYMEdfJFUuPXMQPxXO9mZxHWdlj5AnVdb2WRzS/hkt5rC6qo2vEYFzfYN5oLaet9jFoXH5BZZpRM8uMYudb33Xco8Jo6inbLJGe9rYHVXnAsNtrTk/vEFB5szZmZHRMI9dVCMtiddrHfs5tF6M4Bhv+C8f+YVW/s9QHYzt9HorhSyMl/Vlp+6VRw2n3pB66r0H9HaUbVVQ34j/AEUf6PQjw1s3xAKDk08bM4OZ5I5HZa2eMK2fDBQsbJ7Q6S5tYiyg3mfJCMVRDDM9zjI4PvbUaKdIRTuAEgPqtIwirlbxGyQgO1Ade6X6FrusDv3rIrTxoHtFnsafVQcIz+sa4eRVBwetH6qJ376rfh1aP+V+TgoimW3Fda9gsjdZD6rSxps4OBaRvfks8Y1VGrhTGMFtmjqVY2OuyjK6E+oXcjZGYIgI8tmi56qQib0HyQchk2KsGjIHKxtbijTd1JG70Nl1eC1HBCDnfpOvHiwy/o9MYzO3x4XL8HE/yXQ4SYjUGJuOMHioKpvo26kMfpvep6pv7i2cI8lTWTNo6cySWzHwt6qCqpxuI0pNO14edBnFrea4JO7ibuOpKb5HSvMj9zy6Kp7r6BVEXEuPkrYoXyWETC5xVbQtIrajIymgb3joAwd4qi401PRi9W7iSEfVtN7KVNHWYrJwaRjY4xzcQA1X0eAkkS1zrnfh3/MrccIoXf8ALtA+64hFjTQ9moKQiSQGrm+07wg+QXajhkAs6I26AaLzrcEw7lC//uO/1U/0dTx/Vy1TP2Zig9AYiB9U75KAZKHNcIpCA4HwFcNtM9mrMQr2ek5Xo8Fq6llKGTsqJ2tvaV41PqSg2/pF3+CPmqpZKWo1qKFjz5gFVsZAScvFv5SsP81IxNP+P/6T+RQVGkwh2+Gx/JROH4KRZ2HtHoFf7PbnOP8AyroMB/xn/GB3+iDDL2f7Ozamjcw9Wkj+a5Nd2QpMjn4dVSh41Eb9QvQ5CN5m/Fjh/JRLRyqIb+pCD5tJE+J7o5G5XtNnAqNtV6LtPQhkratliHaOsbheftqiFZaMNbnr4WDdzgFTZasIbfFKcWv3lVj6NTQTPpmxSzmIsOhY69wuFjOmORNz5znibcnzW9okL7cOTXyXCqTnxto58caeiD6BZJ4aGlxGwuuA+V2fxSN9LqmurJYsLq3CR5tEdyUSuE6sjp8Snme0lpaSAOeqxHtPaW4o2uYDq29vxXFM0gF8xuRrdUDY9Sg9RRY7DiFUKZ9IIHPB4bmyE6+YKZqpm7ZWkEjZeZppTBVwzt1MZvZdAYo1znGSF7bn3TdB0zUzHxSu+Bsq3PLjq9x9SsYr6Y7mVvq1T9qpnbT/ADBCC/MAQtdG69LO3pMP/wB0LncSNx7srD8VqoH3iqf/ABR/+6g2t2TICra5MuUVnxAWgEjCWuDtxuvRYJVyYtgU8U1jMwGIuHPTRecrtaU+Tguv2HdrWx9JGu/BTTUecc0sjLH+IEhc2YZXZepXYxB4kr6tw2Ezh+K5zgwTiV/gZr8V1/jlYixggZr4iqpQQbtVsk8dVJeJsh8g3ZQcCNCCPULOzVVNIPqm0Xckd9FONrnOAaLucbAdSivVdhaRhrKurltljaGN9SvZez01Qbt3B3jdYhYez9FHhuFMiOUymz5b9V0BSw3JEWUkWLmGx/BRqIeyuawfTyGQMLQXdeqvtZoBJcetlSYHxtAhkNxcgyEusqqisGHwcSukjDWtuHXsXHoAoNgbdzT53WB9dR4dRl1XMGEknLfUrzlX2rrsSeaXAqZx6vtr/sp0PY99SRVYzUukcdREw6fEqhVPa+aolMGDUskruRtcqqPs5jeLP4uLVhp2H3Abu/0C9ZQ0lPRRcOlpo4Wjew3VziSiPM1OAYZhNNAYYA+ZzrGSQ3JXH7QuBw+GN5s0zD8l6XtA76Skb1LiuBi1MayiMLMuYuBaTyQVuaTla3yAVlTYObENom2HrzU2gMkzG30bb6cyqy0WDju7dBkGU4rO7fh04HxKjPmioqouY5v0WlxbdJjuFXYhL9kMC1xVuaN013taLBxfsg5uE6Q0b+sj2/Mf7KHaM5aqn/8ADP5rttkzNaRHTyNBu27AdeoK4vaaQvqac8NrPojo2+uqDjm0kZPMLrU8Df0FDORm4ZJcL7i65MXdgcV6qWaOLsdFEKWEPkiAMgb3hrfdB52aSCbUQFn75KzTSvkcS4/Gyt7hADXj4rO4alQdikvimDyU29RR/SRj7Tea50L8pClQVLqKZtVC7LLGbgHY+RWzFKaGSP8ASVAP6tIe+znC/mPRBGN7SN1N4jLe9Zcxs3QpmXzQaYWQtqozVNc6DN38m9vis9QIhUSCnLuDmOTNvbzSE9vRQcQdRogSSSaAQhFroJXVz6SoZSRVTmfQyuIaepVUcUj3BrGEnyVojcyMAuu0HRt9AgrIsFHmrHKrmg71HhBrsOhqKdrdRleCy5JHNPtJTRwRU5ZSiFziQHBuW4A6KmhjPssRBcL66Gyy4nUyVEvCfI5zYSQ0E3QYnHQLodn9cVB+zG5c4rThtdJh9QZ4HgPy5dWBwt6FUe7oo8rS+wbceLKBy6lc+oP9XqWh2Ymdx0dcAFcuLtVWtdcilf8AtU4/kh/aH2hjmzUVI5r9XZS9h/ArLrLprY8hgaTawtruvInxG+1yvWxuozTn+pOi7pILZ3G2nndeSOyRnKkul2eibPjdLE6d8AJP0jDYt05FcxdDAab2zFIoeMyDQnO/bZVh9FZgc980OOYg4cu+D/JVYzDDT0r4qqulYaprQ6QxZnHKAL6LmDAa9v8AZ8SpXekzmlaYsJr3Rf1zLUEbfS5vzUt01jNuO3C6L9X2ht5SUrgrY8KaCCcYoXsB1uS0/Jb24b9M5suHSMaP1g1B+ATdhlKDdsUh88jgsfZfx0+uOlUYzh7WtHtDQA0AXNrgLzfa2bjCgka68RhLm+ZJVWNxNjqGMbG6wi07p0+K6eMYPPU9m8PkhZmfBFct5kLcu3PKarwhk7tvNLNdErCHnl5KIJHJVk721W+DWFpXPOui6MbXRxtY4FpA1BComi/dKR2Scfo3eiD2QPB7LQf+E1vzd/utE+j2Do1ZMQdkwPC4R+sfECPxWuoN5vggghCaghJG2WN0btnCxXjKuB0FQ+F27TZe2XE7QUlwyqYNR3X+izfavONzskDmkhwOhClkfLIXvOp1JPNXWG9krq7EMgbsro4yUMbmWiNlgqaDWAKxoJ2CqqKmOAW8Un2RyWJ9bM198waenJDTpljTu0fJIxs+wFHDqk1dO4yW4jTbTmriEFRhj+yomBnT8VahQU+zs8x8VE07ftLQiyDP7KCLZ/wSNKR+s/BabIKDJ7M77QSNNJyLStdkWQY/Z5eg+BS4Eg938VtshBh4Ug9wpZH82O+S6GUqJLR4nj5oOfld0cix6FdJg4rwyM5nnYAq92H1jbk0cxHUC6Di/FIrrOpZmjvU0zfWMqlzYx42W9W2Qc7L5JZR0C35ITyagwRH3Qg5+QHkjht6Loezx9PxSNOzzQYOG3zRkHV3zW32Zn2iEjSjk/8ABBjykbPf81IOlbtNIPitBpTykCXszvtBBUJ6kbVMg+KYrKxp0qXqfsr+oPxS9mk8kDGI1w1FQfkFMYtiA/Xt+LVVwH/ZCRhf9goNAxrEBu6M/uqQx+tadY4j8CsXDcPdKMrujkHRHaKr/wACP5kKY7SVA3px8HlcnKehRp1Qdkdp5RvA8ej1YO1DucE38a4fxRZB6Bvapo3in/Aqz+lcfSdv7oXnLBFkHpmdq4fty/Fin/SmmJ1lPxYvLWCMoKD1je01Jf6+M+rSuV2lxCnxGGB0crHSRkizehXHLB0UeG3ogznQrXhJ/wCL0x+9/JZH2DrLThP96U37SVZ7e0DtT6oVZ3KF53oecIUSnfVJy9DzoOe0e8FW546qbmNduAVRJGOWgQQdKORVXEN03Mtsq7G9kZJ1ybpsF3AeadlONv0jfVUdBrC0/BX+4oNEjzdkL3jyQZCGFnDc13mgd0BVAuPuO+IUg8czZA336lUtZZ9+ilxYy+2cLpQQU80ZL5QGt8RBtb1UHPBPVDnhviJW00sUFe2OWe0Dxdrj/qtLJqXC6pkr3mWB7bZgAcpRXI47PtqbJj9q69hE6mq4RNAY5GHmGjRc/HPYaWgdLNSsMjtGZRY3QcHO7qUZ3/aKdOc8bX8jyWWskmgmuHEMdsqjVxJftozn7LD+6sUdYXMIIs8bFacMljmrmxVmrH6C2mqCwTyNcC02I2IOytGIVQP1h+a112GQwUMs8GbOzWxN9FkwaOlxNzoZjIyQC7crt1FWDEqz/EKkMUq+bsy3f0dg92pmHxCX9Hme7Wyj1aCisoxWf7KmMUl5s/BWuwB3u1xPqxQOBT8qtnxYgxV2IGpysy2yu181EC8ZHNKroJKSZsb3NdfvXarImF7bAXcTYDqhHdhjLom5Gl+VovYXsrGwyv0bE75LBxcRZS5IqDgSbOlil8Q6WXOqG4pIck89YGu3uSW2+CDs1k8FA8srJWxuHujUrlTdoYm3FLTvePtP7oUqfs/A8F7q6J2moz5Sf4lVLR4axrgTUPcNLZtPwQcd0z3FxcAM5JNuSTfCupNhLqmGM0NLKZL6tvupR9l8cd/9te0dTI38rqojQ422PLFUxHKPfby+C7cL4aluanka4eW4WSbsdK2G95IntHeLiCFzP0PiVG+9O4yEf4RN/kosejEZClwz0XEhlx64YYKv4x3/AAsuxRw4tnaZ6UzRkajKYz87IJcMJZFZI4sqRC6B0d238Yf+Sm4MYxzpLNYwXJKgyzSNggdLIbNb+K8zU1ElXMZpD+y3oFbiWIOr6ju92nae63r5rNyRFblG3NTylxsNFopaF08gzi0Q318SCNBRTYhJlg7rB4pSNB6L0tDhtPQMyxNzPPikO5ThlfFE2ONkTWN2a1D690e8TXKkaMmZMRLF+m4WH6SB482rbR11JWkinma5w3a7Qj4IJiKw1VVQY4IZJ5cwjZqcouR8FrOm9/ks9XTsrKSSAvLWyCxc3kgwxYphMhAbU1WY+77Pf+a3YfPIatjIqurbHmIyOaWtt572XLj7NRxkGOvnY5puCALhdrC4ZmTh0jql5BN3ud3XeegvdXwR1XPHOVp9ZGfzCjeMndrv+0VZxLfrLespH5tUeL/1W/8AdYfzaopcMHaNp/8ALYfycnkdyjt6RO/k5LM0+813xjKOG07RsP7kZ/miJWc37fwEo/mkXEbl49XSfzCOF0h+UX+jksrvsOb6MeP5oMWI04q6SSJx1tprf+S8E+MxvLHDVpsvpDw627/jn/mvEY/T+z17nW0k1Qc1buzrc2MxeVyueur2WbmxU7aMO9v5rQ9pEHNfms7ugnZw/mvK4a90mNNdc3Bc+99d16SXKykqH2b3Y3bBvT1XmsCGarkcOTQoPWCd9/rSPWQ/zaud2lqXDs/VAyA5rN8TTfX0C6MefICQ/wCAk/kVw+2sjm4NHH3u/KN83L1RK8O7w36KsFTcdCFAaIBupVnndVs5qwBUPUIQkgeW+zST0AuuzgrHMopw9rmkyXs4W5Ljxuc2UFri0jovSx1MlRh0LpXlxughLKyJjpJXZWDmEQVMVQy8L8wG4IsQudjLtIGHwkkqrDX5a8N+00oOrVH+rO9Qun2HP9er/JrD+a5NQ76EjzXS7HuyVWKu+zAD+BWasedZIZK2pG93uf8AilJBJPE6NvM3utXZjM3E5al1O+SPhPb3RoXFahTT08RkkiEbb7Eq7XSmJj6enZTUsbGm13yPO5UH0mZwdLVgke61im55O5UL3WNtaZp6NmYua4ldzsRhzJcSknnaHCADID1XOy5m+a9J2Hc4e3MPhDmn4rW2dPUPax4IcwOzCxVUtOJSCx74nD7BVxTZ41Ueex/tIMHaylhAqK940aPd6XXKoOzlXi83tWP1Ejbm4hB1I/kjs5FHUdsa+Ss1qGElgd6/6L2Z8V3b8lRmipaagpXilhZFGxh0aLX05q6I2gi/ZUKz+xT2+xZWPjzRxtvls0bKIfIpHZJ54cZzaAc1BszHggG9lRx+0Dr11K3pGVx5Y5TUwSNc3IAQ9p38rLp446+KsH2YgsjBmLUGWpcABGN3alKXuhgCzCRtXi5dYPiY7KPOw/1Vr5hJPltYg2sPJBih+kbXG/iqLfIKVSLYHVu/6jQoUJvRF3+JO4/yUsQ//hyQ/bqB+CDVh7L0uHt+6XfIf7rB2nF6+nbyEOvzXWw4NZDTGQ5Gx02YuOgFz/suFjNeytqzLE20bG5ATzUo5czw2PKF6PFSYezuHg7WYD8l5Z7sxN16/HKaWfCaeONjy1gaXENJDdPJB5eaLhTX5Ed1QK1VEFT3S8dxo0vosxHkggPEAr6Ssmo5XOjGZj9HsOrXj0VWQgi406qVmtQXTQQVAMlE4M6wv3HosjmPjNpGOaU3C5uNFMVczRlLs7ejhdBTcIuFd7VH71LEfS4Rx6c+Kk+TygpumrhJSE6wSN9JP9lK9CN2zfxD/RBnV9PBNMS6NtmDdztAFL2mmjP0VKLjYvddVS1c8xs91m8mjQIOxRhkdLM6PvkN1fa3yXNv9G1baPu4dLb7KjQU0dTFIJLjLaxCDGRoqZBa66z8Id+rqW2+81RGDuuC+oaRzAbug3UbPoYW/dC4U5vVTebyvRRCzmBuw0Xmyc0jz94oK3KI3U3KA3QMXUt8o8wo81ZGLvYOrgg9FIctLL5Rn8l5geEL01UbUc5/6ZXmBsEWkd10cBGbER5McVzjuup2dH/EXeUZ/MIR3uFG7dgQImtPdc9vo4hWc0LKxKKSdpGSpmH75WtlTWf5qT4rIxXx7Iu9NjK+sH64H1aFaMTrR7zHerVjarGojFiuEU+KHiujZTzH34ha/qLrknslJfuVjT6ssvTBSV2jiYfT4FglUw1zaiepaA4XALR6BczE6kVuLVVU0EMkfdoPRXdoHf8AGpG9I2rnhWJUXKJ8BSkNiqy82WkewxaqjdNhsEAEscGV8kgIIbpst73B8mZuoIXhWyv4Z7xFgvXYVf8ARdK4m5LNVBrQhNFJKSNssbo3C7XCxUkKUeRraV1HUuhftu09QsxC9Bj8tMSynnOSQszsf/JeeEsWzpG/NZVbHYLbAL2usLC0nuuafQrTE8t5rSI4lh+f+sQHvjdvVcYh0jg0Al5NgOd16eJ+YLPV4eyc8SN2SYaghFczD5HUlY6GZroydHNI2K6zrhZ48PldKZKmQyyE3LitbwM1roipQfNGzxZreQVpDbLLO0Xu06dFFiXtlMdA8g+YWiB1JJrNWcIdGszFceZguq2vc0+SD0zYcIfE6QVlZIG72ys+QO6rYMKmdkimro3HYy5cq4gkB1C6LaSR0YcwC1rpoBka0lou4A79UCUE2ykLC+pDSWjkdV6DBMDfX03tlbKYaf3WjdyzllMfNak25928zotuHYbLiRk4ErY8lvE0kFdqKDD6X+z0TXOHvyaqUlTM7TNkHRosF58vkT+Os43Ml7PYlEdHU0g/bt/JSiw/FWMJGGUslupaSVrG+pJ+KujkewXa5zVn/Ja+pgbVTUhvWYADb3o4tR8l1qXGqCeJpFQyncd2SuykfNNmIVDRYvuPMK97o6pjRJSQz3BzAgLrjzSud47FsczZdYqiKQfdkBVhZUP9yNw9Lrjz4Xg7z9NhD4j9qK4/JQZ2dw+XWjr6uDyzk2XWZSsasbqyJohkZJFC0uaQC5g0Xi3RmK7DlcW6Zm7Fekl7OVjQQzFnSN6SA/6rM7s3WgEtmgcT5FVK4SFrnwyupnFrqWV/3mC4WUi2liDzB5KojZKykkgEreSlYoyoiISIupWSOiBW1SIUkuaKiNCnqhNVCISIHQJpqCBY0+6Pklw2c2hTshBDhR/ZCODH0PzViEFRp4/NRNO37RV6SCg0/R3zUDAeq1WUbd5FciQ98jotOEa4pTet1kk+sf6lbcEGbFIvIFKserce8UItclC87u81ewuQ63Wyhxoft/NW0GO1eHSXp52lv2Hi4XYi7c1J7s1HRy+jDdel53B4sR/Wj5pEXGmoXqW46yt8WBwPJ607isWI0vGk43sDKVp0IjYWhB59zFWWjot9VTiANOe+bksklgFBRaxU4hd4Ubq+jbmnA8lUdGmdCHBj5XNcei0mmnF3BzHs5X3XPqaUsiM7XH4LoUNUKijaS43BsSgwx1hD3NmGoNrBaqcxPaXRRAt55gsGKt4NeSPBIL/FTD5G0DRC0m79SOSDo+zB4J9mhPo3VUto4+A+0ZOc3LHiyyRTS0M8cxLr37wvyXoKkiWPix/ZuEHGxCmz0N2eKOxsOQXIhmMfi1b0K9C3EzW0441g6NuQ7DRcKqpuE4uZI1zDrYHUKDrYFUmmrWljjwZtHN81r7Xax00jdmE3XIwo2fc7NXXnqop4TDNE57SOiDhR15AAczTqFZLitxlELX6bkWVNRSZT9AXlvIOFrKEVG5z/AKV+RvzVFRkMjsxaB5BWwPbDURTSML2sNy3mV0Bh2H5Mrax3EPMt0/JYZKWWMlpGYcnNF7oPTMxakniJaRwyO815tZY8HjoTi7X0Tnm1yfsgLixUM0xsxpHm7Repwmjiw6nytIfI7xOJUqx2DZLurPxkcVRVxZGdxqs9TNSUrM8r7W5DU/JPieaoqo+LE7K4RvGua1/zQcjE53VdU19NBI+MNsCeaKNzo5oTPG+NufUlaGvZCQJ5wX/ZA1+ScbhNMeGYyxgLnNkbr8EHUjr4HRPle50DWkg8QW+SzP7Q4e3usfLOekbV5ypqfbJ73e9t+7G0XVsVFXyNHAonhvV1mj8VR05cfkd9VQtA6yuufkFinxaoeO9w2+TWWVrOz+IS/Wzwwj1zFTq+zjoKN0kdU6eRupblAFkHMOJ1APdnkb+ybK+DE6iTuyVlQR/4hXLI1U2BEdZuIOppfpC6UH7TiV0abHKJxs9r4T1Gy4kbRNHkd+67opYdhM9fPJE2VsZjF+8Lgor1sVRBO0GKpD/LNqnJSMlcHPdLcbWkIH5rzjuzuLQgvjMLmjm2TKfxUqWvxOE5DI2zd82qK9KIcos0ALzvaSsLphQxmzGi8luZ6LdHjjY2j2gx5urVxqqTDZ6qSfj1YfIbkNYLKJpha3krA0W18PMqTfZ8/ckmc37zLFTbG2qlEbZo4mk2BeTopSNNFhNTXgFg4EHORw1PoF0R2Voffqap59QAvTQUFqaJsczHsa0AFo0KmMOdznb/AAqdpF08u7srQe5PVNPXMFS7s1VRj+p4hcfZlC9caEN/5gfw/wC6j7GP8cfwq94dXhqimxSk/tNJxGDd8ZuqGVUMjgWh8Ug52sQvoLacD9e0/BeIxyplnxadry0iM5G5W2uE2ab6HtRJSRcOSWSTp9GCpz9pYJG5uHJn6ZALrzuqR9FpNO7F2g40zWMgYwcy8rtYXaarkcGQXDb3iLyfwK8DLo7Req7ERlrKuoNOC12VrXOBsVB6vK7rJ/FKFHMRzcP/ADX/AMwocZv+WZ8HEI4jf8B/wncFdqnnv77fjKP5tSu0jvOYf3o/9FDiR/4U49KhyXEiPOpb6SX/ADRErR9Gn4RFLI37Df8Att/k5RzRf41V/Cw/mEXhO8s/xij/ANERLL9z5MI/Jy8/2pgvA2UtsW+R/mu79B/iu+MDf5LmdohD+hpXNmDjcWGSyDxZXb7ItvVzP6N62/kuIV6PsewZZ3mVrNQO8SPyVHcrzbDas3/VO5g/yXB7OjMJz5t/JekqYuJSTs48JzRkayn8l5vswC6epiaWjutOrrXQekhY1zB3W/wN/wD7l57tw/LHRQ2tcudtb+a9JFBLzEZH7bD/ACXke27iMUgZYjJF5fyRHmjuVDM1Wb6XtfmV6GmxSnp8N9mZJTXLbG8f8yEHm2qanK3JIRnjffW7Cq0DQkmglELyn0XfpdMNh9SuDTi8p9F6CD+76f4oMGMtzU8TwNWOsfQrPhEeesfL7rG2+K68kbZI3MeLtPJRjjZDEGRsDG9AghU/Vj9pXYPXQUL8U4zwDNE2NgvbMTdVVH1XxXLmYJJZQXZSB81KrvR4hUU1M1lPTRthGgIF/wAVTLWy1dhKQLchouRTUmJBhkpX2HQPsT8FY3EJ4nZK6lN+bmixUqytjwFDZON8VTc082Y/Yfo4JmJ48TbepUaSaQ0X6L1/ZGn4WEGc6uqZC74LxbywNsZo2n9pempu2eGUtHFE+JxexoFoxp8FYleqRexuvKu7fYdyppPi6yj/AE9oDtSSH9//AGWmWntDgk76puLYQ7JWR6uYPfVWH9soS4QYtC6nnGjnAafJDO3eH3/sc/7pBUKztB2bxSPLW0soP2jHqPiCg75q6ato3ey1EcoJHhdrutjjYi+y+ey0GAuOfD8afTv5NlabD42VjMVxrDQOHilPWRnYZs+nx1Qe6mAdEWnZZmRhr7t2IsvNR9sqvLaqw9r+pidYrbT9rMOdpNFUwn7zLhUVYy6+Mv8AJjQskge6FzR4SCCfJKvxCkq8QlmhlBa61iQRyWWSr4cuWGeWdklmugcw5Pg7koMQqDRDiRxGUg6NHRc6V9SJDUk8PMScp816bGMKoaDBZahskpmJDI2iTN3vh5LzLKSSpFw2TMR7234oOjRNyYbTa6m7vmVOtdFNhLaNpIlZLndmGltdfxVT6iKngigzZ5GMDcrNVlnFZMDnge2MW0BBt6hBsZHU45IyCC8VLE0MfJyICy43SRUVXJT09+HGGjXrZdHCcalhMNDVU/0ZIY17Blt6rD2jIGLVYvccQD8EHEY3NM1vVwC9mMVpHR5Jn1EQIscuxXkKdv8AW4h98LsHW/qoN2LTUtXFHwJ7tYPCuLJTPOrTf4LUWDoFEl7NWOII6KjH7LPzhc70KPZpR+rmb8Fsbide02FQC0cnRgqL8RrHuN5GtHRosgwuhfzzfEKown1W59VM7xPuqSSTcojNwSjglag8tDhob9eSrQU8HzCDFormp2CDPwkxGQQr7Itqg3xd2gkHUKzCfqJvN4H4KiJ14ntPRacMbaie7rIVFjUmkEKAYbEnoCV5pg/Er0bjaKZ3SN35LzjPC1ahSduoDdTduojdEHNXU4vUQjq4Km2q0Ujf67B+0qO5iHdw+oP3QPxXmuQXpMV/uuf4D8V5vkoIdV2ezQvVTu6M/muMu72Yb36o9GtH5oruJFNFlFNiuYqmbq5qgsbsrGqDdlNqom1SGpUQps8QQeSxk5sbqj0LR+AWNX4g/Pita7/qkKgbrUZqiXdVKyXxKtWsrBpE4+S9rQDLh1K3pE1eK/UH0XuYG5aeFv2Y2j8EVYhCFFNCEkRyccha2OorCLmOFsbPUk3XlIIOPc20AXsO0QzYK5rdSZBdeXpn+zsLCN1j+un8UGlmabxx6DndaIKiQd2VpB6q9lY0NtlUOLEWO6lVhognLTY7Loxua8XC4LJmh+UGy300xvlJ3VHTmkbDBceN2l1lDw6LO+zGN+ZVdQ/O8C+yy1k44bY2n1QU1Fa6RxDNG8lQJXkWJKgQmAQEGmSpjkpY4vZmskaLGQHxLG7Q3U77p1EkEkMIihMb2Ns91/EgrDlskxGRkIZG6wLbFc9BdcWUVZH3nsaT4nAFfSqyRsVJHGwDJFHe3wXzAOIII3BuvfUVZFX0bSHZrtyuC83yJ4jtxPKSYvV+1GZszhZ2jb6L10EnGp4pfttBXBl7NP8AayWysEBN9d7L0DGNjY1jfC0WC48vXrNO2O9mndCivK6J3UmSFpu0kFVO7oudB1KrbURl1hI2/kty1HSbU1JFhLy0zAFYn49LSVPDrKGKQjZ0ZsT5qTJdNVz8ejz0rahvijOvovRx53blnjNOwztPQutxKeoZ6WK0x43hUo0ncz9ttl4QTXAIdurGyX53Xs3t530KOopZBeOpid6PXg5QHTyP6uOvxUAGnXY+SDpoFYlFhdFhdGqD5qoSPUI0SRC5KJFySpFIoI2SsmhAkJpEaIAboQjRUCEJIGkhCBnZLmmly3UB+aB4kJDcoscV259Suj2ebevDulx+C5p3Pqut2dH9ab5l35KX0s9vS8yhB3QuDuf6aw+L6rC6W/lEg9qZG6Q0kTPRgXHaxrjo4BSNPrq5ehwdN3auuOzGt9AFz6zGayrZke4Bp3B1Vfs7ftI9mb9pBgex0mrySQs1RGGREhdf2Vv21jr4DwC2Mgm6I5N1sw7WVx+y1VNo5/st+a00sb6dshkABcNLFVEauqcYjCNiVZg1X7PxIeIWNdrvzWKU3cSqww5rjRB3K6nbVwAgkubqHIwuoMMToS0Fp19Fgo21NXMA554beavhPDnmb0uAgqxKdsru6NtF6PB4Pb8KiZDHNJK0d4hwsvKSbFX4diElITle9rCfddYoJ1+FVVPUSRmPc3tdYBTP4mRzbHmF3WTT1540puNgT0Vnsw3yhBip4REwAHXmr8rj7wWpkDPsqfCaNmhBlDABrqjTk0fJaXRgclAtHRRVQt9lTYDdBJvYBSAKKRQ0tG4d80G5OgKeU8woLGyN90OU+KR9pUhxb5J5nFBdxrc3IZMHOtrZVt+8lPUU0FLKZGPMhFoy06A+aDmz0pqa+SbXXYg7K7Bo5GV72Suc8FhFibrPSPkbE+3T8VuwLL7S6ScOcAADY2VHYELqcBopzC3kSyykHOPvKirq6TODFxGAcnyXVlBEysDnOmk4bTa0Y1PxXPPOYzdaxx2HOcPfskySRzssbi8+TLrrU9JFGfoKG/35Tclb445ABctb5NavLfkz+N/W8PXYFiVXVh9NQWaRqTZoutWHdk61smarbA0dC669m1pG5UgFP8mr0jzM3ZJksxkZVCDqyNmidXhVBg1P7RUVtTmPhY11i8rs4pWHDaV9SXsDR4WkXLivnmKYlNW1Dp533efCOTQt8eefJWbqL6/FZqqzXuMcI8MQOvxKoo6WvxWTh0cJcBufdHqU8NoIqp3FrqlkMA5B4zOXXkxaloohDh+Ivijbs1oBv+C75Za8RmTbfh/YeIND8Rnc932I9B81sqOyGHySAxMETALZQTqvKS9oaknSuqXfgqjjlQ7epqP4yuOX2VuSPUP7FUp2qHx+hXGxTstWULTLA9tXEBqG+IfBc79MP96WoP75U24o7/En/iSfZPa6iGF4pWYXMDTyOtfvRO2K93heLU2MxXjeY5gO/GdwvIYdhr8bntAxzWg/STHkve4XhVJhtMIadgF/E47uPmUzy34ntPSt0Bv4yo8A/a+a3Sw5fCqHN6rxZc2eN1W8dVR7N5g/Fcau7MCrqXzOmeHO+zawXblgjlbZ7b/FcypwqexdR11RE7k0uu1ax+Rb/V6Ry3dknN8NTL8lS/spN7tU/wCLVKprMYw91p6iQDbMRcKEfaHEG/r43+oXf7OS+k6RV/RSf3qq/wC4pSQYjg8IbT1Tms6Hmt0Xaepb9bTxv9NF3MNxCmxOMljQ2Ru7HbhPtzntOkeKdj2JR+KpI/8ALQO0uID/AJpvxjX0M08Z3hYfgFA0dMfFSxH90Lc+T/8AGeseA/pNXW+tYfhZNvautbu2F3qvbS4Lhs9xJRRAnm0WXBrcChp3Ob7K1zfddkuF0w5plUuLk/0squcUJ+KkO1lQSB7LEb+ak/CWE601MB1y6/kpjCKDJ3omB/VpIXbtGOtdemxASUnEqY3MfbZm11wsYxZ9TEaYQZIy4EOLt7KTsJPu187RyF1V+g3Sb1kp9dVdw05T9l0cHxiHDonxyxvdnde4UnYC7/NfNqQ7PMPjq3j0Cu006H9JqJwtkkF/Jc+gq44K01Db8I3vbomezkfu1j/ioHCnUUZcyUyNB1HQJs07TcewvnK4erF53G6qOsxWSaJ5cwgNarocIbVuJZUZDa9rXsh/Z+T3Ku/7qu005OVLKui7BpI/FVD4ssrXYbFJCGwBvF5uLybomnJyqdLS1Va5zaSnkmLd8gvZbv0LWgaOh+ZuttBUz4SC0Usubm+LmhpxailqaJ4bV08kLjsHC11WN11sRkqsTeDwZi7cZ1h9gr2/8o63kQgjSD6R/ou/B/YKf0XnGySU7jmie0ncELqR4xTezsjdHKC0dLorpW0USsrcTpnMGkjf3UfpGiO8zh6sUVZU/Vt9VzO57W7ivLG3W2eqgmY1sL8xB9PzWYYZVVbyWsDehc5Ta6daCkjqYiaWSOZzRchujh8Fz6gPzFr3F4G2bktFDgGN01TFV0zWExm/cfqRzC6faPDIzXtdTO4U8zA/hHZx5281Nw087kLCGwM+kcMxfbYKqWIjV0uZ/wB4ro0MMs8kcUcrYJ78J+fbyuuhUdm8W24dNOOrHa/ipbJ7NOXhD8OiYY6+kifI46SOuus6TCoGhwbFEOojuuTPguKUziH0Ujm+QzBUsiq4j9RNGfsujNikyi6r0MVbQFpMc0B00zR8/kuQ/GayNzuJFDkvplZbRRp6mKlk4lXhTHA7uMehXYbiWD1LQY4TBpqGRNKdjTiSYzFO20rCP2cpVRmpZPBUhp6OZZd901G36utjj8pKP/RY5RTzEgSUc5P3XR/mFZTTl8MPF2ywO/eS4EvKNh9Ct5wmF/ipogP+nIiPDcKa17paiaAR7gElxPkE2mmEU0xF7ZbffKgwSvkyF5YBzcdFY1tNf+0V0XQujzD5K5tJnH0OJseeQlhLVdpplzTNJDZwbdAj2mqbtL+CtkpayPxRxSDrG7/VVHM3xwvb6lNmkW4hO9+V8+QA6uy3snKHyO0rmzj7IJatNBiMuHMfHBJlY85nBzQbn4qyXFI5fr6SklP2jGA75hNmlEMr4B9HhxB+011yUSh1zLJRVcTnG5OQkFDJWN1hkdGCb5S+4C6lBjGIQO7sofE3fNq1XZpymzDO4+0vDTYFrmbKurgNQ4+zyROucwu6x/Fb2YHiOLOkraVzXMkeT3jbXyC0wdlcUP1zYGAbXKxc5P6slcKmoZm1IklaGtZre97ra0X+K3z4BiVFmkPCEQ5iT+Syhpa60gyk7OGxSZyr1QyquUWaVrEZ1BFiNwq5Y+4SVdppzXZQ0u1+CodI2/P4rox0nHgLYcvGa7Vjja48ljkpy15Y+PK4bglaiM/GCOKFYaccmKPs5Hu/iqyjnBTVkHBiZO2amMz3NAjNyMp6qvYC+/NA27qXqoN3U0AiyLJoLYTrbkV0sOFqAftuP4rlNNiutQd6hGXk7VSrFqCnlKCEFVR3aSoP3CvPs8IXdrzbD5/MAfiuG3RWFVu3Q1DkNRDC1Yc3PiEHlcrMFuwdt8Rb5MJVHSxvu4XJ957QvNlekx/+7G+co/IrzjgoK+a9D2WbeOqd1IC89zXpuyo/qVQf+oB+CK62VRsrSFEhZVFo1VzNlW0WKsaqLGq1qqCtCCSm3xD1UAps8YViPE1OtbVO6zO/NQG6WbO6R32pHH8UKxlnl8ZVanJ4yoKott9CB1sF7sCwYOjQvDsF+EOr2/mvckWdboimhCFFCEICI5+LnPhVUBvC/wDkvItJkYHdV6N9UDi2K0TiAJ22Zf7QC88yGaAmOVpaQVznut/xA3CAQPVN6gCL7rbKL97hbonODGu6rE4rZSuElLk95h0QWySZudrhV1MlM+GJkcBjnjHfeDcPQdQoiGWVkkkcZcyO2YjkgoG6neyiRqChxtZBF2g9UGnmdTPqWtBiY7K432SkfndtYDQKtxLYyA42duL6FBC6V1G6kEFhjIa08ipQ1M1M7NBI5h8iqxm87IsVLJWpbHape0tVFbjsbKPNdvD8XjxElkUL8zRctaNgvFAHovUdhnPgrKqdrmABoYQ7muOfDjW5yWOpU1op2EmGZxHINXCrO0swJbDAIvN269xNiGdpD6eF1915XFKCOomL2xsF+Szjw4xv7LXmp8Tqqk3mlLvioMqnxkOY9zSt02HMafqx8FmdRt6Eei7dcfxjtW+kx6SOwlbmHULeO0FK+Mtka4A7rhR0IcQOI4LfBgTJrXqXC6x9WO9natLa2gl2/FoVrBSvOhYPXRU/0Sc4Xjq9fMJHsliTR9FMx3xsummGwU0bvC+P4PT9iJ2ufRwK5j+z+ORa8PNb7LlS6nxqDxU0o+F0R1XUkjfdf/DdVmBw94D1FlzP0hiUHjjlHq0hMY9Ut8WZB0eE7q0/FHCfyb+Kxt7QE+JrT6tCuZjlOfHCwn0sgs4Ug3jd8lBwI3BHqrW4tQu3aW+jlayton+GWQfEFEY0Fb+JSv2n/iajhU7v1kJ+FkHPQt3scbvBw/g5I0B6vHoUGFC1OoXfaf8AwqHsjx74+IKooQrTTSD7J+KXAlHu39CgrRZT4Un+G75KJa4btcPUIIo0TukfW6oRSOx9E1GQ2ieegKixxTuV3OzwvIx1uTlwyF1uzTj+lGsv3Sx2nwUy9LPb04QrsrULg7uL2hw51JJHLSMcInaWvsVyR+kWjRjreRC7OJ1Jmdws5dlN/JZAHL0RwU081S0/TMJ9Vc6o+4QpBumpXQw+ho54ZDNViOUDutKqOQ8uk6hPggts7XnoVcWWcQeRUmMdIbRsLj5BQUNY1osArqad9NI4iCOQutlLxeyJAYzlIGboStVJRyyuD3tDA03te90RgmwaSZ5fxAwuNyA3ZRbgr27ykj0XpuG1HCam1kcFlHPCzLE0W6rK3Dqxhc4jNc3XqOEE+EE2aePdQ1TnH+qy/CylDhcxfeSB7QOq9aYyEshO6bXTlNa5jQAw2AUwTbwu+S6WRLImzTBmNvAfklnP2SuhkRw1NjnXvuCo2vyXS4KfB8gmxzMovsptDRyW/gX5KQhaOSbGDdMRE+i38JvRPhjooMHAHS/qjg+S38PyUTAXcyEGAwg9VTV0rHU7897AXC6nsg+0VW+gY5pBc7XRLdLI5WFYDiGIwiRgbDC733nf0C9RQ9m6SljyySOkdz1sF0qdjYKWKFujWtAUswuvmcvyst6jtMFMeHUMXgpmE9TqtDQ1os1jWjoAo5h1SzhebLlyvtuY6WXRdVcQdUuKBzWO1Xquuh0jWML3nK1ouT0WczC+68/2rxUsg9jidZztXny6Lpxy55aTKajjdoMZdiNU5wNoWaRt/mvPveXG26nNJmVAOq+zx4zGPLaenMJgqB3QF00m1gKkFAKbWoLGALsYFgsuLzc46Vp78nXyCj2fwOTF5szrx0jD35PteQX0KGKGmhZBA0MjYLABeTn5phNR1xm0qOmho4GwUzAyNuwC3MKxhWseRovFhybu61livedFlfurC+6qcs8l2uE0ikgoXl26q5YI5mFkjA9p3BXlMa7LuiDp8Ou5u7oeY9F69K+q78XNcEs2+Ud5rrXc08x0XT7P176TFqdxcSx5yuuvR9oezraxjqqjblqW6uaNn/7rxJLongkEPjcLjmCvqYXHkxcvMr69xAlnCyU8vEp4X8nMB/BWhy8GWWrpuY7XZgjMqcyd1nvpeq646D5I0+y35KnMpBy1OSs9Uyxjt42H1aoGmhO8ER/dUg5TDwukz/8AqWM/sdNzpof4VB1DSHT2aNbHbKtZyzy/SSMZwyhI+oHwcVnfhNFnsY3AHfvldRVTNzNKz9uc/qyRiwimwehZLwntvK4tIkOvoPJSr8FyM4lFpbUsHNc2voxIc7O8RyKtwjGJqWSOmnvJE85WuJsWr38XJ2nlzyws9LqajoqsFrZZmyt8cbrXH4K/9C0/KSQfAf6LdiGFxVdpY3GKdurZGaFVUHtEsLhVcPiscW3afEOpHJY5e89Jjq+2Q4LHyncPVoUTgxA7tUP4P911SLbpaLy/fnG+scg4M/8AzTD6s/3UTg0o2miPrcLs6JadE/yc4vWODPgEszbEwH4n/Rc+TsfIb24P8X+y9dp0S0V/yszpHindkKnk0fB6qf2RrB+pJ/fC9zoi6f5eR0jwf9Fa0fqXj0IK0U2B1cA70c58g1e0zeZSzHqn+Zf6dHkvZ62IfQtq2O6gOV3aaKaolgjiz8WKMPBDbnMvUCSwJJ0A1WHD5TJPLKTfMdPRdsPkbx7J0eIxEyxTw1zW3dK36RoG5XVosfq3sa2KoAAFsr26hazk/TMDHAEGd7beSpxPA4o5jKwFrCb3buF1y5cfGyYtIxnEB+vh+LFJuN1/vPpnfurnw0eJUp41E+OpHQjUfAq8Y7U0+mIYQ39oR2U7Yf8AldVsONPItJTUr1y62GirAXNw5sMu4fFJb8Fvi7SYJJYTUTWHn3AtbMR7OS7cBvqxJnr+M2V44uqaRx4rOK0cyFop8UoHWbPTkHqDqvXA4DKO66mIPnZZajBcCqQSzgNd1bIr90/EmLjsqKB/1Rnb5CxUaqClq2d51Q142e1ov+a0SdnKIGwmt0cyTZV/0fqm/wBkxNhH2ZdD81vHklXrY5/6MjP/ADtX/wBv/dSbhlL+srqz4RrRLRY1TjvMhmaObZQswrq/NZ1Ht1cLLp7ZXswzCT9ZX4h/AAtLMN7Og9+esf8AtXCxe2yD63hx+V1F+Kws+y53kFmy/qx2o6Xs6wdyBh85XuUaeiwSN731D6ZzHbNAOnovOTYq5/hbb91ZTNPIdQ8joGFZuG/6bdzEpez7WubR0zzJyOYgfJKgwyprY45ZRDHSXzcLihrnBcyF8g8FJK53XItIhrZbZaCT1cQE1qa2e3taWSB8TYqdwhEegjuNFpLJ7aPY71XhW0GJbtpmM/8AM1UvYMYOjWnXo9eXLjlv/TpNz+PZzTxRstVOp8nMFy8/iVXgJjfwmScQjTheG/xXMOA4xIdYv/ULq2Ps1XtN5IXuPk4LXHjjj/UqeG0Ffibn1UTW8NoytY42Lkq2lqoYyJaWVh9L/iFqFJi0ZzCKquBa4crBLjrBYe1fvNzBdLl+VnTzLzHfvXDuttVWS2+j7/Fep9oxhxtUU3EHnTj/AEXWo8NpaqijkrcPhZKb5srLJeeY+06bfPifNVl2XmvokvZzCX/8tl9F5ztHRYZg+VjMz53ahhGlvVb4/kY53UTLDTznE81Am6m6sg/yo+aiaqG31FvivRtyAT2URPBzaQuhTUYlyvLTlOw6qjE1sj/A0lT9lmAzENA8yt9VVRUbeFEGmTn0auYJWzPLqiUm/JpsgllLfeZ811MKngbTvjdMwPL72JXM4NC79a8epuss8GR3ddmbyKD1jm/H0US0ea8/QYnNSua0niRc2levgoH1dK2popI6hjhewNiPgs2zH21JtxcVGXDJPNzQuKBoV6HHopIaAMliew8QXuPVcAgZTZMcpfSWKCgbJuFigDRaQLpYGL1jz9li54C6nZ9t6qo8mhUX487+owjrIvPv2K7vaLuxUrernH8lw37KCobhep7M93DHn7Up/JeXXqezw/4U3ze5FdW+iSELKgKxqrUmlEXsCsAVbCrWqqApN0uegRolIcsErukbj+CqPCx6Rj1J/FSUYjeFnopclYyyyeMqJ2TduVFVGymF6mmb1lb+a9u76xy8ZQtzYhRt/wCqCvZHxu9UUIQmooTbq4JJs8Y9UHhcZeXYzVuBsRKRdZhUy+84uHmrMRdmxGqPWVx/FZvdWVbKiJ7WAkaOG6g2ZopWwlrczXF2cbrtADhMaRfujRZ5MPp5DfKWHyKpXHcd0QzGF+Ybcwur+iqe9y5/zR+i6Xo7+JEUCSOQZoz8EAvhDnRucM4s4A7rS2gpmG7WuB9UOpr6Nd80GHLI5jnNY5zWeJwGyrJuFuNHM1rxHPka/wAQvuofoqp9mfOx7ZBGe8wbgdVFjCTZUPcSrnDM02OvkqzG5UQAXVwPCv0rUuiMnDYwXc7mFzRG7ouhg9c7DasPLTkdo70WcvS4zddlnZ7CnzmFtZO57Rtorj2Yw8frqj5hXUNHGyrdVxyB7Xju+V10TqV4c+fKXUeqccrzOIdnHwsMlE8ytG7XbrnUTqiGRwikdE/3l7Od7oYXyMaXOaLgDmuLTwjGaWV9Q3hSh1o5Gixt59V14+W5TyzlxyMntuKM1FQx46OSfi1eGkObCfNYa6CpoZTHNcjk4bFYTIeq9E8uOtNclZUPddzx8ChtaG+PVYs90iVdMuxFVU7iAXhvmQunTSwaZahh/esvLNapBoTQ91C9wItIfgbrdDVzsOknxIXzxgINxI9voVeysq4vq6qQepumjb6ZDis9rObG/wDBaG4iH+OlB/ZIXzSPGcQj/XB3qFoj7SVjSM0bHemisiPoZnon/W0xH7t1U+jwWcd+Fg/abZeNi7VPA78Dx6OutcXaqnNuIJG/tNVHek7MYFUDRkY9NFll7B4ZL9U4t9HLNH2ioX7yR/EWWuPFaWTwPb+69Bz5v/p6zXhTvHxWKXsDWN+qnB9QvTR1jd2SyD0N1e2vfyqDf7wQeGk7G4vEe6Q70NlmkwHG4RrE426FfSGV8v24nqftz/ep2n0KD5Y6mxWHxQyC3koGrrYfGx4t1BX1b2uB/wBZSkedrpEYbLo6FuvViD5azG6hm7nD4q5uPS8yfkCvo0mC4PUbxR3PkskvY7CJfDG0eiDxTceBFnsafVqsbjNMfFGz4aL0s3YGieCWOLT5FYJv/p9oeHUOvyRHPZiNG7qPRytbVUrtpXt+AKhN2ErmA8OW/qFhl7JYtF4WZvQoOneB3/MNP7TEuBE7aSA/guI/B8Xg3gkHoVS6LE494Zfkg75omHYMP7LlmrKMx0U7gx2jCb3XF/SFTGbPFj0IsiTEpZI3MOzhY6qKy30XW7NH/jDP2HfkuUF1OzX98s/Yd+SX0s9vXHdCDuhed2cBmtyPipLVFh879XERg/ErXHh8EYu/M93U7Ls4uWzM7SOMvPkFthwyre27ssIPXdb2vDBZjWtHkp8Rx5qjPDhVPHrKXSu6u2U6uRtHT2gPCcfDl5q9pJXFxtxbitM33eGbdEKoooWMqmzvaH2OazhfVdrE8ZraanY+OWMQu0sIxcLz2IzPhpI+G4tc59rhTidSx5TUzGRx1te4RI9Fh/FnoWVMxFpCcum6vyeSxUEVsksceWM3trp8luJRSyoypg9VK4UVDIjIrLhIuHJBUWIEdlO6YQVll+SXDKusmgpDCpWU9E7BQQygphrealYJ6IIZB0RkHRT9LI1RUQxGUdVJCCOQdU8g09U7JO0XPlusdtYe2wzgFQdUhYy4qNyvi2bu3rka3VIUHVJWdJTS6Xcdyi6VxUEJoElQYIXyuOjRdeFxCpfUTue83Ljcleg7SVmSNlMw795y8xK05GSOFmvO/kvpfF49Tbz8t/ip5ULr01LhWDVIa2J5lky3dleVxKyKmjLBT8TNc5wTp5L3x5mQalWPjLGZirKWEyyWAvZaqiG72stzWjTA0dQV3cAwGbFpg6QGOlabuf18gutheHMxGdzpYQWgBufYNXq4446eFsMLQ2NuwC8nPzzCajthjsQxRUsDYIGhkTBYNCd0rpXXycsrld13mKYcpByqugOspjlpbGgFRcUmOBCjIV1yu4zJ5F0rqGZMFeat6Sui6jdCpo81jdeY7WYK2aI4hSsAkaPpWj3h1XpCUtC0tcLtOhC7cXLcLtLjtjwaTiYRSO+5ZbgVmpIBS0/Bbq0OJb5BaArnl2u4smkroukhYDupgqsbqWyFTBUlzavFqSl8Ugc/oFzGYvW4pOYaFgYweKQ7BdMccqxY9Tfu6qPxC86aAX+nxSXP9waKIw+MeHGKkeoW5r9Trp6RIjRed9iI8OMy/GNHslT7uNX9Y0sn6aX1tM9r8wJte6wSgO+s5q40uIe7isTvWNZpqXErH+sU8n7tlvC9b4rfV18HfXzRljKocGI2DSAXH49Fpa+GpZUZpSMgLMrTYuK8tE6upZXF4a0kWLmFdDCBA6eWad2Qx+C/5r34ZyzVcMsdO5QN9moo46iUh+wa91yPLzWt2hWChMddGJ6poEocRG4nl1WqV5iiInfkttKdl5+Xg35xSZaWIXIFVipe5sUEMuU62eL/AOyi6uxlu+Gtd6PC8f12OkdlRK5AxHFN34a4DyIU4sZhdJw6hjoZOjljLGtSOmokpNc17btcCEiuV21ICUgbqJNzZQnnFMzYPndoxgWuPC53S26VV81yKWM952rz0CrpXcLO73Wi6rDOGDmOaV+r3dSsmKVjaOicPedpbqei9Um7MYz/ABmpjxcdYf8ACBefUr0EoEjSCuJglK6JnFm1ml7zvLyXbGxWee+dGLnmEwvvGS30WmKolIyu73qLpyNuslcXw4fUyNOVzI7g9Fzw3bprTXJBTTA8aiif6sWR+B4PLqaTL+w4hcxjMRgwluIjEJHlrA90bxoR0XYimD6NlS8iNjmhxJNgF6c++Hqs6lY3dmcJd4XTs9Hql3Zai9ytqG/JdOGeGoH0E0cpG4adk5JI4nASzRxk8nPsVj7eSHWOQ7sqz3MUlHq1VO7MSM2xV38K6mIVgoqdrzke97g0Nzdea0ZC7wlp6kG619vJJs6x5/8Ao84b4nL8Aj9AQ/raypk/Bd7hi5HdcfI3TEN/dU/yOROkcaLCcOitalMp/wCo666MLmRANipoWN/YCvdFZc2orKpmIy0lNQifhNBPetoQky5M77XrI6YlJGjWD0aEiXuFr/gFkoK1lRK6nkidT1LdTE/n6FdANPRc87nj7WSM/s2bxXU2UbBzK0hp6KQB6Ll3ya1FbIGgaNV7GBvJRBTusW2i0OUs56qjMgus1xIJAF9E3TUX5z1KOIftFYqKrbWUonY1zQSRZ3kr8yu8pdJqLxIftIzqnMEFyltp1i3MvBdt3Xx632Y2/kvbZ9V4Lti/Njsp6AD8F7Phf9uXLNRxC1LIkXKUQdLK1jeZX1o8jZh1G2R3Fkb3QdB1K6FZV+zxFrbcQjS3JRbliYGt2auTUzl8riqKn3e4knfUlRyIzlGdAsiYFuasiBedBpzWtn1Ria0Bp523+KgwjReo7DPkGMOYwu4ZiLiBsuVS4e2a7n92Nu56r3HZbDo6ajdVZQHy6N/ZC489kwrpg7Dw2Rpa9ocDyIuuJiXZXD6wF0LfZpftM2+S7iiV8bHlzwvivR1lfNcVwGtwx5M0fEi5SMFwua0Dlovrbu8LOAI6FYanC8Oqr+0UkZJ5tFj+C93H83xrJzvFt80DSur2dbaSqPkAvQ1HY6heC6lqZYXdHd4Kij7P1mHcXwTNebhzDqvVj8jDL+ud4643aTekb0DiuHL4V3u0TXipgD2OblYdwuFOLBdpZfTFlikbr1+Ax2waDzLj+K8gN17XBhbB6Ufdv+K0NeRLKpoUFeUoCssllQSYrmlUtFla1VVgKqrH5cPqiNxE78lYs2InLhdYf+kUR4+L6lnoFI7JMFo2jyQ7wlWMsp3KQ3QUN3VR0sLbmxajH3ifwXruZXlcEbmxenP2Q534L1XMqKaaSaKSmzxj1UEwcuY9GkqI+eTOzTSu6vJ/FQaLkDzQTe56kqcI+mj83D80V6Ei3yUU3HvFJRTSQhEHJK6EkD53U4ZpYJRJDo4bg7EKtO6lWL5aTDcQ7zWmmmPiAOhKod2dfvHVMI5XYkfNGZw8L3D0Kze38WaDezsmb6SrAH3WLXFguHQ24hkmcPtHRZM8n+K/5pZ3neR3zWMsc7/W8bjHYEzYm5IY2saOQUfa5Nhv5LkXP2nfNasHt+mKXM/u5jcuPkuP+Pvy6fa1mucCQ54B6HRRFXbZ7PmvR1ELJBrTRytXNmwzDZL8XD8h6tuFceLS3PbmSyx1DC2bhuB6lYX0GFuOuVp8n2XVfgOFPH0cs0J/auskvZsG5gr2u8ntXSTX9YtZBh2De8//AP6KiupcHjp3ezvvLsLPJV8vZ6ubfK2CUeRsSskmFV0WrqJ9hzbYrc3+s2sLYRz2Vggb1KmWmMfSRyM/aaU2vZyctxzqHA6FPgO8lcN1JBnMLgPCVHIeYstYJTBVGMNT5WWuzTu1R4UZ90IMth0ugtaeS08FpOlwkYOjkRQ1z2G7JXtt0cVczEa2LwVcmnXVQdTv6hRMLx7t0G2PHsQbvIx3q1ao+01S0d+Bjv2XELjcNw90pbIr0kXa2w70MrfQ3WuHtZSusHPe39pl15AXUgoR7qLtFRSADjRXPXRaYsTp5PC5p/ZcvntgeSeUDa49EV9JZXR8pJAVeyu6T/ML5g2WVngne30crmYpXxnu1Tj+0Lqj6g2tf/iMKsFY62sYd6FfM48frmHvcN/qFoZ2mqWWzwAjnldZEfRPaYj4ofwXH7UYnDQ4Q98LcszzkYbbLz0XatlxnZM38VRjWN02J0HDzuL2uBAc2ysHmqm72ue8kuJ3KzAC176rbLlyWdfy0WJxGbRENdbs1/e8f7DlyV1uzf8Ae8f7Dlm+lnt60HUoRzKFwd1ZkkPko986kkqzmi4G+i7OKIzdFK7kGWMc9UuOzqFA7y8nALLV0ZnLZJJLuj1Gi0iVh95HFjGhcNVVeXxCXj8MDwtN1lj0utOJQClqHBr80Tu8D0VmEUL62dthaIG5cqj0+HlzcPpwd8q0XKYaAA0bAWUg1KIC6dypWRZRSuhPKiyCN0wSnYIQAcU7pBNFO5TBUU0DJSukmgkHBAcoXCFBPMi6rupIJXUXOuhRcbFcef8A4dOP2SLpXQvkV6jQkhQNJzgxpc7wtFyhcztDVez0BjabPlNvgunHj2ykZyuo8/O9+K4mWsOsj7DyCu7QQiKopqSEaMjtbqVq7LxRNmkme4cXLZjfLqsPaCY/pcuYdWtFj0X1sbrLrHmy9bdLAqGooRUOnjDQ5txYrzlS60oHxK2HHMSylrqgZSLeELHEx9VUZb3vvZdnJ2cFo7UxmcNXLdh2GOxOtOTSJnjk5DyCnhFNLiE3s8Iy07BZ8nJevghipKdsEDQxjfxXm5+eYTUdMMdiGGKlgbDC3Kxv4pkoJUSvkZZXK7r0446O6SV0XWGzuldK6iSqJ57IL1VdQe/LqrsW508yy8fyTEyDXnTLhZZeIjiILXPURIVS56hxLKaGiWdkML5pSQxguSAsgx/Cj/zYHq0pzFtRTyQPeWNkbYkC5XHPZigP/P1A/cC9XDhhZ/tWMrY7P6dwv/Ot+RQe0GEsGtY0+gK4h7J0Z2xKT4sUf6Jw8sT+cS7fXw/rG66M/a2gYbU7Xyu9LBc6fFa6vNgSxnQKUfZVscgcMSY63Ixrs0dJT0YFxHK/qSQtY4cM9VL2cKDDZZ5G58zQdyQV1qeFtFE+CMkXPePVdU1IIP0bBYciuZIcxc4bE3WuXLHrrEwt35Y8QxE0bmMjjD5HC93bWWL9OVfKCE/NRxgj9Jsvs1gusTbakbLXFwYXHdiZ52V0GY9MC3i00YaTa7TquvLIyKJ0z9GNbcheVIu+NvV4H4rv4ybYZIOpAWOXhxlmlxztjL+niRpR6ciX2S/T19DR/J65zLNudMwabeq1zPilo4ImUZhygcSRx0PVdp8fBn7K6VPPHWwCWNpyu0seRXNqqqFkpZdz8psQF0MKDBQMI8JJd8FwSAXFx95zlz48f97GssvDv4ZijcwERuPeiKxYzjbq6obCRlpYT3W33d1K5lgCHMNnW3Cre269cjha6bHvB48Mrg47kO3WyLFcjbVL3jzB3XAilkgN2EkdFJmbiGoqdXe63kuefFjl7bxzsempsVp5pOHDUPz9DpdGMs9rwyVzxaWIZmv52XAoKiM18M0z2tyk6dF3quRstBUmI8TNGQA3VeW8PTKadZnuPO4bj9bQkAkyM6Fetw7H6XEsrAcsp909V5ej7N1L42zYhM2jg6P8ZHkFsfi2G4KzhYRT5prWdPJq5d+T4+ObnM7Hq6qo9nAjhaJap2zfs+ZWeKHhHNI4yTu1c48vILzGEY3iDZnB0RmbI65cRa3xXWrceih+jp2GeodoA3UArhlw3GdcW5lv221lVDQwumnfYD8Vx6KnlxGp9uqwWxNN4ozz8yrIcKnqpm1eMPzEashGwXUtd21gNgsZZTjmp7bnlOEd+61AqhiuB0Xjtu/LejKwYvphFaf+n/Nb7rPXQmroJ6drg0yNsCeS1x3WUK4MtDXfoKGWWsMtPHG17oNrt6XWutyYhWYVTBuWlkZxMgO46Jvw7FJqNtFLXQMp7BpyN1IC0VeHF8VKaJ/DnpBaMu2I6Fe+8mN/rmzYrTxUE1HWUkbYX8YROa3QOBVNW2mp8cqH4rT8SCewilIuGLW2jra2shlxIwshgOZscR8TupRibMTrI56QQU/AldpKTqG3UmU9bXSjtJRUzqWnlDAXOlZGHA+6rMUiFDRQ0dEDD7VMGFw3A5q/FKKSbCoaems6SFzHNvzslV09XieHte+NlPVwyZ2Nve9lJlNTyMeJYbDhlJ7ZROeyWmIzkuJz9VLEIX1uP00PFfFE6mD35Da46KdRHiGLRspp6VtJDcGZ5dfNbkFqMMhx/jhv0LaYMDvNWZSTz7GWlpxQY66jge808sHEDXuvYgq2kv8A0hxQ9I2K0xPPaKObKeE2mLM3K99ljM1VRY3XTR4fLUMmDQC02Giksv8Af4q3GO5WYVUAfSGfLcbkLRQSPixXEaeeQlkZEzC47NWeGCsr6+KsrohBDB9VDe5v1Kr7QcWKop56cd+pYaZ3obapjq6wqVCStq24C+uEjuJLUDh3Ozb7K+pdXYd7LUzVjphLI1ksZHdGborMWp+HhNNSwsJEc0YsByG6n2gBfSQBrSf61GTYbBSdd60eV9fDUukaI8Qjoog3mBdx+K5wxWpbg1VNnZJPTTCPO3Z+u6Kz2VmPVD8UgfLGWN4HdzN89FiYw/oWvywGJslY3LHltYeiswx6+U3XQqq3FKA00k3Bn9q7giAtkcdtVfDUVtNibaWtdFIJIjIwsbbKRyRjGtRhgIuPaL+miMQP/Hqd32aWQ3Ukwv8ADdRZijmYLBUuja+eV5ZGwCwJvYK5ktdTwTz4gyEsjZnAjOt+i5Qa+PBMLqgwuZTyl7wOhO67Ar6Cojmd7Q2SLJeQcgD1WcscdeIu6hQT19QGTVEMLKeRmZpabuHS61ly4uHPZTYt7HRVJno3xGS178M9F1yV5+bGY3w3Emnvj1Xz/tITJi1S4C9pCF75n1rfVeEry99XVGM2L5HfmvR8L/quXN6cRdCgjyRmQ+J23oqG0wzZHk3G62g2aANgF9R5CqZMsWUbu2WAUlRIbiJwB5nRanyObOHN3ZsujTwyviZNVskZDJpxCNPgqjjGgkb45oW+WdAonHaVjh5FapYqd0rnA8QNOXTmpSMZDGGRDvP5dEFQEbPomakbnqtNJTGd+vdYNyqoack2bqeZXWYOBCAwXcdLdSpfCyNlJSGtqYqOn0bu8jkF7UMbFE2JgsxgAC5+A4cKCizP+vl7zz08l0HGwXg5s+3h2wisqBUnFVkr5uUeiQ1ByZcoOOiy0WfLodkw8bgql+oWcvc1xHJQ0uxRrKjC6psjWuOQ2uNl8vqD3Wr6TLNemlb1Fl82k1+ZX1vhW3G7efmihe5wvu4ZSD/pBeJI0XuqNmWjph0ib+S97zxcmkhA0IQoJNVjQq2q1qqpWWHGnZcFrD90D8QtwWDtB3cDqPvFo/FEeWHhHok/wlHRD/AVWWQ6lXUlPLU1EcMDS+R50aqgC4gNF3E2AXqYwzs1hYtY4hUjU82hCLsPw+nw2p4T5uLWOZ3gDo0LorzfZ4vkxWWSRxc7hEknzK9IihMJJoBVznLTTu6ROP4KapxB2XDas/8ARd+SDwHuNVtKM1XCDtnCrH1bfRX0AvWxfEqUdr3iUJpKKEH0QkiBJNJAIKEigZUbppIEgoQoBRIQg7Kqcb5IzeKeSP8AZcVqjxbEYdG1bnjo8XWJCml26B7QV4GrKZ/qxVvxyrOpgpvgCFhO6iVLjCWupBjUZI9pZJGerDcLpxVdPM28FdFrycbFeXUXRtO7QnWLt7L6VwBIikafMFRNJTyu+nooz55V47hj7Th8Vppqyro25aeqka3odQmjbpdoKCkooqd1NFw3SON7FclX1dfV1wjbVSNfw/DlbZUKxm0Ji10IsqhoOiLaoQH5oRzQgaNEX0T2QIjRLKD7oUuiEEOEz7KiYGE7EK1NBTwBbQqBhd1WhJBkdE4e7dQyG+xW5FvxQYtEErZkBHhCg6Fh5IMwT0VpgHIpcIhBlqhZjViGrrrdXAtjZ5lYRuipgLq9nP73j/YcuWF1Ozv98R/sO/JTL0R67mUKKF53dhkrHu8AyhZnzvJ1cSfJb4cLLtZjlHQLdDSwQtsxgPmV2cXGip6qfwtLR1ctkWGAH6WRzz+C6eiSqswo42iwCDRxncLSgoMvscHONp9VdHGyMWYxrR5KaEAgXTSKAunmUUIHdFylZHNA7ppaJ6IBF0aIRRdNJGqAJQlqpAFAA+iaVk7IFdFymiyBZiouNwp25KLx3Vw55vBvD2gi6El8d7DuhJNA/VeRx2t9sryG/VRd0L0OL1XseHyP95wytXj4I3TSxxDd7rL3/F49TtXDlv8AHe7NUZbE6sed7taFxMXfnxKY+dl7NrGwUzYmiwY2y8PVnPWSu6vK78WXbO1zymppU2N0r2sbz5r0mE4L7aWxUr7MH10nRZcBwmXEJssfdZ77z7oXvqWmioKdtPTtDWN583HqVebmmMTDDZ09NFRU7aenaGxt+Z81IlDiokr5Gedyu69GOOgSkSldRuubaV0XULouqJXUS5IlQc5aDc4AKlxuUEkqJQRICBugpXARU81kF+iqL1AyKwWGQ3WDFcTZh8G95neFvTzRXVzKKHiO1f7rOq8nVyyTudPM7NI879F7ODg7Xd9OWeWvD12Hvc6kgdIbuc25+K3Bc+l7sUQ6MC6A6rjyTWV03PR6JgBRQuap2CLBIIQP122XOpncHNSOP0kZ08wugqKilZUWL7tePC9psQtY5fyppjqcPp62USSVD4ZBobC4VP6Cg93FT8Ylr9hkb4a+T0MYKXslRyrz/wBkL048txmpXO4Ss0eD08MzJJK4z5DcNDMuq1VEDayB0L38O5uD0KPY6n/PN+MKfslX/nYvjEplncrvazGRh/QLv/yVP8WlBwGYixxKnt5Arb7JV/5qnPrGUey1Y/XUx/cK19+X6fXEo4WQRNgiddrGluY81xX4RWNNozE9tzu6xXY9nrPt0p+BQYK3rS/Mpjy2Xa3CVwzhtc39Ww+j1D2Kt/y4P767bo60e5TO9HlUvNWN6aI+ki7Tmrn9cck4dXO2gaP/ADAt2H4c8EmuozUHkBJYAKeaq/yjf+4m01ZP9kH/AHVfuyPrja2mpou8MGpWnlxH5iqamqxGFzI6KOljL/C2NtiotZXHw08bPN0l1ppaXgvMsj+JO7Qu5NHQLnlzWeas445efH45XSOp+K483AOSeMcqhlkpomDzAC7xJ6pXJ3WP8q/i/XHHiwSeS3ttXZp92IKmpwKenfxcOqC7LqAdHLvWRl6aKf5OS/XHFpe0M1O7gYnE7T3raruU1TBVNDqeVrweV9VTU00FXHw6qMOHJ3MLgV2BVNETUUT3vjGvdOoTXHy//KecXrw0t3CmF4WDtHiNMcnE4gHJ4WxnbGob9ZSxv9NFi/Ez/h3j2GiVgvLN7adaBp/eUh20aTrh4/iWf8Xk/Dvi9NYI0Xmx2yh50Lvg9S/phTc6J/8AGn+Nyfh3xei0QvOjtjSX1o3j95THa6jP/KyfxKf4/J+LM8XfRdcL+llD/lpvmj+leH/4EyfRyfi9sXeuhcMdqsN/w5x8FL+lOGdJ/kn0cn4dsXaRc9Vxh2pwv/rfwp/0own7cv8ACn08n4dsXYv1Kw+yVE1eyoqpGGGEkxRsHM8ys/8ASbCP8WT+FSHaPCD+vf8AwlJx8uPqHbH9dUkk3T9Vy29osJ/zJ+LSn/SHCD/zg/hKz9XJ+HaOkST0Pqi9xqAucMewk7Vjf4SpfprCv8635J9fJ+G43k3tfkgnW9gTtqOSwfprC/8AOs+RUv0vhf8Ano0+vk/DtG24Ayhoy9LaKtsMTA4NhjaHeIBu6zfpXDjtXRfNP9J4fyrYfmp0zn8NxdHDFEDwYWR33LRa6lYqgYjQkf22H+JHt9GdqyD+JZuGf4u40Rj6VugXhYKh0OJMlDWvImJs7Y6r2EuJ0VPC+V1VE4taSGtdckrwsMmaqgdt9LmXu+HjZu2OHNdujjkhnrW1D4mRF7bZWC17c1z72CtxKo49e63gjFgs8jsrPNfQedow8MiYaudrHRtfex1uRysttTNPijhU1x4VPf6OBuwHouZROBkEdrtHecPRN1TX10j3MdkjadANAFUaKmMZ4o4mhrb3Nkm07mOfNKWk8rcgqZmVUlRlgee63XVRhri1/Cqm52nQkFNivPKag8F7gb8l63snh8tVOa2rbZkWjQfed1XPweggnqGwUffz6lx90L3sUTKeFkMYsxgsvNz8mpqOmMTceareVI7KpxXzsq74xFxUC5NxVbivPa6wnFQL0nOVUri1txuoqZcs8rrPuoCd97PaEpnXF1uQZsRnEFJI47hpK8IdvxXqO0MzmxxxnQzd63PKF5uQar63xcOuLy8t3VLvAV72EWhjH3Gj8F4QgFoHUr3bJGOa1ods0Cy9TgaE0WQAQhOyBt3VrVW0K0bKqYK5naV2XBD96VoXSXN7QxGXB3Eva0RyB5vz8vxQeZ5JSfVqQ1aCNlGXRiMtvZukbPXuqJPqqZuc32J5LNiFU/EMRlqHE5QbAcl0KG9L2Vmk2fUvIB6DZcguuGRt0a3fzKDr9l+9VVTjyYB+K9EFwOy7bSVh8mhd/oqGhCEAsuLOy4PVn7llqXPx92XAqrzLR+KDxd+6AtOG/wBsb+yVm6LqYLTxuzzSO+6B0Uo3cklp9maR3JPmomkmA0s70RVCSmWPae80j4KBtdRAUkIQIo5o1uhAHySQhAkifNPmkgilyUilogSSaSCJ9UlJJBFJSSOqAQkiyCXMJ3UbI1QTG+6aiNkAoGnskncaIFomLI0RsgaLlLVPmgd0c0kfkgaPNIbIQO90JBNAWTyptCkRYIirZB11QUuWiKEkHyQgxYno2IepXOG66WKbR+hXOG6C1q6nZ7+94/2HfkuW3ZdTs/pi8f7DlMvSz29WEI5lC87u05ii6SF3cTuU1EutySzjoUVO6LqGZO+myCV0rqNiVIBAXRdCYGuxUCRqpW8k7IqIBTyqVkxZBHKEZR0UtEXVCDQmALbICEBZFk7ozBArBFkxqhArJ2Roi4QFkJ3SuECSd4TopXSJuFjObxax9qEFB0KF8bKeXsl8BG+iS5+MYkygpi1pvO8d0dPNXDC53UTLLUcjtJWcerbAw3ZF+aj2bh4uJ5yO7Cy/xXJcS5xc43LtSutgVV7LTVJYLzyEBvQBfW6dcNR5d7y29BV1DImmNzvpCL2C5GA4bLUVzuExrnXOd7hdrB/qtGHYfPX1BbGSXO8ch5L2NJSQ0FOIYGgDmebj5rzX/wDHFu/7UqamhoqcQwNAG7jzceqkXJuKrJXz887lduuOOgSokpEqN1zbSuoEpEqN0E7ouoF1lEvWhJzlUXaoLrpIAlRJQSok2QBKgSglVuKsUOcs9ZVx0cJlk1Put5koqaiOlhM0zrNGw6ry1VWSVs/FkOnut6Bevg4bld305cmemgzurpXOmPfO3ksUgOYMdvmUmEiRpb1WmvY39K07G88uZfRmOpp59216SI2yjoAtzdWhYWDvLczwBfJ5Pb1Y+jQhNcmgmkmgEJoVCshCFAIshCoSSkkUESErKSSCtzVU9qvKg4K7NM5apMbqpFpTa1NiTRdWNaotCtagVkrKaR0UEbIspIUUrJgluxQAmm9GmGuwaixAEkcGbk4bE+a8riOC1lA4mSMuj5PbqF7iynmOXKQHNO7XbL1cfycsfFcsuPb5lqCn3ui95V4Dhtbd2QwSHm3b5LmS9jZhrTVkUg6O0Xtw+RhXnywseV1umL9V3pOyWKN2jjf+y5VHszig/wCVPzC6/bh+s9cnF5qxi6h7NYp/lXIHZ/FW/wDJPKfZh+nXJzx8fkncroHAsUH/ACL0jgmJ/wCRlT7Mf065Ofco1W39DYkP+RmS/RWIDehn+Sd8f1OuX4x3KNVr/RlcP+Sn/hUTh9YP+UnH7qvfH9OuTN8UFXmiqhvTT/wqBpagf8vP/CnaGqpPwS0Vpp5/8vL/AAlRMMo/Uyfwq7i+UNEaJ5JP8J/8KMp5sd8k3DyjoiwTsOYd8ktPP5J4TyNErBMlvn8krt6lPB5KwSsE7t6lK46q+DyABfmtFOcsjT0N1n0OxV0Vy4BVNtFgbu5lyqlPLor2N7p021WZzTJLkb7xtdQXU75IoiKdt5ZOfQKxoxBrg57m5b6q+IR07QxupG7laHB7bWRGd8skZMjmXjI1I3VL6JkwEtK/Pc/VndaaqN5iaGjQC5XY7G4NxZDiM7CI2G0bT7x6rOecxm61Jt3ezODjCaAOkF6iXV56eS7KCbpE2C+Zllcrt3kQc6yqc5SedVW4rz5V1kRc5VOcpEqtx5rk2i42F1S431UnOufJVkqwJxVL3Aau2G6k9yxVb/onNB1cF245u6Zy9OBjNY6uxOaYtLWDuxg8mhcskZzqu+6meW+EOSlw6n9lbMYxmJAIX2cfE08NjgtF3sHVwXqBq5YmUVO0g8Ftwtjeq1s0ta+RvheQrWVD/eF1Qpt0Qa2TNduLKwEHYrKwc1dGqL2qwKpqtaUDUZI2TRmOVgex27TsVJAVRyp8DoZPq2vhP3Dp8lzZ8DlaCGVLS37zdV6V3NU5QXj1Q08/jj+BBRYdEblrNVhbQTC1iCelltp4/wBJY/USuN2waN/L/VdymoQH5t0TTF2fpZKeOoMos55Fl103sDCLJXQCaSEAuX2ldlwN4+1I0Lqrjdqzlwpg+1MPyKo8mdFfRQS1NZBTQPLXTPDb9FQRcq2kqnUNXDUR6uidmsdlKPS1OAYnRSWZUNnA52ssj6iupT9LTSW6gLrUna+jqAPaIzG47kbBdWKsoqkAtlY5p5IryrMZiuA+7TzDgtQq6WcAWb6hd6bC6Oqb3oY3Bcup7L0j78HNEfIoM/s8EngfbyUHUD9Sx4Krk7PV0P8AZqrMOjlS5uLUmskBe0c2KCx9PMzdl/RVHTcEeoQ3G3NdllYW+TmrUzE6Sa2YD4FEZLjqhbi2jm1DgPXRRNACLxuv6G6DGorQ+kmZoQCqnRvb4mkIK0k9EIFukU0igSVk7IQRKRGikiyCICLJkIsgVtUAItZPVAk0IN7IGEbaIF7o5IC/PqndIBG6B9EJW0T6oGAjVCB5qgCEI/koD0QkNEwqibVM7KsHZWDUKIqO6Sk5Q/JFH5JJ80IrBix78Y+6sDd1uxY3mZ+wFhbuqLmBdPAxbFof2XfkuYxdTBP72g9D+Sxl6We3quZQk7xFC4PS1WTshM7Lu4FZK3kmmgjbyRZSUgEEQ1PKpgJ2QVhqdlPKnZBXYpgKdkrKCNkaqVk7KqhYospIUEdkKVrphoVEEWU00FeqLOUrI73VBGxSsVPVLVAreaAnZFkCQmhZvpYoeLOKipzb3Va+TzTWT143wHPDGue7ZouV491bT1U85rIi90ju7JfwjyXrpGiSN8Z2e0heXfgFc2QsY1pZfR916Pi3Gb258stYZaJ7e9EeJGdiN12MDoJauRtNC2xGrnW0C10GAVEZY2KcOkPiaR3bL19DQwYdT8GFtidXO5krvyc+OvDlMadJSxUNMIohYjxO6lNztUOdcqtzl8zkzuVd8cdAuVbnILlAlcXTRkqJcldRJTQZKWayiXKDjdWCTnFRvdRTVDUXus02FyguUCVVO+mu6gXIJVbnIBzlRPOyCEyynKxu/mpPe1jXPe4NY3UuK8tieIOr5tNIGeFvXzXq4OHvd1yzy0hiFdJXzZnd2MeBnQLODfRRAc52VgzE/gt9PTASMpybyv1J6BfUxxkmo8uV2zsPD77v3VZQXlxOEu1JddXY21rJ4I4xYNZso4I2+JNPRpUy8S1cfb0sZ1PqtrHDKFgZutbD3Qvj5+3si+6Lqu6Lrmqy6d1VdO6CzMi6rundBO6LqF0XQTundV3RdBO6SjdF1TSSFG6LoBIoSQRKQTKXoirApAqsFMFQWXT0UA5F1USTULp3UEk1C6d0VIKSrundBPRLRRui6JpMG3Mp3P2j81WCjMmzSzM77TvmjO/7bvmoZkZlNmlmd/23fNHFk+275qvMi6u6aW8WQfrHfNHGl/xCqrpXTdNLuNKP1hRx5v8AEKpujMm7+mouE8v2yjjy/a/BU3RmTtf1OsXceTqPkj2iT7v8IVOZLMnfL9OsXcd/2Y/4AkZjziiP7gVWZLMr9mX6dYsMgO8EP8AUbx/5aD+AKOZLMr9mX6dYkRBzo6c/uKJZTHehp/4EZlEvSZ5fp1h8GlO9BT/wqDqeh54dTn91POkX6LUzy/TrHOxjD6GXD5pIqVkMkYzBzF5ej1eXHa2i9Ti0lsLqfNtvxXlIHZWAL6fxrbj5eXlk21zytjhdbc6LFCc0gRUSXDbcipl0c7mujbwpCLEDYleiuLpQwA2udVoZCBsufFNNAQ1xzW5FdSmnbUFrIm/SO0DfNNye2pNtdBQ+3VLIGju7vPQL2UbGRRsiiaGsYLABZcMoG4fTZN5X6vctgXzebk7XUdcYFB7lJyqeVwyvh1kQcblVPdZScVS46rz2ukBcqZHXNlJx0VR21UUiVW91lJxVD3WWpFQleACToBuuJTV/tldKweADuKWP1/Bh9nYe+/xei49HBM5vEia4PvdpX1PjcXjtXm5cv5Hpw3RVz64U3qXt/miNzjTgvIzhvesozaUEA6vB/Be3TzrzTxlo7tjbdR9mt4XfNabaBACmhkMT2bi4QFtSLGu3aFUUM2VzE+C0eHRAa5p8lBa1WBVtVgVU0IUggrcqJn8KGSQ+40u+QWrKCuXj7/Z8Jndzd3R8UGXsrFehmndvLJv5BehiblC5+CwGDCKVhG7Mx9Tquk3ZVFM/jHoq1ZP9Z8FBECYSQgZ2XF7Wf2Kmb1kJ/Bdorg9q3XbRN83FUecI0VMm60ELNJ4lBKmF5beS3MH2SR6FZ8Obed37K6rImO3CCENbV0+kdQ/0Oq6MHaSsisJmNkHksRpm8ioOp3e6UWPQwdp6V+k0Toz1suhFW0NTbhzs9LrxLo3DxBQyAa6j0Qe8loIJwbsY8egXMqOzlHJf6EtPVui85DW1NMbw1Eg8ibhdGn7S10duIGyD8UDl7NOYb09U9p6OWZ9FitIdGiVo+yV2oO1FLJpUROYetlvhrsPqvqpwD0ug8n+laqnNp4pW/tC4V7MXp5PG1t/Wy9VJSRyttmY4FYanAKSQHPTi/UCyI5TZaSbckeoukaKKQ3jcCPIqc3ZhjbmnmkjPIbrHJhOJwX4b2ygddCgsfRPb1HqFS6CVvK/oq/a8QpCeLDI0Dm3UKxmNtNhIGnyLbFBUQRuCoreyupZR4CL9DdS4dNNo17Bf7WiK56S3Pw827ub1BuFnNNI020PqLIilCm6N7d2H4KNx6IEiyeiFAjyR5JoQK2iaYA+SNkCsiyYCAEAEW6ppWQCaALpW1QA/FNBuhAtilpdOyXNAwpB1hbmo80igfJIoRZEJCAAmiubih+naOjVjbutWJ/2s+gWVu6oujXUwX+9YPj+S5bF0sHP/ABWm9T+Sxl6J7eqd4ihL3neqFxepuARZNC6uBWTRbRACoYCmAk0XKmBZArJ2UrJgII2RZSsiyCNkWU7JFBCyLJp2QQsmGqdkWQRsi2qlZJFKyLJnZV59bWKgnZRTFylZUCEWRqgVvNFk7FKxCgLItoixTsUVVMBw7hUXWqRt2FZF875OOq9HHdwJsa+SQRRC7z+Hmk0OfII4xme7YLt0dIykj5OlPicvNI1lU6WmbSQgXzPPid1Tkek991Q9ymWWkxiTnKpzki5QJ1XLe3QyVElRLlG91ZBO6iSkXaKvNdXQkSokpXOY6aIJQO6Rco5krppTuokpFygXK6QyQqpHNALnuAaNSeiHG97mwG56LzmLYl7U4wwEiFuhP2l6OHi71jPLSvFcRdWSGOK7YGnb7XmueNTlbueSW2gW6GH2ePiPsZTsOi+rjjMZqPLllsQximYXON5SPkp4MTJipe43swlYKiUueNdV0ez7b1M7ujLLTCGM97EGjoxWYE3+tSu6NsqMUN8Tf5NAW7AmWhmf9p1ly5P+a6Ye3ZatLPCFlbyWhh7q+Vk9cWIuldC56VJCjdO6mlNO6jdF0EkJXSugkhRumgd0XUbpgoJXSukhUNCV0XQIoQUIhpqITUU7oSQgaEkIJXTBUUwUEkXUbpqBoKV0XQMJqN0XQO6Erougd0XSuhA0JIUDSui6V0DQi6V0DQldF0DUboJUbqhkpXSJSugd1ElK6V1Q7pOOiRSJ0W5ErmY2+2GSD7TgF5lhXex5/wDUGN6yLiU0fFksPj5L6nx5/o8nL7XsjhNPM7M3PGAAzm66oey7rgEC2w5LV7JkN2tOvNSFO6+2i9G3OI0onqZY4AwyPecrOq9t2bwJ1Dmqq1o9o2Yz7IXI7M4KaqqFZKC2GE3bbTMV7RxvcndeL5HNJNR0wx2ea6d1XdLMvnzJ26m9/RUucm51lS9+qzldukge5VPdom5yqcbrKkTdQcVInRVPcrpUHuWOrqRTxOlfs0aea0Pd5ry+OVxqKjgRHuM/Er08HH3yc88tRlha7Ea/PLmLb3cRuAu6wStYW0sWgGhkdZceiL6YXbud104cQYNJmH1avryaeO3dam52054ljIGEnLtdVyOvT04+/wDyCk6eF0EhjeDdp0O6jOzJ7I3zP8lUdJMKHvFSCCSAkmqhphJNQTaApKLVNUCkFFSCBrhdrHXpaeD7co/9/iu7yXm8Wf7V2goYNwHgn5/7KD0waGNYwDRrQ0fJMbIcbyFNUZ5vrXKClL9a4qIQphMJBCqGvPdqf7RSN6MJXoSvN9pzfEYB0hH5lBxCsz/GVpcsz/EVBqw3WV58l14tlycL8UnwXXh8KCaRClZCgiW6KDmA7hWnw25pWRWZ1O07aKt1O4bG62WSI1RGAxvaddlHKB1B8l0MqiWDogzw1VTT2MU8jfjddCn7RV8Ns5bIPxWN0AOo0UDCRsg9DB2phd/aIS09bLoRYnh1SO5KGk9SvGZSNwolguix7z2aKRukjXArPNgtPKCX07HeYC8hHLPDYxzPb8V0KfHq6Ai5Eg80VpqOzFNe8RfGT0KwTYBWxfU1AeOhXVh7TscR7RCWnmeS6MOK4dU6cQNPrZB5F0WJ0pGeB5tzYU2YzJGQJsw8ntXtuDE8AslB+KonwyKQd+Jr787Ko8yzE6eQjOxp82myuzUktrPy3+01bKrs1RyG4YYz90rBL2bnZrTVJ9HIB1FG7VpYR1aVRJTFh0KrkoMUp7/RZwObVQK18RyzwyM9QiL+G5RseilHWwP2eFa1zHbEFBQmrjG08gkYhyNlBUhWcF3LVQLXDkUCTPkkmRqgXJOyaEAlsE0rIFyStopW0SQR/kjnun8lHZA+QQfJGqNkC2TR1SG6Dk4gb1knkbKhqtrDerl/aVTVRYwro4NrjFN6n8lzQujgh/4vS+p/JZvont60bn1QkTZx9ULzvS6dkrBSsiy7uKNkwFKyYCAAUkwE7IEApAITsgEiUzZKyBJKVk7IIAKWidkWQLRJSshBHVIqdkiEEEuanYIsioIKnskQDzQRCdk7BJQLmnZNFkCskp2RlQV20IXPOYyCNgvITYBdUNLnZWi5KvpKKOmc6U96V+5PJeP5OnXC6Kho20bLnvTO8Tv5K17+Scjlne9eDKusge9VOck4qJK410gLlElIlQc6ysUZuqTpA0Kp7io5Sd10kRIuLimNFEWA31QXKiRKiSolyV1NB3SJSJSJTSmSqySfLzQSToFw8ZxPLelpnd733j8l24uK53TGWUxV4xivEJpaY2YPG4c1xybC4Sb3Sbn4rfh1GJGuqqnuwM2v7xX1cMJjNR5MstlTRNgYKicanwNKyVFU6aQm9hdFbVmpmNtIxsFmW45rARe51WukxF1IXmKMHPvdYbpXVg0TVD5pnTP8TtwF6LCWZMPZ94krzUTDJLHGB4jZevjYI2NY0aNFl5+e/wCunbj9rm7BWsdZUtNlK4XzrHqX5wjMqcwRmWeqrsyMyqzIzKdUXZkZlTmTzKdRbmRmVOYp5ir1F2ZGdU5kZk6i7MjMqcyMydTa7MjMqg5IuU6i7MjMqcyMydRdmSzKrMjMnUXZk8yozJ5k6quzIzKnMjMnUXZkZlTmRmTqLsyMypzeaMynUX5kZlRnRnTqNGZGZUZ0Z06i/MjMqM6M6dRfmSzBU50s6dRfmRmVOdGdTqq7MnmVGcpZ060X5kZlRnRnTrRfmSzKjOjOnUaMyWZUcRLieadRfmSLln4h6pcRWYovLlEuVJkPVRMhV6i/MlmVPEKWda6i/Moueqc5Sc8lWRK5OPu7kLfMlU0jYoYgMzcx1OqMdf8ATxA8mqyloIRGZJgXOcAQDyX0+LxhHm5JutLNt7hbMPw59fUiJgszd7ugWWhwieqnDaMkMvq47Aeq9vQUcVDTiGPf3nc3FcubnmE1ExxXQxMp4GwxNDY2jQBBTJUSV8vLLd3XbGaIlQc6yZdZVPOqy6RF77lVOclI7oqS4km6KkXXKV1EFRc+ysA9ypkdopOPNZppAxjnuNmtFyuklt0jDjFaKWmLWu+kk0A6LztNFmJe5WVMz6+sLzqL2aOgWkMyNDbbL6vFx9MXl5Mt0gE0w1O3K4XeOKJHh9RddTEZMssDmbhpI+a574XZCGau5FXTRVxMQnia0AWG4JVG6DEo36TDI7ryWxr2vF2ODh5FcJ0Zbo4IYXMN2OIKiu/dF1zYcQkYLSNDx1WyKrgl8L8rvsuVRdmTBUSFG5CDS0qV1nY5WB6C4JhVtcCpgoCZ2WFxXAhj4na2n+5GXn5f7rr17u7HE06vday5+Hd/tbXP/wAKPIPwH8kHe5koG6SBuqMz/rHeqSN3u9UIlMFO6iE1RIrzHaM3xe32YmhemuvK4+b43MOjWj8FBzXLI/c+q1O5rI/coN2F7PPUrrQjurl4YPoSfvLqx+FBNBQhQKySkdkkUvRBCfJLdAkrJ7IREbIsnZGyCNgVExg7qeiEFJiHJQcxwOy2QsD6qBh2fI1pHkSu9U4BSCS0M7oSToHagqNR5Qh3MKFh0XfqOz1dFqxrZm9WHVcuWmdE4iaJ8Z82qGlEc0sBBime0+RW2HHK6G13h481l4QIu0qBYRuFR6CDtSHaVEJHmNVvgxnDpxYuDCeui8cWkJFoO4VHvmiF4uyRpBSlooZGnNG149LrwrJZYrcKV7fQrZDjVdBa0gePNEdmowGhnveDITzAsubN2Wy3NPUPaOh1WiHtOTYVETh5jVboccoZ9BKGnz0QedkwnFKe+RzZRyWd09ZCbT0zxboF7dkkUgu14cPVN0MTx3mhwQ08VFicWztPIhaY6iJ3vBeinwWhqB3oWgnyXNn7IwG/Ae9h5WN0GG7XdEGFrvL0UJuz2IwG0MwePNZXMxGl0lpnHzaiNnspt3XfNQdBKPduszMWyGzw5p8wtcOJxvtcA+hQVbaEEI0W5tTSybktPmLp8GnlPdew/ggwJLa/DyNWlw/FZ3UkzdrOQUqJ3Vjo5G+KN3wCrJA3uPVAikE9CEbIDzTaNQlZNpF1Rw59Z5P2iotTl+sd6lIIJBdDBP74pfU/kVgGy34J/fFL6n8is0nt633neqE+Z9ULg9Lq2TCiN1MELs4hMBCd0DATSCYCACdvNMNTyoEjmpWSsgWiE0IFqlqpE2SugSEEpXQCiSeSfokikC7mpXS1QgaVkJoBLROyLeSgV07o0HJOyoLqcbDIbNGnVEcRe7yWsANFmiy8/LyzGN44kyNsTdN+ZSe+ybjZZ3u1XzeTO5V3xxDn3VLim5yrc6647dNEXKJKCVBxAGqQMlVONyne6CtaCUDa91IlQcVoRcdVG6ZUUQblO6V1ElIqRKje5sFEm5WDEq72dpiiIM7tP2QumGFyuozbqKsXxMwg09Obyu8Th7oXn8pF+ZPNaHQyAZrFxO5UWRufqGmw8l9XjwmM1Hkzy3Sgha+ZgkvlJ8I3KuxmsEhZSwd2Ng1AUJHcA2BBlI1I91Zw0E3K6ubLlKLLZG2DP9L3m+RWjg4Y79ZKxTel05limAuo2mwq+tY8eoWynp8EZZxrQT5hTs1MdqMDoXOkNRIO63w+a7oVbazDGtAZWxgDlZHt+G/51vyK83JMsq7YTS1NUe34d/nG/wAJR7fh3+bb/CVxvHXSZReldVe34d/nG/IqXtdByro1Lx5HaLE1UKqjvpWw/EqfGp3eGrgP7yz9dO0SRdNpjd4Zoj6OCkInHwlp9HBPrq9ohdO6nwnjdpUS0jknSpuFdCpmqYYSRI8hwFy0DksjsYp7/Rxvf6mys4sqnaOindcr9NHlSX9XJ/pl3+S/9av05HeOpdK65n6Zd/kv/Wl+mD/k/wD1p9GX4veOpdF1y/0wR/yX/rR+mj/kz/Gn0Z/h9kdS6Lrl/pp3+TP8aP00f8mf40+jP8PsjqXRdcv9NH/Jn+NH6aP+Td/En0Z/h9kdS6Lrl/pnrRu/iR+mv/2N/wDEn0Z/h9kdS6Lrl/pr/wDY3/xKP6bH+Tf/ABJ9Gf4fZHWui65P6bH+Tk/iT/Tjf8nJ/En0Z/h9kda6Lrk/pwf5OT+JH6cH+Tk/iT6M/wATvHWuldcr9OD/ACcn8SP04P8AJyfxJ9Gf4fZHWui65P6cH+Tk/iS/Tg/ycn8Sn0Z/i/ZHWui65P6cH+Tf/El+nB/k3fxJ/j5/ifZHXui65H6d/wD2N38SX6bPKjd/En0Z/h9kde6My5H6bf8A5P8A9SX6bf8A5P8A9Sv+Pn+H2R18yMy5H6bfypB/Eo/pyT/Kj+JPoz/F+yOzdIlcc45J/lR80hjjr96l+RT/AB8/w+yOxdBKy0lfDWXEfdcN2ndaLrneO4+1mUoJSuhJTquxdK6EK6NhCSDoNdk0bO6Q7zrMDnHyF1vw3C3VdpprtgGw5uXfgiihblijawDoFzz5JiPIDs9W19cyZ0OWJo982XcpuzsLe9VSmQj3G6Bdm6Fm/Jzs1HOwooo4YhHE0MYOQUtkkiVxtt9rIRKiSglQcVGyc7RUucm83VDna2CNEdSk4CyZKg4qqg42VZNynIdVWTZbiUnu5LzuO1uYikiPO7yOvRdmdzsrsjrOI0PRcyLDY4XGad5kfe5Xt+NjN7rlyXw1dmjRUdPJDW0zZHSu1dzA6LdW9n2TMM2GScRo1yE6hc8RRPN2EtPS6tifVUrw6N7tNiCvoPNpzHMfE8slYWOG4I2WCvDWSsyPzgsubcjfZeybi9LVN4WKQNdy4gFnBZa7svFURmow2VszN7DcIzpwqKnlhYGTAst38wdstT62WZw4k8kuUWbnOy51VHXUbTG4uLOdxsroQSxrjuQFUWl7nnvFMJNbzKlZVReyDYpWQiLI6iaHwPJHQrZDiLXENmYW+Y2XOCldB3YyyQXY4EKeUgrhNc5urXEHyWuHEp2WEgEg/FUdMCym1xBVEFZBMNXBjuhWgtG4Nx5KDNm42Lxt91gusWB97H8Yd0f/AP1Fa8O79ZPINrhqxdnj/wAWxd3V/wDMoO/dA3UAU76FUZxzTSCaIEIQgY1IHmvJYwc2M1TvvAfgvWt8Y9V43EXZsTqz/wBUoMj1lO5Wl+yyO3KDrYf/AGVvqV0meELnUP8AZmLoM2QSTQjlsoFyQg9EIoST6JckCvoEIRZEJCaRQJCaVkDa57HsfGbPY4Oabc114e0Mt2+207JQD4mDULkIUrUesgxahqdIqowv+y8WWt/FdH3mMqGn0Oi8O5rXeIXUoZZqd+annkjPk5Za29LLheG1Ny+nfA/q02WGbs04i9HVtkH2X7qqDtDXM0nbHUNG9xYrbFjmHTACWOSld1GoVRxqjCq6nH0tM4jq3ULEWNBtqD0Oi9zTVEL254q2ORnm5OSlgqmkyQRyN62SDwbozyUC1y9FjuF01DCyamDm5n2Lb3Gy4u60jLYqLmg7tC1ZQVExhRFLXPjIMcj2HyK1w4vXQfrBIPvLOY1EsIQdqDtM5tvaICPNuq6VPj1HKPrQ09HaLyJBCiQDuFR9AZURytBa9rh6qXDjf7ouvnzXPZYskey3QrXDi9fDo2bOOjgg9ZPhdLPcOiafULm1PZakkuY2Fh6tKop+0z26TQn1auhT9oaKXeQMceoshpw5uzVRD9RUE25OWKWixOnPehzgc2r3MVTDKLska743VnDjkI7o+CGnz9mIzwGz2yx+q1xY0XaOLH+RFl7CXDIJfE0H1C5tV2apJb/RNF+bTYoactmIwOHfYW+bTdWZqObaVuv2wq5uyroyeBM9t+TtVhlwjEqe+UNlA6IadF2GRPF2AerXLPJhsjblr/g4Lm8epp3fSwyxkcwFphxmRpA4t/J4REnUs7d2XHUKrK4HVpB8wt8eLNd9ZE0jqwqdRiVK2kleGlrrWaCL3QeQf4z6oagm5J6lNqolyXQwT+96T1P5LByW/Ax/xem+P5KVZ7et953qhB3KF53d1gAnlCQUguzkA1Ta1DVIAoANCeidimGoEhTACdggrQrMieRBUiytyJZUFRCVircqCEFWVGRTISQRyJZFNCKhlSyqSSBWRbzTSIQMIJAURqmAUEc/krY2mQ+STY8y1MYGtsF5+XlmEdMcUmgNFgkTbVBNlTJJ0Xzs87fLtIJJFS5yTnKtzlwtbgc5QJQ4qslIpudYKBN0nG6QVD2SJQSoE2VDJUCboJUSbLQCUiUi5RJQBKi5yROi0UNE6scXOu2IbnquuGFyrNunOqaoRNMbHN4zhpf3VxBTEyufLUx3OrjfVeyd2Xwh7y+Rk7nHf6RL+iuCH/l5v+4vpcfHMY82eW3jXVHBJbAS/wC8dlW+sqpGZXSZW9Giy9x/RbBf8vL/ANwoHZbBf8tJ/wBwrrHN4Skppq2obT0rDJK48uXmV7rDey9BRUwbVxtqZzq4u2HouhQ4dR4a1zaKBsd93cz8VoVRi/QeE/8A46D5I/QWEf8A46H5Lai6LGD9C4SP/t0HyUhhGFDbD4P4VrshFYavAMKqqcxeyshJ2fGLELl/0Jov8/P/AAhejS1QeeHYyhH/ADtR/CFP+h2Hf5up+QXeQg4H9DsO/wA1UfIIHY7DOdRUfgu+qze4UHGHY7C+c9R+CX9DcJ/xqj8F3RdOyG3CHY3CR+uqfmpN7I4WNqiqHo5duyENuQ3svh7dqus/jWmSlho6AxxZngEd55uVtVFay9I79oKahtjla3JbK3UW25KuHBKCto58tM0VLNRl5q54u5gXDpO1ToaqQsprSC7WEHR3qrpN1z8SphQ1PDfFZpFxdRoKWOuLwCIzewvsSliFZV4pOJKxzAW3DWsFrBV07nUpALncEuzEdCg6rezT3D+1NB+KX9GKn3aiM+pXZo5hIwC+4uFquqrzDuzeIDbI70eqX4DiTf1Lz+y4FeuumHEIm3izhWINGtLUfw3VTqOrZvT1A/8ALK9znd1KfFf9oobeBMMw3ErfWMqshw8TyPVpX0EyvO5v6qmQg7sYf3UNvBcQD9cE84/xmr2jo4TvTxH1aFUaald4qSL+FDbyJcP8VvzSuf8AFb81640FC7eji+SgcMoHf8nGg8r3iPrG/NKz+UjfmvUnCMPP/KM+aX6Fw4/8qPgUNvMd/wC2PmjvfbHzXpf0Fhv+Af4kfoLDf8B38SDzNn/bCPpPtD5r036Bwz/Bf/Gj9AYZ/hP/AI0NvM2k07w+aO99ofNel/QGGf4T/wCNSj7PYe+QMjieSerlLdHt5fvfbCWv2gvc1WFYJhdCZKinaSBpd2pK8FV1bJJnOghbGwnQLGGff0tli3X7SV3faSpmulIzDRbJYqeCHiPb6DqV0ZZNftIueqqMl9QAL8uihnKC+/mlfzCpLiUIq2/mFtosIrcQyOiiIhcbcQ7BGDYacRqM8hLaePxH7XkF7RsjWRtjjAaxosGjkEHIb2ejo6vi07nSANtY9VM0lSNeCfmukZRyKDITsVzz45l5bmWnKMMt7FhHqoOBa4NdoXbDqtNRJI+pbwJIiC23evusLRLJi49oYGCNpy66Erl9Df2LbG+yMp6K0lwJ2S73VZ+le6vKVpoaN1XUtYdI26uP8lQWPf3ASXO0AXo8Nom0VG2IEuedXuPMrzc//wCcbmW2loDQGtFmt0ACkEAJr5u7fNaNNJC1EBUCmSoOKrUJxVT3KT3Kl7t1VRe6ypAO5Te1z5GOz2A3bbdBNkUiVW4puKqc7VVScbKmR6bjqsNRLmdka4t6lpXo48LlWMrpblc92yzVMjTIGZtt0NzW/tEp9Ss7oG5i7XMed19Hj4+rz5ZbcsSySTuOc63sByXXZLVRUDahpzjIHWK4cJtIPUhdmGptgvCPKJw/Behy20QVlNWNLZI8rgBe+yvihnpncbD6gsI5A6FcShzPcQPsBUuqKmifIYpHMcHm4OxRHrhilLWDg4zS8GQ6Cdg0Pqs9bgUjI+NSubPAdnM10XGpsfhmbw6+Kx+23ZdWjmlpbT4VUhzDq6Mm7T8EHOMbmnKQQQllIXoW1OHYr3KlnsVWdL+6SsdfhU9Nq5uaP3Xt1BRHJISVzonA9VW5hVVEjRRupG43UOaCQKm0qtqkNFBOwK00c0rJCBIcljcFZQVeBw4C7m/RUacOrWU7QyRpF3l1xzWfsu4P9um5vlH8/wDVZ5nCOnkeeTSFRhAdHRhwJGYk6IPWXSuuTFiE0dg4B481throZzlsWPOwVRbzTSQiGhCEETE2Rzbkgg6EFeLn1qJje54jvzXt2HvheF3LndXu/NUVv2WZze96rU4X06oio6qVvGip5JIwfEG6XUG2ljeyNgLdLLa3bRZYK/hWbURuaRpqF0I5Kacdxw+aCF0Kx1OfdIVZa5u7SoBLyRdF0UJJ8kDZQG6SaVlUB8kk0IEhFuiECTQl1UUWR/NCEBcpFO4SQRLGHl8lograunFoah4b9k6hUoQ2tmqZqn655IvfLfQFUhNHJAkuafLZCoiiw3T/AAT5aoiBaCNVAxBWoRWcxkbJFrui0Isgy2ckRfkFpLQoGMW0QVNe9hBY9zD5Fa4cWroLZZi8dHBZuGVFzXNQd2DtTM02miJ/ZK6NP2jo5frDkP3hZePv5aoQfQoa6nmF45gR63VuSOQe478F84aSw3a5zT5Gy1RYpWweCcuHR2qD3jqGCTcW9Rdc6q7OUk9/o2E/IriU/amoisJY837JXTg7VUsn1vdP3hZEYKjsiACYTIw8uYXNm7PYgwFrZA5vQr2sGKU0wHDl35A3Wjixyc2u6XQfLqvDKijF525b6BZQLL1PboltbTxgAMEd9OpXmFQLoYF/fFN8fyXPXQwP++Kb4/ks30ser953qhM+J3qhcHd1wFIBRumCuzmm1TFlWPJSugndSBVYcndEWcuSG394g+irBUgUFqLjqq7kiybWgCyCd0kIQLXkkVK6iUEUkyldAJWTQUCyjdKwTSsEUrKQOiSECKTQSbBTsD6qyOOw81x5eSYRvHHaUbAApk2RsFVI/kF8vkzuV274wpJOioc5D3aqp7lytbgc5QJQSokqKCQoEoKRWoBRJQSkSqAlQJQSok2QBKiSkSokqyAJSJ67JE9VooqN1S7M8ERD8V1wwuVZuWjoqN1U/M8WiH4rtMaGtDGANaNgFGNha0AWAGw6KVivpcfHMY8+WW0ra7p2UQeqkF1ckgmoIugki6WqNUAkRom1p5pkII2SU7JFqCFwi6eXogNQK6WZTyhLIOSCN0aIypOBQTBQk3ZNFFkibIuOqiUAT0UZe9A5vldSsUWvcddFEc+Q5QXdGk/gvC0ga6eMv8Jlu70Xr5q+JkFUMnEOV2V4PhNtivGRktgF91pGmWdvtMjYmd0E2JPJX0tJLXMa95ayF3Q6lcyO2c+hXoMDaThcXW5I+aiuhTfQuYBsBb4LqtOYAhcwMPNdCkfePLzCKsyoyqdk7IivKiysyoylBXZQe1XWSyoMbgo2K1vjCpLEFNlIAqZaEtkCARZF0IGoBrW3sLfFSOiiSgaLqN0XQPUmwWWuxyPB+5C0S1LhrfZquqqgUdBNVO90WaOpXkqaiqsRqc2Vz3yG+ilm/CxDE8Tq8UlzzuNuTb6BZoKd0jttF1qjDPY5nQyZS5m6ImNjBcdANyrjJPSW7KNjKaLM/QAarl1EzqiXO7Ro8LeinWVRqH5W6RjYLOtMne6EkKKYWvDaB+IVHDbcRjWR/QKmmpZayobBALuO56DqV6+jpWUVOIIuXid1KC2KNkELYYWhrG7AKQceikG6IsopX5rPic/Bw2d7fFlyj4rTlBWDHW5cIlt9poRXLw8ltG7XVr2nfbULvY7S8OilmB70Za4H4heap3H2aYDd1gF6DGasvwqoaebAPjcII0Z43FBOwa4fFWPYW77LNhBzSzkbBrGrpQ0xqagRX7t7uPks5XrNrPK7CaW7jUyDQaMXXCi1oaGsaLNaLBTAXwfkcl5M3pxmokE0gmuUUJEoKgStEBKg4pucqXvVaRc5VONzom83UNlVBKrcU3FVuKqk4qlxUnuVE8rY2F7tgumGPapaqqpuG0gHvHZc8lJ7zI8vJ32UTdfV4ePrHkzySa6xU84VFyi67ubBLQzMmc6Nudp1Fjsq54KpzWgRvAG4C6zCRsrmlVHLpWzsOsbm3HRQxJjiC62+67O6DGxw1aD6oPKC5dlAJXVwwOhcQ0PYSfFyXUEDAdI2j4J8IkWtooLGyCYZahrXdHLXRVNXR92CUTU5OsUmv/wsAiPPZAdJDPEWPDQXWdfmFRfitRCaocKB0TXgEtJ5+SzXsLOjcB1KWOgmpp3NOml7Lc9vfPRBiLGu8JBVL4Oey3mJp923oq3Qvb4XZh0KDDlLeSLrS618pGU+ardFblZBBqsld4W8mhV5S3W6jclxVVnxSUtphEN3la4YxDBHGPdbqsUp9oxSOMasjFyugTckoC6upBesh9T+SostGH610fkCVUdQc00juUwjNCaEkATZrz0aT+C8Kw9weZK9tUnLS1DuYicfwXiGfVt9ECk8Jsvf9l8RpnYFTU0boy+NpEjTvdfP5T9GqoJ5IX5onuYeoKK+p1GH0FY0iaFoJ5hcWr7Gxm76KYtPIArkYd2hrIgBIRI3z3XoKTtBTSWDyYneaI89PQ4xhp70ZkZ1soxYsActRGWO55gvdRVrZmbtkb81TU4Vh1c08SINcfJB5Vr6ecXYRr0Q6ldbuEFbavsY9l30M5HQXXImhxfDjaaFz2jmAoLHNe3RzSldKHGI3HJO3KfNa2ilqG5mvAJ80GVC0Po3gXYQ4KhzXsPeYUCQldCAsiyEIEiyOaaBJJ20QoEjYJhJUCEfmhFJCZRZArGyN0+fohArc0eSNUXRBawSPknzshAjdFrpnmkPRAtii3wCdkC10EeeyCE+aEECxp3CiYhy0ViCgzuiPJQc0jdalEoMRukdVrcwO3CrMWmiClj3MN2ktPUGy2RYnWw2yTlw6O1WYxEJZSOSDTiFdNXtZxmtzNFrhcojvLafCT5LFe5VAujgX99U/ofyK5y6OBf31Teh/IqX01Hqved6oQ7xFC8z0OtZMAoCmLLs4gaJ3FkkW1VEgmkAnYogCmN7JNapgIEmLlMNClZBFGvVO6EEbeaSkUkEDukVMhQIQJFymgopIQhAbIOuyDsrImEandYzzmM3Vk3RGy2p3Vp0RsFB7rL5PLydq9OM0T32VD3Ie+6pc5cLW4HOVZKZKiTZIoJsFW59rpuKgtBg3F0iUXUSVQEqJKRKRKAJUCUHVRJVgCVEnqk52XVaqGhdVHiSC0Q/9S7YYdqzctChonVT87xaIH5rshoa0NaLNGwQ0NY0NboBsByTv5L6PHxzF5s8tmE+ajqmurmdk0gSna+6BhACLJgIGmAiyFYGkmkgRUSp2SIQQ1CFKyVlAkIKEBp0SIA9EXSJ0QP0QEI5IpEBKwUrJEIgQ3xA+aLIRXhsVhNPitXCbhpfnb0IK5kwA2XqO1NPne2drTnboSOYXkpZLnU2srGVbtBpudF6zDWCKkijtq1q85RU5fKJZPC03A6ld2GZ4OayK6llZCSx4VUMgewdVYFFdDldNpCpiku2ynmQW6KJUc3mjOgA4k2LCPO6aiXEpXQScG2tfVUub0CsJVbiiKiolScVEoIoBukmgRukpaosgjZI6BTsnEzPMxvUorm9oJGBtJSvcGt0c6/Mldv2ePBKJ1RFo0MHe5vcei8hjTKjGMffT0jC4sNhbZo6ro1mI1FRSw0cz2PbTjKXN94hZ1taySOMsjnvPecbklcivq+M7hRaRN3PUqyvrLkwwnT3nLBoF0nhzICwshNCASTXRwfCXYlNmcCymZ4nfa8gg63ZiDh4dJMR35X6HnYLr5BqeqGxiOMRxtDWNFgApBpUqo5Uw1WtbopZVFVBuizYrDxcLnitd7hdo9FvDeqz1OpB6IPKYd35mtLSMurwQjFp3Or2xtlJi0zNG1wvR5G75Bf0SEMTtXRt+SCnCIZI6dzi2zpTf/Rejo4PZ4tfG/Vx6LNh8QfaRw7o0A6roc1835nPr/WO/Hj/AGmFIJBML5btTTSQSrEJxVZKZKrcVpqIvcqXuU3lUk3RoiVElMmygStCLiq3Gyk4ql7lqTaIvcNzsuVVvkqJL/q27DqtMtQDM6Bt7gXJVZGi+lwcWvNcOTL+RmDXdFIMPNWhqsaxexwZ+EkYSNgtYjUsllUYMhG4TBIW7ICFE07TqEGZruqsDgdFIwKJjI21QTBUhqq9W7hTaboJZCdlz66sgglEDo+MW6uHILoBxBXl3nPNJITq5xVR3GU0NRJHJEA0XBAubfitbqjLMIpmZSdj1XGoJ3MiLWnVpzBdXE5GyUnHZuLPag1ZQdeRSylV0D+NCb+6QQtIaorO+JsjS140WOaGaHWNxfGOR3C6haCoGO2yDnxRsnbfiHN0sovgdGdRp1Wx9M15zC7XdQk0SMOV/eadLqjg4fd89RN52C3gnms2HCOnqKilqHcNznZmk7FdF9M4C4GdvUIKLrXhgvXA9GFZS2x/krKWpFJMZHMLgW5dFUdkoUIaiCdt4369Dup2tuqgQhNEZ8QNsNqz/wBIrxjdGNHkvX4u7Lg1W77oH4ryI8LfRBVN4FnYLvHqr5/CqI/rG+oRXWhiHIKwsIOoTh2V1roiqKeaB14ZXN8uS6tL2iqIrCcZx1C5xjB2VZYQoPYUePU0wGWUxu6FdVtUydlpGtkafivm5b8PRaKevqqU/RSkjoVR7OrwLC69pvG1jz0XCrOxVTBd9FNcdLp0naXLYVUNvvBd2jxiGYAwzj0JUHjHnFMNdlqInEDmFfDjUMvdlYAed9CvdmoinblqImvHWy59Z2YwvEAXRERvPRB53h0lQLxvAceSrkoZWag5grazsbiFES+kkMjVzPasSoH5aiF4A52QWua9ps5pCSvhxqnmAEjRm9NVo4VLUd5jwCeV0VhQtMtDIw3bqFnc18Z7zCEoSSLg7JoFbQaIsjbbZF0QrI335po2QJHomRoUtt0UeSNEIGlkQkEIT5oEdd0H0Tsl5KACCg9ElQAI2RyQEUvxQU+SQ5BAJDdOyOSIR281GyZ05pHnqgVvNKyfRMII20RkTTCCuSNojcedly9nFdac2gefJcq2qAXQwH+94PR35LnroYF/e8P7LvyS+mo9S7xFCH+IoXmeh2QpBQupBdnE0xulZSaFRIKYGiiApBESATCiCpAFA0BMN80+GOqAs3mouA5KeQBRsLoIJFWGyibIIJFMqJQJFkIRQhCkxtzc7LOWUxm6smzjbzKsSCHGwXy+bluVejHHROdYKh77lOR6oc5eXboHOVZKC5QJSNGSoEoJUbqoEiUFRJVBdRJQSoEqhkqJKRKi4rUgCVEnTVIlaqChdUuEkwIiG3muuGFyrNy0dDQuqTxJBlhHzcuwBZoDdGjYBMAAADQDYJL6PHxzF5sstgNKkEBC6uZhMBJMX5oGQeRsmG+aYGiYCAATSTVBZKykhBHWyBm52sgnXdPkqBCLIUEUJpIEbKJUioHdQIhFk+Sg4kBBJF0uSXNFTuokoUboh3KLpXuhFU1TQ9tnNBHmuRU4NRzd7ggO6gLsyC4VRaiOKMJhZ4WnRTbRgbXXVLFEsCDHFBkVwHkrLJeiKI9CrQqgpg3QWhCiDYIzFA7C+6FG6LoGokJAuI1Fk+SCtwVZCuOqrIREEwAnZCAQnZIkNaXOOgFyikQq/bYKSa9QXMFjY5b2K8/imNSZ8lMcpB0KsocFmrIPa8TrTHGTpGTd7vhyUE5Kx8znYbgMTnPnP005Hed8eQXHqi+hL6UPDnMOUuG11266sZh0Bp8Nj4AfoX++fivLvN3G5uQdSVqJaj6JE9UwkVpkBymDdVrdhWHvxKrEDLtYNXv6BQXYThT8Tnu67Kdvjf18gvZRxRwxNhhaGRM2AShhjp4G08Iyxs2A5qeUKKEC/RTAaphgte6KrFlIXTyjkjZQAFjqFRUDRXXJVcveFlRnDbqbYi9wY3coaLm3NdKjg4LeI7xu28guHNyTDHbphN1dHE2KNsTdm/mpgIAsmvz+eVzy3Xpk0kE0gmkSgqBKkSoErSxFxVTnKTiqXlVpF7lWSm4qJK1FRcVAlDioONlZBF7lkmqGRua1zgHv2CnUTNijdJIbNC8zJUyT1ntD+vdHQL2/H4u13XLky09PA2Orp35mNDmnI8jfyXPDnNe+GT6yI2PmORU8PqslVMy/dlja63mP/lUVkv8Axdp+3CCfgV9OTUeW3bQzVXAaKEIvEx3UArQ1oRCa1BarMqeVFU5VIMVmQJ5UFeTqlwxdXWStqgqyDojhN6KyyLXQVcEX3Xk6iMw1UsR5ONvRexylc3EsKbWnixHhzD5FEcOmdkc70K2SVUJw7IJWl/DygX5qBwivaCOG030uHKqLBKxjrujFlUdjBD9FJfyAXS0XMpKOohsbaLpRtfbUWUUxZOyeUosbWKgja6i5inbonr0VHOraOnqm2nZqNnDQhc0UFRBc0dY+3Ry9EWg7gFLht5NAQecOI1UJyVdOHge+0K2OuppBo+x6FdwwgjVoPqFjmwmkmJzxAE826K7GOzX95h16gq+GtqYO648RnR26xzYFLGb0lQR0a4rOKqroyGVcRI2zBVHo4MQpptHExv6OWmxIvu3kQvPRzw1I7rhfod1dHJUUzhwZCB0OoRGvHjlwOoHVzR+K8psAu5i9cZ8MdFIzK4yA3HNcO6oqn2Cqh+ub6qyfkoU2s7UHZh2V3NVQ7FWohpWRZNQRLQeSgYxyVqEVnLCFEXYbtJaeoWlRcwFUXUuL1lMRaTO3o5dml7SRSECZpjd1C846MjZRLeoQfQ6TFGvaDFUNkHQlapX0lU3LVQNN+dl8yY50Ts0b3NPkV06XH6uCzXniNHVB6Ou7H4dWtL6Z3Dcei83WdlcVoHE05MjR0Xcou0FLKQC4xPXagxBzm914kag+etxCton5aiJ7T+C2w4vTTgCQNv5L280WH1zctTA0E87ari1/YekqAX0j8p6IOSaemnGaJ7QTy2WeSimYdBceahV9nMWw03ZmewfFZWYrVUpy1DHNA6i4QXOa5mjmlRWqDFaWpbZ4F+oVppYZ9YXg3+BUGFC0S0csZ2Wctc095tkAhCW6B7eqVkwhEK1t0WT5pfFAIRZCikjmml/JUHPRHJCECtohFkIhI2TUTbqgROnojySR5oCxCACgBNArJpjzQgqqT/VnrlkWC6dZ/Z3fBc3kgQXQwL+9of2XfksK34F/e8P7LvyUvpqPUOPeKEO8RQuDu7FlMDZAspCy7ORhMWSFlIAIh2TsmCBumLIG23NTJ8rJC3VPRAXCd1G4SLvK6CdwokqvP5FGc2vZAyVEkpFxPupXPRA0iEXTKBWSumgC5Ut0a2Gi5VoCQFhZPZfN5+btdR6cMdAnRUveiR6oe9eO11J71WSglQKiglRJSJUSVQEpEpEpErQC5RJSJUSUDJUSUrqJKoCVElBI5rVRUZnPEkBEY2H2l248LlWcstChozO7iTAiEHQc3LsiwAAFgNgocgALAbDomF9Hj45jHmyy2d0+eiBZMeS6uZa9FIIuUXQNNR1UggmCndRspAKoLoTsmgVkWTQqqssLpB0CstZVtJ4jugU8xQSsLJBqQcndAiFEqRJUSoEVEpm6SCJUSpFRKgEI5JXCKaRTSRAmopoqL7Koq1wUbIK1FwVpAUCEFVlEjRWEKJCCFk2osjZBO6RJQEIAHRF0kC6CSSEIDVRNr2UyolBEpFM6IQRVNXf2KfLvlV9kiwPa5jvC4WPoiPC4eWy4rTiQ9wvvqt1bWySTTtaS1rRZljbXquXV08lJWSxah8bjYqxtZE7WeN+cjUt5qolPJI6OB0riSQd1k5E9SpzTmdxNrNGgHRQOyqEkiyCqAaar2/Z+jbR4Sx5H0s/ef6cl42nhM00UQ1Mjw1fRC0MAYNA1oAUWEEFA3UgoqOo3TzeadhfVTyga3aVBEE8lJI93mgOI5oB40uDrzCqIVu5QW325pbpZEaSAzT/dbqSuluVGKMRRBo3OpUwvifL5bllp6uPHUAUgkFJeKRuhMoUSVuIRKrcU3FVPctNIucqnFNzrqtxVUnFQJQSoOK1EJxVUhvoE3uSjbc3K78WFyqZZaczHY3fo8FvuuBPouCNhZeylibJG5kguxwsQuFU4FNE/NSyNcw7NduF9bjw6zTyZ3dY2VsVNUB817FmW4CUlZHVVglizBrY8guNypyYJVv8ArA34FWU2DVEZ5Lbnp1af6pjRsGhaWCwWWngmjsCtrWlGjAUgEAJ2QLRFk7J2QRsiylZMNQVlqA2yssnlQV2RZWZUrII2Rl81KxUr+SITRZOydkWCBWRlCAnp1QQLEZVOyLIKsqdgrCFEsQINBUXsvzUstkWQZ3MsqpWNkZkkaCFsLb81RKxw2CI4tTg7Cc8LshWQuqqTnxGjkV23utus8wa7cLQ49VVsqqcNa0teDcgrGuhijWhkRDWh1zqOa56qVTPuEqX+0BE26dGPp/giOxDzVqri2U0EueiPVJBUDCEtymikhNGiBW5pW8k0WUFboxyVZaRstCLKjMQDuFbDUz07gYpXDyupZQeSiY+iDrUvaOZgtURh46rt0OOU81uHLw3dCV4stIUbWN+ao+oQ4iXNs7LI3qFVVUOGYg0iWJrSedrL57T4hV0pvHKSOhXapO0wIDapnxCC+v7CxvJfRSfC68/VYNi2Gv1a5zQva0WLQStHBqLeRK6Irg5uWZge3yF0HzWHGZ4DkqGvA6OFwt8dfSVI74A82r19RhmD4mSCxrZPLRcDEOwbhd9HJfyCDEaSKUZoZGu9NCqJKWRh2WSow/FcMdZzHFo6hSgxt8XdnYf3ggsLXN0LSErrZHXUlSB7t+ikaNkgzROa4eRUGFJXPpZGnQXVRa5ps4EIBKyEIgRbohHJFI73CAhCBFA1RyQdtUCO6iRon/JI6HzsgSLf7I5ItoiGNfJMJKVkAknbVAQZ63SnPqFz7LoV5tAP2lz7IBb8B/viP9l35Lnro4D/AHvH+w5S+mo9O7xFCHeIoXB3duyaL67IuuzkAT0Ugi2ibQb3QSAum1pvuhSCIQac26mjRK4QMhCiX8lIElAXRlumE9kEcqj5WUiVHZAiFFMlKxKelAF1IBICykvn/I5//MdsMP7T2Cqe9N77LM9y8FrvA9+qqc5DnKslRTJUC5BKgTqtBkqJKRKRVASkSkSokqhkqBKCVElJEBKiSkXLXQ0RmPEmBEY2H2l2wwuVS3QoaIzHizC0YOg+0usOQAAA2AUb6AAWA2CkNF9Hj45jHmyy2AE0JrqwQ6qSEIgupBIDVTDUCUgnlCOSoaldQCYIQSumo3TCBpHZFihw7qAAFilZMCyZVEU0JXQMpFK5QFAlE2CmVBwUELqL/CfRSSdo0oK2SAsGid+iTRmbcaBMBFMIT2QgSCU0ieqCJKjdSKSikokKVkWKqKyFE7qwhRICCshFlOw6pFQQvbknc9E7J2VEUDdOyBrsoEnZCFVCVk7phERLdNVAjorSokIK9UwpWRZByscwduIRmeHSpYPg8dF4mVpjeWuaWuBsWnkvpY0t5Lk47gkeJRmop25apo1HJ6M14obDzUiFbNEYp+G5paWixB5Kty0hckkIVHW7NxNlxqHNtG1z7L2Tjd1188pqmSmnbLE8tcOY6L1FL2gjaGCsacrhpK0fmpVjtKQKrhmhnYHwSNkaehUyD0ssqErCyaduqCIPmVK6RtyCY2QF7LVSszDOduSzRsM0gjaN9z0XRsG2a0WA0Xj+VzdMdR248d+TQEJr4m916DCaQTWogJUHFBKre5VYi9ypc65UnG6qc5WNE4qsuTcVUfVagZKg9yZNgqbl77BdMMd1LdBrTI7yCvt5KTGBosjLqvq8PHMY8ueW0TqLJWVmVGVehyUlqMqsLSiyCOVGVSQEUsqVlNFkEQmEIQNCAhA7aJWTulZAItqgpWRDsgoTQJNKyEAiyQ05poGmEkIJWukelkA2TuCgjZItKsslY9UVSfO6iSr1BzQfVEZ5IopRZwseoXPqKKVlzE7iN6c11Cy6gWlpVR5PES76NrgQddCNViK7PaY3q6UfcJXGK1ErPL4lZRfXE+Sqm8SuoB33IjrxeFT9VCPwhTUoBujmjmmLIEn6pdU1FFkDZJCoEJ8kIEgIR5oBJNCgLKBZdWAfJd3BMGiq8PklqgWmU2jN/CBzQebcwhQIIXSr8Pnw6oMVSO6fA8bOCylgJV2M7btN2uIPULoUuNVlMQM+dvQlZHRfBQLCEV6al7Q0s1uOzI/rsu5SYixzQYJw4fZJXzst6qccz4fq3ub6FVH0/wBrjlblqYwQfK4WCs7O4ZiILmAMd5LyNJ2gqoLCQ52rt0faCln8ZMTut7IOdiPYeoiJfSvuOVlw5YMSw51pGONvJfR6bEbgGORsjfVaHTUtS3JURDXqEHzWDHHN7s4/iC6EdVSVDRc5b9NQvT13ZPDq1uaIBjj0Xma/sVWUzi+mJsPslQKSiY/WNwP7JWd9M9v+6wOGI0DyHsdotEGOC2WdoP7QQMgtOoSutrZ6ScAtOUn4hD6MEZmWN/slBjSurHQPZ5+oVRBB1FkAdkjsglIoEhOyja/oge6BoiyfJEFum6aLI3QCEIKDLXfVN8ysBW7EPq4h5lYeWpQC6GBf3tH+wVz10MC/vaP9gqX01Hp3eIoQ7xFC870O2DqptbfVRDFMCy7uKwAIKiCmEBYpgeaYTAuiBFkwE7C2yBAW5poyhGgQMWHJIk/BF0iUAoEplxOwUbX3QK+qkiwHqheP5HNqajtx4b8mk94AScbLO96+Zbt6A991S5yHOVZKiglRJRdQJVimSokpFRK1EMlRJSJSJVASokoJUSVZAEqBKRJK5eKYmIG8CA3lO7hyXbj47nWMspHTpqmhNe2ComDT05X6XXoi2wBFsvK21l8vAu27r33JXew6rxSnpWyUs7Zo9uG/Wy+jhhMY8+WW3sgpLhUfaNrncPEIHQPv4mi7V3IZoJ2B0EzHg9CujKSWoTIIKW5RBcqY2UVMBEAJCYJQFIKwO2idkgFMBAgNEZVJoUwFRWGlMKxQO6BpEXRsgOvyQCCn8EIIckaJkJWUAkbIKRQIkKBKkVEohFROxUlHqoqDLhgTQ3VuqEUJpJhAKJ1UkigVkZU7ov5IFZIqWawUSUEbXRkAFzumNUnX5IK8oRbVPXolZQLmhBRZUJM7IsmggmBdIhGqKlZSygDVV5iEg5zjq3RBZYKJsmAnl6oiGnJJTsLaKJagSNtQVKwRZB5vtXhzjJHiELC5lssgHLzXmyzOLs1C+kkAtLXAOadwdiuTVdm6CYudA58D3bZT3bqs6eJ4b/sqDzZdHE8NrqB5bI0mLk9uoK5bgeWqqDNZXwzObGWbtJvZZrdU9tlRvgnkheHwSOjf1aV3aLtJK2zKxgePtt3Xl2yEBWskuoPf0tXT1jc1PK1x5t5j4K4gheCjJaRJE9zHjZzSu7h/aJ7csVeAQNBK0beqmmnoEjpqpRuZKwSROEkbtiFNrc8jW9Ss5XU2s8tVLFw4sx0c7U+StTdq5JfB5+Tvk9eM1ApBIKS4RqhIlMqDjoqkRe5UPcpvcqHFWNk5yrcUyVW4rQCVAlPkqpHWC3IIvdyVsLMoud1GnizkvdsNvNaQF9H4/D/a8/Jl+IphBCYC9zgVgmAnZMBELKkWKdkkFRbZKyutdVkEFFIIsiyfNEFkZU07IqNkZVKyECtolYFSStrsgVglZTSsgiiyeVO1kEbIspJgIK8t+SdiArEiLqIgN1MRA+/ZRIQqJOjLdnhwUEEIQO6d1D0TRT3Stqj4poiJCg4Ky5UTukR5ftP/AHpC3pCFxzuuv2kObGXD7MTQuQ7dbiM0viWnD23L1lk8ZW3DvA71QdJgsFJJg7qkiF8EIRbVRT/mhCSBoSTQGyEeqSBpHomkoABNIJqo14ZRSYhWRwMHcvmkd0C9lUyR0ULGRtF75I2XtdcLstiFNTOdRzARySm7ZT73kV6SSljdJeRgcbWGZZqxmmip8RozFURnI7QBw1aV5mu7PVVMSacieMchobL07HvZUuhmcAAziZzsR5eisa6OYEskDgNLg7FRp8/d3HFsgLXjk4WSsHDReyqqOOoLo6qBsjeTwLFeYxShZh9dwYS4sLA6zuRV2ljEWBQdH0VqCtbRmLSEiLrSRdQMY5ICCqnpjeKVw8iutS9pZWWbUNzDqFxnRlQsRsEHt6PHKWWxZLw3eq7MGIOc0G4kHUL5cBY3GhWymxGqpj9HKSOhVH0iVtDWtyTxtueo1XGxHsZRVTS6ndlK5NL2nsA2pb8V26TFoJgDDPl8ig8lX9kK+idmizEdWrmGSuo32ka7TovqbMRNgHsDh1ChPTYbiDfpY25jztYoPnMGNhwyzAfvBaxNBO3ukA9F3sS7FQTXfTuA8ivMVvZuuonkszAeWyC18IOyqfE5u2qwe0VlM7LIwuA5rRDicT9H6FCpWN9QmtDZYpW6EFBhYfDoiKEKbonN81A6HXRRT5pEaBF9UfkiBCXNMoMlftGOeqwlbMQ8cfosRQAXRwH+9ov2XfkudzXRwH+9Y/2HKX01Hp0JcyhcHd3722TuoWUgF2cUhqpBRGid0Fg22TCrBKkCgndNQG6d76IGUiiwHNIlAEhIuPRK+qRd1KAukATrfQJN75v7qmvNz80wmnXDHYSJsgmyqkevk5ZW3b0yaRkkVDnIe5VFyyoJ1USUiUiVrSglRJQSokrUiAlRJTJUSUCJSJQVBxWpAEqJKRJK5WLYo2AGGE3kPiPRduPjud1GMstDFMUEDTDAQZDu4clwm9494948yqnOJcXE3JSvdfT4+OYTUeTLLbbGdMrhcdVqoKgwOdTvJEcnhN7WK5bHyM8JKuLy4jiOuV0sZ29cDJh2GvdWPhmYW93rdedilkidxIpHRnfum1lTxHvaGume5o2aTcBF1mRbXcpO09bCMkuWZn3hY/Ndij7R0M9mvBgf97ZeLVjSCFqJt9FjeJ7Ohe17fulXgkbr5xBVVFLJngmcw9AdF36HtbIyzK+IOb9tg1Q29UFIBUUdbS18YdSzNf1F9QtNrGxUUagaJgm3mkmqJBMJBSA0QCeXVACRI5IGLAoDsxPRK6BchA9EiiyCEESVG56KRSQJQcp2USNVBFRU7KJsgiVG6kVEqCLdk0hsmihASTQCSaSAAQWgpFxCLoDKEvgglSBQRuQNVElTJujKiq7lRIuri0BVkWREEW0TPogIFZBCaEEbIsndJArJ7ITsigbppJoEUlJQc4A80Q7IshF9UDSOidkW1QIlr2lj2hzTuHC642IdmKSru+lPs8p5btK7eXoiyJp87xHBq3D3HjxEs5PbqCucV9VPeYWvAc07gi642I9mKKtu+A+zy+XhKu2dPBjVMEhdDEcDrcOeTJE50f22i4K57hdU0sZM5vPRXMla7c2WO1kwg7FBX1FDJmp393mw7FewwjE4MQLTGckoPejO4XzpkjmkardTVDmTMmjJa9hGo5rOc3jWsb5fUjukiNwfGx495oKkvzueOsq9kvgkIQVhSJVb3JvKokcq1EXuuVUSm4qslWKCVAlBKi42WoIvdYKtjTK+3JJxzusFqijEbfNezg4u18uWeWomLNaB0RdBRZfUk1NPNaY80wgBMBVC5pp2QAiDkkFKwTACCKWW6nYJ2CCrKjKFYQoFuiKjZACdkiEAkmiyAA6p2QEWQIhK6nYIIQRRoQgosgVk0tk+SAQok2KkHXUCI0SUkvgqEQkpKDnNHOyAQi99kIhXTUdEXQSJSG6SBuEg8nj7r47UeQaPwXMdut+Lm+M1Z+/b8FgduVuMsb/EVvw4dw+qwP8AEV0aH6lqDot2TSan5qIEfFNKyAQhFkUJJhJAIR5IIQCEJIiSEkfyQMtDhY/hyXpcAx25bRV7xfaOYnfyK80EiA7Qi4Uqvo88LZouHM27CPmFheH0VM2GnYDlFy5wuCVycDx/hltFiD7sOkUp5eRXpjoCHG7HDlzWbF2zxu40AJ0J3b0XmO0lFUR1ntRBdC4Btx7vquyYpaKV0z2Nka6XSQG2Vp6jyWszxTSOgkYO+2+Rw8Q6hIrwXnySK6WN4W3Dp2PifmgmN2tO7fL0XNWkJBT6JKoCllB5KSEFRiUHNIV6LIMybXOYbteWnyVzmA8lAxpRspsaq6Y2L87fNdem7SRSWbO3J5ry7gQdVFQfQ6bEmusYpgfK62+2h4tK0W6r5jHNJC7NHIWldKm7Q1MVmzN4g8t0HsarDqCsF8jbney4Nd2Qiec0JGvIq2kxyknABdkd0K6cVSbXZIHDorB4iqwGvonnh5rfgsoq6qnOWaMm3Oy+ktqGvFpGj5LNU4ZRVguWAE82qo8VDiUMgs7QrSHxSDcELoVvZNr+9Ab/AIFcKpweuonnLmsoNxgY4XaVW6neNtVzm1tRAbTMOnMLZBijX6XHxQMgtPeBSBuVtbNFK3vAJGlifqx1ig42In6Zn7KxlbcSidFVhjjfu6LEUByXRwD+9mfsOXOOgXRwHTFY/wBhyl9NR6Y7lCOZQvO9DvIuUXTBC7uJpqJLWi7nWUmkEXaQURIIslqpC+10AgZifJM6c0syBoJSumCOeyCKiW5jrspE3OmgSLr6Ljy8kwjeGOzvbQbIukq3utsvkcmdyu69UmhI/kFnkem9ypc7Vc2g5ygSglRJWooJUSglK6qESokpkqJWgXSKCVBzlYBzlW4oc62pW6goS/6eoFm+6zr6rvx4XJjLLSqnw91TETI50bXCwI3Xn8S7LVlM4yxf1hnVu/yXuAEwLL6HHhMfTzZZbfKpInNJDmljuhFrKIDW77r6dW4dQ17ctVTtJ5OGhXnMR7Hubd9BKJG/4b9CPiuu3KvIl55IuVsqaGamkLJ4XRuHULNwzyVEi85LjdOOY/HzVYvqFFw1uqNbZblXsIDCdNVzg4hTbJ1KDbdF+pWdsunVTzgi6C+KSSnkEsEjo3jYtK9NhXbBwLYcTjuNhM3+a8mHaIuE0bfV4ZIqmMSU7xIw8xyU18xw7E6vDJuJSSlovqw6tK9xg3aGlxQCKQiGp+yTofRRXXTzeSiRlKfkine/Mo1vsmAjVAjsp2sFAguICsKCCRKlbVIiyCKCmkUEblIpnRRJQIqJCmolQQKSkolQVs1b8VJQbcaW5qR1RTSKLW5o0QMWRojbZJAFJM3S1QFgkhBFggaVyo3PQqQBRUS2+6DtZSKCBZEVpBSISIQCWiRukLoJKJTAKCgEJZSRoho11NyipBNFkFRAjVAAQqqPLW4QLeqlukNEBY/BFrplK6IaQBBTCEAQllUiEIFysdWncHZcrEOzlBXXc1ns8nVmx+C6qE2aeDxDsxiFJd0bRPEObdx8Fx3sdGcrgWuG4IX1UFZazDaKvH9Zpw4/aboVds6fMgSu/geEyVzyNGxt1e87K+o7NxxY7FRUs/ED25iCNWDzXXlb+j6Cd7NKdl4ohtmdsSuXJlqaaxnl36JwdRQlpu3LYLQsWDAjCKS+/DBW1fD5P+69c9BRcbBMlVSO0XNqK3vVLnapvN1U4qtESonZBSVCOyzyv1srJX5RYbqNPFxHZnDuhd+LDtWcrqLYIcozOGpVyd7BLdfXwwmMeXK7KyaQGqkujBBSCQRfVBIJqIcpA3QOyR0TCDsgjdO6AE7IFclFrp2RZArJOZcKdkWCCqxCNVMhRsgNx0Ra43QhAAaplRTugDZL4JhFrlBHVNO3VFkECEAKRHVR2QNCRSIQSCThdR1TBUCtZRcFNIqiCSna6RFtkRFNviHqkmzxj1QeKrnZsRqj/wBUrK7Yq6oN6md3WRx/FUP2K1GWN25XUovqGLmOXUoh9EweSo3t2QgDRM7qIXNNJNFCW6LIAKAtZBCaLIhWQhFkUkJpckQI+aPNLVQF1IKOyaqgi4tYLu4Jjz6TLS1ri+m9yTmwrhJmxFjspR9GytezMCHRu1HMFVTU8LnGR41A1dfw26LyeB40/DpBDUEyUbjY33jW7tJjMbo20dBKHh4vJI3a3RRXIxesNbWueD9GzusH81iRsl0VgaXqmlbREPmhGiQQM7pJpKgukUJEIA2KrcwHYaqfkokoih0ZCgdFpUS0FFZ7X3V9PVVFObxTOA6HVIxDkkWlqDr0naKRlm1Ed/Nq7FNi1JOBleA7psvH680sut9iqPoUc9xdrwQreJHIMsjQfVeCgxCqpiMktx0dqurS9o2g2nYWnqNkHeqcGo6sXDA0/dXBr+yIuTAbnyXWp8RgqADFJr5FbWVLwNwQoPAT4VX0jyBmICrZWywuyyscLc19I4kUwyyNBHmuRjmH0EWHyVLmZSNABzKDxNVUe0y8TysqDtsrJi10hyCzeiqIQBW/Av72j/YKwFdDBP72h/ZKl9LPb0/MoSd4ihed6HeJCAEW1U/Jd3FRO4EgDknFGLBxNlYIo73I1UjbYDRA09EkBA0k0kDSIJ0ujVMnKLLnyZ9JtrGbR0GgQElFzrL5HLyXO7enHGSG99lS96T3KlzlxrZuddVkoJUCVqB3USUrpKqLpFBSJVQkiUXUHOV0BzlWXW1KCeq3YbSNmtPLqweEdV348LldMZZaPD6EvtPUCzfdYefmV073OyN/JC+jhhMY8+WVoUuSjdRzErowTnhrgL94qdj1UcovfmphRFc0Uc7DHPE2Rh+0Lrh13ZKnnu+jkMLvsnVq9DZMKj5xX4FX0DiZYHOYPfZqFzXAcjr0X1vYW3HRc2uwHDcQBMtMI5D78ehWts6fMyEWXqqvsVO27qKdsg5MfoVwqvC66jdaoppGDra4+au0YrkJh5QQokEILmv81NrrrMpBxCDW0HfkpAkODmktcNiOSyteeqsbIivYYD2rLC2lxLvN2bL09V7Bha8B7CHMOocNivkYII1XcwHtFNhUghlJlpHHUHdqivoSAFVBUR1MLZqdwfG4XBCndFSJ7+iMx2ChHcEne6kXaoGldIlJAyUrov1SKBEgqBsFLyUSFBG5QpWAGiV78kESFEqaiQoIgILUA6nRO6CJbfmkdPNSJSRQhCLIEboTslZAJdLp36pHU25Ip6FCWySIZKh3s17i3RMEm90iUAkQmle6gRS15KSFREX5oUkkA4gAJABG6DclRTCaB5oQATACSdkQAJWRqAbbobf3igRCVlOyEUrWCE0iiGiyV0XKAQUiL80+SASz5GucfC0EkoO6wY7Uey4NO4Gxf3QVR5F2LujxZ9VGTnLtXdV0sUxg4nTQRNZlZHr6leap6eWrlyxNLuZIGy3wC0kUTSCM4b+KxnjL5JfL6RQtyUFO3pGFeoR92NregATcV8Pk/wCq9c9E82CzSOuVZI9Z3uXNuIucqyUykiokqLnZQmbAXWZ73SPs34Lphjupbo2NdNJb5lbrBrQ0bBQhjELLDxHcqZX1uDimMebPLaLjYeEn0TG19QmD0QvS5I36IBtunaySAzBNKyeyBhSCipA2QTCErpjZAITCOaA+KEk0ABonbRARdBEhIt6KSEFeU9ErK8DRQc0jVBWkpJFBFO6aVkUwUXSTsiEdfVGiVkWQF1EplFkEdUWTKaBEFR1CkUBBWd0xqmQi+iCBGqVrEnoFLW6jIcscp6MJRK8K7UuPVx/NQeNCptP0YPVHNaZrGxrTK0OPdvqvRQwQSsaYyBpbRYo6hgAbJEwt6gaq0QgfSUUpB5sOyI1OhfHyuOqglT4mY3cOqjIO1yNFt4cFSM0TgCgxpKyWCSI6t06qCAQiyEUbJfFCewQBGyEuqEQItdO10kAlonZLl5oCyXLdO2qLIFr5o15pnf0SRRyt+aA0DUfgjn1TKgEkI81UAPyTSQihF0bpc0D6o9EG+qSASPNM6lI6oiJSt8kykdkCANhogbo/JMC6KLaaoRbVMCxQRLQd1EssrD6JboiktskQtCRYCis7SWm7SWnqFtp8Yq4NC7O0dVlcwqLgVR6Km7QwvAEt43eeyj2jqG1OEtdC/M3iAmxXnSLhLUMyhxy9L6IMp3KVhdTduon8FBH4Lfgn96xeh/JYei3YH/e0f7LvyUvpY9M7xFCHeIoXneh3GF1gHG5VgKjsbqTQDqu7ifNOyNkByAsjVF0XKBo1SuSpAXUoL2CrJu5SeeQUCV8z5PL2uo9PHjoE2VT3JvcqHvXidQ96qc5BKiSrAXUSUXSVUXSQktASJQToq3uWkDnKsm6CSVzp55qypFDQjM46OcOS7cfHc6xllo555qypbQUIL3vNnOHJespoBS08VODcRttfqVRg+FQ4VTFsfend45OZWsr6OOExmo82WWxeyAUrotdbZBPRIXUg1MICxsm1CGoJD1QhNVAjlZJJrwXWtsgsDQFJxuMps5vQ6qCADdE0wVnZ7Cq7WSm4b/tRmy8/XdiJ2gvoJ2yt+xJofmvYhSBtqrs0+T1uH1lC8sqqd8Z6kaLIvscrWTxlk0bJWHdrxdebxTsbSVN5KF5gk+wdWn/RVNPBDRSa5a8RwqswyTJVQOYOTxqD8Vi9ERex/LkrWu+SyBysa+yq7d7A8bmwiYEXkp3eOPp5he/pqiGupmz0zw6Nw5bhfJ2PBsupguMVGEVOaIl8Lj34/wDRRdvpLW2Fk7Kqjq4a+lbUUzw5jt7btPmrNeaimUk7IsqIG9+gTUrCyidECKiUykgSiVLRRcoFdIlBukgAdUigblBCgSLIuE7IpWshF9UAoGkmkUCSsnr0QUCG6EXPRCgCFWSArLoPoggCCEhopWSPkgSEadUIoCEXRfzQFk7aIvoi9+aAsEWCEWQNF0kIBCChAIRyS5oBLkmEkAmldPQogSsmFTVVMVHA6ec2aNhfVxRVuV3TRcbtLFJUU9PR07c0srz3VgrcSfWML5Z308fuxxmxK5THOdUsFIJnTX7hDiXAqpXYqBB2eoPYqUibEZhZ7gPBdc/D6F8GJ0cExBe54eR05rswYVHgsX6Rxp2eZ+rYr3JKw4LM+vx81MgALWlwAGw2CxyXWNXD29q3whRe6yA7uD0VMrtV8HL29kRkcqHFSLlWVloFJChK7K1WCmaTWwV1LDlGdw1Oyqgi4slz4RqtrtdBsvpfG4v7XDky/hXRcKKLlfQecgMp5qV9EI0QJCZCEACjZFkAoBCLoQAcRzVgfcKuyASguBumAoAqQUErIASzJ5lQ7JJ3SQOyWgskST5KTQgYvyCHNuBcXt5qQCdkFZjBF7W+Kqewhafile+iDKNNE+Stkj5hVgcigjZFj1UtErII6ov5FSSQKyFJR5oANStqpXKEEbIspJEaboI2USFZ8UlBWqas5aOpd0id+S0ZVlxPu4ZWO/6RViPENP0TfRA3Q36to8kc1pk02Pcx2ZrrFRKSDoRV7ZG8OqYHtPOysNKbCWgl290lcy6timfE4OY4hB1KfFHMPDrIyOVytTqeGobngcL9FgbWxVLclU0DldR9lqITno5C9vS6C+SF8Z74UFOnxZpPCq2WO2q0vpYpxnp3j0QY0HUJyRSRGzx8VEIAmyEIQCEAckH8UB80I9UvzUQ0kJhUL1QjqghAbaougBCBHT1ST5b6osijkhB2QUQIA0RyQijzult8UFCAUdU9UbIiJ5pck7eSXPZActEA6osnZFHNM8kk/wAkBzQlbVO/VEI21QmeSVkUKJaDyUkIKTGeRUC1aConVBz3+IqPIqTtz6lRQBGi3YH/AHrH+y78lhvyW/A/71j/AGXfkpfS4+3o+ZQnzKF53d30A2SBTC7uQJN0XRdFkEroSCkAEQ2tTccrdN0s3JVudcrzfI5OuOnXjx3QSq3uTcVS9y+TfL1QnvVLjdNxVZKkUEqJKd0lQJFCFQki6yCVU5y1IlD36qG6RXOkmlr6oUNFck+N45Beji47lWMstHUTz1lQKHD25nuNnPGw+K9NhOFw4TAGNIfM4fSSefknhmHxYbTCKIDOR338yVrsvo4YTGajz5ZbNIi6Sei2wWS51NlKwUSUIHoNt0AFMAbphQKyYRdCBoTtYJKoLoacuu6jlNxqpAdUDzXKkCogaqQAQNO6WikEAgXQFKyqIysjniMVRE2SM7hwuvJ4z2LBDqjCjfmYXH8l7CyNRtug+Oyxvie6ORhY9psWkahQX1LGsApcaiu5rYalvhlaLX9V88xTCarCqkw1UZH2XjZwVZZGOsr2O5rLsVNrkV28IxefCajiwnNGT34zs4L6HQV9PiVM2opngtI1bzafNfJmvsuhhWKT4XUieA3BPfYdnBFfUVGx6rPhuIwYpSCopnX5PZzYVp+NigRSIARbzSOyKiXDZK6aRUCJUDdSJSRCOyiFIqBHmoov3jqhK1imgiQi6dktEC5ppbIuindGqNkX0QNI2SukUDvqkSgkAalGigEwbpbJZlQGxKANEBNArC97IACEje6gDa+6XJMBNFRCLdEEXUgLbohAaaoT0QCikjVSsolAIQE0AhCRVAolSCRvzURG6YNwg7JDRUMC715DHK51XWvawngw6epXq535KaZ43DCvCveGQTE7pBPC6CXFq3hB2WJussvJoXt3VWEYBShlFHG+a1rjUnzJXlsEmfS9nqh7XZRM+zvgsctc98ApS7u5i7YX+atRdjFXLWyceokL3O2F9APJbeybLy1Mh5NDQuE15dTP11a6wXo+yTD7C95/WSfgF5+e6wrfH7emJsAqJDqVY5yzyHvFfFr2Ik3SQksqFknkHeLtGgXWp5s264uPVHAw1+U96Q5V34cO+WmcrqMlB2hMWJPE2tNIbfsr1bHMe0PY4OY7UEL5gPNeg7PY2aV4pal14HeFx3avtTGSajyXLb1zlEqWhbcG7TqHDmoWWmSzckwUsqYCBZlIFKyYQNI26pqB3QPMAnoVCwvqmBY+SCdkwogp36IJA6qQKq5qQKC26ACoNOqsBQACaMwTugiCphRTQTTUBZS+KB28lK2m2qQJTBQBFwq3Rg8ldfTYqKDK5haUlpeGnS+qqdH0QVIQQQkgChFz0TQJCaECSTQUCypWUgmghfqqZ4mzwSQyXyPGU2WogEKtzb6ckHl6js25v9lqgejXj+a5k1BV05PGgNhzbqF6yqgnIPAfr0K4FRVVUUhZPmafMaKsuSfQhJXzOc8E6XUZTS5Wuhe+5HeY9ux9VUVqXoo3RdA/VXQVcsBBa426KhAQdVtVSVrck8bWuPNRNNUUhz0kpe0a5Vzd1fT1ksBtfMzog6lPi8cv0VWwNd5haHUccrM9O4eiwf1WubqA2RVZKuidmicXsHJBpfG6M2eCFBaKfF4Jxw6lmVx5q59A17c9M/N5IMSRUnsfGbSNLSooEn0SQgaRQmgXJHNHldFkQIQhAHa6VtE76oKKXohBFtkbeqILHZJA2Nkf+yinolsjkEc0AdQly0TSRC6KOpU/mokIDZCYHVCACOaEAWRR6osLbJ8tEtwiFZM3QdtEvUIotzKWyfRLbZAtLJHYqVkjsfRBzTufVK4RuPilsUDW/A/70b+w5YOS6GB/3qP/AA3KX0uPt6K+pQgIXneh3wnZQ1QLru4poSCaBpg2SQgTnWGigShx1VbnWXx/kZ9snqwx1CkcqXOQ91yq3Fed0BKiUJKguldBSVgaRNggm26qkf0WpCk96rJugm642JYi57hS0urnGxcOfou/Fx3KsZZaaZpZq+o9ioNSdHv5BekwrC4cKh4cYzSu8bzuVDAMNGGUQDxeeQXcei6PNfRxwmM1Hnyy2OaChC2yViU7WSDiOSmATuiI2TA6p2CaBEJgaIRdUFghLmmge6dgFEO1sCi+qCVghF0BEACklcqQFwgQKlqgDVSVCTCLKQCABTQE7FBJtrKqrpaeugMFXG2SMjmNvRTsQFJuo1VR847Q9lp8LcZqe81KToRqWjzXngvt1o+GWuAII1B5rx3aHsdHMHVWFANk3dDyd6IjwgKta/SyhJG+J7opWFj2nVp3CiNFR1MMxGowypbUUziD7zeTgvomF4tTYvS8WDR48cZ3aV8ra8jYrXRVs9FUtqKV5a8fI+qK+pjeyHbLmYJjlPi8VgeHVNHfjPPzC6RBvqopac0geilYJKCB3Qo5iSRayD5ohFCRSuoqIDuI4naykls+yaASRdF0VFF7J2SQBN0i4XACdrpWAQO6LpJhArA7pG9v9EygIIgao5qVtFEoGi9ktU9+SAJugJbaKQGiAQkTYI0tdRTQToo5k+SAFkeiSegCB3SSJsoh1ygncJZgEj5KJ1QTzN6pkqsKQRDB1QSlukAb7qh20UQTfZSSvfRQQqI89NK0blhXhKlpaZmbEhe+vYLzXaPDzE5tXE0cPZ9hsqjg4fWGKM0kxtC83HkVecPn4nEGRzSdD0WOaEOBINx5KkvmYLCZ9ugcVRon+ga6IOBcTc2Xs+zsXDwim6uBd+K8CA4uuSSTpqvpWHx8Glhj+wwD8F5Pl3/R24vbSVmee+VoO6yuN3u9V8ivSaEIWVVymwXn+0ozRQsHO5XfmK8/j5/rMTf+lf8AFe34k/3cuT081sdUZlrocPlxCvbTRmxOpceQXrYuzuExx8J8L3utbiZje6+u8jm9nsay5aOrd3T4HHkvTnTUbcvNeExfC5cJqbHvQv1jkHNd3s9jDahgpKh1nDwEndQd1IlO1lF1+SKL21UgbhQ1RmtogndLdK6LoAovohHJAgneyAEaIIGXKLuUmS5h5JFoO4Ug0WFioB0hDdBdWMfcBV2TGiovabqapa6ysDroJDdNRCeqgakFAFSVEwU1AFSuiHdNRugOQIgXumkSCldFQkbdVWstBKg4AoKkkyLJXQJNCaBITS0QLVNCEBcpfBO6CUFZbreyrmgjnYWysDgeqvKRRHn6zAAbupna/ZK4dTSPieWTMLSF7ohUzQRTtyTRhzfNVNPBcN7TpqFY5hY0OcHBp0vbS671ZghaTJSHMBrwzuqcNq4qQPgqYgGOOrXNvYqppxELqVtLRlrpYXZOYaCue+CVsQmyXiOmYa/NBVdMapItqglsb318lpgr5I9Hd5qyHzQg6ZbT1YzAAO5qLTV0Ts8Li5g6Lnglpu02K10+IuisJRmHVB1qbFaWrGSrZlcdLqyfDdM9M8Ob0XPdFTVbc0RAf5bqqOSsw+S7CXtHXVBe5rmG0jS0qO630+JUta3JUtDHnmifDHBpfTPD2nkgwIQ5rmG0gLShAk0IUAgoRqEQI0R5o5qg3S3AT+CECsEbhPlskUAfRGyLG6FFL0QeiaR8uaoW2yLa6p7bHRLyRC5oT5a8krIo5I+KQGqPNES0S5o5IQBOuqXmmlpzQHPRLW3mpf6KO1rIGoO0a4+RU9xdQl0iefuorm+6i1xqjZBQC6GA/wB6f+UVzwF0cB/vI/8AhH81L6XH29C3ZCYQvO9DuIug6KTQu7ibVKwUdVjxDE6fDoy6d4Lj4WA6lEbrX8goOewAhrgT5FeLre0dRVHukxs5Bui7mD5hQtlf4n66rjzZdcdunHjuuk5ype/VNzrqolfHy8169AlQJTukmgkc0JJoCRNkE2VMj1rQHvuqyVEnqVxcVxMuvBTnujRzhzXfi47nXPLLQxTFNTT07tNnPC39jsLE0jq6cd1mkYPM9V5qGF09QyJmpe6wX02jpm0dJFTsFsjdfVfUwwmE1HnuW2gm6RCEXV0ySlY2SAtqjzUAgEgboFkiqHdO6iPVNEO5RZARfVFSsleyL3S5oGhMHYWTA8kCCmAkmERMBOyjdGZBIJqIKLlUTQlrZBLgPCqLBopEqkShxIAOikNeaBuN3AKQPJQAN1NrCTdEDr3Azb8lbfKPNQyDONb2U0HGx3s9S41GXOAiqW+GRvP1XznE8NqcMqTBVxlpGzuTh5L664C6y19BTYnTGnq2BzDs7m09QUZfIQbKbXkbLbjWDzYNXOp5e9GdY3jZwXPGgVGqCd8UrZYnmORp0cDZe5wLtLFWtbT1xbHPbR/Jy+ftKtadiNCFGn1k7qDivHYL2mfS5aeucZIOT+bV69kjJo2ywvD43C4cCihRJTUSoBRJsi+qR1UCbq7Uqd1At74PKyBoglZLZPMAoi7j0CKNUIKSAugi5STugViEa30TAJKagW6aVtU1QKJ3Uxayg4lAIvZK+iRF0CzG6lmUToFG+qgnnDtkclC6dyimlmN1HUqbWi10BmKMx2AS5qXJANBI1US3KVIGyd7oEEyEgi9kQWRzSuldUTsEiUr3RqgRKimQlsgYPVJwZIx0cjQ5jhYtPNBHmkg8fjWEyYXJxIbvpHnuu+wehXHlkFtR8l9IeyOWJ0UrQ6N4s4FeKx3BX4dLnZd9M/Vrh7vkVWXPpAJ6uCNo8UgH4r6SxuUHy0Xz3AIr4tThw9+6+htPdPqvB8y+I78JHRZwBqepV7jos4FhZfMr0mhCSkVTOdSPJedxw3xO32Ymr0EviK87jR/4vN5NaPwX0Phzztw5vS7smB+kap/2YrX+K7s+IUlP45xn+yNSvJYXOYaioBcWiRoBsVokcwklrdF9R5W7EsVhrKV9OISWu2LuR6heWZI+nn7ps5p0K6bnN1J5LlS96VzvNB7zBsTZiVICTaZmjgefmt9188w+skoals0bjcHUdQvfxTNnhZNGbteLhRVijoUsyLqKaFG6d0DvqjZK6L9dkBmSzKFxfRSF1A84zZSbHzU2m+ygb3vuiwvcC3ogsSF0roBVEgT0VjSoXSug0Ap3WcPPVWNJtqgtTCiCmDdAyUZkrIsglmQoaoub+SGk0kiUXQNLdF7paoAhQcFIlLdQQKEyAkQgQKaSaoEKJv1RmKCRUblMEFDtkEUG6EXUCBuggFACCbIiJGtxuqKuigrG2qIwTycNCFpTsqPLVuDzUxLo7yx9RuFyXRZQ4Mke251bfQ/Be9t0C59dhEFXcgcKQ7OG3yTaPH5bJLdW0FRRPtMy7OT26grI5o3BursVpJkFJVAmhJUSa8xuDmEtI6LdBifuzi46rnpKDsPp4KluaMgeYUYaqtw53dJfGORXLjkfE7NG4hdCGvEgyyi3mg60OI0WItDJ2hjzpcqFRhUkYLqd4kb0XOlpY5hni38k6avrMPNjdzOYKIkbtOVwLT0Ka6cNZQ4k3LLZkh0F1RU4XNT3czvs5IrGi6VwDY6O6FNEOyXNCOibAkTqhFroHyQjmltZA0ckjdPdAgi1kfkiyKVvJH5It5WT5oElbyR+aDvqgX4FCf8AJJEPmkhPZBHkjmmUggClqnbzS/8AeiAvYeShKfon33IU76Kqp+peisCEck0DDV0cA/vB/wD4f81zV0uz39ul/wDD/mpl6XH29AhCF5nodsealdIkKFTUMpaaSoedGC69Dgx43jDMKphls+oeO43p5leJYytxatNmummcbnoP9FKumfWVJqJnXdKbNHQLuUszMMockLQ1xHePMpsSouzVPBZ9dUcWTcRs2+K7Xda0BoAaNAFwcHqJquuc5zzw2jpz9V3CV875Wdt09PHPAc5QJRe6hIbMuvHp2PMCbIVLOqle7ldIsSQk82CKqkeqSSSpv1KxYhVCkpXPB750aF048e10mV1GHGMQLL08Du8fEQuI93dDefNSuXOMjjc7qq93X6r62GExmo8mWW67/Y6kE+KcVzbtiF9eq9ze5uuB2NphFh0kzh3nmw9F391qsAuFkgQToizdrKTQAii6EFIC6BpFMDVSsiIIUi1IWG5RTGyYujMLaJZvJA7AJWtqkXKD5Ce6N0FrDc3sp3CrbewClsiHfVNQzHqnfzQTUhZVXUmlBYi6iHIurA7XTFxpdIa81IeSokGhSDbapAKV0EmAHyVhGVu6jEzvabK10W5v8EFLXXvpayiZyHW4Tz58lba6rN7kFER4j3HRnzQ0S5SXhu+luileyjnN72QcjtPhYxLCZLD6eEZ2H+S+ZDUjT1X2TMdiNDoV8mxOndT4nVQ28EpVRmTDrLoYHgs+N1RjhPDiYPpZXbN/1K9hD2RwWKMMeJ5nc3mS34BEeEa7RdPCsWqcNkzROL4z4o3bFT7Qdn34RIJoC6WjedHHdh6Fcpjh1+Kix9HoK+HEacSwPF/eZzaVpK+b0dZPQ1HHpnEOG4vo71XvsNro8SomVLNHHR7ehUaaLBIbnkpJG3NQQ13unYqJd3m2CsRSHmnsolRzE6KCe6iQnyQqFayNkwkUDF7JC/VAJujVArnolrfVOyCDZA0WRyRdAZQlbW3JO6Wg1QItFt0gwFM2togE2QRLB1StYKai6xQIKQ00SDdEW1QFk7pJ8roBCALoQNROye26V9dECsUiVK6iVAIJ0UdUaqgvZF7qLrjZCB+qC4bBROoskLdLIJ36pSxxzxOhnaHROFiClug7WRHmf0c/CMYjdcmFzrsf/Jeojku1VzRsnh4cmo5eSrjaYxZxvbmvH8rDeO3birQ91xuq26DU3SzJZhdfLsr1JpE2CWYAbqiWW+jVccLUU1kwjgmkJtladV5bjPq3OkebyEanqt/aOvDY20sZ1Or7Lgwz5XA3sRzX1vjcfXHdebly3TkkdHNmFwQdfNdOnqWTxkaAgXWXNFOLSNueqqdSOaS6nf8ABexwE89r2WRziTdTADcwmzAgaC3NVhRKk0r3WBgtwSlvuWn814eJhkkZG3d7g0L6FTxtpqeKnbtGwNUqxYhLMkT5qNRJAdrZQumgkouJJtyT5IGqBsaAFJK3RJAG6Lp30UCTdQSLtENuRooAgndWNsEEr2T5XCimDoqFa5HkrGuI3CiCjZBe14KmPJZwVcx/VBMG6aV2nYpG4KCVwokpICA3RYjmnbRIoFexTJ0SKQKgaEkkQXBRp1RbRRsimUWTSuqIONtwVFrweRCtSJuLIDKklZzedwkHX8vVAyEBLVAKgaSCUgUErJG4TBRdERDgTumRdMjoEhdBB0YILXNDmncEaLjV3Z+OUGSlPDcdch8JXdula6o8JNTS07yyoYWOHyKoIsvdVkEEsLhUMzxgchc/BecqMJa6N0uHy8do3jIs4Kppx0KxzC05XAtcNwd1Ett1VRFKydkkAgoQqiyGeSF12O+C3xVscoyyCx81zEIOpLRskGaI5XeSspsTrMPIbL34/PXRc2CpkhIs646Fb4auGe7XgA8wVB1Y5sPxRvKKQ/BZqrDZ6fWO8jPLdYpKEXzwHKfVW0uLVVE7JMMzOjtUFbTyIsfNSXVYcPxMXzcOU+dljqsNqKYk24jORCmhmQle2mx5goPXZUO+iAlbZP0QJPdHqjkgXkn8Ujv5oIN7IDkkNQbhO9kckUuqPJHWyWgKAIt6oG3kg76W+aCEQJHdB28vRJAzuj1StrcoQCXLonzRz8uaA+GioqdIj5q66pq/qPiisSOQ/NCOSAXU7Pf2yb9gfmuWAur2d/tNR+wPzUy9Lj7d1CaF5nodmy4Ha+oLKWKmBtxDmd6L0VhZeQ7XuzYqxnJkS9EeeuDTv/rkRJ0BXSxOX6QtvoVxwSLOG4Oi6UckddGGyG040B6pVxd3s8wtoM5PiOnkF0zsqqOIU9JFCB4RqrXmwXyOW7zr2Y+kQqp3XIYFY3w3Ko1dKXLEjSQNgFJnVRdrorGi2iUNVPNyrCVU46rKqzuvM4zU+0VuRvgj0Xo6l4igkkPutuvIRXllc93PVe/4mP8A6eflv8RmOVoaOajE0vla0b3SldmlJ5DRb8Cp/acSiZa4vqvfXnj3uGQ+zYZBGBra5Wu2l0+61oaBo0WTb1sFlSDCnawTL/RRzoHlujKi6LoJAeaPioFJBMkc1G46XUbJBtud0EiVHMUyolzR6oHc23UR3nZr7KL5crVKO+QaG6CWYpi6GtPNWgIK9UwpluibGgWzG5QRBUky3omGoEAp5XWTaLKWZURaxWBgChm6IDnl2oQWgAjeyg54abb+iHE22SDbC/NBeyYsiBA3T47nDUBVAXCkI+epVEw4k9FLhF+oKiWEAaILnAboGWNadXXtuq5HsvZqiARclxNzt0SEbA8vO5REhqRdfNO1At2jrwNO+vpGYueA0aX3XzbtOf8A9SVv7ao9B2HNsGqR1m/kvQgHdq872KdFFgVXLM9rGMmuXOOmyhiHaV8t4qD6GPYyO3Pp0QejmdCIXNqXR8Nws5riNQvneNUkFHWONFIZKc6jTw+S0ve5/eke6Rx95xus87nmJ+VvLmiMTHCy7vZjEm0VSYpnHgy7+RXnYyW+q0077SNKi7fTN7Fpu06g9UnBcbsvXPq6CSJ4N4HWDr7hddzlFIWLrEWU7KotJIsTa6ttZQIpZdOQQb9UiwHW5RUgbhFgjS1kFAggoQoAJW5lPWyR1VD+KV0WshAIukboQMpXHVF0rBA9UIubJIB11EN1Vh9VHZAbIOyCUroC6LlJO6AunySICV9EErqNkAoJyi6AOiV7qBzP3UthZQIqJKagTqqDzujMo3SLkEw66SgDZMlBK6Qdqo5rJX1ugtvokbEWUQUE6KWSzVWXSBu3loocQAq6/X5Ln11DVSXfRVJYfsO2K8eXxpb4dZyfq57zqeS5WJYxFSsLYjmmPTYLkV82JRv4dW+Vp/Bc1zST1XTj+NMbus5cv4JZHzSF7yXOJuShsdu842CYysF76qp7i46leuOFu1oms6zdlpjmOiwKzMTHodlUdJzmStDXgOH5LPJQkDNEbjoVmZM5u60xVR94XCK3YBC2KodPOzVo7lxseq9NHO2Q+IXK8vFUA+HbotkMxuC02KlV6G6LrPSz8VtneJXXWViV0wVEWQipEouluUKCYdZF7qKL2VE90KIKfogWUXumkmoJNJATuoXRdBYpXVTXB2oNwpgqiV0w7zUQExZQTa+yuD7gXKzKbXKi5AUQfNBJsgle6RKQcgkoFc3TuluhAJ2SQohhBCWayYN0VE+SAUzfkl6qgSsi+oCYKBWUTrupkqJQR5Ja8kyChQLXmjZNFtECQCi10yLjQ2REmlMqI0TuikhQeS0d0EoBvyIREttUrC97apgoVGGtw2nrGniNyv8AtN0K87X4TU0fey8SL7TdwvYFt1HTYgH1RHgC3S41BUSF6yvwSmqAXwt4Up5jY/Bedq6Kpo32njsDs4bFVGRHNSIUL6qhlCEclUF01EDrdSUF8FVLCQL3b5roMqIKluV7QD5rkJqq3SU3DdmhcQtlJjk1ORHUDOzbXkuZFVPZ3Xd4ea0s4VQNND0KDuZKHE25onBkhWCpoKimNy3M0cwueaaSF2aJzhZdCkx2WG0dU3OzbVBmB8/gmuwaehxNmencGSdFz6mhqKW+ZmZnUKDOl+SAR1QgNvijlZIJ6g3RCsbeSZ2R1skin80raoAuUfzQFtUvMp67XRoPRER9UI6o5XQCNyU/NIi42QA/FRT2PRHLyQJUVh+jaPNXjfms9Z4WjzRYyJKSjzQNdbs7/aan9lq5IXW7Oj+sVPo1TL0uPt3UJIXmeh3V5LtYw/pGOQ+F8dl62ywYzhjMRpS0C0rNWO816Hnr57azbLZhNKZ8Qib53KhLE6mndFUxFrx+K63ZqEOqZqi1gwZRdZzusdtYTy9F7yrefzU1W4XddfIt3XskDtiFVGLBTlNrAKN7BAwLvv0U1Fg7t+qms0RcVU5WOKrciuXjs/Cocl9ZDb4Lgw92FzufJb+0MuaoZEPdGq50jgyJrea+t8fHWEeTku6zkEHVes7FUJdK+qcO63Y+a8xYOAX0Ls/JTfomJlI4Gw7/AFuu7nHSO9kHS1k7DdCypHVIN1UrIQFrIGqCLhIIGUr2CaVkCzITsggHdBEm+yjwxe5Oqlayg51ggRaM452VgLuqg3rZTAQSaVZmF1ACyGh1yTtyQWXTBSBSKonyTBUApIJXUgSqxdMktANrnogubl5lIvAdZqge9sllsdEFwIKbW3VVypskLRsgteGtAtqojxDXRIOB3Q03KqJkm976KDnnopCyCgggDVK+vRBJtpqUErgEAdV8y7U//wAR1v7a+ktBzAu6r5r2nP8A+oq79tBhp6ghnAdK9sLnZi0bErWwN110Gy50ZsblTdMRsqjpOla1nILJNVgggEn0WTM6QG2Z1t9L2SCCVza6bH2KrRewKD2PYoAUla885APwXori4C5PZqkFNhEbrnNP3yLWsuus1owUsxLlEm+yYdrooJoSTRQhJIkoHdASQCglZIjVF0syAQkSi6BlRKZSQF0kWQgaaiCmSgEaJZgRuol7Q4MJ1IuAgZOqROmiRF0bIHfyQXZbaJXQdQipFwsErpWCEQxohwudUJX710DGiTinoouQRNlE2Q5Vm4QBKgSguUUEs7SSAQSN08ypDGBxLRYnfzUwgncFK6V0XURNLZIFMlAXRdK6EEZo454yyeNsjT1C4lb2cY67qR2T7jtvmu2SldVHhqqimpZMk8ZYep2KzmJe/kYyVhZK0PYdwVxK7AWG76N+U/YOqspp5YggqTDrY81rqKaWnflqIy3oeqzOYL3aVdsoOFiUgSFY5t2gnRV2VE2SFp6FbIawtIzG6wIBsivT0GINzDMQR+IXbje2QBzTcLwDJCw3abFdfDsYkgIa893ms6V6tO9lTT1EdQwOjddW+qyqV07qANypnZFJCRTCAUgbJJohpIQii4RdFgk4WQTboE1DN0TDtbKiwIQLIUDBTBskmCglfRSBJCgjMqJDdSUAVLdA7pqNrJgqBoCN0uaAKAlZGyoldIkAIukdQgM/UIuORUctkiD0QWWulZRZe26ldQR5pHRPZBQK10tU07oECeiaEIhG42Sv8FMpIELjndNNK6BE2SumdUAIBK1ymRZI9UCIUZImSsLJGB7TyKkHElSRHnq/Ab3fSOt1YVwZoXxPLJWFjh1Xvi26zVdFDVMyzRg+fMLWx4YiyS7Ndgc0N3095GD3eYXII3GtxuDyTaaRCCi1kBVAmkEIGmCQdCQUhdCK1RVr26P7wWgcOoHI/muchpLTdpsVStZjlp35onluvVdOkx17A2Orbnbtcrkx1Z0Eov5hXOYyZulnBEd11JR4i0vppAyToP8ARc2po6imcRI0ub9poWFhmpnB0byLdOS7FDj7i0R1TBI3qRqiuePIoXakoKPEG8SlkDH9P9ly6mjqKV1pWXH2goKvNBSBuEIDyRz1RultoqhkDzS3RYX0PzRb4qB+aRQOqOqA5bpWTslrdAIN0HzTQRWWs0DFsI+Sx1mrm+QVVmSIUklCgLrdnNZak+TVydOZXW7OeOp/dWcvS4+3bQkhcXd3gpIQuri52MYRDiUBDgGzDwvG6wYTROoKUxyfWEkkhCF5+e3q6cXtsJsFG90IXznqUuN3lLxd1CFUXcrBB2QhZqqyVFxtqdghCuPsrx1fOZq+SQ6i9gs0js7kIX28fUeDL2nEdFvw2sqKOoD6cnNzbyKEKke1w3F4a9obcRzjdh0W8uI5IQstUwUX1QhEO6EIQCEIQCi5CECv6I0tayEIAKQQhBIbJ+qEKoYTQhFCEIVEgbJg3KEKCQspA2QhAtU0IVQ9ANipRWJ0/FCEFrnAncKtzhfe6EII7778kaBCECJsV877X0kkGOSyub9HP3mu5FCERwkb7oQqLIKuanikiisA/c21VY0ACEIFe5sulgGGfpSutIS2CPV7rb+SEIR75gAa1rQA1osANrKW5QhZaJxDBqpAtHqhCgkDdGnJCEUKJQhAfNPmhCBIBQhAJIQgEaoQgSChCBDTdNCECUSBvzQhAXsEckIQCEIQCAhCCRsQoWshCACChCCDhooOQhBW4Ku+tkIQPTkg7IQogQEIQMJXQhAZtEsyEIEfVRBQhA7qDjqhCCqQMkaWyNDmnkQuVV4HG+76U5HfZOyEKxHFqaeendlnjIA2I2VGRrtihC0yg5hChZCFQJg2QhFjZRV01I8PjebX1C9Xh+JQ18fdIa8btKELNWNuyMyEKNJaFAQhRBdO10IRTukShCIkAkQhCKVrFSuhCoYTBQhQSumNUIQMpXQhEAOqne4QhVT2RdCFA8wCkQ0jfVCEQrIdshCqopoQgWqPJCEDUSUIQLn5J6IQgEWQhQpapoQhAjmhCIaNAhCBaJg2KEIDT4qJHIIQgR0S16oQgkDdBCEKiFisNbhVNWAlzMknJ7d0IVR5uuwqpoyczM8Y99qwkaXCEKoiPNNCEQIuhCB/j1QhCBWUmvcw3aSPQoQg0x1IOkgHqFJ8LJRdu3khCoIpJ6ZwLHmw812qLHWlojrGCRnO41QhFbJMIpMQbxcNmDHn3HFcipoqmjeWzxltveA0KEIVnvqgkAakD1QhEVPqY287qo1rBs0oQgXtzfsqTaxh309UIUFrJWuFwVYHA7IQgLIAtuhCBEfL1WSrtxB6IQqrORdKx6XQhQMMJNrfNdDCKmOidMZr9+1rBCFKsdA4vB7rHkeiEIXJvdf/2Q==;" vertex="1" parent="1">
          <mxGeometry x="-190" y="80" width="1589" height="1080" as="geometry" />
        </mxCell>
        <mxCell id="ZFCfkoxtxYTRv5SqpdLA-2" value="" style="endArrow=classic;html=1;rounded=0;strokeColor=#CC0000;strokeWidth=16;dashed=1;exitX=0.629;exitY=0.593;exitDx=0;exitDy=0;exitPerimeter=0;" edge="1" parent="1" source="ZFCfkoxtxYTRv5SqpdLA-1">
          <mxGeometry width="50" height="50" relative="1" as="geometry">
            <mxPoint x="970" y="740.2378686964796" as="sourcePoint" />
            <mxPoint x="1211" y="730" as="targetPoint" />
          </mxGeometry>
        </mxCell>
      </root>
    </mxGraphModel>
  </diagram>
</mxfile>
